<?xml version="1.0" encoding="UTF-8"?>
<svg version="1.1" xmlns="http://www.w3.org/2000/svg" width="7680" height="4320">
<path d="M0 0 C2534.4 0 5068.8 0 7680 0 C7680 1425.6 7680 2851.2 7680 4320 C5145.6 4320 2611.2 4320 0 4320 C0 2894.4 0 1468.8 0 0 Z " fill="#591E7D" transform="translate(0,0)"/>
<path d="M0 0 C0.33 0 0.66 0 1 0 C1 97.35 1 194.7 1 295 C-96.35 295 -193.7 295 -294 295 C-294 294.67 -294 294.34 -294 294 C-293.36425049 293.94054199 -292.72850098 293.88108398 -292.07348633 293.81982422 C-221.87299968 287.03046377 -156.58713684 259.75313895 -104.3359375 212.1171875 C-102.23081252 210.20919797 -100.09386366 208.34952931 -97.9375 206.5 C-73.86492002 185.48502594 -54.56237947 158.31057342 -39.33007812 130.42529297 C-38.12080687 128.22028184 -36.88555779 126.03265115 -35.640625 123.84765625 C-14.65583421 86.41060561 -3.42795435 42.5738282 0 0 Z " fill="#000000" transform="translate(7679,4025)"/>
<path d="M0 0 C0.33 0 0.66 0 1 0 C1.05945801 0.63574951 1.11891602 1.27149902 1.18017578 1.92651367 C7.96953623 72.12700032 35.24686105 137.41286316 82.8828125 189.6640625 C84.79080203 191.76918748 86.65047069 193.90613634 88.5 196.0625 C109.51497406 220.13507998 136.68942658 239.43762053 164.57470703 254.66992188 C166.77971816 255.87919313 168.96734885 257.11444221 171.15234375 258.359375 C208.58939439 279.34416579 252.4261718 290.57204565 295 294 C295 294.33 295 294.66 295 295 C197.65 295 100.3 295 0 295 C0 197.65 0 100.3 0 0 Z " fill="#000000" transform="translate(0,4025)"/>
</svg>
