<svg width="25" height="24" viewBox="0 0 25 24" fill="none" xmlns="http://www.w3.org/2000/svg">
<g clip-path="url(#clip0_1679_634)">
<g clip-path="url(#clip1_1679_634)">
<path d="M5.98828 4.44831C5.50849 4.78168 5.11985 5.22991 4.85781 5.75208C4.59578 6.27426 4.46871 6.85375 4.4882 7.43765C4.50769 8.02156 4.67312 8.59129 4.96939 9.09483C5.26566 9.59837 5.68333 10.0197 6.18428 10.3203M17.9883 4.44831C18.4515 4.77045 18.8299 5.19992 19.0911 5.70005C19.3523 6.20017 19.4886 6.75609 19.4883 7.32031C19.4883 8.51031 18.8953 9.56031 17.9883 10.1933M21.9883 21.8203V21.2203C21.9883 18.9803 21.9883 17.8603 21.5523 17.0043C21.1688 16.2517 20.5569 15.6398 19.8043 15.2563M1.98828 21.8203V21.2203C1.98828 18.9803 1.98828 17.8603 2.42428 17.0043C2.80777 16.2517 3.41967 15.6398 4.17228 15.2563M11.9883 10.8203C12.4479 10.8203 12.903 10.7298 13.3277 10.5539C13.7523 10.378 14.1381 10.1202 14.4632 9.79519C14.7882 9.47018 15.046 9.08434 15.2219 8.6597C15.3978 8.23507 15.4883 7.77994 15.4883 7.32031C15.4883 6.86069 15.3978 6.40556 15.2219 5.98092C15.046 5.55628 14.7882 5.17044 14.4632 4.84544C14.1381 4.52043 13.7523 4.26263 13.3277 4.08673C12.903 3.91084 12.4479 3.82031 11.9883 3.82031C11.06 3.82031 10.1698 4.18906 9.51341 4.84544C8.85703 5.50182 8.48828 6.39205 8.48828 7.32031C8.48828 8.24857 8.85703 9.13881 9.51341 9.79519C10.1698 10.4516 11.06 10.8203 11.9883 10.8203ZM5.98828 20.8203V21.8203H17.9883V20.8203C17.9883 18.9563 17.9883 18.0243 17.6833 17.2893C17.2775 16.3093 16.4991 15.5305 15.5193 15.1243C14.7843 14.8203 13.8523 14.8203 11.9883 14.8203C10.1243 14.8203 9.19228 14.8203 8.45828 15.1243C7.97292 15.3253 7.53191 15.62 7.16044 15.9915C6.78896 16.3629 6.4943 16.804 6.29328 17.2893C5.98828 18.0243 5.98828 18.9573 5.98828 20.8203Z" stroke="white" stroke-width="1.5" stroke-linecap="round" stroke-linejoin="round"/>
</g>
</g>
<defs>
<clipPath id="clip0_1679_634">
<rect width="24" height="23" fill="white" transform="translate(0.15625 0.820312)"/>
</clipPath>
<clipPath id="clip1_1679_634">
<rect width="24" height="24" fill="white" transform="translate(0.15625 0.820312)"/>
</clipPath>
</defs>
</svg>
