<svg width="25" height="25" viewBox="0 0 25 25" fill="none" xmlns="http://www.w3.org/2000/svg">
<path d="M12.3672 22.1641C16.4842 22.1641 19.8672 18.9011 19.8672 14.7131C19.8672 13.6851 19.8152 12.5831 19.2452 10.8701C18.6752 9.15706 18.5602 8.93606 17.9572 7.87806C17.7002 10.0361 16.3232 10.9361 15.9722 11.2051C15.9722 10.9251 15.1392 7.83206 13.8762 5.98106C12.6362 4.16406 10.9492 2.97106 9.96019 2.16406C9.96019 3.69906 9.52819 5.98106 8.91019 7.14406C8.29119 8.30606 8.17519 8.34906 7.40319 9.21406C6.63119 10.0791 6.27619 10.3461 5.63119 11.3961C4.98519 12.4461 4.86719 13.8451 4.86719 14.8731C4.86719 19.0611 8.25019 22.1641 12.3672 22.1641Z" stroke="white" stroke-width="1.5" stroke-linejoin="round"/>
</svg>
