<?xml version="1.0" encoding="UTF-8"?>
<svg version="1.1" xmlns="http://www.w3.org/2000/svg" width="254" height="65">
<path d="M0 0 C6.02069994 0.26758666 10.30705844 0.86574196 15 5 C18.26766511 9.42715918 18.39027646 13.1087351 17.61328125 18.3671875 C15.55275124 27.21302971 10.73218066 32.8222152 4.10229492 38.71435547 C0.55488531 41.96721482 -0.74295091 44.17318927 -1 49 C-2.175625 49.020625 -3.35125 49.04125 -4.5625 49.0625 C-9.25126804 49.55489414 -13.02282531 51.28945165 -17.1875 53.375 C-27.91533485 58.66073014 -39.05546258 61.60511424 -51 59 C-54.69497022 57.66533994 -57.27053465 55.80005877 -59.9375 52.875 C-62.22063139 46.69711508 -61.78001306 40.9710062 -59.0625 35 C-55.23404127 28.05611926 -49.59230732 22.53887763 -44 17 C-43.34 17.33 -42.68 17.66 -42 18 C-42.53109375 18.556875 -43.0621875 19.11375 -43.609375 19.6875 C-49.27595089 25.80905643 -54.81396177 32.25620318 -55 41 C-53.79382234 45.44778013 -52.90150901 47.41777543 -49 49.9375 C-41.73213975 52.44206918 -33.4370923 51.12257997 -26 50 C-26 49.34 -26 48.68 -26 48 C-26.721875 47.9175 -27.44375 47.835 -28.1875 47.75 C-31.71943208 46.80815144 -33.41374057 45.58625943 -36 43 C-38.6366641 37.8755444 -39.36346609 34.1676855 -39.29296875 28.31640625 C-39.28872391 27.61603745 -39.28447906 26.91566864 -39.28010559 26.19407654 C-39.26347156 23.98314 -39.2258518 21.77315543 -39.1875 19.5625 C-39.17243326 18.05274765 -39.15874836 16.54298084 -39.14648438 15.03320312 C-39.11361921 11.35516566 -39.06194582 7.67767593 -39 4 C-35.7 4 -32.4 4 -29 4 C-28.95101562 5.48371094 -28.90203125 6.96742187 -28.8515625 8.49609375 C-28.77647302 10.4765789 -28.70092792 12.45704682 -28.625 14.4375 C-28.5940625 15.41138672 -28.563125 16.38527344 -28.53125 17.38867188 C-28.51045704 27.9945703 -28.51045704 27.9945703 -24 37 C-17.10534251 38.48940384 -8.7621547 40.09876879 -2.3671875 36.53125 C0.01277307 34.49819893 2.00432638 32.41009778 4 30 C4.598125 29.27941406 5.19625 28.55882813 5.8125 27.81640625 C9.63173386 22.66594905 11.80189619 17.46038525 12 11 C11.42459882 7.51579143 11.42459882 7.51579143 9 5 C6.09910971 3.35992068 3.13587321 2.1176068 0 1 C0 0.67 0 0.34 0 0 Z " fill="#409EBB" transform="translate(62,5)"/>
<path d="M0 0 C10 0 10 0 12.5859375 1.9765625 C13.17632812 2.85054688 13.76671875 3.72453125 14.375 4.625 C15.28378906 5.91277344 15.28378906 5.91277344 16.2109375 7.2265625 C16.80132812 8.14179688 17.39171875 9.05703125 18 10 C19.98 12.97 19.98 12.97 22 16 C22.33 10.72 22.66 5.44 23 0 C25.97 0 28.94 0 32 0 C32 10.56 32 21.12 32 32 C22 32 22 32 19.76318359 30.53125 C19.31281738 29.8609375 18.86245117 29.190625 18.3984375 28.5 C17.88925781 27.778125 17.38007813 27.05625 16.85546875 26.3125 C16.36691406 25.549375 15.87835938 24.78625 15.375 24 C14.84777344 23.236875 14.32054687 22.47375 13.77734375 21.6875 C12.48800162 19.81209326 11.23971993 17.90857226 10 16 C9.67 21.28 9.34 26.56 9 32 C6.03 32 3.06 32 0 32 C0 21.44 0 10.88 0 0 Z " fill="#E98011" transform="translate(220,1)"/>
<path d="M0 0 C3.920909 3.37380541 6.35769549 5.86252365 7.0703125 11.15625 C7.30011117 17.3454941 7.06273878 21.58251213 2.6875 26.3125 C-1.7446432 30.31223898 -5.07435367 31.70437888 -11.125 31.58203125 C-15.90020553 30.99365771 -19.64415037 29.10203725 -22.92578125 25.58203125 C-25.89636316 21.38974522 -27.0586249 17.68598156 -26.73046875 12.55078125 C-25.70502068 7.05936306 -23.64401572 3.39435652 -19.3125 -0.125 C-12.78920657 -3.52254866 -6.55981716 -3.34179365 0 0 Z M-16.3125 9.3125 C-17.75680855 12.20111709 -17.68938506 14.10897701 -17.3125 17.3125 C-15.39583333 20.39583333 -15.39583333 20.39583333 -12.3125 22.3125 C-8.7134158 22.3125 -6.41191736 22.08209215 -3.4375 20 C-2.09846189 17.99144284 -1.52576211 16.72947056 -1.3125 14.3125 C-2.14442609 10.90160303 -2.91073091 9.61125138 -5.75 7.5 C-10.2669105 5.40679757 -12.40768498 6.64078446 -16.3125 9.3125 Z " fill="#E57D11" transform="translate(203.3125,2.6875)"/>
<path d="M0 0 C3.3 0 6.6 0 10 0 C10.04898438 1.48371094 10.09796875 2.96742187 10.1484375 4.49609375 C10.22352698 6.4765789 10.29907208 8.45704682 10.375 10.4375 C10.4059375 11.41138672 10.436875 12.38527344 10.46875 13.38867188 C10.48954296 23.9945703 10.48954296 23.9945703 15 33 C17.02713674 33.46072107 17.02713674 33.46072107 19.3515625 33.6328125 C20.20234375 33.71660156 21.053125 33.80039062 21.9296875 33.88671875 C22.81914063 33.96535156 23.70859375 34.04398438 24.625 34.125 C25.5221875 34.21136719 26.419375 34.29773437 27.34375 34.38671875 C29.5618748 34.5990924 31.78045069 34.80317085 34 35 C30.22439544 38.25061573 26.26910575 40.57990776 21.8125 42.75 C21.18408203 43.06582031 20.55566406 43.38164063 19.90820312 43.70703125 C15.26767113 46 15.26767113 46 13 46 C13 45.34 13 44.68 13 44 C12.278125 43.9175 11.55625 43.835 10.8125 43.75 C7.28056792 42.80815144 5.58625943 41.58625943 3 39 C0.3633359 33.8755444 -0.36346609 30.1676855 -0.29296875 24.31640625 C-0.28872391 23.61603745 -0.28447906 22.91566864 -0.28010559 22.19407654 C-0.26347156 19.98314 -0.2258518 17.77315543 -0.1875 15.5625 C-0.17243326 14.05274765 -0.15874836 12.54298084 -0.14648438 11.03320312 C-0.11361921 7.35516566 -0.06194582 3.67767593 0 0 Z " fill="#EB8212" transform="translate(23,9)"/>
<path d="M0 0 C3.3 0 6.6 0 10 0 C11.98 5.61 13.96 11.22 16 17 C18.4372552 10.5251697 18.4372552 10.5251697 20.6875 4 C21.120625 2.68 21.55375 1.36 22 0 C25.63 0 29.26 0 33 0 C26.27525531 19.28641664 26.27525531 19.28641664 23.625 26.6875 C23.32851562 27.51636719 23.03203125 28.34523438 22.7265625 29.19921875 C22 31 22 31 21 32 C19.31391034 32.07205511 17.62499341 32.08386068 15.9375 32.0625 C15.01839844 32.05347656 14.09929687 32.04445312 13.15234375 32.03515625 C12.44207031 32.02355469 11.73179687 32.01195312 11 32 C8.27234761 25.40958522 5.74426039 18.74393771 3.25 12.0625 C2.93216553 11.22162842 2.61433105 10.38075684 2.28686523 9.5144043 C1.99110596 8.71687744 1.69534668 7.91935059 1.390625 7.09765625 C1.12282227 6.38101807 0.85501953 5.66437988 0.57910156 4.92602539 C0 3 0 3 0 0 Z " fill="#E67E11" transform="translate(138,1)"/>
<path d="M0 0 C6.6 0 13.2 0 20 0 C20 2.64 20 5.28 20 8 C16.37 8 12.74 8 9 8 C9 9.32 9 10.64 9 12 C12.3 12 15.6 12 19 12 C19 14.64 19 17.28 19 20 C15.7 20 12.4 20 9 20 C9 21.32 9 22.64 9 24 C12.63 24 16.26 24 20 24 C20 26.64 20 29.28 20 32 C13.4 32 6.8 32 0 32 C0 21.44 0 10.88 0 0 Z " fill="#EA8011" transform="translate(111,1)"/>
<path d="M0 0 C3.20452995 1.74246316 5.02356979 3.14863594 7.0625 6.20703125 C7.84863611 11.55275677 8.06814773 15.83823295 4.8125 20.26953125 C-0.05746295 23.70064151 -2.79803712 24.83138341 -8.9375 24.20703125 C-12.87008474 22.5975258 -15.54232806 20.79978916 -17.9375 17.20703125 C-18.72363611 11.86130573 -18.94314773 7.57582955 -15.6875 3.14453125 C-10.62784039 -0.42022893 -6.27657398 -2.56883975 0 0 Z M-9.125 6.26953125 C-11.27751949 8.19960482 -11.27751949 8.19960482 -11.4375 11.70703125 C-11.25581521 15.18841859 -11.25581521 15.18841859 -9.25 17.20703125 C-6.32870636 18.47029336 -4.91951353 18.22719377 -1.9375 17.20703125 C0.41889408 15.26813879 0.41889408 15.26813879 0.4375 11.76953125 C0.42407531 8.20326792 0.42407531 8.20326792 -1.75 6.26953125 C-4.65354851 4.85923626 -6.22145149 4.85923626 -9.125 6.26953125 Z " fill="#1A5BB1" transform="translate(244.9375,37.79296875)"/>
<path d="M0 0 C1.98 0 3.96 0 6 0 C7.95927722 2.01320228 9.3527001 3.70101648 10.875 6 C11.2771875 6.57234375 11.679375 7.1446875 12.09375 7.734375 C13.0804061 9.14388371 14.04268106 10.57040372 15 12 C15.33 8.04 15.66 4.08 16 0 C17.98 0 19.96 0 22 0 C22 7.92 22 15.84 22 24 C15 24 15 24 12.56640625 21.59375 C11.90511719 20.5728125 11.24382812 19.551875 10.5625 18.5 C9.88316406 17.4790625 9.20382813 16.458125 8.50390625 15.40625 C8.00761719 14.6121875 7.51132813 13.818125 7 13 C6.67 16.63 6.34 20.26 6 24 C4.02 24 2.04 24 0 24 C0 16.08 0 8.16 0 0 Z " fill="#1B60BB" transform="translate(197,37)"/>
<path d="M0 0 C2.97 0 5.94 0 9 0 C9 7.92 9 15.84 9 24 C12.3 24 15.6 24 19 24 C19 26.64 19 29.28 19 32 C12.73 32 6.46 32 0 32 C0 21.44 0 10.88 0 0 Z " fill="#E77F11" transform="translate(83,1)"/>
<path d="M0 0 C1.98 0 3.96 0 6 0 C6 3.3 6 6.6 6 10 C8.97 10 11.94 10 15 10 C15 6.7 15 3.4 15 0 C17.31 0 19.62 0 22 0 C22 7.92 22 15.84 22 24 C19.69 24 17.38 24 15 24 C15 21.36 15 18.72 15 16 C12.03 16 9.06 16 6 16 C6 18.64 6 21.28 6 24 C4.02 24 2.04 24 0 24 C0 16.08 0 8.16 0 0 Z " fill="#1A5DB7" transform="translate(166,37)"/>
<path d="M0 0 C6.27 0 12.54 0 19 0 C19 1.98 19 3.96 19 6 C15.04 6 11.08 6 7 6 C7 7.32 7 8.64 7 10 C10.63 10 14.26 10 18 10 C18 11.65 18 13.3 18 15 C14.37 15 10.74 15 7 15 C7 16.32 7 17.64 7 19 C10.96 19 14.92 19 19 19 C19 20.65 19 22.3 19 24 C12.73 24 6.46 24 0 24 C0 16.08 0 8.16 0 0 Z " fill="#1A5EB9" transform="translate(110,37)"/>
<path d="M0 0 C0.99 0.66 1.98 1.32 3 2 C2.49396008 4.16874252 2.00016187 5.99967627 1 8 C0.29875 7.649375 -0.4025 7.29875 -1.125 6.9375 C-4.50268586 5.8360807 -6.58080593 6.20483859 -10 7 C-10.33 9.31 -10.66 11.62 -11 14 C-9.50041272 15.79679557 -9.50041272 15.79679557 -7 17 C-4.16836197 16.65955497 -1.74013964 15.86771089 1 15 C1.66 16.65 2.32 18.3 3 20 C-0.22006399 23.22006399 -3.44731181 23.71839503 -7.8203125 24.0625 C-12.15644491 23.93816645 -14.26001965 21.67998195 -17.3125 18.875 C-19.66592312 14.86546431 -19.92732295 11.54068477 -19 7 C-17.28315037 3.67888104 -14.90352425 1.57725161 -11.75 -0.4375 C-7.75530226 -1.25459726 -3.96505166 -0.92072361 0 0 Z " fill="#1A5AAF" transform="translate(155,38)"/>
<path d="M0 0 C6.93 0 13.86 0 21 0 C21 1.98 21 3.96 21 6 C18.69 6 16.38 6 14 6 C14 11.94 14 17.88 14 24 C11.69 24 9.38 24 7 24 C7 18.06 7 12.12 7 6 C4.69 6 2.38 6 0 6 C0 4.02 0 2.04 0 0 Z " fill="#195BB2" transform="translate(82,37)"/>
<path d="M0 0 C0 3.65148758 -0.94078473 4.77878039 -2.95703125 7.78125 C-3.57513672 8.70550781 -4.19324219 9.62976563 -4.83007812 10.58203125 C-5.48427734 11.54496094 -6.13847656 12.50789063 -6.8125 13.5 C-7.45509766 14.46292969 -8.09769531 15.42585938 -8.75976562 16.41796875 C-14.00392529 24.21084436 -14.00392529 24.21084436 -17 27 C-25.44646925 18.738041 -25.44646925 18.738041 -29 14 C-28.67 13.34 -28.34 12.68 -28 12 C-23.545 14.97 -23.545 14.97 -19 18 C-15.34722946 16.17361473 -14.19373962 15.35256623 -11.75 12.375 C-8.06115496 8.00599915 -4.08866366 3.99308451 0 0 Z " fill="#1954A2" transform="translate(63,16)"/>
<path d="M0 0 C0 4.07546013 -1.55304448 5.80536362 -4 9 C-5.875 10.0625 -5.875 10.0625 -8 11 C-10.06885869 12.59495756 -12.02165807 14.29143197 -14 16 C-12.34136495 11.67495164 -9.128959 8.90581175 -5.875 5.75 C-5.31167969 5.19570313 -4.74835937 4.64140625 -4.16796875 4.0703125 C-2.78313972 2.70895515 -1.39216796 1.35385141 0 0 Z " fill="#174887" transform="translate(63,16)"/>
<path d="M0 0 C0.66 0 1.32 0 2 0 C2 0.66 2 1.32 2 2 C2.99 2 3.98 2 5 2 C5 2.66 5 3.32 5 4 C4.34 4 3.68 4 3 4 C2.67 5.32 2.34 6.64 2 8 C0.68 8 -0.64 8 -2 8 C-2.33 6.02 -2.66 4.04 -3 2 C-2.01 2 -1.02 2 0 2 C0 1.34 0 0.68 0 0 Z " fill="#8D4D19" transform="translate(57,0)"/>
<path d="M0 0 C0 1.98 0 3.96 0 6 C-2.64 6 -5.28 6 -8 6 C-2.15384615 0 -2.15384615 0 0 0 Z " fill="#EF8818" transform="translate(61,48)"/>
<path d="M0 0 C0.66 0.33 1.32 0.66 2 1 C0.70910257 2.4590143 -0.58274439 3.91718851 -1.875 5.375 C-2.59429688 6.18710937 -3.31359375 6.99921875 -4.0546875 7.8359375 C-5.33295938 9.25795079 -6.64794586 10.64794586 -8 12 C-8.33 11.01 -8.66 10.02 -9 9 C-6.03 6.03 -3.06 3.06 0 0 Z " fill="#2B6C82" transform="translate(18,22)"/>
<path d="M0 0 C1.45922693 0.11409593 2.91740598 0.24165544 4.375 0.375 C5.59316406 0.47941406 5.59316406 0.47941406 6.8359375 0.5859375 C9 1 9 1 11 3 C7.59068103 4.13643966 6.99664544 3.86747764 3.8125 2.5625 C3.09707031 2.27503906 2.38164063 1.98757812 1.64453125 1.69140625 C1.10183594 1.46324219 0.55914062 1.23507813 0 1 C0 0.67 0 0.34 0 0 Z " fill="#2A6980" transform="translate(62,5)"/>
<path d="M0 0 C0.99 0.33 1.98 0.66 3 1 C2.67 1.99 2.34 2.98 2 4 C1.01 4 0.02 4 -1 4 C-0.67 2.68 -0.34 1.36 0 0 Z " fill="#814411" transform="translate(64,11)"/>
<path d="M0 0 C1.32 0 2.64 0 4 0 C4 0.99 4 1.98 4 3 C2.68 3 1.36 3 0 3 C0 2.01 0 1.02 0 0 Z " fill="#CBCDCE" transform="translate(64,0)"/>
<path d="" fill="#0F3460" transform="translate(0,0)"/>
</svg>
