<svg width="29" height="29" viewBox="0 0 29 29" fill="none" xmlns="http://www.w3.org/2000/svg">
<g clip-path="url(#clip0_1685_30466)">
<path d="M6.98291 17.8494C6.98132 18.5423 6.70527 19.2064 6.21518 19.6964C5.72509 20.1863 5.06087 20.4621 4.36791 20.4634C3.67512 20.4618 3.01116 20.1859 2.52128 19.696C2.0314 19.2061 1.75549 18.5422 1.75391 17.8494C1.75523 17.1564 2.03102 16.4922 2.52093 16.0021C3.01083 15.512 3.67494 15.236 4.36791 15.2344H6.98291V17.8494ZM8.29891 17.8494C8.30023 17.1562 8.57616 16.4919 9.06628 16.0018C9.5564 15.5116 10.2208 15.2357 10.9139 15.2344C11.6069 15.236 12.271 15.512 12.7609 16.0021C13.2508 16.4922 13.5266 17.1564 13.5279 17.8494V24.3954C13.5266 25.0883 13.2508 25.7526 12.7609 26.2426C12.271 26.7327 11.6069 27.0088 10.9139 27.0104C10.2208 27.0091 9.5564 26.7331 9.06628 26.243C8.57616 25.7529 8.30023 25.0885 8.29891 24.3954V17.8494Z" fill="#E01E5A"/>
<path d="M10.9129 7.34619C10.2198 7.34487 9.5554 7.06893 9.06528 6.57881C8.57516 6.08869 8.29923 5.42432 8.29791 4.73119C8.29949 4.03823 8.57554 3.37411 9.06563 2.88421C9.55573 2.3943 10.2199 2.11851 10.9129 2.11719C11.6057 2.11877 12.2697 2.39468 12.7595 2.88456C13.2494 3.37444 13.5253 4.0384 13.5269 4.73119V7.34619H10.9129ZM10.9129 8.66319C11.606 8.66451 12.2704 8.94044 12.7605 9.43056C13.2507 9.92068 13.5266 10.5851 13.5279 11.2782C13.5263 11.9711 13.2503 12.6353 12.7602 13.1252C12.2701 13.6151 11.6059 13.8909 10.9129 13.8922H4.36791C3.67512 13.8906 3.01116 13.6147 2.52128 13.1248C2.0314 12.6349 1.75549 11.971 1.75391 11.2782C1.75523 10.5852 2.03102 9.92101 2.52093 9.43092C3.01083 8.94082 3.67494 8.66477 4.36791 8.66319H10.9129Z" fill="#36C5F0"/>
<path d="M21.4132 11.2782C21.4145 10.5852 21.6903 9.92101 22.1802 9.43092C22.6701 8.94082 23.3342 8.66477 24.0272 8.66319C24.7203 8.66451 25.3847 8.94044 25.8748 9.43056C26.3649 9.92068 26.6409 10.5851 26.6422 11.2782C26.6406 11.9711 26.3646 12.6353 25.8745 13.1252C25.3844 13.6151 24.7201 13.8909 24.0272 13.8922H21.4132V11.2782ZM20.0962 11.2782C20.0946 11.971 19.8187 12.6349 19.3288 13.1248C18.8389 13.6147 18.175 13.8906 17.4822 13.8922C16.7892 13.8909 16.125 13.6151 15.6349 13.1252C15.1448 12.6353 14.8688 11.9711 14.8672 11.2782V4.73119C14.8688 4.03823 15.1448 3.37411 15.6349 2.88421C16.125 2.3943 16.7892 2.11851 17.4822 2.11719C18.175 2.11877 18.8389 2.39468 19.3288 2.88456C19.8187 3.37444 20.0946 4.0384 20.0962 4.73119V11.2782Z" fill="#2EB67D"/>
<path d="M17.4822 21.7814C18.175 21.783 18.8389 22.0589 19.3288 22.5487C19.8187 23.0386 20.0946 23.7026 20.0962 24.3954C20.0949 25.0883 19.8191 25.7526 19.3292 26.2426C18.8393 26.7327 18.1751 27.0088 17.4822 27.0104C16.7891 27.0091 16.1247 26.7331 15.6346 26.243C15.1444 25.7529 14.8685 25.0885 14.8672 24.3954V21.7814H17.4822ZM17.4822 20.4634C16.7892 20.4621 16.125 20.1863 15.6349 19.6964C15.1448 19.2064 14.8688 18.5423 14.8672 17.8494C14.8685 17.1562 15.1444 16.4919 15.6346 16.0018C16.1247 15.5116 16.7891 15.2357 17.4822 15.2344H24.0282C24.7211 15.236 25.3853 15.512 25.8752 16.0021C26.3651 16.4922 26.6409 17.1564 26.6422 17.8494C26.6406 18.5422 26.3647 19.2061 25.8748 19.696C25.3849 20.1859 24.721 20.4618 24.0282 20.4634H17.4822Z" fill="#ECB22E"/>
</g>
<defs>
<clipPath id="clip0_1685_30466">
<rect width="28" height="28" fill="white" transform="translate(0.199219 0.5625)"/>
</clipPath>
</defs>
</svg>
