<svg width="28" height="29" viewBox="0 0 28 29" fill="none" xmlns="http://www.w3.org/2000/svg">
<path fill-rule="evenodd" clip-rule="evenodd" d="M4.66669 2.11719H23.3327C24.1569 2.11956 24.9466 2.44795 25.5295 3.03065C26.1124 3.61334 26.441 4.403 26.4437 5.22719V23.8942C26.4416 24.7185 26.1133 25.5086 25.5306 26.0917C24.9479 26.6748 24.158 27.0035 23.3337 27.0062H4.66569C3.84116 27.0038 3.05109 26.6751 2.46815 26.092C1.88521 25.5089 1.5568 24.7187 1.55469 23.8942V19.7142L1.59869 19.7402C2.65969 20.3582 5.16969 21.8202 5.78469 22.1672C6.15669 22.3772 6.51269 22.3722 6.87169 22.1652L11.8177 19.3182L11.8297 19.3122L11.8767 19.2852L16.9437 16.3682C17.1587 16.2442 17.1697 15.8622 16.9287 15.7242L16.7587 15.6282C16.5117 15.4882 16.1937 15.3062 16.0587 15.2262C15.9393 15.1612 15.8053 15.128 15.6694 15.1298C15.5335 15.1315 15.4003 15.1682 15.2827 15.2362C15.1627 15.3052 7.11469 19.9322 6.84569 20.0852C6.68714 20.1757 6.50774 20.2233 6.32519 20.2233C6.14263 20.2233 5.96323 20.1757 5.80469 20.0852L1.55469 17.6152V15.5212L1.59869 15.5472C2.65969 16.1652 5.16969 17.6272 5.78469 17.9732C6.15669 18.1832 6.51269 18.1782 6.87169 17.9712L11.8227 15.1212L11.8427 15.1112L11.8567 15.1022L11.8647 15.0972L16.9437 12.1752C17.1587 12.0502 17.1697 11.6682 16.9287 11.5312L16.7587 11.4342C16.5137 11.2942 16.1937 11.1122 16.0587 11.0332C15.9394 10.9682 15.8054 10.9348 15.6695 10.9364C15.5336 10.938 15.4005 10.9744 15.2827 11.0422L6.84569 15.8922C6.68705 15.9825 6.50761 16.03 6.32506 16.0298C6.1425 16.0296 5.96315 15.9818 5.80469 15.8912L1.55469 13.4222V11.3272L1.59769 11.3532C2.65869 11.9712 5.16969 13.4332 5.78469 13.7802C6.15669 13.9902 6.51269 13.9852 6.87169 13.7782L11.8287 10.9252L11.8347 10.9212L16.9437 7.98119C17.1587 7.85719 17.1697 7.47519 16.9287 7.33719L16.7587 7.24119C16.5137 7.10119 16.1937 6.91919 16.0587 6.83919C15.9393 6.77422 15.8053 6.74102 15.6694 6.74277C15.5335 6.74452 15.4003 6.78117 15.2827 6.84919C15.1627 6.91819 7.11469 11.5452 6.84569 11.6982C6.68714 11.7887 6.50774 11.8363 6.32519 11.8363C6.14263 11.8363 5.96323 11.7887 5.80469 11.6982L1.55469 9.22819V5.22819C1.55706 4.404 1.88545 3.61424 2.46815 3.03135C3.05084 2.44847 3.8405 2.11983 4.66469 2.11719H4.66669Z" fill="#E44232"/>
<path d="M6.87169 13.7777L11.8287 10.9247L11.8347 10.9207L16.9437 7.98067C17.1587 7.85667 17.1697 7.47467 16.9287 7.33667L16.7587 7.24067C16.5137 7.10067 16.1937 6.91867 16.0587 6.83867C15.9393 6.7737 15.8053 6.7405 15.6694 6.74225C15.5335 6.744 15.4003 6.78065 15.2827 6.84867C15.1627 6.91767 7.11469 11.5447 6.84569 11.6977C6.68714 11.7882 6.50774 11.8358 6.32519 11.8358C6.14263 11.8358 5.96323 11.7882 5.80469 11.6977L1.55469 9.22767V11.3277L1.59769 11.3527C2.65869 11.9707 5.16969 13.4327 5.78469 13.7797C6.15669 13.9897 6.51269 13.9847 6.87169 13.7777Z" fill="white"/>
<path d="M6.87169 17.9725L11.8227 15.1225L11.8417 15.1125L16.9437 12.1765C17.1587 12.0515 17.1697 11.6695 16.9287 11.5325L16.7587 11.4355C16.5137 11.2955 16.1937 11.1135 16.0587 11.0345C15.9394 10.9693 15.8054 10.936 15.6695 10.9376C15.5336 10.9391 15.4004 10.9756 15.2827 11.0435C15.1627 11.1135 7.11469 15.7405 6.84569 15.8935C6.68714 15.984 6.50774 16.0316 6.32519 16.0316C6.14263 16.0316 5.96323 15.984 5.80469 15.8935L1.55469 13.4235V15.5225L1.59869 15.5485C2.65969 16.1665 5.16969 17.6285 5.78469 17.9745C6.15669 18.1845 6.51269 18.1795 6.87169 17.9725Z" fill="white"/>
<path d="M11.8297 19.3067L6.87169 22.1607C6.51169 22.3677 6.15669 22.3727 5.78469 22.1627C4.38668 21.3583 2.99134 20.5493 1.59869 19.7357L1.55469 19.7097V17.6117C1.55469 17.6117 5.55069 19.9337 5.80469 20.0797C6.12469 20.2657 6.52369 20.2637 6.84469 20.0797C7.11469 19.9277 15.1617 15.2997 15.2827 15.2307C15.4003 15.163 15.5333 15.1266 15.669 15.1251C15.8047 15.1235 15.9385 15.1567 16.0577 15.2217C16.1937 15.3017 16.5137 15.4827 16.7587 15.6237L16.9287 15.7197C17.1697 15.8577 17.1587 16.2397 16.9437 16.3637L11.8297 19.3067Z" fill="white"/>
</svg>
