<svg width="30" height="36" viewBox="0 0 30 36" fill="none" xmlns="http://www.w3.org/2000/svg">
<path d="M22.6184 35.7996C21.9403 35.5264 21.456 34.9158 21.343 34.1928C21.2622 33.775 21.343 33.4858 21.9888 32.3288C24.4104 27.9904 25.6536 23.0895 25.589 18.1244C25.6536 13.3039 24.475 8.59585 22.1502 4.36987C21.8112 3.66286 21.5044 2.98799 21.2461 2.26491C21.343 1.65432 21.6497 1.09192 22.1502 0.754487C22.8767 0.368846 23.7646 0.449188 24.4266 0.899102C24.8786 1.47756 25.2661 2.05603 25.589 2.7309C27.326 6.04243 28.5093 9.61355 29.0923 13.3039C29.4637 16.2123 29.5121 19.1688 29.2376 22.0933C28.7372 25.8533 27.6232 29.4847 25.9119 32.8752C24.8786 34.9319 24.2974 35.7996 23.6839 35.7996H22.6184ZM15.5794 32.2485C14.6591 31.9914 14.0779 31.0594 14.2717 30.1275C14.2717 29.9346 14.7722 29.0509 15.2242 28.1511C17.1293 24.5035 17.9526 20.39 17.5813 16.2926C17.3553 13.3521 16.4996 10.4919 15.095 7.90491C14.0779 5.8803 14.0134 5.55893 14.6107 4.69124C15.3211 3.90389 16.4996 3.79141 17.3714 4.46628C18.5338 6.16953 19.4541 8.03346 20.1321 9.9938C22.1986 16.0837 21.8757 22.72 19.228 28.5688C17.8719 31.6058 16.9194 32.5859 15.5794 32.1682V32.2485ZM8.31435 28.6652C8.02688 28.5368 7.77188 28.3461 7.56797 28.107C7.36407 27.8679 7.21641 27.5865 7.1358 27.2834C7.1358 26.962 7.1358 26.5442 7.8623 25.2588C9.04581 23.1232 9.66652 20.724 9.66652 18.2851C9.66652 15.8462 9.04581 13.447 7.8623 11.3114C6.81291 9.28679 6.81291 8.86901 7.66857 8.09773C7.97532 7.74423 8.42736 7.56748 8.9117 7.63175C9.94494 7.63175 10.5261 8.12987 11.398 9.94559C12.7707 12.4541 13.4817 15.2681 13.4644 18.1244C13.529 21.0328 12.8187 23.9251 11.4141 26.48C10.5423 28.1671 10.1064 28.5688 9.23459 28.7135C8.92784 28.7456 8.60495 28.7135 8.31435 28.5688V28.6652ZM1.51751 25.2427C0.984741 24.9856 0.564984 24.5517 0.355105 23.9893C0.19366 23.427 0.355105 22.9449 1.00089 21.9165C1.80811 20.8239 2.19558 19.4741 2.11486 18.1244C2.22787 16.7586 1.85654 15.4088 1.06546 14.2841C0.797499 13.879 0.560063 13.4547 0.355105 13.0147C0.177515 12.0023 0.855585 11.0382 1.96956 10.8454C2.84136 10.6847 3.45485 11.0543 4.26208 12.2755C5.40743 14.0102 6.01773 16.0406 6.01773 18.1164C6.01773 20.1921 5.40743 22.2225 4.26208 23.9572C3.43871 25.1945 2.50233 25.5641 1.53365 25.2427H1.51751Z" fill="white"/>
</svg>
