<?xml version="1.0" standalone="no"?>
<!DOCTYPE svg PUBLIC "-//W3C//DTD SVG 20010904//EN"
 "http://www.w3.org/TR/2001/REC-SVG-20010904/DTD/svg10.dtd">
<svg version="1.0" xmlns="http://www.w3.org/2000/svg"
 width="7672.000000pt" height="2812.000000pt" viewBox="0 0 7672.000000 2812.000000"
 preserveAspectRatio="xMidYMid meet">

<g transform="translate(0.000000,2812.000000) scale(0.100000,-0.100000)"
fill="#000000" stroke="none">
<path d="M0 17793 l0 -10328 242 -240 c348 -345 631 -592 1031 -902 1393
-1082 3226 -2059 5462 -2913 3485 -1330 7808 -2273 12055 -2629 783 -66 1696
-120 2295 -136 121 -3 245 -8 275 -10 156 -12 1479 -16 1895 -6 1585 39 2709
139 4405 392 1570 233 2855 467 6190 1124 2196 433 3287 639 4410 835 2830
493 5156 774 7320 885 3163 162 6012 -50 8685 -646 648 -145 1263 -308 2050
-544 644 -193 1098 -326 1578 -459 4558 -1273 8967 -2024 12927 -2201 297 -14
582 -16 1735 -12 1445 4 1430 4 2000 52 598 51 1233 157 1995 333 l165 39 3
13846 2 13847 -38360 0 -38360 0 0 -10327z"/>
</g>
</svg>
