<?xml version="1.0" standalone="no"?>
<!DOCTYPE svg PUBLIC "-//W3C//DTD SVG 20010904//EN"
 "http://www.w3.org/TR/2001/REC-SVG-20010904/DTD/svg10.dtd">
<svg version="1.0" xmlns="http://www.w3.org/2000/svg"
 width="160.000000pt" height="160.000000pt" viewBox="0 0 160.000000 160.000000"
 preserveAspectRatio="xMidYMid meet">

<g transform="translate(0.000000,160.000000) scale(0.100000,-0.100000)"
fill="#000000" stroke="none">
<path d="M719 1406 c-49 -13 -109 -50 -109 -68 0 -6 -3 -8 -7 -5 -8 9 -35 -29
-49 -70 -10 -29 -10 -119 1 -200 2 -23 0 -33 -10 -33 -7 0 -15 -8 -17 -17 -4
-20 29 -135 41 -143 17 -11 50 -148 50 -210 1 -127 -4 -117 82 -173 43 -29 81
-60 85 -69 4 -14 10 -16 23 -8 10 5 21 6 25 3 3 -3 6 -1 6 5 0 6 10 17 23 23
18 9 20 9 10 -2 -19 -19 -16 -38 5 -35 11 2 17 12 17 29 1 15 22 53 53 93 48
63 51 71 46 108 -4 23 -10 45 -15 50 -19 21 1 171 25 191 15 13 50 141 42 154
-4 6 -12 8 -19 5 -9 -3 -11 21 -9 98 3 88 0 110 -18 152 -13 27 -30 51 -41 53
-10 3 -19 9 -19 14 0 14 -92 56 -135 61 -22 3 -61 0 -86 -6z m148 -192 c7 -10
13 -29 13 -44 0 -36 26 -69 74 -92 22 -11 30 -16 16 -13 -66 19 -108 17 -129
-4 -12 -12 -21 -17 -21 -11 0 5 -12 9 -27 9 -16 -1 -41 2 -58 6 -40 10 -104
10 -135 1 -22 -6 -21 -5 5 10 16 9 35 23 43 30 7 8 17 14 21 14 3 0 8 21 9 47
2 49 10 59 52 69 14 3 31 9 39 13 19 10 81 -12 98 -35z m-274 -179 c-3 -9 -8
-14 -10 -11 -3 3 -2 9 2 15 9 16 15 13 8 -4z m94 -1 c-3 -3 -12 -4 -19 -1 -8
3 -5 6 6 6 11 1 17 -2 13 -5z m115 -8 c10 -7 19 -23 21 -35 2 -12 11 -31 20
-42 9 -10 17 -24 17 -29 0 -11 -133 -14 -143 -4 -4 4 2 19 13 34 11 16 20 33
20 39 0 13 22 51 30 51 3 0 13 -7 22 -14z m-62 -40 c0 -7 -72 -91 -84 -98 -19
-11 -37 6 -46 45 -8 39 2 50 38 40 25 -6 65 14 56 28 -4 7 1 7 15 0 11 -7 21
-13 21 -15z m180 -16 c30 0 36 -4 37 -22 3 -39 -15 -50 -51 -32 -45 23 -75 54
-69 70 4 11 8 11 26 -1 12 -8 37 -15 57 -15z m-210 -94 c0 -2 -9 -6 -20 -9
-11 -3 -18 -1 -14 4 5 9 34 13 34 5z m80 -26 c0 -5 -15 -10 -32 -9 -28 0 -30
2 -13 9 28 12 45 12 45 0z m70 -41 c0 -22 -36 -49 -67 -49 -32 0 -82 35 -69
47 18 19 136 20 136 2z m2 -111 c-17 -17 -100 -22 -117 -8 -27 22 -16 29 53
32 66 3 84 -4 64 -24z"/>
<path d="M707 424 c-4 -4 -7 -14 -7 -23 0 -11 3 -12 11 -4 6 6 10 16 7 23 -2
6 -7 8 -11 4z"/>
</g>
</svg>
