<?xml version="1.0" standalone="no"?>
<!DOCTYPE svg PUBLIC "-//W3C//DTD SVG 20010904//EN"
 "http://www.w3.org/TR/2001/REC-SVG-20010904/DTD/svg10.dtd">
<svg version="1.0" xmlns="http://www.w3.org/2000/svg"
 width="200.000000pt" height="200.000000pt" viewBox="0 0 200.000000 200.000000"
 preserveAspectRatio="xMidYMid meet">

<g transform="translate(0.000000,200.000000) scale(0.100000,-0.100000)"
fill="#000000" stroke="none">
<path d="M785 1991 c-34 -11 -125 -61 -125 -69 0 -4 -17 -24 -37 -43 -21 -20
-75 -72 -121 -116 l-82 -81 -39 37 c-52 48 -68 61 -81 61 -5 0 -10 8 -10 19 0
28 -55 36 -80 11 -19 -19 -19 -20 5 -87 14 -37 32 -73 40 -79 9 -7 15 -16 14
-20 -4 -21 24 -74 43 -79 11 -4 17 -13 14 -21 -12 -31 5 -11 20 24 9 20 18 32
21 25 2 -6 -10 -41 -26 -77 -34 -72 -40 -136 -20 -240 9 -51 42 -127 72 -164
11 -14 12 -21 23 -105 5 -37 10 -47 23 -45 21 4 41 50 42 97 0 35 1 34 23 -24
35 -90 34 -88 71 -113 42 -29 92 -41 170 -42 57 0 58 -1 37 -16 -12 -8 -26
-13 -31 -9 -5 3 -17 -3 -27 -12 -10 -10 -31 -18 -47 -18 -25 0 -31 -6 -42 -40
-14 -40 -9 -54 23 -55 18 0 15 -18 -5 -23 -17 -4 -17 -5 0 -6 15 -1 22 -18 18
-43 0 -5 5 -8 12 -8 16 0 44 32 41 48 -1 7 0 8 3 2 2 -5 15 -10 28 -10 18 0
26 -8 35 -35 6 -19 18 -35 25 -35 7 0 20 -3 29 -6 11 -4 16 -1 16 11 0 9 -4
13 -10 10 -6 -3 -10 4 -10 17 l1 23 20 -24 c19 -24 21 -24 55 -8 44 21 50 21
82 -2 27 -19 33 -21 52 -21 16 0 12 -21 -7 -37 -10 -8 -12 -11 -4 -7 9 5 12 3
7 -4 -4 -7 -15 -12 -24 -13 -12 0 -10 -3 7 -10 15 -6 45 -5 85 2 33 6 76 13
94 14 38 3 68 21 116 70 19 19 38 30 41 25 3 -6 1 -10 -4 -10 -6 0 -11 -4 -11
-8 0 -15 47 -5 67 14 12 10 24 38 28 61 4 24 10 45 15 48 12 8 33 -23 27 -40
-4 -8 -1 -17 4 -21 7 -4 2 -15 -11 -28 -11 -13 -22 -37 -25 -54 -2 -17 -6 -36
-10 -41 -3 -6 -8 -34 -11 -63 -4 -50 -10 -67 -49 -150 -30 -64 -48 -78 -115
-94 -36 -8 -112 -17 -169 -20 -97 -4 -107 -3 -146 21 -23 13 -50 39 -59 57 -9
18 -25 47 -36 63 -10 17 -19 38 -19 47 -1 9 -6 18 -11 20 -6 2 -12 14 -14 28
-4 37 -16 60 -33 60 -10 0 -12 6 -8 20 5 14 2 20 -9 20 -9 0 -16 8 -17 18 0
14 -2 14 -8 -3 -8 -19 -8 -19 -15 2 -4 13 -4 27 -1 33 4 7 -2 7 -19 0 -28 -10
-72 -50 -56 -50 17 0 33 -46 26 -74 -6 -24 -11 -26 -61 -26 -32 0 -55 -4 -55
-11 0 -5 -4 -7 -10 -4 -5 3 -10 -2 -10 -12 0 -27 -38 39 -42 73 l-3 29 -140 7
c-77 4 -188 5 -247 1 l-108 -6 0 -273 0 -274 477 0 477 0 -49 51 -50 50 78
-37 79 -37 116 6 c105 5 120 4 142 -13 14 -11 28 -20 31 -20 12 0 212 207 227
235 l16 30 12 -85 c7 -47 13 -106 14 -132 l0 -48 215 0 215 0 0 290 0 290 -72
-1 c-40 0 -111 -4 -158 -7 l-86 -7 21 88 c17 69 29 96 57 127 19 22 29 40 22
40 -14 0 -44 38 -44 56 0 6 9 14 20 17 14 3 18 10 14 21 -4 9 -12 15 -18 13
-6 -2 -16 5 -23 17 l-12 21 -1 -22 c0 -13 -4 -23 -10 -23 -15 0 -12 -50 3 -56
8 -3 14 -11 14 -19 0 -11 -5 -12 -20 -3 -14 7 -17 7 -13 -1 4 -6 2 -11 -3 -11
-6 0 -11 4 -11 9 0 5 -30 21 -66 35 -47 19 -75 25 -99 20 -35 -6 -75 2 -75 16
0 4 26 11 58 15 31 3 77 17 101 31 24 13 48 21 53 18 6 -4 14 0 19 7 8 12 11
12 19 -1 7 -11 10 -11 10 -2 0 7 4 10 10 7 5 -3 17 12 26 34 9 23 19 41 23 41
5 0 14 19 21 43 8 23 22 53 32 67 14 19 20 50 23 120 5 115 -1 131 -125 340
-62 104 -95 149 -122 167 -21 14 -42 22 -49 17 -8 -4 -9 -3 -5 4 4 7 -10 13
-42 18 -44 5 -50 10 -68 46 -17 37 -27 43 -114 78 l-95 38 -205 0 c-113 0
-214 -3 -225 -7z m546 -131 c15 0 31 -4 34 -10 3 -5 14 -10 23 -10 10 0 39
-18 65 -39 26 -22 51 -41 55 -43 4 -2 17 -23 29 -48 45 -91 59 -135 53 -165
-3 -16 -2 -43 3 -60 5 -16 11 -49 13 -72 l4 -43 -39 0 c-26 0 -41 5 -45 15 -8
23 -68 45 -121 45 -69 0 -196 -28 -227 -51 -15 -10 -34 -19 -42 -19 -9 0 -16
-12 -18 -32 -3 -32 -5 -33 -50 -36 -39 -3 -48 0 -48 13 0 9 -5 13 -10 10 -6
-3 -13 1 -16 9 -4 9 -18 16 -34 16 -16 0 -30 7 -34 16 -5 13 -21 15 -106 10
-132 -8 -198 -22 -205 -46 -8 -27 -25 -37 -72 -45 l-41 -7 12 44 c8 26 11 61
7 88 -4 25 -3 60 2 78 5 19 7 39 4 45 -5 15 52 97 78 111 11 6 35 21 52 34 18
12 51 29 74 38 23 8 47 18 53 23 6 5 34 15 61 21 66 15 105 31 105 40 0 5 15
12 33 15 17 4 57 19 87 33 86 39 158 52 199 36 18 -8 46 -14 62 -14z m219
-638 c0 -4 -16 -6 -35 -4 -19 2 -35 6 -35 8 0 2 16 4 35 4 19 0 35 -4 35 -8z
m-730 -27 c0 -7 11 -16 25 -19 40 -10 31 -29 -10 -22 -49 10 -45 -11 5 -24 51
-14 55 -55 8 -73 -10 -3 -18 -13 -18 -22 0 -8 -4 -15 -10 -15 -5 0 -10 6 -10
13 0 8 -11 19 -25 25 -14 6 -25 16 -25 22 0 13 37 13 45 0 7 -11 35 -2 35 11
0 5 -13 9 -28 9 -45 0 -65 20 -53 53 6 15 17 27 26 27 8 0 15 9 15 21 0 11 5
17 10 14 6 -3 10 -12 10 -20z m565 4 c3 -4 -8 -4 -24 1 -23 6 -33 4 -47 -11
-9 -10 -22 -19 -28 -18 -6 0 -6 3 2 6 6 2 12 11 12 18 0 22 72 26 85 4z m110
-37 c-4 -4 -10 -1 -12 6 -3 6 -12 12 -21 12 -15 0 -15 2 -2 10 11 7 11 10 2
10 -7 0 -10 5 -7 10 4 6 15 0 27 -15 11 -14 17 -29 13 -33z m-841 23 c3 -8 12
-15 19 -15 8 0 20 -7 27 -15 11 -13 7 -15 -30 -15 -49 0 -48 -9 2 -19 46 -9
50 -44 9 -82 -28 -26 -35 -27 -32 -6 0 4 -7 7 -18 7 -25 0 -47 26 -28 33 8 3
20 1 28 -4 21 -13 39 -11 39 6 0 10 -10 15 -28 15 -50 0 -72 49 -32 70 11 6
20 17 20 25 0 19 16 19 24 0z m462 0 c12 -8 32 -40 44 -72 13 -32 33 -71 45
-88 36 -50 36 -52 4 -47 -17 2 -39 -3 -54 -12 -25 -17 -100 -22 -109 -8 -3 5
-19 7 -36 4 -34 -5 -36 -2 -15 37 8 16 22 59 31 97 9 40 25 76 36 87 24 21 28
21 54 2z m452 -33 c4 -26 -42 -52 -77 -43 -25 7 -42 31 -21 31 6 0 9 -4 5 -10
-3 -5 9 -7 31 -5 44 6 54 12 54 31 0 16 -17 19 -22 4 -2 -6 -8 -2 -15 9 -11
17 -10 18 15 12 17 -5 28 -15 30 -29z m-218 3 c0 -8 -2 -15 -4 -15 -2 0 -6 7
-10 15 -3 8 -1 15 4 15 6 0 10 -7 10 -15z m-30 1 c0 -11 -19 -15 -25 -6 -3 5
1 10 9 10 9 0 16 -2 16 -4z m67 -2 c-3 -3 -12 -4 -19 -1 -8 3 -5 6 6 6 11 1
17 -2 13 -5z m10 -20 c-3 -3 -12 -4 -19 -1 -8 3 -5 6 6 6 11 1 17 -2 13 -5z
m3 -20 c0 -2 -12 -10 -28 -18 -23 -12 -32 -12 -57 -1 l-30 13 43 -3 c23 -1 42
1 42 5 0 4 7 7 15 7 8 0 15 -2 15 -3z m-35 -243 c7 -44 -11 -85 -34 -76 -8 3
-43 10 -79 15 -50 7 -73 6 -99 -5 -25 -11 -40 -11 -64 -3 -35 12 -84 1 -160
-37 -44 -23 -46 -23 -57 -4 -7 10 -18 16 -26 13 -11 -4 -10 3 5 32 10 21 19
44 19 51 0 7 18 24 39 39 45 29 73 26 97 -11 17 -26 62 -45 105 -45 21 0 45
16 89 58 l62 58 48 -23 c43 -20 49 -28 55 -62z m-163 -120 c3 8 11 10 24 4 10
-4 25 -7 33 -6 7 1 20 -7 28 -18 8 -12 20 -21 27 -21 8 0 16 -6 19 -14 4 -10
-16 -13 -106 -12 -74 1 -139 -4 -191 -15 -44 -10 -84 -15 -88 -13 -17 11 -8
44 12 44 11 0 20 7 20 15 0 8 10 16 23 17 12 1 29 2 37 3 8 0 20 4 27 8 7 4
23 5 35 2 13 -3 35 -2 48 3 15 6 29 6 37 0 7 -6 13 -4 15 3z m428 -1 c0 -5 -5
-10 -11 -10 -5 0 -7 5 -4 10 3 6 8 10 11 10 2 0 4 -4 4 -10z m-920 -70 c0 -5
-2 -10 -4 -10 -3 0 -8 5 -11 10 -3 6 -1 10 4 10 6 0 11 -4 11 -10z m873 -9
c-13 -11 -23 -24 -23 -30 0 -6 -7 -11 -16 -11 -14 0 -14 1 0 16 9 8 16 20 16
25 0 6 5 7 10 4 6 -3 10 -1 10 4 0 6 6 11 13 11 6 -1 2 -9 -10 -19z m-163 -1
c0 -5 -7 -10 -15 -10 -8 0 -15 5 -15 10 0 6 7 10 15 10 8 0 15 -4 15 -10z
m241 -177 c-12 -20 -14 -14 -5 12 4 9 9 14 11 11 3 -2 0 -13 -6 -23z m-768
-290 c-5 -13 -3 -15 13 -9 14 5 16 4 8 -4 -6 -6 -18 -8 -28 -4 -13 5 -14 9 -5
20 15 19 20 18 12 -3z"/>
<path d="M1803 1117 c-10 -22 -9 -133 3 -186 4 -19 8 -21 17 -12 15 15 16 179
1 204 -10 17 -11 16 -21 -6z"/>
<path d="M1742 1000 c0 -14 2 -19 5 -12 2 6 2 18 0 25 -3 6 -5 1 -5 -13z"/>
<path d="M1637 964 c-2 -2 -2 -17 1 -34 5 -34 21 -40 29 -10 3 11 10 20 15 20
5 0 7 4 4 9 -6 10 -43 21 -49 15z"/>
<path d="M1591 914 c0 -11 3 -14 6 -6 3 7 2 16 -1 19 -3 4 -6 -2 -5 -13z"/>
<path d="M435 710 c3 -5 13 -10 21 -10 8 0 14 5 14 10 0 6 -9 10 -21 10 -11 0
-17 -4 -14 -10z"/>
<path d="M830 570 c0 -5 5 -10 11 -10 5 0 7 5 4 10 -3 6 -8 10 -11 10 -2 0 -4
-4 -4 -10z"/>
<path d="M880 530 c0 -11 4 -20 8 -20 10 0 58 -90 54 -102 -1 -5 19 -22 45
-39 40 -25 55 -29 88 -25 22 3 61 6 87 5 66 0 115 25 138 72 32 62 23 101 -14
63 -9 -8 -26 -16 -38 -17 -13 -2 -43 -13 -67 -26 -43 -23 -44 -23 -105 -6 -33
9 -71 17 -83 17 -25 0 -31 13 -10 21 6 2 -4 8 -23 11 -26 6 -39 15 -49 37 -15
33 -31 38 -31 9z"/>
<path d="M575 499 c-9 -14 -2 -20 14 -10 8 6 9 11 3 15 -6 3 -14 1 -17 -5z"/>
</g>
</svg>
