<?xml version="1.0" standalone="no"?>
<!DOCTYPE svg PUBLIC "-//W3C//DTD SVG 20010904//EN"
 "http://www.w3.org/TR/2001/REC-SVG-20010904/DTD/svg10.dtd">
<svg version="1.0" xmlns="http://www.w3.org/2000/svg"
 width="1248.000000pt" height="744.000000pt" viewBox="0 0 1248.000000 744.000000"
 preserveAspectRatio="xMidYMid meet">

<g transform="translate(0.000000,744.000000) scale(0.100000,-0.100000)"
fill="#000000" stroke="none">
<path d="M450 7429 c-133 -19 -257 -94 -341 -206 -57 -74 -86 -150 -100 -252
-6 -50 -9 -1200 -7 -3306 l3 -3230 22 -65 c56 -164 185 -292 347 -343 l71 -22
5795 0 5795 0 71 22 c165 52 295 183 347 348 20 64 22 92 22 304 l0 234 -80
47 c-125 73 -338 196 -480 278 -71 41 -160 93 -197 115 l-68 39 0 1482 0 1481
108 62 c59 33 161 92 227 130 66 39 180 104 253 146 73 43 137 77 142 77 7 0
10 -533 10 -1478 l0 -1477 45 -27 45 -28 0 1956 0 1956 -37 -22 c-49 -29 -322
-187 -528 -305 -88 -51 -347 -200 -575 -332 l-415 -240 -3 -1476 c-1 -813 -5
-1477 -9 -1477 -3 0 -168 93 -365 207 l-358 208 0 1482 0 1482 93 54 c50 30
169 98 262 152 262 151 419 242 545 316 63 36 132 76 153 88 21 12 257 148
525 303 268 155 538 310 601 346 l113 65 -4 241 c-5 212 -8 249 -27 307 -51
158 -179 287 -341 342 l-65 22 -5770 1 c-3173 1 -5795 -2 -5825 -7z m990
-2779 c46 -27 85 -50 86 -50 2 0 64 -36 140 -80 75 -44 138 -80 140 -80 3 0
22 -11 44 -25 l40 -25 -2 -312 -3 -311 -70 -43 c-38 -24 -76 -44 -82 -44 -10
0 -13 68 -13 308 l0 307 -22 14 c-129 81 -353 201 -366 196 -10 -2 -93 -50
-187 -104 l-170 -99 -3 -303 c-1 -167 -6 -307 -11 -312 -6 -6 -33 4 -67 24
-32 19 -67 37 -76 41 -17 7 -18 30 -18 325 l0 318 38 21 c32 18 219 127 422
245 36 21 72 38 81 38 9 1 53 -21 99 -49z m1399 -58 c40 -20 86 -75 95 -114 6
-28 6 -28 -42 -28 -44 0 -49 2 -59 30 -28 73 -156 63 -189 -15 -8 -19 -14 -57
-14 -85 0 -93 44 -150 115 -150 35 0 81 27 94 57 9 19 18 23 56 23 44 0 45 -1
39 -27 -17 -75 -102 -137 -189 -138 -101 0 -182 68 -207 175 -21 90 16 204 82
257 51 42 152 49 219 15z m420 13 c107 -37 145 -97 145 -225 0 -98 -21 -152
-76 -193 -109 -80 -252 -46 -312 75 -69 138 -4 312 129 346 56 14 67 14 114
-3z m328 -7 c8 -13 47 -106 101 -241 15 -37 29 -62 31 -55 2 7 14 36 26 63 12
28 40 94 61 148 l39 97 55 -2 55 -3 3 -227 2 -228 -45 0 -45 0 0 148 c0 163
-1 164 -52 27 -14 -38 -36 -94 -49 -122 -21 -48 -26 -53 -55 -53 -32 0 -32 1
-85 135 l-54 135 -5 -132 -5 -133 -42 -3 -43 -3 0 230 0 231 49 0 c29 0 53 -5
58 -12z m711 -13 c36 -22 72 -86 72 -130 0 -16 -9 -48 -21 -71 -27 -57 -82
-84 -167 -84 l-62 0 0 -75 0 -75 -45 0 -45 0 0 231 0 231 118 -4 c92 -3 124
-8 150 -23z m345 -60 c87 -244 127 -360 127 -368 0 -4 -21 -7 -47 -5 -48 3
-48 3 -67 56 l-19 52 -77 0 c-85 0 -87 -2 -106 -82 -6 -26 -10 -28 -56 -28
l-50 0 7 33 c4 17 10 36 13 42 6 9 47 127 109 308 l27 78 56 -3 55 -3 28 -80z
m364 -69 l103 -148 0 151 0 152 43 -3 42 -3 3 -227 2 -228 -42 0 c-39 0 -46 4
-68 38 -13 20 -58 86 -100 145 l-75 109 -3 -146 -3 -146 -44 0 -45 0 0 231 0
230 42 -3 c42 -3 42 -3 145 -152z m361 111 c15 -24 38 -67 52 -95 14 -29 27
-52 30 -52 3 0 29 43 58 95 l53 95 49 0 c28 0 50 -4 50 -8 0 -4 -19 -39 -43
-77 -112 -182 -117 -195 -117 -290 l0 -86 -47 3 -48 3 -5 95 -5 95 -74 125
c-40 69 -75 128 -78 133 -2 4 19 7 47 7 49 0 51 -1 78 -43z m644 -62 c38 -55
81 -118 96 -140 l27 -40 3 143 3 143 47 -3 47 -3 3 -227 2 -228 -42 0 c-40 0
-45 3 -75 48 -34 49 -125 180 -155 222 -17 24 -18 20 -18 -123 l0 -147 -45 0
-45 0 0 231 0 230 42 -3 c40 -3 43 -6 110 -103z m553 63 c10 -24 30 -81 46
-128 15 -47 44 -130 64 -184 19 -55 35 -101 35 -103 0 -2 -22 -3 -49 -3 l-49
0 -18 55 -17 56 -81 -3 -81 -3 -17 -50 c-16 -50 -16 -50 -62 -53 -34 -2 -46 1
-46 10 0 15 42 140 109 327 23 62 41 115 41 117 0 2 24 4 54 4 l54 0 17 -42z
m302 30 c6 -7 37 -79 69 -161 32 -81 61 -141 63 -135 2 7 15 36 27 65 13 28
24 54 24 57 0 3 11 29 24 58 13 29 30 70 37 91 l13 38 56 -3 55 -3 3 -227 2
-228 -45 0 -45 0 0 148 c0 163 -1 164 -52 27 -14 -38 -36 -94 -49 -122 -21
-49 -25 -53 -56 -53 -27 0 -35 5 -43 28 -6 15 -30 75 -53 134 l-42 108 -5
-133 -5 -132 -42 -3 -43 -3 0 230 0 231 49 0 c27 0 53 -6 58 -12z m743 -28 l0
-40 -105 0 -105 0 0 -55 0 -55 100 0 100 0 0 -40 0 -40 -100 0 -100 0 0 -55 0
-55 105 0 105 0 0 -40 0 -40 -150 0 -150 0 0 230 0 230 150 0 150 0 0 -40z
m-6340 -579 l0 -309 35 -21 35 -20 35 20 35 21 0 309 c0 241 3 309 13 309 6 0
37 -15 67 -33 30 -18 63 -36 73 -40 16 -6 17 -28 15 -324 l-3 -318 -105 -62
c-58 -34 -114 -62 -125 -62 -12 -1 -71 29 -133 65 l-112 66 0 308 c0 257 2
310 15 320 18 15 137 79 148 80 4 0 7 -139 7 -309z m2873 -292 c9 -12 17 -27
17 -35 0 -19 -34 -18 -50 2 -17 20 -74 15 -78 -8 -2 -11 11 -21 46 -32 78 -26
102 -65 71 -114 -34 -57 -125 -56 -159 1 -20 32 -20 32 0 35 10 2 33 -7 49
-19 29 -21 31 -21 56 -5 35 23 28 37 -26 56 -71 27 -77 30 -83 53 -9 37 5 68
38 83 40 18 96 10 119 -17z m-1435 4 c-2 -12 -14 -19 -36 -21 l-32 -3 0 -93
c0 -71 -4 -97 -15 -106 -12 -10 -18 -10 -30 0 -11 9 -15 35 -15 106 l0 94 -35
0 c-28 0 -35 4 -35 20 0 19 7 20 101 20 90 0 100 -2 97 -17z m541 -30 l29 -47
29 47 c22 37 34 46 55 47 l28 0 -20 -34 c-10 -19 -30 -52 -44 -74 -15 -25 -26
-58 -28 -88 -3 -41 -6 -49 -23 -49 -17 0 -20 8 -23 53 -2 41 -12 68 -43 118
-21 35 -39 67 -39 69 0 3 11 5 25 5 19 0 32 -11 54 -47z m989 -75 c-3 -115 -4
-123 -23 -123 -19 0 -20 8 -23 123 l-3 122 26 0 26 0 -3 -122z m-1413 60 c31
-14 37 -35 33 -118 l-3 -64 -57 -3 c-47 -3 -61 0 -78 17 -44 44 -11 100 58
100 26 0 33 4 30 17 -4 23 -32 28 -51 9 -19 -19 -49 -10 -45 13 3 17 43 41 70
41 9 0 29 -5 43 -12z m176 2 c13 -7 19 -7 19 0 0 5 9 10 20 10 19 0 20 -7 20
-112 0 -136 -7 -148 -85 -148 -50 0 -75 12 -75 36 0 17 31 27 44 14 16 -16 63
-12 70 6 10 27 7 39 -6 26 -18 -18 -62 -14 -92 9 -22 17 -26 28 -26 70 0 77
53 119 111 89z m493 0 c30 -11 56 -57 56 -98 0 -43 -48 -92 -90 -92 -48 0 -90
47 -90 100 0 33 6 48 29 71 31 31 53 35 95 19z m126 -49 c0 -75 6 -91 35 -91
29 0 35 16 35 91 0 52 2 59 20 59 19 0 20 -7 20 -100 0 -80 -3 -100 -14 -100
-8 0 -17 4 -20 9 -4 5 -18 5 -35 -2 -23 -9 -34 -7 -55 6 -25 17 -26 22 -26
102 0 78 2 85 20 85 18 0 20 -7 20 -59z m190 49 c0 -6 7 -6 19 1 10 7 26 9 35
6 25 -10 15 -40 -14 -47 -23 -5 -25 -11 -30 -75 -4 -62 -7 -70 -25 -70 -18 0
-20 8 -23 98 -3 92 -2 97 18 97 11 0 20 -5 20 -10z m590 -5 c61 -31 57 -145
-5 -173 -34 -16 -50 -15 -85 3 -59 31 -61 131 -2 167 34 22 55 22 92 3z m175
5 c5 -8 11 -7 21 1 7 6 21 9 29 5 12 -4 15 -26 15 -108 0 -91 -2 -104 -22
-125 -16 -17 -32 -23 -66 -23 -42 0 -82 20 -82 40 0 14 32 20 46 9 19 -15 68
-7 72 13 3 13 -3 15 -35 11 -59 -8 -88 20 -88 87 0 44 4 55 28 76 29 25 71 32
82 14z m223 -6 c20 -14 22 -24 22 -100 0 -66 -3 -84 -14 -84 -8 0 -18 4 -21
10 -4 6 -12 6 -24 -2 -18 -11 -54 -6 -80 11 -8 5 -14 24 -14 41 0 36 19 52 71
60 36 5 43 19 19 34 -11 7 -21 5 -35 -7 -20 -18 -52 -14 -52 7 0 16 51 45 80
46 14 0 36 -7 48 -16z m203 -7 c17 -18 19 -33 17 -97 -3 -67 -5 -75 -23 -75
-18 0 -20 8 -23 73 -3 73 -3 73 -30 70 -26 -3 -27 -6 -32 -73 -4 -62 -7 -70
-25 -70 -18 0 -20 8 -23 96 l-3 96 61 0 c50 1 65 -3 81 -20z m-4283 -2833 c27
-19 29 -44 2 -44 -11 0 -20 5 -20 11 0 18 -45 5 -48 -14 -10 -52 21 -85 48
-52 16 19 40 19 40 1 0 -44 -82 -63 -114 -27 -12 14 -16 32 -14 67 2 40 7 51
28 61 33 17 51 16 78 -3z m157 -9 c35 -34 30 -101 -9 -127 -26 -18 -75 -8 -96
19 -60 77 37 176 105 108z m150 15 c6 -2 18 0 28 5 48 21 83 -33 75 -116 -2
-26 -8 -34 -23 -34 -17 0 -20 8 -23 58 -3 49 -6 58 -20 55 -13 -2 -18 -16 -20
-61 -3 -49 -6 -57 -22 -57 -18 0 -20 7 -20 61 0 52 -2 60 -17 57 -14 -2 -19
-15 -21 -61 -3 -49 -6 -57 -22 -57 -18 0 -20 7 -20 79 l0 80 48 -3 c26 -2 52
-4 57 -6z m237 -1 c9 -5 22 -25 28 -44 10 -30 9 -40 -7 -68 -16 -27 -25 -32
-56 -32 -34 0 -37 -2 -37 -27 0 -21 -5 -28 -20 -28 -19 0 -20 7 -20 98 0 54 2
101 5 104 9 9 89 6 107 -3z m158 -9 c15 -15 20 -33 20 -79 l0 -59 -52 0 c-61
-1 -78 10 -78 48 0 28 31 50 71 50 11 0 17 5 14 10 -4 6 -23 7 -46 4 -44 -7
-52 6 -17 30 31 22 64 20 88 -4z m153 8 c14 -7 17 -22 17 -79 0 -62 -2 -70
-17 -67 -14 2 -19 15 -21 61 -3 48 -6 57 -21 57 -23 0 -31 -19 -31 -76 0 -37
-3 -44 -20 -44 -18 0 -20 7 -20 73 0 41 2 76 5 79 9 9 89 6 108 -4z m88 -42
l15 -49 16 49 c11 37 21 50 38 52 25 4 25 2 -17 -113 -31 -85 -39 -95 -69 -95
-27 0 -33 27 -8 37 19 7 13 50 -16 117 -10 25 -16 47 -12 50 16 17 38 -4 53
-48z m277 38 c12 -8 22 -22 22 -30 0 -17 -31 -19 -47 -3 -27 27 -58 -16 -42
-59 10 -25 37 -29 45 -7 7 18 44 20 44 3 0 -23 -34 -48 -65 -48 -43 0 -70 31
-70 82 0 66 60 99 113 62z m157 -9 c27 -26 32 -63 14 -98 -16 -30 -28 -37 -65
-37 -42 0 -69 31 -69 82 0 71 71 103 120 53z m150 15 c6 -2 18 0 28 5 10 4 29
3 43 -3 22 -11 24 -17 24 -83 0 -62 -2 -70 -17 -67 -14 2 -19 15 -21 61 -3 49
-6 58 -20 55 -13 -2 -18 -16 -20 -61 -3 -48 -6 -57 -22 -57 -16 0 -19 9 -22
58 -2 43 -7 57 -18 57 -11 0 -16 -14 -18 -57 -3 -50 -6 -58 -22 -58 -18 0 -20
7 -20 79 l0 80 48 -3 c26 -2 52 -4 57 -6z m3245 -45 c0 -13 -172 -15 -1507
-13 -1194 2 -1507 6 -1511 16 -3 9 303 12 1507 12 1338 0 1511 -2 1511 -15z
m-3693 -66 c15 -15 5 -39 -17 -39 -22 0 -32 24 -17 39 6 6 14 11 17 11 3 0 11
-5 17 -11z"/>
<path d="M3154 4521 c-55 -24 -86 -119 -65 -198 22 -83 107 -118 172 -72 72
51 78 191 11 253 -24 21 -87 30 -118 17z"/>
<path d="M4120 4455 l0 -77 61 4 c69 5 89 21 89 72 -1 52 -22 69 -90 74 l-60
4 0 -77z"/>
<path d="M4534 4423 c-10 -32 -20 -64 -22 -70 -2 -9 12 -13 48 -13 36 0 50 4
48 13 -13 49 -43 127 -48 127 -3 0 -15 -26 -26 -57z"/>
<path d="M6468 4415 l-25 -75 53 0 53 0 -26 73 c-13 39 -26 73 -27 74 -1 2
-14 -31 -28 -72z"/>
<path d="M2777 3552 c-20 -3 -27 -8 -25 -20 4 -19 27 -26 46 -13 24 15 10 36
-21 33z"/>
<path d="M2950 3610 c-25 -25 -25 -41 -2 -70 23 -28 57 -20 66 16 13 51 -31
87 -64 54z"/>
<path d="M3438 3619 c-26 -15 -25 -85 2 -99 14 -8 26 -8 40 0 28 15 28 85 1
100 -23 12 -22 12 -43 -1z"/>
<path d="M4324 3605 c-29 -44 13 -116 50 -86 24 20 21 87 -3 101 -27 14 -28
13 -47 -15z"/>
<path d="M4525 3613 c-20 -20 -16 -72 8 -87 28 -18 52 4 52 49 0 30 -5 39 -22
46 -16 6 -27 3 -38 -8z"/>
<path d="M4745 3551 c-35 -7 -41 -34 -8 -39 14 -2 26 4 33 18 14 27 13 28 -25
21z"/>
<path d="M800 774 c-19 -21 -1 -69 25 -69 26 0 44 48 25 69 -7 9 -18 16 -25
16 -7 0 -18 -7 -25 -16z"/>
<path d="M1195 767 c-7 -25 9 -67 24 -67 17 0 32 30 29 57 -4 38 -44 46 -53
10z"/>
<path d="M1373 732 c-13 -2 -23 -10 -23 -18 0 -19 36 -18 44 2 8 20 7 21 -21
16z"/>
<path d="M2020 771 c-12 -24 3 -71 23 -71 19 0 37 21 37 45 0 42 -41 60 -60
26z"/>
</g>
</svg>
