<?xml version="1.0" standalone="no"?>
<!DOCTYPE svg PUBLIC "-//W3C//DTD SVG 20010904//EN"
 "http://www.w3.org/TR/2001/REC-SVG-20010904/DTD/svg10.dtd">
<svg version="1.0" xmlns="http://www.w3.org/2000/svg"
 width="1252.000000pt" height="744.000000pt" viewBox="0 0 1252.000000 744.000000"
 preserveAspectRatio="xMidYMid meet">

<g transform="translate(0.000000,744.000000) scale(0.100000,-0.100000)"
fill="#000000" stroke="none">
<path d="M515 7430 c-130 -17 -270 -91 -358 -190 -60 -67 -100 -137 -129 -230
l-23 -75 0 -3220 0 -3220 22 -70 c49 -154 170 -296 309 -362 144 -68 -353 -63
5974 -61 5374 3 5738 4 5783 20 222 80 368 238 413 448 21 101 20 6393 -1
6495 -48 229 -231 412 -460 460 -61 13 -800 15 -5770 14 -3135 -1 -5727 -5
-5760 -9z m3714 -2961 c44 -25 72 -61 74 -97 2 -24 -2 -27 -30 -30 -27 -3 -34
2 -48 27 -30 60 -103 70 -157 22 -27 -24 -32 -36 -36 -87 -7 -106 45 -175 121
-160 34 7 77 42 77 63 0 9 13 13 40 13 48 0 53 -18 17 -70 -34 -52 -82 -75
-152 -75 -80 0 -124 28 -159 97 -56 113 -17 262 79 304 47 21 131 17 174 -7z
m409 2 c70 -36 102 -95 102 -189 0 -145 -109 -237 -240 -202 -122 33 -176 198
-107 323 44 80 159 112 245 68z m319 -121 c30 -74 57 -138 61 -142 4 -4 34 58
66 138 l59 145 46 -3 46 -3 3 -202 2 -203 -40 0 -39 0 -3 131 -3 131 -51 -128
c-49 -125 -51 -129 -82 -132 -18 -2 -32 -2 -32 0 0 2 -25 64 -55 138 l-54 135
-1 -137 0 -138 -35 0 -35 0 0 206 0 205 46 -3 46 -3 55 -135z m573 126 c49
-18 80 -67 80 -127 0 -85 -68 -139 -177 -139 l-43 0 0 -65 0 -65 -40 0 -40 0
0 205 0 205 93 -1 c50 0 108 -6 127 -13z m373 -173 c35 -104 68 -196 72 -206
7 -16 3 -18 -36 -15 -43 3 -44 4 -59 51 l-15 48 -75 -3 -74 -3 -17 -45 c-16
-43 -19 -45 -59 -48 -38 -3 -42 -1 -36 15 4 10 37 102 73 206 l66 187 47 0 47
0 66 -187z m288 50 l94 -137 3 138 3 137 37 -3 37 -3 3 -202 2 -203 -37 0
c-37 0 -39 3 -128 132 l-90 132 -3 -132 -3 -132 -39 0 -40 0 0 205 0 205 33 0
c32 0 39 -7 128 -137z m360 46 l52 -91 50 91 c50 90 51 91 89 91 21 0 38 -5
38 -11 0 -6 -31 -64 -70 -129 l-70 -119 0 -75 0 -76 -40 0 -40 0 0 77 c0 76 0
76 -70 199 -38 67 -70 125 -70 128 0 3 18 6 39 6 39 0 40 -1 92 -91z m581 -39
c48 -69 88 -128 88 -132 0 -5 5 -8 10 -8 6 0 10 52 10 135 l0 135 35 0 35 0 0
-205 0 -205 -34 0 c-32 0 -38 7 -127 136 l-94 136 -3 -136 -3 -136 -39 0 -40
0 0 198 c0 109 3 202 7 206 4 4 21 6 37 4 26 -3 42 -20 118 -128z m537 -71
c39 -110 71 -202 71 -205 0 -3 -19 -4 -42 -2 -41 3 -43 5 -57 51 l-15 48 -75
-3 -75 -3 -15 -47 c-14 -48 -15 -48 -58 -48 -42 0 -42 0 -32 28 6 15 33 92 61
172 77 224 70 210 121 210 l44 0 72 -201z m276 54 c32 -79 62 -139 66 -135 4
4 25 52 47 107 77 191 66 175 117 175 l45 0 0 -205 0 -205 -35 0 -34 0 -3 138
-3 137 -55 -138 c-54 -135 -55 -137 -84 -135 -28 3 -33 10 -83 133 l-53 130 0
-132 0 -133 -40 0 -40 0 0 206 0 205 47 -3 48 -3 60 -142z m615 112 l0 -34
-92 -3 -93 -3 -3 -47 -3 -47 88 -3 88 -3 3 -32 3 -32 -88 -3 -88 -3 0 -50 0
-50 98 -3 97 -3 0 -29 0 -30 -135 0 -135 0 0 205 0 205 130 0 130 0 0 -35z
m-3762 -882 c-76 -2 -200 -2 -275 0 -76 1 -14 3 137 3 151 0 213 -2 138 -3z
m1135 -465 c9 -11 17 -24 17 -29 0 -16 -38 -10 -44 7 -4 10 -16 14 -38 12 -50
-5 -45 -38 8 -58 55 -20 74 -37 74 -66 0 -55 -85 -85 -138 -48 -25 17 -30 54
-7 54 8 0 15 -4 15 -10 0 -16 41 -32 66 -26 15 4 24 14 24 26 0 20 -6 23 -78
50 -39 15 -51 50 -28 84 25 40 96 42 129 4z m87 -89 c0 -100 -2 -110 -17 -107
-16 3 -18 18 -21 111 -3 102 -2 107 18 107 19 0 20 -6 20 -111z m160 39 c27
-30 28 -100 0 -128 -49 -49 -130 -7 -130 67 0 70 84 110 130 61z m158 10 c9
-9 12 -9 12 0 0 7 7 12 15 12 12 0 15 -18 15 -99 0 -92 -2 -101 -22 -115 -28
-20 -78 -21 -104 -2 -15 12 -17 17 -6 27 9 10 15 10 24 1 19 -19 56 -14 68 9
15 26 7 34 -18 20 -44 -23 -92 18 -92 77 0 60 71 107 108 70z m194 -5 c14 -12
18 -31 18 -83 l0 -67 -52 -1 c-104 -2 -124 77 -25 97 37 8 52 41 18 41 -12 0
-30 -5 -41 -12 -27 -17 -37 -2 -15 22 22 24 72 26 97 3z m88 7 c0 -7 6 -7 19
0 58 31 91 -5 91 -98 0 -55 -2 -63 -17 -60 -14 2 -19 17 -23 68 -4 58 -7 65
-27 68 -28 4 -43 -29 -43 -94 0 -32 -4 -44 -15 -44 -12 0 -15 16 -15 85 0 69
3 85 15 85 8 0 15 -5 15 -10z"/>
<path d="M4480 4390 c-66 -71 -41 -217 43 -242 78 -23 137 35 137 137 0 83
-43 135 -113 135 -30 0 -45 -7 -67 -30z"/>
<path d="M5390 4350 l0 -70 50 0 c62 0 90 24 90 74 0 45 -29 66 -92 66 l-48 0
0 -70z"/>
<path d="M5761 4318 c-12 -34 -21 -66 -21 -70 0 -4 23 -8 51 -8 35 0 49 4 47
13 -14 52 -43 127 -49 127 -4 0 -17 -28 -28 -62z"/>
<path d="M7546 4380 c-9 -22 -46 -133 -46 -137 0 -1 23 -3 50 -3 28 0 50 4 50
8 0 4 -11 39 -24 78 -14 42 -26 63 -30 54z"/>
<path d="M6102 3038 c-17 -17 -15 -73 3 -88 22 -18 48 -8 59 22 19 53 -27 101
-62 66z"/>
<path d="M6281 3036 c-7 -8 -11 -30 -9 -48 2 -28 7 -34 31 -36 21 -3 29 2 36
20 19 52 -26 102 -58 64z"/>
<path d="M6473 2980 c-34 -14 -30 -42 5 -38 19 2 28 9 30 26 4 24 -1 26 -35
12z"/>
</g>
</svg>
