<?xml version="1.0" standalone="no"?>
<!DOCTYPE svg PUBLIC "-//W3C//DTD SVG 20010904//EN"
 "http://www.w3.org/TR/2001/REC-SVG-20010904/DTD/svg10.dtd">
<svg version="1.0" xmlns="http://www.w3.org/2000/svg"
 width="1252.000000pt" height="744.000000pt" viewBox="0 0 1252.000000 744.000000"
 preserveAspectRatio="xMidYMid meet">

<g transform="translate(0.000000,744.000000) scale(0.100000,-0.100000)"
fill="#000000" stroke="none">
<path d="M505 7388 c-118 -99 -302 -273 -403 -379 l-102 -109 0 -241 0 -240
62 78 c258 326 610 656 941 882 42 30 77 55 77 57 0 2 -116 4 -257 3 l-258 0
-60 -51z"/>
<path d="M1089 7362 c-399 -270 -749 -601 -1047 -993 l-42 -56 0 -338 0 -339
92 155 c320 534 733 967 1243 1301 180 118 442 258 615 329 45 18 43 18 -350
18 l-395 1 -116 -78z"/>
<path d="M2034 7386 c-847 -343 -1551 -981 -1981 -1792 l-53 -101 0 -1702 0
-1701 36 -73 c105 -208 260 -448 418 -646 536 -671 1264 -1139 2103 -1351 l82
-20 4703 2 4703 3 75 27 c149 55 274 167 341 306 63 131 59 -109 57 3414 l-3
3213 -27 75 c-55 149 -167 274 -306 341 -131 63 270 59 -5107 59 l-4910 -1
-131 -53z m1456 -194 l0 -29 -148 -6 c-753 -33 -1490 -325 -2052 -813 -752
-653 -1169 -1562 -1170 -2550 0 -537 106 -1005 338 -1484 421 -872 1233 -1539
2167 -1780 270 -70 453 -98 710 -109 l150 -6 3 -34 3 -33 -123 6 c-320 17
-594 63 -860 142 -1319 393 -2281 1542 -2432 2904 -34 306 -29 593 14 889 154
1044 780 1959 1705 2489 471 270 1061 434 1578 441 l117 1 0 -28z m0 -432 c0
-26 -4 -30 -27 -30 -128 0 -422 -34 -573 -65 -696 -144 -1331 -549 -1756
-1120 -101 -135 -185 -273 -270 -440 -433 -859 -415 -1878 48 -2728 137 -250
285 -446 507 -668 184 -183 355 -318 561 -441 415 -249 885 -391 1366 -414
l144 -7 0 -30 0 -30 -152 6 c-918 39 -1772 512 -2311 1280 -260 371 -437 815
-507 1274 -28 178 -38 529 -21 710 93 985 649 1849 1508 2340 421 241 919 380
1406 391 l77 2 0 -30z m0 -448 l0 -29 -125 -6 c-787 -40 -1510 -451 -1949
-1107 -198 -296 -325 -618 -387 -984 -27 -159 -36 -469 -19 -643 81 -827 575
-1565 1310 -1955 329 -175 753 -288 1082 -288 l88 0 0 -36 0 -36 -112 7 c-499
30 -930 173 -1326 442 -393 266 -725 666 -907 1093 -345 807 -264 1706 218
2435 160 241 373 465 615 643 327 241 739 411 1137 466 150 21 166 23 278 24
l97 2 0 -28z m0 -512 l0 -30 -69 0 c-39 0 -121 -7 -183 -15 -816 -108 -1472
-691 -1674 -1488 -38 -149 -54 -291 -54 -479 0 -389 94 -722 297 -1050 187
-302 473 -561 805 -729 193 -97 488 -181 688 -194 191 -13 190 -13 190 -47 l0
-31 -102 7 c-303 21 -564 89 -812 213 -527 264 -924 753 -1066 1311 -50 198
-63 306 -63 522 0 209 13 324 58 501 129 506 454 953 893 1228 309 193 671
306 995 310 l97 1 0 -30z m0 -439 c0 -24 -5 -29 -31 -35 -17 -3 -52 -6 -78 -6
-25 0 -87 -7 -136 -15 -563 -91 -1034 -491 -1214 -1030 -146 -441 -85 -930
166 -1319 264 -409 706 -668 1201 -702 l92 -7 0 -28 c0 -29 0 -29 -62 -29
-138 0 -387 52 -527 110 -370 152 -658 415 -835 759 -111 217 -163 418 -173
667 -18 453 142 866 462 1188 285 289 678 460 1088 474 46 2 47 1 47 -27z
m-10 -511 c0 -18 -5 -30 -13 -30 -44 0 -194 -24 -257 -41 -298 -80 -563 -318
-678 -609 -52 -130 -67 -219 -67 -380 1 -115 5 -163 23 -234 84 -338 335 -614
658 -726 76 -27 170 -47 262 -56 71 -6 72 -7 72 -35 0 -28 -2 -29 -49 -29 -75
0 -210 27 -306 60 -340 121 -598 399 -691 746 -32 121 -43 323 -24 441 75 467
425 823 892 908 40 7 97 14 126 14 51 1 52 1 52 -29z m-60 -520 c17 -10 25
-84 36 -330 6 -145 5 -167 -9 -178 -34 -29 -60 -10 -122 86 -160 247 -204 322
-199 337 9 22 73 53 157 75 81 21 115 24 137 10z m1528 -39 c45 -23 77 -56 91
-94 14 -37 7 -47 -35 -47 -27 0 -36 5 -43 23 -16 41 -49 62 -101 62 -77 0
-120 -55 -120 -154 0 -96 42 -151 117 -151 55 0 78 12 98 50 13 26 21 30 56
30 37 0 40 -2 34 -22 -31 -100 -129 -154 -232 -128 -101 25 -156 102 -156 219
-1 138 79 230 201 231 33 0 67 -7 90 -19z m482 -15 c109 -72 123 -266 26 -362
-127 -127 -329 -46 -343 137 -9 113 28 194 107 237 62 33 150 28 210 -12z
m276 4 c6 -14 36 -85 65 -157 30 -73 57 -133 60 -133 3 0 30 60 59 133 79 196
73 187 125 187 l45 0 0 -225 0 -225 -35 0 -35 0 0 152 c0 83 -3 149 -6 145 -4
-3 -33 -71 -64 -149 -55 -135 -60 -143 -88 -146 -31 -3 -31 -4 -128 240 -10
27 -22 48 -26 48 -5 0 -8 -65 -8 -145 l0 -145 -35 0 -35 0 0 226 0 225 47 -3
c40 -2 50 -7 59 -28z m709 -1 c65 -44 83 -146 37 -209 -30 -41 -79 -60 -154
-60 l-68 0 0 -75 0 -75 -40 0 -40 0 0 218 c0 120 3 222 8 226 4 5 55 6 115 3
92 -4 112 -8 142 -28z m310 21 c6 -9 155 -429 155 -436 0 -2 -19 -4 -43 -4
l-43 0 -18 55 -17 55 -84 0 -84 0 -17 -55 -18 -55 -43 0 c-24 0 -43 2 -43 4 0
6 150 428 156 437 7 12 91 11 99 -1z m389 -142 c56 -81 104 -147 109 -148 4 0
7 68 7 151 l0 150 38 -3 37 -3 3 -222 2 -223 -38 0 c-38 0 -39 1 -143 152
l-104 152 -3 -152 -3 -152 -39 0 -40 0 0 218 c0 120 3 222 7 226 4 4 21 6 37
4 26 -3 42 -21 130 -150z m362 110 c14 -24 40 -69 58 -102 l33 -59 57 102 57
101 40 0 c21 0 39 -5 39 -10 0 -6 -34 -70 -75 -141 l-75 -131 0 -84 0 -84 -40
0 -40 0 0 80 0 80 -75 129 c-99 170 -96 161 -46 161 38 0 44 -3 67 -42z m676
-108 l103 -149 5 147 5 147 40 0 40 0 3 -222 2 -223 -39 0 c-38 0 -40 2 -109
103 -39 56 -86 124 -106 152 l-36 50 0 -153 0 -152 -40 0 -40 0 0 218 c0 120
3 222 7 225 3 4 19 7 34 7 25 0 40 -17 131 -150z m513 133 c6 -16 76 -213 135
-380 l19 -53 -43 0 c-43 0 -44 0 -62 53 l-19 52 -84 0 -84 0 -17 -50 c-16 -48
-18 -50 -58 -53 -23 -2 -42 1 -42 7 0 8 30 95 127 369 l26 72 47 0 c36 0 50
-4 55 -17z m334 -45 c15 -35 45 -107 67 -160 21 -54 41 -98 44 -98 3 0 35 71
70 158 l65 157 48 3 47 3 0 -225 0 -226 -35 0 -35 0 0 152 c0 83 -3 149 -6
146 -3 -4 -32 -71 -64 -150 -55 -136 -60 -143 -88 -146 -31 -3 -33 1 -142 271
-6 14 -9 -29 -9 -125 l-1 -148 -40 0 -40 0 0 225 0 225 46 0 45 0 28 -62z
m721 27 l0 -34 -102 -3 -103 -3 -3 -57 -3 -58 101 0 100 0 0 -35 0 -34 -97 -3
-98 -3 -3 -57 -3 -57 108 -3 108 -3 0 -30 0 -30 -147 -3 -148 -3 0 219 c0 120
3 222 7 225 3 4 69 7 145 7 l138 0 0 -35z m-5931 -311 c24 -25 53 -68 66 -97
36 -76 27 -84 -131 -124 -71 -18 -134 -33 -141 -33 -18 0 -43 29 -43 52 0 31
166 248 189 248 10 0 37 -20 60 -46z m-557 -195 c130 -52 147 -66 133 -109 -5
-15 -39 -30 -146 -64 -76 -25 -146 -43 -154 -40 -22 9 -29 41 -28 132 1 88 18
132 51 132 9 0 74 -23 144 -51z m498 -190 c69 -23 131 -46 138 -52 31 -24 0
-90 -81 -174 -64 -67 -73 -62 -161 78 -42 66 -76 129 -76 139 0 21 25 50 43
50 7 0 68 -19 137 -41z m-286 -25 c23 -22 24 -295 1 -314 -36 -30 -225 33
-240 79 -7 23 13 52 129 184 60 69 83 79 110 51z m2775 -135 c27 -10 51 -34
51 -53 0 -13 -38 -5 -44 9 -3 8 -18 15 -33 15 -70 -1 -71 -45 -2 -69 60 -21
79 -37 79 -70 0 -32 -8 -44 -37 -60 -52 -27 -132 1 -133 47 0 19 25 14 45 -8
22 -24 58 -26 79 -4 29 28 19 40 -57 68 -60 23 -78 53 -53 91 15 22 45 42 67
44 3 1 20 -4 38 -10z m-1399 -14 c0 -11 -11 -15 -40 -15 l-40 0 0 -105 c0 -87
-3 -105 -15 -105 -12 0 -15 18 -15 105 l0 105 -40 0 c-29 0 -40 4 -40 15 0 12
17 15 95 15 78 0 95 -3 95 -15z m541 -35 c17 -27 32 -50 34 -50 2 0 16 22 32
50 17 30 35 50 46 50 24 0 22 -7 -23 -80 -32 -52 -40 -75 -40 -112 0 -36 -4
-48 -15 -48 -11 0 -15 12 -15 48 0 33 -7 58 -23 82 -13 19 -33 52 -46 73 -23
37 -23 37 -2 37 15 0 31 -16 52 -50z m989 -71 c0 -109 -2 -120 -17 -117 -16 3
-18 18 -21 121 -3 112 -2 117 18 117 19 0 20 -6 20 -121z m-360 46 c0 -7 -12
-15 -27 -17 -27 -3 -28 -6 -33 -73 -4 -56 -8 -70 -22 -73 -16 -3 -18 6 -18 87
l0 90 35 -1 c19 -1 38 2 41 5 10 9 24 -2 24 -18z m-1036 -1 c22 -22 23 -164 1
-164 -8 0 -15 5 -15 10 0 7 -6 7 -19 0 -54 -28 -113 8 -95 58 7 21 19 29 49
36 63 13 65 14 59 31 -7 18 -55 20 -72 3 -8 -8 -15 -9 -23 -1 -7 7 -5 15 6 27
21 21 88 21 109 0z m174 4 c9 -9 12 -9 12 0 0 7 7 12 15 12 22 0 22 -202 0
-223 -33 -34 -120 -27 -133 11 -4 14 34 17 43 2 18 -29 75 4 75 43 0 16 -3 18
-12 9 -19 -19 -76 -14 -98 8 -32 32 -23 117 14 142 17 12 71 9 84 -4z m505 -5
c54 -60 17 -163 -58 -163 -56 0 -95 58 -80 118 11 44 34 62 80 62 27 0 47 -6
58 -17z m97 -42 c0 -41 5 -65 16 -75 36 -36 64 -4 64 75 0 52 2 59 20 59 18 0
20 -7 20 -85 0 -69 -3 -87 -16 -92 -9 -3 -20 0 -25 8 -6 11 -11 11 -21 1 -17
-17 -48 -15 -70 5 -24 22 -27 163 -3 163 12 0 15 -13 15 -59z m797 37 c33 -31
32 -100 -2 -133 -54 -55 -135 -15 -135 66 0 30 6 50 22 66 28 30 83 31 115 1z
m171 10 c9 -9 12 -9 12 0 0 7 9 12 20 12 19 0 20 -7 20 -98 0 -110 -11 -136
-61 -147 -35 -8 -89 11 -89 31 0 17 5 17 46 2 40 -14 64 1 64 40 0 20 -3 23
-12 14 -7 -7 -26 -12 -43 -12 -45 0 -68 30 -68 85 0 55 23 85 68 85 17 0 36
-5 43 -12z m220 0 c7 -7 12 -43 12 -90 0 -63 -3 -78 -15 -78 -8 0 -15 5 -15
12 0 9 -3 9 -12 0 -7 -7 -26 -12 -43 -12 -38 0 -55 16 -55 51 0 33 20 51 67
58 42 7 53 25 25 40 -13 7 -26 6 -43 -3 -35 -18 -55 -9 -33 15 20 22 93 26
112 7z m92 0 c0 -9 3 -9 12 0 17 17 68 15 90 -5 14 -13 18 -31 18 -90 0 -66
-2 -74 -17 -71 -15 3 -19 17 -23 73 -5 70 -5 70 -35 70 -30 0 -30 0 -35 -70
-4 -56 -8 -70 -22 -73 -16 -3 -18 6 -18 87 0 74 3 91 15 91 8 0 15 -5 15 -12z
m-1505 -2724 c12 -12 13 -20 5 -28 -8 -8 -14 -6 -21 7 -14 23 -46 22 -59 -4
-25 -46 10 -96 50 -71 26 16 41 15 34 -2 -8 -20 -55 -35 -81 -25 -42 16 -55
86 -22 126 16 18 74 16 94 -3z m142 8 c6 -4 17 -21 23 -37 22 -57 -31 -115
-87 -94 -68 25 -51 139 20 139 18 0 37 -4 44 -8z m159 -3 c8 -7 14 -7 19 1 8
14 48 13 63 -2 18 -18 16 -128 -3 -128 -10 0 -15 15 -17 58 -3 49 -6 57 -23
57 -17 0 -20 -8 -23 -57 -2 -43 -7 -58 -17 -58 -11 0 -15 14 -15 55 0 42 -4
57 -16 62 -25 9 -44 -24 -44 -74 0 -24 -4 -43 -10 -43 -6 0 -10 29 -10 68 l0
68 42 1 c23 1 47 -2 54 -8z m249 -11 c39 -57 -10 -147 -64 -118 -17 9 -20 6
-23 -22 -2 -17 -9 -33 -15 -36 -10 -3 -13 21 -13 96 l0 99 50 2 c40 0 52 -3
65 -21z m143 10 c7 -7 12 -38 12 -69 0 -49 -3 -58 -17 -57 -10 1 -28 -2 -40
-6 -16 -5 -28 -1 -42 13 -12 12 -21 25 -21 30 0 19 32 41 61 41 22 0 29 5 29
20 0 23 -21 26 -50 8 -24 -15 -37 -4 -20 17 15 18 71 20 88 3z m159 0 c19 -16
18 -128 -2 -128 -12 0 -15 13 -15 55 0 40 -4 57 -15 61 -27 11 -45 -16 -45
-67 0 -37 -4 -49 -15 -49 -12 0 -15 14 -15 69 l0 68 47 1 c26 1 53 -4 60 -10z
m83 -43 l18 -50 11 28 c6 15 14 39 17 52 3 14 12 25 20 25 19 0 18 -3 -12 -90
-31 -86 -54 -116 -81 -106 -16 7 -16 9 7 26 l25 19 -27 76 c-24 65 -25 76 -11
73 9 -2 24 -24 33 -53z m284 33 c15 -25 -1 -34 -24 -13 -10 9 -26 15 -34 12
-20 -8 -32 -56 -19 -76 12 -18 53 -28 53 -12 0 6 9 11 20 11 28 0 15 -26 -18
-38 -69 -24 -120 54 -76 116 12 18 24 22 51 20 20 -2 41 -10 47 -20z m148 5
c23 -20 24 -85 2 -107 -41 -42 -114 -8 -114 53 0 62 67 95 112 54z m154 7 c8
-8 14 -8 19 0 8 14 48 13 63 -2 18 -18 16 -128 -3 -128 -10 0 -15 15 -17 58
-3 49 -6 57 -23 57 -17 0 -20 -8 -23 -57 -2 -43 -7 -58 -17 -58 -11 0 -15 14
-15 55 0 42 -4 57 -16 62 -25 9 -44 -24 -44 -75 0 -30 -4 -42 -12 -40 -13 5
-24 99 -15 123 6 15 86 19 103 5z m-446 -115 c0 -8 -6 -15 -14 -15 -17 0 -28
14 -19 24 12 12 33 6 33 -9z"/>
<path d="M5256 4221 c-55 -36 -76 -109 -56 -191 32 -132 196 -137 231 -7 21
80 -7 174 -61 202 -39 20 -79 19 -114 -4z"/>
<path d="M6237 4233 c-4 -3 -7 -39 -7 -80 l0 -73 60 0 c74 0 100 20 100 79 0
53 -34 81 -100 81 -26 0 -50 -3 -53 -7z"/>
<path d="M6646 4133 c-14 -43 -26 -84 -26 -91 0 -8 18 -12 55 -12 39 0 55 4
55 13 0 14 -47 157 -54 164 -2 2 -16 -31 -30 -74z"/>
<path d="M8606 4200 c-23 -58 -53 -159 -48 -164 8 -9 112 -7 112 2 0 26 -59
175 -64 162z"/>
<path d="M4895 3261 c-21 -4 -30 -12 -30 -26 0 -27 44 -33 62 -9 14 19 17 45
6 43 -5 -1 -21 -4 -38 -8z"/>
<path d="M5053 3303 c-5 -16 -7 -39 -3 -53 5 -21 12 -25 40 -25 28 0 36 5 43
25 14 41 -7 80 -42 80 -23 0 -31 -6 -38 -27z"/>
<path d="M5542 3318 c-15 -15 -16 -63 -2 -89 6 -11 21 -19 35 -19 28 0 45 26
45 67 0 34 -16 53 -45 53 -12 0 -26 -5 -33 -12z"/>
<path d="M6430 3305 c-14 -36 -13 -47 6 -73 34 -50 95 -2 78 61 -8 26 -15 33
-42 35 -27 3 -34 -1 -42 -23z"/>
<path d="M6628 3305 c-24 -53 26 -109 68 -75 14 13 19 56 8 84 -10 27 -62 20
-76 -9z"/>
<path d="M6855 3261 c-21 -4 -30 -12 -30 -26 0 -24 38 -33 61 -15 14 13 20 51
7 49 -5 -1 -21 -4 -38 -8z"/>
<path d="M5582 608 c-7 -7 -12 -24 -12 -38 0 -48 49 -69 70 -30 25 46 -23 103
-58 68z"/>
<path d="M5982 608 c-17 -17 -15 -63 4 -79 22 -18 48 0 52 35 6 45 -29 71 -56
44z"/>
<path d="M6130 550 c-11 -7 -12 -12 -3 -21 15 -15 47 -7 51 14 4 19 -23 23
-48 7z"/>
<path d="M6802 608 c-17 -17 -15 -63 3 -78 35 -29 74 16 51 61 -13 28 -36 35
-54 17z"/>
<path d="M368 7395 c-131 -54 -247 -165 -309 -293 -17 -35 -29 -66 -26 -68 2
-2 35 28 74 68 82 86 206 205 283 271 62 53 59 56 -22 22z"/>
<path d="M0 1610 l0 -335 81 -105 c345 -444 786 -828 1261 -1100 l122 -70 455
1 456 0 -155 53 c-921 314 -1688 952 -2172 1806 l-48 85 0 -335z"/>
<path d="M0 919 l0 -241 78 -86 c136 -151 402 -390 589 -530 l82 -62 292 0
293 0 -90 53 c-202 120 -438 292 -639 467 -141 123 -382 373 -499 518 -54 67
-100 122 -102 122 -2 0 -4 -108 -4 -241z"/>
<path d="M5 523 c35 -292 292 -522 584 -523 l54 0 -79 62 c-142 111 -276 231
-422 376 l-144 142 7 -57z"/>
</g>
</svg>
