<?xml version="1.0" standalone="no"?>
<!DOCTYPE svg PUBLIC "-//W3C//DTD SVG 20010904//EN"
 "http://www.w3.org/TR/2001/REC-SVG-20010904/DTD/svg10.dtd">
<svg version="1.0" xmlns="http://www.w3.org/2000/svg"
 width="2012.000000pt" height="1092.000000pt" viewBox="0 0 2012.000000 1092.000000"
 preserveAspectRatio="xMidYMid meet">

<g transform="translate(0.000000,1092.000000) scale(0.100000,-0.100000)"
fill="#000000" stroke="none">
<path d="M465 10905 c-132 -29 -259 -109 -339 -216 -101 -133 -128 -235 -124
-466 l3 -156 91 114 c138 173 329 384 516 571 l169 168 -128 -1 c-70 0 -155
-7 -188 -14z"/>
<path d="M765 10766 c-237 -227 -485 -503 -683 -758 l-82 -106 0 -423 0 -422
71 114 c383 612 944 1237 1503 1675 47 37 86 69 86 71 0 1 -165 3 -368 3
l-367 0 -160 -154z"/>
<path d="M1718 10836 c-438 -340 -863 -764 -1203 -1201 -130 -167 -309 -427
-417 -607 l-98 -162 0 -676 1 -675 53 145 c172 472 376 870 669 1310 219 329
444 599 756 910 396 395 800 705 1261 969 l124 71 -520 0 -519 -1 -107 -83z"/>
<path d="M3040 10902 c-371 -195 -635 -364 -935 -596 -844 -656 -1478 -1494
-1892 -2501 -53 -128 -108 -283 -169 -480 l-44 -140 0 -1620 0 -1620 44 -140
c108 -343 185 -540 335 -850 291 -600 666 -1130 1129 -1599 560 -565 1191
-997 1904 -1302 l127 -54 8053 2 8053 3 75 27 c149 55 274 167 341 306 64 132
59 -278 57 5154 l-3 4953 -27 75 c-72 196 -239 344 -436 385 -58 13 -1204 15
-8322 15 -7983 0 -8256 -1 -8290 -18z m2740 -75 l0 -44 -228 -11 c-741 -39
-1396 -203 -2027 -507 -279 -135 -449 -234 -760 -446 -78 -53 -325 -247 -411
-324 -873 -772 -1450 -1761 -1683 -2885 -131 -632 -136 -1367 -15 -2010 168
-897 558 -1710 1163 -2425 111 -131 436 -455 581 -579 501 -428 1104 -767
1744 -981 426 -142 1048 -255 1411 -255 50 0 120 -3 158 -7 l67 -6 0 -45 0
-45 -207 7 c-832 26 -1644 254 -2390 670 -607 338 -1165 819 -1601 1379 -353
453 -651 1008 -830 1542 -118 353 -172 578 -226 940 -88 593 -70 1230 49 1830
120 600 354 1192 683 1725 743 1206 1951 2074 3327 2389 356 82 718 127 1043
130 l152 1 0 -43z m0 -672 c0 -25 -1 -45 -2 -45 -2 0 -96 -5 -209 -10 -1194
-56 -2288 -562 -3114 -1440 -617 -657 -1033 -1518 -1169 -2420 -65 -433 -61
-969 9 -1402 144 -881 532 -1679 1139 -2343 456 -499 1015 -885 1663 -1149
212 -86 577 -193 818 -240 196 -38 528 -76 671 -76 39 0 99 -3 133 -6 l61 -7
0 -45 0 -45 -182 6 c-499 18 -960 109 -1433 284 -990 366 -1827 1064 -2376
1981 -114 190 -281 539 -357 748 -139 378 -214 689 -264 1104 -29 236 -31 765
-5 995 49 416 121 730 248 1083 78 217 124 323 230 532 388 770 994 1424 1737
1874 688 418 1493 653 2275 664 l127 2 0 -45z m0 -689 l0 -43 -137 -7 c-727
-37 -1344 -230 -1938 -606 -434 -275 -830 -661 -1122 -1095 -104 -155 -133
-205 -229 -390 -219 -424 -346 -845 -406 -1340 -8 -69 -13 -225 -13 -420 0
-195 5 -351 13 -420 56 -463 167 -848 362 -1252 449 -930 1242 -1633 2225
-1973 324 -112 793 -200 1070 -200 39 0 94 -3 123 -6 l52 -7 0 -45 0 -45 -167
6 c-872 33 -1712 359 -2373 920 -290 246 -528 510 -728 805 -430 635 -658
1345 -679 2117 -21 804 191 1559 630 2245 484 754 1246 1338 2107 1615 347
111 756 181 1078 184 l132 1 0 -44z m0 -786 l0 -50 -67 0 c-38 0 -122 -5 -188
-10 -886 -76 -1671 -512 -2205 -1225 -464 -620 -674 -1394 -589 -2175 22 -208
96 -516 176 -735 56 -153 213 -458 312 -607 486 -726 1224 -1203 2071 -1337
146 -24 327 -41 423 -41 l67 0 0 -50 0 -50 -42 0 c-24 0 -106 5 -183 10 -1120
83 -2103 741 -2607 1744 -224 446 -331 905 -330 1416 0 504 106 959 323 1394
350 698 923 1233 1643 1531 330 136 753 225 1119 233 l77 2 0 -50z m0 -688 l0
-49 -117 -6 c-338 -17 -644 -97 -948 -250 -252 -126 -449 -271 -646 -475 -349
-362 -569 -811 -645 -1317 -25 -164 -25 -495 -1 -655 106 -693 475 -1276 1047
-1655 122 -81 308 -181 420 -225 230 -91 513 -153 768 -166 l122 -7 0 -50 0
-50 -117 7 c-528 31 -1012 213 -1425 536 -103 81 -303 279 -388 385 -382 478
-582 1106 -540 1696 26 364 96 627 250 944 237 487 627 878 1129 1129 300 151
691 248 1024 255 l67 1 0 -48z m-10 -786 c0 -42 -1 -44 -37 -50 -21 -3 -58 -6
-83 -6 -156 -1 -393 -67 -583 -161 -313 -156 -555 -397 -713 -711 -217 -432
-220 -968 -7 -1393 162 -323 404 -567 718 -723 212 -105 331 -136 648 -168
l57 -5 0 -46 0 -46 -112 6 c-321 19 -639 137 -903 336 -88 66 -249 225 -315
311 -467 610 -465 1452 5 2055 88 113 266 280 376 353 198 132 391 214 603
257 143 28 167 31 269 33 l77 2 0 -44z m-116 -796 c14 -5 29 -17 35 -27 5 -10
20 -176 32 -368 25 -386 24 -399 -34 -419 -54 -19 -69 0 -333 420 -171 273
-170 265 -52 318 40 18 111 42 158 54 135 33 158 36 194 22z m581 -563 c67
-70 136 -190 137 -239 1 -20 -6 -37 -20 -48 -23 -19 -373 -110 -422 -110 -63
0 -96 69 -59 122 85 121 224 306 241 321 35 30 59 21 123 -46z m-872 -303
c106 -43 200 -84 210 -92 23 -20 23 -84 -1 -105 -27 -24 -420 -149 -444 -141
-34 10 -48 64 -48 182 0 154 26 230 78 232 7 0 99 -34 205 -76z m791 -304 c98
-33 189 -66 202 -75 49 -32 25 -103 -77 -231 -79 -100 -144 -128 -185 -81 -37
41 -224 354 -224 374 0 35 38 73 74 73 17 0 112 -27 210 -60z m-436 -46 c22
-25 22 -27 16 -242 -5 -173 -10 -221 -22 -234 -30 -35 -143 -17 -267 43 -101
48 -126 79 -101 126 24 45 273 331 293 336 29 7 56 -3 81 -29z m3141 -4495
c30 -11 51 -35 51 -58 0 -18 -35 -12 -53 9 -21 25 -49 26 -70 3 -36 -41 -29
-110 14 -133 18 -10 26 -8 50 9 52 39 80 20 37 -26 -30 -32 -97 -32 -135 1
-25 22 -28 31 -28 84 0 63 17 95 60 113 28 11 37 11 74 -2z m237 -4 c100 -42
70 -215 -38 -215 -50 0 -74 13 -94 52 -31 60 -5 146 51 169 29 11 42 11 81 -6z
m262 -13 c11 -14 13 -14 26 3 18 25 80 26 104 2 13 -14 17 -36 17 -110 0 -87
-1 -92 -22 -95 -21 -3 -22 0 -25 84 -2 70 -6 89 -20 98 -13 8 -23 8 -35 0 -15
-9 -19 -28 -21 -98 -3 -84 -3 -86 -27 -86 -25 0 -25 1 -25 84 0 96 -12 117
-55 98 -22 -10 -24 -17 -27 -94 -3 -77 -5 -83 -25 -86 -23 -3 -23 -2 -23 107
l0 111 25 0 c14 0 25 -4 25 -9 0 -6 12 -3 28 4 30 16 61 11 80 -13z m380 -8
c18 -20 22 -37 22 -85 0 -50 -4 -64 -25 -84 -25 -26 -88 -35 -100 -15 -14 23
-25 7 -25 -40 0 -47 -2 -50 -25 -50 l-25 0 0 150 0 150 25 0 c14 0 25 -4 25
-9 0 -6 12 -3 28 5 34 18 71 10 100 -22z m198 26 c45 -18 53 -38 54 -132 0
-81 -2 -88 -19 -88 -11 0 -23 5 -27 11 -4 8 -9 8 -17 0 -14 -14 -72 -14 -97
-1 -22 12 -34 54 -21 79 12 21 52 39 96 43 25 2 30 8 30 28 0 31 -35 39 -71
15 -14 -9 -33 -14 -41 -11 -14 6 -13 9 3 27 33 37 66 45 110 29z m277 -22 c13
-16 17 -39 17 -109 0 -82 -1 -89 -20 -89 -18 0 -20 7 -20 74 0 58 -4 79 -19
97 -19 23 -21 23 -48 9 -27 -15 -28 -19 -31 -98 -3 -74 -5 -82 -22 -82 -19 0
-20 7 -20 110 0 103 1 110 20 110 12 0 20 -7 20 -17 0 -15 1 -15 13 -1 26 33
80 32 110 -4z m553 7 c12 -8 24 -23 27 -34 4 -17 0 -21 -17 -21 -11 0 -27 9
-34 20 -15 24 -40 26 -70 4 -17 -12 -22 -25 -22 -58 0 -70 49 -107 89 -67 28
28 61 28 54 1 -14 -53 -114 -69 -158 -26 -58 58 -34 180 40 199 26 7 65 -1 91
-18z m243 -10 c46 -45 35 -156 -18 -185 -36 -19 -100 -12 -125 13 -32 32 -42
94 -22 141 27 66 113 82 165 31z m222 16 c20 -16 26 -17 39 -6 31 28 67 29 94
1 24 -23 26 -32 26 -116 0 -89 -1 -91 -22 -88 -21 3 -23 9 -26 83 -3 78 -12
105 -38 105 -32 0 -44 -31 -44 -111 0 -72 -2 -79 -20 -79 -18 0 -20 7 -20 79
0 59 -4 84 -16 95 -20 20 -33 20 -56 -1 -14 -13 -18 -31 -18 -95 0 -71 -2 -78
-20 -78 -19 0 -20 7 -20 110 0 103 1 110 20 110 11 0 20 -4 20 -9 0 -6 12 -3
28 5 36 18 45 18 73 -5z m-891 -75 c14 -44 29 -76 32 -70 2 5 15 42 28 82 20
62 26 72 46 72 l24 0 -26 -72 c-77 -219 -82 -228 -138 -228 -14 0 -26 2 -26 4
0 18 15 36 31 36 33 0 32 41 -5 145 -20 55 -36 104 -36 108 0 5 10 7 22 5 17
-2 27 -19 48 -82z m214 -101 c6 -18 -20 -39 -39 -31 -18 7 -20 43 -2 49 17 6
34 -2 41 -18z"/>
<path d="M9018 653 c-52 -60 -9 -165 55 -132 31 16 37 28 37 72 0 63 -57 100
-92 60z"/>
<path d="M9627 652 c-22 -24 -23 -105 -2 -122 18 -15 63 -16 77 -2 6 6 13 30
15 55 4 36 1 49 -16 66 -26 26 -53 27 -74 3z"/>
<path d="M9873 570 c-31 -13 -30 -48 1 -56 34 -8 66 12 66 41 0 27 -24 32 -67
15z"/>
<path d="M10902 654 c-17 -12 -22 -25 -22 -58 0 -69 46 -104 90 -68 44 36 22
142 -29 142 -9 0 -27 -7 -39 -16z"/>
<path d="M1 2949 l-1 -667 103 -168 c280 -458 589 -849 976 -1234 327 -326
604 -557 954 -794 l127 -86 563 0 562 1 -170 83 c-625 305 -1149 679 -1646
1175 -653 652 -1140 1425 -1445 2291 l-23 65 0 -666z"/>
<path d="M0 1661 l0 -433 67 -87 c268 -347 630 -730 951 -1008 l153 -133 406
0 407 0 -40 28 c-153 109 -203 146 -315 233 -554 432 -1046 958 -1440 1538
-46 69 -108 163 -136 210 l-53 86 0 -434z"/>
<path d="M0 800 c0 -267 10 -363 42 -424 7 -14 74 -89 148 -167 193 -204 216
-212 594 -207 l229 3 -124 111 c-257 230 -577 566 -794 834 -38 47 -74 92 -82
100 -11 12 -13 -30 -13 -250z"/>
</g>
</svg>
