<?xml version="1.0" encoding="UTF-8"?>
<svg version="1.1" xmlns="http://www.w3.org/2000/svg" width="273" height="272">
<path d="M0 0 C90.09 0 180.18 0 273 0 C273 89.76 273 179.52 273 272 C182.91 272 92.82 272 0 272 C0 182.24 0 92.48 0 0 Z " fill="#FEFEFD" transform="translate(0,0)"/>
<path d="M0 0 C90.09 0 180.18 0 273 0 C273 89.76 273 179.52 273 272 C182.91 272 92.82 272 0 272 C0 182.24 0 92.48 0 0 Z M16 9 C14.3603125 10.0828125 14.3603125 10.0828125 12.6875 11.1875 C5.35050778 18.86574767 3.84865701 27.43883832 3.85955811 37.70294189 C3.85658698 38.57882768 3.85361586 39.45471347 3.8505547 40.35714126 C3.8418838 43.2918148 3.84036082 46.22644748 3.83886719 49.16113281 C3.83423789 51.26546821 3.82921308 53.36980277 3.82382202 55.47413635 C3.8107071 61.19120407 3.80425487 66.90826005 3.79981136 72.62534046 C3.79687927 76.19791891 3.79277421 79.77049415 3.78830719 83.34307098 C3.77463486 94.52315768 3.76496682 105.70323706 3.7611053 116.88333154 C3.75662458 129.78489323 3.73907485 142.68634898 3.7101047 155.58787847 C3.68848305 165.56341114 3.67840076 175.53891401 3.67706418 185.51446986 C3.67601654 191.47106548 3.67011718 197.42756146 3.65224457 203.38413239 C3.63575555 208.988537 3.63361251 214.59276718 3.64238358 220.19718742 C3.64315349 222.25103917 3.63881727 224.30490034 3.62892532 226.35872841 C3.61618644 229.16906671 3.62209324 231.97878896 3.63250732 234.78912354 C3.62445092 235.59605125 3.61639452 236.40297896 3.60809398 237.23435903 C3.69267154 247.03693746 7.00260429 255.08303413 14 262 C20.7780816 266.72889414 26.47874497 268.14906327 34.68348694 268.15390015 C35.58145963 268.1582824 36.47943231 268.16266465 37.4046163 268.1671797 C40.42607767 268.18057834 43.44750987 268.18674901 46.46899414 268.19287109 C48.63052503 268.20077133 50.79205459 268.20904023 52.95358276 268.21765137 C60.06409442 268.24388438 67.174612 268.25918204 74.28515625 268.2734375 C76.73259421 268.27879698 79.18003213 268.28417449 81.62747002 268.28956985 C91.80922084 268.31120201 101.99097008 268.32993811 112.17273808 268.34119225 C126.7644068 268.35742649 141.35580901 268.39058804 155.94737726 268.44759309 C166.20653254 268.48630553 176.46561657 268.50582661 186.72484297 268.51111281 C192.85204849 268.51476493 198.97896984 268.52677173 205.10609627 268.55921555 C210.87389027 268.58931805 216.64122849 268.59559989 222.40908432 268.58383179 C224.52219149 268.58361123 226.63531994 268.59190163 228.74835396 268.60948563 C243.67533505 269.02079528 243.67533505 269.02079528 257 263 C257.94875 262.360625 258.8975 261.72125 259.875 261.0625 C267.01437693 254.13310474 269.07363017 245.93213564 269.34992588 236.27097046 C269.41854979 231.6146455 269.41546836 226.95968996 269.40405273 222.30297852 C269.40976091 220.20114785 269.4167269 218.09932028 269.42485046 215.99749756 C269.44274688 210.30947107 269.44162014 204.62159914 269.43590808 198.93355298 C269.43281133 194.17715855 269.43891406 189.4207936 269.44494683 184.66440338 C269.45897873 173.44022495 269.45744168 162.21612266 269.44604492 150.99194336 C269.43456324 139.42890019 269.44864341 127.86608894 269.4754414 116.30307633 C269.49762132 106.35881946 269.50423064 96.41463528 269.49836498 86.47035545 C269.49499994 80.53834758 269.49738066 74.60648839 269.51461601 68.67450142 C269.53011965 63.09540256 269.52609145 57.51664652 269.50731087 51.93756104 C269.50363457 49.89583843 269.50670531 47.85409024 269.51719666 45.81239128 C269.7306427 27.2655512 269.7306427 27.2655512 260.77734375 11.5 C254.09801361 5.86293896 247.74572705 3.87332408 239.14105225 3.87974548 C238.1068705 3.87846385 238.1068705 3.87846385 237.0517962 3.87715632 C234.74251214 3.87550974 232.4333008 3.88100943 230.12402344 3.88647461 C228.46828208 3.88675668 226.8125406 3.88659835 225.15679932 3.8860321 C220.66130085 3.88574492 216.165829 3.8916289 211.67033672 3.89860606 C206.97246625 3.90485274 202.27459518 3.90544444 197.57672119 3.90663147 C188.68035752 3.9097409 179.78400613 3.91794908 170.88764787 3.92798096 C158.86618606 3.94124289 146.84472091 3.94664514 134.82325363 3.95248318 C115.88215989 3.96188921 96.94109205 3.98181073 78 4 C78 40.96 78 77.92 78 116 C80.31 116.99 82.62 117.98 85 119 C87.37040308 121.37040308 87.34465793 122.06302753 87.4375 125.3125 C87.49744141 126.45138672 87.49744141 126.45138672 87.55859375 127.61328125 C86.67030544 131.40869495 85.14349295 132.72313418 82 135 C78.56230888 135.73394687 75.1940523 135.79019684 71.6875 135.8125 C70.75615234 135.83763672 69.82480469 135.86277344 68.86523438 135.88867188 C66.57639814 135.94735998 64.28946574 135.98377168 62 136 C62 137.98 62 139.96 62 142 C62.99 142 63.98 142 65 142 C65 148.27 65 154.54 65 161 C57 162 57 162 55.03198242 160.81323242 C53.84260429 158.72344975 53.57839402 157.38528104 53.48828125 154.98828125 C53.45283203 154.23095703 53.41738281 153.47363281 53.38085938 152.69335938 C53.35830078 151.90767578 53.33574219 151.12199219 53.3125 150.3125 C53.27833984 149.51521484 53.24417969 148.71792969 53.20898438 147.89648438 C53.12661896 145.93148096 53.06162933 143.96576304 53 142 C53.99 142 54.98 142 56 142 C56 138.37 56 134.74 56 131 C57.78148437 131.02320313 59.56296875 131.04640625 61.3984375 131.0703125 C63.72395416 131.08906667 66.04947533 131.10726724 68.375 131.125 C70.1384375 131.15013672 70.1384375 131.15013672 71.9375 131.17578125 C73.05898437 131.18222656 74.18046875 131.18867188 75.3359375 131.1953125 C76.37282715 131.20578613 77.4097168 131.21625977 78.47802734 131.22705078 C81.17108623 131.25615026 81.17108623 131.25615026 83 129 C83.33333333 126 83.33333333 126 83 123 C82.34 122.34 81.68 121.68 81 121 C80.01 121 79.02 121 78 121 C78 122.32 78 123.64 78 125 C66.12 125 54.24 125 42 125 C42 123.35 42 121.7 42 120 C40.35 120 38.7 120 37 120 C37 118.68 37 117.36 37 116 C38.32 116 39.64 116 41 116 C41 79.04 41 42.08 41 4 C27.10024819 3.57767506 27.10024819 3.57767506 16 9 Z " fill="#D1D1D1" transform="translate(0,0)"/>
<path d="M0 0 C12.21 0 24.42 0 37 0 C37 36.96 37 73.92 37 112 C39.97 112.495 39.97 112.495 43 113 C45.375 114.5 45.375 114.5 47 117 C47.85357547 121.65982527 47.65376571 124.95397486 45.125 129 C42.08145928 131.86450892 40.49963864 132.12341543 36.4296875 132.09765625 C35.53378906 132.09443359 34.63789062 132.09121094 33.71484375 132.08789062 C32.77769531 132.07951172 31.84054688 132.07113281 30.875 132.0625 C29.93011719 132.05798828 28.98523438 132.05347656 28.01171875 132.04882812 C25.67441613 132.03702357 23.33723939 132.02055759 21 132 C21 133.98 21 135.96 21 138 C21.99 138 22.98 138 24 138 C24 144.27 24 150.54 24 157 C19.66437185 159.16781407 18.50491 159.27312674 14 158 C11.96879293 154.95318939 11.75340125 154.39881676 11.8046875 150.98828125 C11.81435547 149.85229492 11.81435547 149.85229492 11.82421875 148.69335938 C11.84097656 147.90767578 11.85773437 147.12199219 11.875 146.3125 C11.88402344 145.51521484 11.89304687 144.71792969 11.90234375 143.89648438 C11.92588415 141.930861 11.96175453 139.96539225 12 138 C12.99 138 13.98 138 15 138 C15 134.37 15 130.74 15 127 C16.79308594 126.93941406 18.58617188 126.87882812 20.43359375 126.81640625 C22.76823824 126.73202151 25.10287319 126.64737249 27.4375 126.5625 C28.62150391 126.52318359 29.80550781 126.48386719 31.02539062 126.44335938 C32.15009766 126.40146484 33.27480469 126.35957031 34.43359375 126.31640625 C35.47572021 126.27974854 36.51784668 126.24309082 37.59155273 126.20532227 C39.9499826 126.26484659 39.9499826 126.26484659 41 125 C41.04080783 123.00041636 41.04254356 120.99954746 41 119 C39.68 118.34 38.36 117.68 37 117 C37 118.32 37 119.64 37 121 C25.12 121 13.24 121 1 121 C1 119.35 1 117.7 1 116 C-0.65 116 -2.3 116 -4 116 C-4 114.68 -4 113.36 -4 112 C-2.68 112 -1.36 112 0 112 C0 75.04 0 38.08 0 0 Z " fill="#FDCB07" transform="translate(41,4)"/>
<path d="M0 0 C12.21 0 24.42 0 37 0 C37 1.65 37 3.3 37 5 C37.9075 5.0825 38.815 5.165 39.75 5.25 C43.58874809 6.13586494 44.85229792 6.69584296 47 10 C47.85357547 14.65982527 47.65376571 17.95397486 45.125 22 C42.08145928 24.86450892 40.49963864 25.12341543 36.4296875 25.09765625 C35.53378906 25.09443359 34.63789062 25.09121094 33.71484375 25.08789062 C32.77769531 25.07951172 31.84054688 25.07113281 30.875 25.0625 C29.93011719 25.05798828 28.98523438 25.05347656 28.01171875 25.04882812 C25.67441613 25.03702357 23.33723939 25.02055759 21 25 C21 26.98 21 28.96 21 31 C21.99 31 22.98 31 24 31 C24 37.27 24 43.54 24 50 C19.66437185 52.16781407 18.50491 52.27312674 14 51 C11.96879293 47.95318939 11.75340125 47.39881676 11.8046875 43.98828125 C11.81435547 42.85229492 11.81435547 42.85229492 11.82421875 41.69335938 C11.84097656 40.90767578 11.85773437 40.12199219 11.875 39.3125 C11.88402344 38.51521484 11.89304687 37.71792969 11.90234375 36.89648438 C11.92588415 34.930861 11.96175453 32.96539225 12 31 C12.99 31 13.98 31 15 31 C15 27.37 15 23.74 15 20 C16.79308594 19.93941406 18.58617188 19.87882812 20.43359375 19.81640625 C22.76823824 19.73202151 25.10287319 19.64737249 27.4375 19.5625 C28.62150391 19.52318359 29.80550781 19.48386719 31.02539062 19.44335938 C32.15009766 19.40146484 33.27480469 19.35957031 34.43359375 19.31640625 C35.47572021 19.27974854 36.51784668 19.24309082 37.59155273 19.20532227 C39.9499826 19.26484659 39.9499826 19.26484659 41 18 C41.04080783 16.00041636 41.04254356 13.99954746 41 12 C39.68 11.34 38.36 10.68 37 10 C37 11.32 37 12.64 37 14 C25.12 14 13.24 14 1 14 C1 12.35 1 10.7 1 9 C-0.65 9 -2.3 9 -4 9 C-4 7.68 -4 6.36 -4 5 C-2.68 5 -1.36 5 0 5 C0 3.35 0 1.7 0 0 Z " fill="#1D1B19" transform="translate(41,111)"/>
<path d="M0 0 C2.27734375 0.09765625 2.27734375 0.09765625 5 1 C6.47183781 3.17452167 7.50106905 5.06703908 8.5625 7.4375 C8.88404053 8.12110596 9.20558105 8.80471191 9.53686523 9.5090332 C10.27319611 11.08119913 11.00116922 12.65729509 11.72265625 14.23632812 C13.18477107 17.39977228 14.70087614 20.53481719 16.21875 23.671875 C17.33470435 26.00976273 18.44928749 28.34830547 19.5625 30.6875 C20.11172119 31.82179443 20.66094238 32.95608887 21.22680664 34.12475586 C21.98272095 35.73942749 21.98272095 35.73942749 22.75390625 37.38671875 C23.21095947 38.34795654 23.6680127 39.30919434 24.13891602 40.29956055 C25.10580458 43.33181299 24.89826483 44.98535064 24 48 C23.01 48 22.02 48 21 48 C19.02 44.04 17.04 40.08 15 36 C2.13 35.505 2.13 35.505 -11 35 C-11.99 37.97 -12.98 40.94 -14 44 C-14.66 44.99 -15.32 45.98 -16 47 C-17.32 47 -18.64 47 -20 47 C-19.51719904 40.49112782 -17.14788035 35.35639221 -14.375 29.5 C-13.70210938 28.05210083 -13.70210938 28.05210083 -13.015625 26.57495117 C-12.110329 24.62937306 -11.20119883 22.68557405 -10.28808594 20.74365234 C-9.13068422 18.27836037 -7.98721129 15.80739919 -6.8515625 13.33203125 C-2.30715055 3.46072583 -2.30715055 3.46072583 0 0 Z " fill="#282828" transform="translate(106,115)"/>
<path d="M0 0 C1.32 0.33 2.64 0.66 4 1 C4 16.18 4 31.36 4 47 C-1 47 -1 47 -3.10546875 45.05078125 C-3.79253906 44.14714844 -4.47960937 43.24351562 -5.1875 42.3125 C-5.96480469 41.30703125 -6.74210937 40.3015625 -7.54296875 39.265625 C-7.94563965 38.73001953 -8.34831055 38.19441406 -8.76318359 37.64257812 C-9.98909644 36.01448068 -11.23492765 34.40391469 -12.48828125 32.796875 C-18.08495905 25.60022475 -23.52947334 18.29403555 -29 11 C-29.33 22.55 -29.66 34.1 -30 46 C-31.32 46.66 -32.64 47.32 -34 48 C-36 46 -36 46 -36.24723816 44.09580994 C-36.24581314 43.32161209 -36.24438812 42.54741425 -36.24291992 41.74975586 C-36.24599655 40.87222153 -36.24907318 39.99468719 -36.25224304 39.09056091 C-36.24505753 38.14157425 -36.23787201 37.19258759 -36.23046875 36.21484375 C-36.23001053 35.24341934 -36.22955231 34.27199493 -36.2290802 33.27113342 C-36.22605624 31.21581807 -36.21816566 29.16050505 -36.20581055 27.10522461 C-36.18755503 23.94702095 -36.18530081 20.78911027 -36.18554688 17.63085938 C-36.18063182 15.63801828 -36.17480355 13.64517918 -36.16796875 11.65234375 C-36.16685593 10.70133286 -36.1657431 9.75032196 -36.16459656 8.77049255 C-36.15821671 7.89611038 -36.15183685 7.02172821 -36.14526367 6.12084961 C-36.14145187 5.34744736 -36.13764008 4.5740451 -36.13371277 3.77720642 C-36 2 -36 2 -35 1 C-32.8125 0.50390625 -32.8125 0.50390625 -30 1 C-27.65525655 3.03388731 -25.86774356 5.46954287 -24 7.9375 C-23.44401123 8.64737061 -22.88802246 9.35724121 -22.31518555 10.08862305 C-20.52733328 12.38041347 -18.76304031 14.68908453 -17 17 C-15.77812174 18.58133062 -14.5554691 20.16206319 -13.33203125 21.7421875 C-4.78842587 32.8173612 -4.78842587 32.8173612 -2 37 C-1.96241577 35.37203491 -1.96241577 35.37203491 -1.92407227 33.71118164 C-1.83016245 29.698684 -1.72990233 25.68636618 -1.62768555 21.67407227 C-1.58427427 19.93485712 -1.54260388 18.19559765 -1.50268555 16.45629883 C-1.44513232 13.96161512 -1.3813958 11.4671559 -1.31640625 8.97265625 C-1.29969376 8.19036148 -1.28298126 7.40806671 -1.26576233 6.60206604 C-1.11387171 1.11387171 -1.11387171 1.11387171 0 0 Z " fill="#303030" transform="translate(191,115)"/>
<path d="M0 0 C2.93785297 0.32642811 4.81876259 0.8824406 7.3125 2.5 C9.82575482 6.22334048 9.79309514 9.63797673 9 14 C7.20606332 16.87029869 6.01736724 18.49131638 3 20 C1.47851674 20.08372659 -0.04655778 20.10730027 -1.5703125 20.09765625 C-2.46621094 20.09443359 -3.36210938 20.09121094 -4.28515625 20.08789062 C-5.22230469 20.07951172 -6.15945312 20.07113281 -7.125 20.0625 C-8.06988281 20.05798828 -9.01476562 20.05347656 -9.98828125 20.04882812 C-12.32558387 20.03702357 -14.66276061 20.02055759 -17 20 C-17 21.98 -17 23.96 -17 26 C-16.01 26 -15.02 26 -14 26 C-14 32.27 -14 38.54 -14 45 C-18.33562815 47.16781407 -19.49509 47.27312674 -24 46 C-26.03120707 42.95318939 -26.24659875 42.39881676 -26.1953125 38.98828125 C-26.18886719 38.23095703 -26.18242188 37.47363281 -26.17578125 36.69335938 C-26.15902344 35.90767578 -26.14226563 35.12199219 -26.125 34.3125 C-26.11597656 33.51521484 -26.10695312 32.71792969 -26.09765625 31.89648438 C-26.07411585 29.930861 -26.03824547 27.96539225 -26 26 C-25.01 26 -24.02 26 -23 26 C-23 22.37 -23 18.74 -23 15 C-20.31037109 14.90912109 -20.31037109 14.90912109 -17.56640625 14.81640625 C-15.23176176 14.73202151 -12.89712681 14.64737249 -10.5625 14.5625 C-9.37849609 14.52318359 -8.19449219 14.48386719 -6.97460938 14.44335938 C-5.84990234 14.40146484 -4.72519531 14.35957031 -3.56640625 14.31640625 C-2.52427979 14.27974854 -1.48215332 14.24309082 -0.40844727 14.20532227 C1.9499826 14.26484659 1.9499826 14.26484659 3 13 C3.04080783 11.00041636 3.04254356 8.99954746 3 7 C0.525 6.505 0.525 6.505 -2 6 C-2 5.34 -2 4.68 -2 4 C-1.34 4 -0.68 4 0 4 C0 2.68 0 1.36 0 0 Z " fill="#282828" transform="translate(79,116)"/>
<path d="M0 0 C11.88 0 23.76 0 36 0 C36.495 1.98 36.495 1.98 37 4 C36.67 4.33 36.34 4.66 36 5 C31.05 5 26.1 5 21 5 C21 18.53 21 32.06 21 46 C19.02 46.495 19.02 46.495 17 47 C16 46 16 46 15.88647461 42.12280273 C15.88663379 40.39305833 15.89233151 38.66330919 15.90234375 36.93359375 C15.9037587 36.02497086 15.90517365 35.11634796 15.90663147 34.18019104 C15.91224807 31.26592779 15.92480335 28.35174019 15.9375 25.4375 C15.94251286 23.46679798 15.94707614 21.49609476 15.95117188 19.52539062 C15.96222289 14.68356441 15.97949862 9.84179505 16 5 C11.05 5 6.1 5 1 5 C0.67 3.35 0.34 1.7 0 0 Z " fill="#212121" transform="translate(202,116)"/>
<path d="M0 0 C1.32 0.33 2.64 0.66 4 1 C4 16.18 4 31.36 4 47 C-1 47 -1 47 -3.31640625 44.8046875 C-4.05761719 43.83789062 -4.79882812 42.87109375 -5.5625 41.875 C-6.3359375 40.87597656 -7.109375 39.87695312 -7.90625 38.84765625 C-10.039158 35.9467422 -12.09951461 33.05730259 -14 30 C-12.68 28.68 -11.36 27.36 -10 26 C-7.36 29.63 -4.72 33.26 -2 37 C-1.97494385 35.91468994 -1.9498877 34.82937988 -1.92407227 33.71118164 C-1.83016245 29.698684 -1.72990233 25.68636618 -1.62768555 21.67407227 C-1.58427427 19.93485712 -1.54260388 18.19559765 -1.50268555 16.45629883 C-1.44513232 13.96161512 -1.3813958 11.4671559 -1.31640625 8.97265625 C-1.29969376 8.19036148 -1.28298126 7.40806671 -1.26576233 6.60206604 C-1.11387171 1.11387171 -1.11387171 1.11387171 0 0 Z " fill="#252525" transform="translate(191,115)"/>
<path d="M0 0 C2.10497575 2.65621651 3.68035818 5.19281491 5.04296875 8.29296875 C5.39423828 9.08767578 5.74550781 9.88238281 6.10742188 10.70117188 C6.64206055 11.9319043 6.64206055 11.9319043 7.1875 13.1875 C7.55552734 14.01958984 7.92355469 14.85167969 8.30273438 15.70898438 C11 21.84914193 11 21.84914193 11 23 C4.07 23 -2.86 23 -10 23 C-8.02765381 17.08296143 -6.14801477 11.87766299 -3.3125 6.4375 C-2.83200195 5.49680664 -2.83200195 5.49680664 -2.34179688 4.53710938 C-1.56681794 3.02185205 -0.78424704 1.51048128 0 0 Z " fill="#F2F2F2" transform="translate(108,122)"/>
<path d="M0 0 C1.98 0.495 1.98 0.495 4 1 C4 16.18 4 31.36 4 47 C2.02 47.495 2.02 47.495 0 48 C-1.57300328 46.42699672 -1.12725504 44.86315955 -1.12939453 42.6796875 C-1.13254669 41.76203613 -1.13569885 40.84438477 -1.13894653 39.89892578 C-1.1369223 38.90103027 -1.13489807 37.90313477 -1.1328125 36.875 C-1.13376923 35.85776855 -1.13472595 34.84053711 -1.13571167 33.79248047 C-1.13639361 31.63704364 -1.13453835 29.48160478 -1.13037109 27.32617188 C-1.12502305 24.01427629 -1.13031563 20.70251633 -1.13671875 17.390625 C-1.13605797 15.30208303 -1.13477681 13.21354115 -1.1328125 11.125 C-1.13483673 10.12710449 -1.13686096 9.12920898 -1.13894653 8.10107422 C-1.13579437 7.18342285 -1.13264221 6.26577148 -1.12939453 5.3203125 C-1.12859894 4.50836426 -1.12780334 3.69641602 -1.12698364 2.85986328 C-1 1 -1 1 0 0 Z " fill="#1D1D1D" transform="translate(140,115)"/>
<path d="M0 0 C0.33 0 0.66 0 1 0 C1 8.91 1 17.82 1 27 C-6.92 27 -14.84 27 -23 27 C-21.26774726 25.84516484 -19.50968891 24.72409613 -17.6953125 23.703125 C-9.34338058 18.98136409 -4.67026948 13.93710618 -1 5 C-0.23245168 2.18551086 -0.23245168 2.18551086 0 0 Z " fill="#000000" transform="translate(272,245)"/>
<path d="M0 0 C7.92 0 15.84 0 24 0 C22.26774726 1.15483516 20.50968891 2.27590387 18.6953125 3.296875 C10.34338058 8.01863591 5.67026948 13.06289382 2 22 C1.23245168 24.81448914 1.23245168 24.81448914 1 27 C0.67 27 0.34 27 0 27 C0 18.09 0 9.18 0 0 Z " fill="#000000" transform="translate(0,0)"/>
<path d="M0 0 C1.04500458 2.09000916 2.08084058 4.18706134 3.0078125 6.33203125 C6.86748553 14.90158502 11.75403649 19.88715838 20.5 23.4375 C21.99401668 23.975256 23.49209545 24.5025151 25 25 C25 25.33 25 25.66 25 26 C16.75 26 8.5 26 0 26 C0 17.42 0 8.84 0 0 Z " fill="#000000" transform="translate(0,246)"/>
<path d="M0 0 C8.25 0 16.5 0 25 0 C25 8.58 25 17.16 25 26 C23.95499542 23.90999084 22.91915942 21.81293866 21.9921875 19.66796875 C18.13251447 11.09841498 13.24596351 6.11284162 4.5 2.5625 C3.00598332 2.024744 1.50790455 1.4974849 0 1 C0 0.67 0 0.34 0 0 Z " fill="#000000" transform="translate(248,0)"/>
<path d="M0 0 C10.23 0 20.46 0 31 0 C31 0.99 31 1.98 31 3 C20.77 3 10.54 3 0 3 C0 2.01 0 1.02 0 0 Z " fill="#C6A514" transform="translate(44,113)"/>
<path d="M0 0 C0.33 0 0.66 0 1 0 C1 14.52 1 29.04 1 44 C1.99 44.33 2.98 44.66 4 45 C4 45.66 4 46.32 4 47 C2.68 46.67 1.36 46.34 0 46 C0 30.82 0 15.64 0 0 Z " fill="#393939" transform="translate(139,116)"/>
<path d="M0 0 C11.55 0 23.1 0 35 0 C35 0.33 35 0.66 35 1 C34.04633545 1.01458252 33.0926709 1.02916504 32.11010742 1.04418945 C28.57066415 1.10217792 25.03185676 1.17940958 21.49291992 1.26245117 C19.96144941 1.29569818 18.42985644 1.32373093 16.89819336 1.34643555 C14.69592113 1.37998718 12.49477088 1.4322991 10.29296875 1.48828125 C9.60849167 1.49467117 8.92401459 1.5010611 8.21879578 1.50764465 C5.24979162 1.5994084 3.4246687 1.66735787 1.04418945 3.53198242 C0.69960693 4.01642822 0.35502441 4.50087402 0 5 C0 3.35 0 1.7 0 0 Z " fill="#191015" transform="translate(42,111)"/>
</svg>
