<?xml version="1.0" encoding="UTF-8"?>
<svg version="1.1" xmlns="http://www.w3.org/2000/svg" width="273" height="272">
<path d="M0 0 C90.09 0 180.18 0 273 0 C273 89.76 273 179.52 273 272 C182.91 272 92.82 272 0 272 C0 182.24 0 92.48 0 0 Z " fill="#000000" transform="translate(0,0)"/>
<path d="M0 0 C12.87 0 25.74 0 39 0 C44.62479544 13.49950907 44.62479544 13.49950907 46.32421875 18.37255859 C46.70811768 19.4676474 47.0920166 20.56273621 47.48754883 21.69100952 C47.88353271 22.83196075 48.2795166 23.97291199 48.6875 25.1484375 C49.3371903 27.00582818 49.98688079 28.86321879 50.63658142 30.72060585 C51.5342897 33.28996391 52.42866372 35.86047768 53.32312012 38.43096924 C54.66687605 42.29029927 56.01541928 46.14795841 57.36341858 50.00580788 C58.41438669 53.01379029 59.46441308 56.02209264 60.51245117 59.03109741 C63.30248054 67.03559798 66.14871854 75.0164119 69 83 C69.33 55.61 69.66 28.22 70 0 C82.87 0 95.74 0 109 0 C109 65.34 109 130.68 109 198 C100.42 197.34 91.84 196.68 83 196 C76.00051217 195.49216565 76.00051217 195.49216565 69 195 C65.11060084 184.69343981 61.28449564 174.36613221 57.54248047 164.00512695 C56.76623454 161.85741757 55.98671194 159.71091753 55.20703125 157.56445312 C49.97650406 143.09418046 45.01789221 128.55188742 40 114 C39.67 140.73 39.34 167.46 39 195 C5 198 5 198 0 198 C0 132.66 0 67.32 0 0 Z " fill="#E30812" transform="translate(85,37)"/>
<path d="M0 0 C12.87 0 25.74 0 39 0 C39 64.68 39 129.36 39 196 C36.11605146 193.11605146 35.2993361 189.55693069 34.015625 185.76953125 C33.72352142 184.92375015 33.43141785 184.07796906 33.13046265 183.20655823 C32.49739192 181.37208839 31.86687032 179.53673734 31.23858643 177.70062256 C29.55937582 172.79486428 27.86071193 167.89584231 26.1640625 162.99609375 C25.81737518 161.99342468 25.47068787 160.99075562 25.11349487 159.95770264 C21.68992531 150.07057464 18.17178438 140.21849024 14.625 130.375 C14.35498169 129.62497711 14.08496338 128.87495422 13.8067627 128.10220337 C13.27596632 126.62801936 12.74387233 125.1543019 12.21046448 123.68106079 C11.67367901 122.18466833 11.14613598 120.68493217 10.62730408 119.18222046 C9.15194568 114.95610997 7.51743553 110.9184438 5.5871582 106.87817383 C-3.47581276 86.84633157 -1.85398633 66.45399691 -1.15441895 44.95349121 C-0.97211467 38.97182894 -0.86221843 32.98841306 -0.73958588 27.00528717 C-0.5472201 18.00105086 -0.26544175 9.00370669 0 0 Z " fill="#AE050E" transform="translate(155,37)"/>
<path d="M0 0 C2.58554058 2.58554058 3.3601137 5.42671455 4.51171875 8.8125 C4.75656006 9.51649429 5.00140137 10.22048859 5.25366211 10.94581604 C5.78791411 12.4836977 6.31956828 14.02248366 6.84896851 15.56204224 C8.2938394 19.76287935 9.75802202 23.95700025 11.21875 28.15234375 C11.52528 29.03454086 11.83181 29.91673798 12.14762878 30.82566833 C15.60247258 40.75882682 19.1424966 50.66123674 22.6875 60.5625 C23.27372658 62.2011558 23.85990916 63.83982734 24.44604492 65.47851562 C24.73489059 66.28245758 25.02373627 67.08639954 25.32133484 67.91470337 C25.91374337 69.57758248 26.49713613 71.24369732 27.07209778 72.91268921 C28.74056105 77.71026193 30.57779947 82.34288856 32.67773438 86.96923828 C41.72560289 107.82792468 41.03605786 127.51241212 40.2230835 149.86181641 C40.05732183 154.74286314 39.95354553 159.62524319 39.84375 164.5078125 C39.62138922 174.00741627 39.33311788 183.50367759 39 193 C34.24968108 193.43007944 29.49911192 193.85723985 24.74829102 194.28173828 C23.13331066 194.42645036 21.51840062 194.57194941 19.90356445 194.71826172 C17.57781883 194.92884663 15.25183217 195.13656795 12.92578125 195.34375 C12.20787918 195.40937134 11.48997711 195.47499268 10.75032043 195.54260254 C7.13493244 195.86178444 3.63884948 196 0 196 C0 131.32 0 66.64 0 0 Z " fill="#AD050E" transform="translate(85,39)"/>
<path d="M0 0 C90.09 0 180.18 0 273 0 C273 89.76 273 179.52 273 272 C182.91 272 92.82 272 0 272 C0 182.24 0 92.48 0 0 Z M12.5625 12.875 C11.63630859 13.79925781 11.63630859 13.79925781 10.69140625 14.7421875 C6.23418389 20.69201319 5.55991533 26.0352095 5.60559082 33.24043274 C5.59949972 34.14999023 5.59340861 35.05954772 5.58713293 35.99666756 C5.570532 39.03346977 5.57527466 42.06985133 5.58007812 45.10668945 C5.57273608 47.2885176 5.56414945 49.47034187 5.55441284 51.65216064 C5.53220139 57.57168469 5.52926603 63.49106951 5.53116035 69.41062951 C5.53128008 74.35585393 5.52271484 79.30104889 5.51438284 84.24626511 C5.49405037 96.58274067 5.49299811 108.91913827 5.50018996 121.25562497 C5.50610887 132.61801772 5.48074683 143.9801173 5.44570971 155.3424533 C5.41499745 165.67813963 5.40365439 176.01372736 5.40754652 186.3494584 C5.40961259 192.51905474 5.40415637 198.68841242 5.37965393 204.85796547 C5.35736476 210.6619605 5.35928324 216.4654575 5.37958145 222.26945496 C5.38298771 224.39545263 5.37791907 226.52148397 5.36359787 228.64743614 C5.28390434 241.35829921 5.38648848 250.98364283 14.25 260.875 C20.81281982 266.76589689 27.75436653 268.60087869 36.40501404 268.5146637 C37.75966289 268.52508199 37.75966289 268.52508199 39.14167839 268.53571075 C42.14475796 268.55389548 45.14703991 268.54374023 48.15014648 268.53344727 C50.31256701 268.54051003 52.4749826 268.54925655 54.63739014 268.55955505 C60.49486115 268.58201825 66.35206157 268.57911641 72.2095592 268.57023358 C77.10518344 268.56511628 82.00075716 268.57242229 86.89637619 268.57970566 C98.44797102 268.59669488 109.99943371 268.59314851 121.55102539 268.57641602 C133.4566421 268.55949341 145.36189219 268.57533365 157.26746887 268.6076389 C167.50129512 268.63435291 177.73500737 268.64160593 187.96886498 268.63312382 C194.07582205 268.62820022 200.18255855 268.63037987 206.28948784 268.65091133 C212.03279164 268.66929677 217.77556892 268.66327414 223.5188446 268.63871193 C225.62226157 268.63371331 227.72571885 268.63716903 229.82910347 268.64986038 C242.4719339 268.72008909 252.03877484 268.56835761 261.875 259.75 C267.79536796 253.15265846 269.60070362 246.19737823 269.50793457 237.50559998 C269.51417453 236.5929225 269.5204145 235.68024503 269.52684355 234.73991066 C269.54270311 231.70451227 269.53019689 228.66992477 269.51757812 225.63452148 C269.52300232 223.44915298 269.53012665 221.26378813 269.53881836 219.07843018 C269.55701796 213.15910166 269.5499982 207.24005274 269.53730202 201.32071948 C269.5271583 195.1198164 269.5365714 188.91893688 269.54284668 182.71803284 C269.55058397 171.64046427 269.53817324 160.56301916 269.51780933 149.48547036 C269.4999354 139.45192068 269.50304814 129.41855612 269.52148438 119.38500977 C269.54283839 107.71698145 269.55084631 96.04906888 269.53903532 84.38102394 C269.53280464 78.21045206 269.53195333 72.04000756 269.54518127 65.86944389 C269.55674838 60.06874797 269.54869787 54.26840119 269.52560425 48.46774292 C269.52032207 46.34091331 269.52182249 44.21405424 269.53065491 42.0872364 C269.54161299 39.18023506 269.52784324 36.27434711 269.50793457 33.36741638 C269.51685746 32.52917672 269.52578034 31.69093706 269.53497362 30.8272962 C269.4342996 23.22992445 266.73909729 17.18257513 261.375 11.75 C260.48941406 10.81414063 260.48941406 10.81414063 259.5859375 9.859375 C249.2845793 2.45235611 237.96618899 3.42467978 225.828125 3.46655273 C223.67540904 3.4594885 221.52269804 3.45074137 219.36999512 3.44044495 C213.54357354 3.41799967 207.71742423 3.42087917 201.89097595 3.42976642 C197.02015475 3.43488654 192.14938425 3.42757552 187.27856827 3.42029434 C175.78592726 3.40331122 164.29341909 3.40684581 152.80078125 3.42358398 C140.95705907 3.44051073 129.11370531 3.42465928 117.27002335 3.3923611 C107.08713179 3.3656473 96.9043548 3.35839387 86.72143173 3.36687618 C80.64578826 3.37179925 74.57036651 3.36962279 68.49475098 3.34908867 C62.78180165 3.33070321 57.06938164 3.33672585 51.35646057 3.36128807 C49.26433067 3.36628646 47.17216024 3.36283159 45.08006287 3.35013962 C32.53597383 3.2800798 21.86539292 3.23200132 12.5625 12.875 Z " fill="#C6C6C6" transform="translate(0,0)"/>
<path d="M0 0 C8.25 0 16.5 0 25 0 C23.26774726 1.15483516 21.50968891 2.27590387 19.6953125 3.296875 C11.42880258 7.97034261 6.51454742 13.0585779 3 22 C1.79821065 26.61086148 1.85177847 31.11164454 1.85282898 35.84133911 C1.84915229 36.73214798 1.8454756 37.62295685 1.8416875 38.54075992 C1.83067361 41.52603982 1.82681071 44.51128488 1.82299805 47.49658203 C1.81673166 49.63708099 1.8100847 51.77757887 1.80308533 53.91807556 C1.7820632 60.9479802 1.77168458 67.977885 1.76171875 75.0078125 C1.75767049 77.4298491 1.75355355 79.85188559 1.74936867 82.27392197 C1.73032097 93.65370287 1.71608911 105.0334773 1.7077567 116.41327107 C1.69798584 129.54010473 1.67166833 142.6667697 1.63125581 155.79354393 C1.60107566 165.94575108 1.58628601 176.09790992 1.58297569 186.25016105 C1.58062737 192.31081307 1.57169506 198.37128477 1.54651451 204.43188858 C1.52319578 210.13646888 1.51901602 215.84075063 1.52927589 221.54536629 C1.52977044 223.63385958 1.52347421 225.72236776 1.50971985 227.81081581 C1.35721602 247.07612195 1.35721602 247.07612195 11 263.28125 C14.34493687 266.15580512 18.03719148 268.11015786 22 270 C23.32 270.66 24.64 271.32 26 272 C17.42 272 8.84 272 0 272 C0 182.24 0 92.48 0 0 Z " fill="#000000" transform="translate(0,0)"/>
<path d="M0 0 C0.33 0 0.66 0 1 0 C1 7.26 1 14.52 1 22 C-6.59 22 -14.18 22 -22 22 C-20.26774726 20.84516484 -18.50968891 19.72409613 -16.6953125 18.703125 C-8.07902666 13.83191173 -4.16540415 8.94790521 0 0 Z " fill="#000000" transform="translate(272,250)"/>
<path d="M0 0 C7.92 0 15.84 0 24 0 C24 7.26 24 14.52 24 22 C22.89181604 20.33772406 21.79889841 18.66376327 20.7734375 16.94921875 C15.50215576 8.4238776 9.48354005 4.04828073 0 1 C0 0.67 0 0.34 0 0 Z " fill="#000000" transform="translate(249,0)"/>
<path d="M0 0 C0.99 0.33 1.98 0.66 3 1 C3.81201172 2.77148438 3.81201172 2.77148438 4.4296875 5.09375 C4.66526367 5.95145996 4.90083984 6.80916992 5.14355469 7.69287109 C5.38493164 8.61922363 5.62630859 9.54557617 5.875 10.5 C6.39774374 12.41945991 6.92119148 14.33872821 7.4453125 16.2578125 C7.70473633 17.22235352 7.96416016 18.18689453 8.23144531 19.18066406 C9.34442437 23.26347288 10.54195753 27.31949427 11.75 31.375 C12.50261378 33.91591216 13.25195568 36.45773342 14 39 C14.37640625 40.22976562 14.7528125 41.45953125 15.140625 42.7265625 C16 46 16 46 16 50 C15.34 50 14.68 50 14 50 C12.50428544 45.94814168 11.01108634 41.89536714 9.52001953 37.84179688 C9.01449264 36.4685076 8.5083283 35.09545278 8.00146484 33.72265625 C6.31537168 29.15518012 4.64778108 24.58143757 3 20 C2.58395508 18.84661133 2.16791016 17.69322266 1.73925781 16.50488281 C1.37155273 15.45139648 1.00384766 14.39791016 0.625 13.3125 C0.30273438 12.39597656 -0.01953125 11.47945312 -0.3515625 10.53515625 C-1.33152506 6.70385684 -0.8821662 3.82272019 0 0 Z " fill="#95030D" transform="translate(173,166)"/>
<path d="M0 0 C3.35026284 1.67513142 3.88930046 5.4761788 5.109375 8.83984375 C5.39983704 9.63596573 5.69029907 10.43208771 5.98956299 11.25233459 C6.60229274 12.9447593 7.2106266 14.63878086 7.81494141 16.33422852 C8.73807192 18.90429137 9.69450312 21.46028704 10.65234375 24.01757812 C16.46297989 40.00504457 16.46297989 40.00504457 13 48 C11.51637047 45.11480762 10.49285452 42.45980571 9.6875 39.3125 C8.38450561 34.36508984 6.96297755 29.46412791 5.5 24.5625 C0 5.99176647 0 5.99176647 0 0 Z " fill="#96030E" transform="translate(90,54)"/>
<path d="M0 0 C0.33 0 0.66 0 1 0 C1.1678224 5.33835073 1.32836013 10.67685235 1.48217773 16.015625 C1.5355173 17.83144003 1.59084022 19.64719793 1.64819336 21.46289062 C1.73032912 24.07409347 1.80530897 26.68541926 1.87890625 29.296875 C1.90594131 30.10743347 1.93297638 30.91799194 1.96083069 31.75311279 C2.05634176 35.36745641 1.98815351 38.52490732 1 42 C0.34 41.67 -0.32 41.34 -1 41 C-0.67 27.47 -0.34 13.94 0 0 Z " fill="#98040D" transform="translate(155,83)"/>
<path d="M0 0 C3.57231298 5.35846947 3.12223971 10.765775 3 17 C-0.51760602 13.48239398 -0.05502509 8.87157039 -0.0625 4.125 C-0.0466164 2.74993391 -0.02749766 1.37488287 0 0 Z " fill="#95030E" transform="translate(104,98)"/>
<path d="M0 0 C1.93395001 3.86790003 2.23289353 5.1500459 2.125 9.25 C2.10695312 10.14203125 2.08890625 11.0340625 2.0703125 11.953125 C2.04710937 12.62859375 2.02390625 13.3040625 2 14 C1.01 14 0.02 14 -1 14 C-0.67 9.38 -0.34 4.76 0 0 Z " fill="#81020C" transform="translate(155,110)"/>
</svg>
