<?xml version="1.0" encoding="UTF-8"?>
<svg version="1.1" xmlns="http://www.w3.org/2000/svg" width="272" height="273">
<path d="M0 0 C0.95109858 -0.00694553 1.90219716 -0.01389106 2.88211691 -0.02104706 C6.05956084 -0.03929948 9.23625667 -0.02905735 12.41372681 -0.01878357 C14.69569964 -0.02584295 16.9776678 -0.03458804 19.2596283 -0.04489136 C25.45184608 -0.0673939 31.64380836 -0.06444328 37.83605146 -0.05556989 C43.00754011 -0.05045949 48.17898076 -0.05775309 53.35046446 -0.06504196 C66.2495771 -0.08301597 79.14853129 -0.07662757 92.04763658 -0.05887216 C103.23800311 -0.0441808 114.428101 -0.05879736 125.61843292 -0.08764232 C137.12113239 -0.11707057 148.6236782 -0.1274908 160.1264168 -0.11846012 C166.57933477 -0.11353253 173.03204401 -0.11573772 179.48493576 -0.13624763 C185.5540482 -0.15461415 191.62266196 -0.14863338 197.69174767 -0.12404823 C199.9165249 -0.1190434 202.1413402 -0.12252151 204.36608696 -0.13519669 C207.40877268 -0.15115773 210.44982243 -0.13614646 213.49243164 -0.11352539 C214.36803218 -0.12536112 215.24363272 -0.13719685 216.14576662 -0.14939123 C223.56880312 -0.03765411 229.0112068 2.66767507 234.64273071 7.4365387 C235.1519104 8.03981995 235.66109009 8.6431012 236.18569946 9.2646637 C236.70776978 9.85763245 237.22984009 10.4506012 237.76773071 11.0615387 C242.22644788 17.87437174 243.96726278 23.93954922 243.88113403 32.03356934 C243.89049398 33.40659418 243.89049398 33.40659418 243.90004301 34.80735689 C243.9159035 37.85190603 243.90339588 40.89564679 243.89077759 43.94020081 C243.89620182 46.13217635 243.90332616 48.32414825 243.91201782 50.51611328 C243.93021917 56.45417023 243.92319636 62.39194849 243.91050148 68.33001018 C243.9003561 74.55266605 243.90977156 80.77529848 243.91604614 86.99795532 C243.92378408 98.11669682 243.91137227 109.23532897 243.89100879 120.35404886 C243.87314369 130.41993819 243.87624014 140.48564294 243.89468384 150.55152893 C243.91612715 162.25985932 243.92403786 173.96808208 243.91223478 185.67642981 C243.90600917 191.86718618 243.90513856 198.05781562 243.91838074 204.24856377 C243.92996478 210.07060541 243.92186647 215.89229971 243.89880371 221.71430397 C243.89353007 223.84674377 243.89500726 225.97921296 243.90385437 228.11164093 C243.91484672 231.0310755 243.90100156 233.94940926 243.88113403 236.86877441 C243.89451836 238.1232318 243.89451836 238.1232318 243.90817308 239.40303177 C243.78314967 248.92741203 240.15238517 256.66730429 233.66226196 263.53419495 C226.13543478 270.04631334 218.30258625 271.66514319 208.64538574 271.65510559 C207.75472573 271.65807671 206.86406573 271.66104784 205.94641602 271.66410899 C202.95569244 271.672795 199.96500889 271.67430417 196.97427368 271.67579651 C194.83229995 271.68042482 192.69032705 271.6854495 190.5483551 271.69084167 C184.72372643 271.70396803 178.89910929 271.71041131 173.07446814 271.71485233 C169.43471592 271.7177832 165.79496685 271.72188808 162.15521622 271.72635651 C150.76528719 271.7400332 139.37536536 271.74969853 127.98542869 271.7535584 C114.84162562 271.75803713 101.69792665 271.77557578 88.55415523 271.80455899 C78.39264141 271.82618731 68.23115684 271.83626333 58.06962025 271.83759952 C52.00175484 271.83864688 45.93398725 271.84454012 39.86614609 271.86241913 C34.15505175 271.87891917 28.44412858 271.88104583 22.73301888 271.87228012 C20.64088672 271.87151074 18.5487453 271.87583939 16.45663643 271.88573837 C13.59186053 271.8984944 10.7276875 271.89256112 7.86291504 271.88215637 C6.63252386 271.89424098 6.63252386 271.89424098 5.3772763 271.90656972 C-4.24262577 271.82532781 -12.5964349 269.22752895 -19.62680054 262.5146637 C-26.3377354 255.02763432 -29.08531193 248.18747989 -29.01448059 238.23626709 C-29.01986613 237.32262605 -29.02525167 236.408985 -29.0308004 235.46765786 C-29.04506728 232.41702593 -29.03797927 229.3668287 -29.03085327 226.31617737 C-29.03655756 224.12449801 -29.04352204 221.93282161 -29.051651 219.7411499 C-29.06959273 213.79475878 -29.06841185 207.84851515 -29.06270862 201.90210509 C-29.05961768 196.93451447 -29.0657083 191.96695221 -29.07174736 186.99936563 C-29.08659778 174.60712934 -29.08297638 162.21496518 -29.07088406 149.82273016 C-29.06095719 139.07603105 -29.07388423 128.32950424 -29.09781825 117.5828317 C-29.12224026 106.53328121 -29.13141008 95.48381479 -29.12516552 84.43423826 C-29.12179748 78.23673614 -29.12420087 72.03937631 -29.14141655 65.84189415 C-29.15690496 60.01168577 -29.15290873 54.18180568 -29.1341114 48.35161018 C-29.13043056 46.21594174 -29.13351921 44.08024888 -29.14399719 41.94460297 C-29.15724347 39.02069685 -29.14562706 36.09787174 -29.12800598 33.17401123 C-29.13761099 32.33634206 -29.14721599 31.4986729 -29.15711206 30.63561982 C-29.05610716 22.44478878 -26.44442837 14.7169911 -20.81430054 8.6396637 C-20.18910522 7.94099182 -19.56390991 7.24231995 -18.91976929 6.5224762 C-12.7252995 1.09835785 -8.02119243 -0.07510923 0 0 Z " fill="#FDFDFD" transform="translate(28.626800537109375,-0.5146636962890625)"/>
<path d="M0 0 C0.95109858 -0.00694553 1.90219716 -0.01389106 2.88211691 -0.02104706 C6.05956084 -0.03929948 9.23625667 -0.02905735 12.41372681 -0.01878357 C14.69569964 -0.02584295 16.9776678 -0.03458804 19.2596283 -0.04489136 C25.45184608 -0.0673939 31.64380836 -0.06444328 37.83605146 -0.05556989 C43.00754011 -0.05045949 48.17898076 -0.05775309 53.35046446 -0.06504196 C66.2495771 -0.08301597 79.14853129 -0.07662757 92.04763658 -0.05887216 C103.23800311 -0.0441808 114.428101 -0.05879736 125.61843292 -0.08764232 C137.12113239 -0.11707057 148.6236782 -0.1274908 160.1264168 -0.11846012 C166.57933477 -0.11353253 173.03204401 -0.11573772 179.48493576 -0.13624763 C185.5540482 -0.15461415 191.62266196 -0.14863338 197.69174767 -0.12404823 C199.9165249 -0.1190434 202.1413402 -0.12252151 204.36608696 -0.13519669 C207.40877268 -0.15115773 210.44982243 -0.13614646 213.49243164 -0.11352539 C214.36803218 -0.12536112 215.24363272 -0.13719685 216.14576662 -0.14939123 C223.56880312 -0.03765411 229.0112068 2.66767507 234.64273071 7.4365387 C235.1519104 8.03981995 235.66109009 8.6431012 236.18569946 9.2646637 C236.70776978 9.85763245 237.22984009 10.4506012 237.76773071 11.0615387 C242.22644788 17.87437174 243.96726278 23.93954922 243.88113403 32.03356934 C243.89049398 33.40659418 243.89049398 33.40659418 243.90004301 34.80735689 C243.9159035 37.85190603 243.90339588 40.89564679 243.89077759 43.94020081 C243.89620182 46.13217635 243.90332616 48.32414825 243.91201782 50.51611328 C243.93021917 56.45417023 243.92319636 62.39194849 243.91050148 68.33001018 C243.9003561 74.55266605 243.90977156 80.77529848 243.91604614 86.99795532 C243.92378408 98.11669682 243.91137227 109.23532897 243.89100879 120.35404886 C243.87314369 130.41993819 243.87624014 140.48564294 243.89468384 150.55152893 C243.91612715 162.25985932 243.92403786 173.96808208 243.91223478 185.67642981 C243.90600917 191.86718618 243.90513856 198.05781562 243.91838074 204.24856377 C243.92996478 210.07060541 243.92186647 215.89229971 243.89880371 221.71430397 C243.89353007 223.84674377 243.89500726 225.97921296 243.90385437 228.11164093 C243.91484672 231.0310755 243.90100156 233.94940926 243.88113403 236.86877441 C243.89451836 238.1232318 243.89451836 238.1232318 243.90817308 239.40303177 C243.78314967 248.92741203 240.15238517 256.66730429 233.66226196 263.53419495 C226.13543478 270.04631334 218.30258625 271.66514319 208.64538574 271.65510559 C207.75472573 271.65807671 206.86406573 271.66104784 205.94641602 271.66410899 C202.95569244 271.672795 199.96500889 271.67430417 196.97427368 271.67579651 C194.83229995 271.68042482 192.69032705 271.6854495 190.5483551 271.69084167 C184.72372643 271.70396803 178.89910929 271.71041131 173.07446814 271.71485233 C169.43471592 271.7177832 165.79496685 271.72188808 162.15521622 271.72635651 C150.76528719 271.7400332 139.37536536 271.74969853 127.98542869 271.7535584 C114.84162562 271.75803713 101.69792665 271.77557578 88.55415523 271.80455899 C78.39264141 271.82618731 68.23115684 271.83626333 58.06962025 271.83759952 C52.00175484 271.83864688 45.93398725 271.84454012 39.86614609 271.86241913 C34.15505175 271.87891917 28.44412858 271.88104583 22.73301888 271.87228012 C20.64088672 271.87151074 18.5487453 271.87583939 16.45663643 271.88573837 C13.59186053 271.8984944 10.7276875 271.89256112 7.86291504 271.88215637 C6.63252386 271.89424098 6.63252386 271.89424098 5.3772763 271.90656972 C-4.24262577 271.82532781 -12.5964349 269.22752895 -19.62680054 262.5146637 C-26.3377354 255.02763432 -29.08531193 248.18747989 -29.01448059 238.23626709 C-29.01986613 237.32262605 -29.02525167 236.408985 -29.0308004 235.46765786 C-29.04506728 232.41702593 -29.03797927 229.3668287 -29.03085327 226.31617737 C-29.03655756 224.12449801 -29.04352204 221.93282161 -29.051651 219.7411499 C-29.06959273 213.79475878 -29.06841185 207.84851515 -29.06270862 201.90210509 C-29.05961768 196.93451447 -29.0657083 191.96695221 -29.07174736 186.99936563 C-29.08659778 174.60712934 -29.08297638 162.21496518 -29.07088406 149.82273016 C-29.06095719 139.07603105 -29.07388423 128.32950424 -29.09781825 117.5828317 C-29.12224026 106.53328121 -29.13141008 95.48381479 -29.12516552 84.43423826 C-29.12179748 78.23673614 -29.12420087 72.03937631 -29.14141655 65.84189415 C-29.15690496 60.01168577 -29.15290873 54.18180568 -29.1341114 48.35161018 C-29.13043056 46.21594174 -29.13351921 44.08024888 -29.14399719 41.94460297 C-29.15724347 39.02069685 -29.14562706 36.09787174 -29.12800598 33.17401123 C-29.13761099 32.33634206 -29.14721599 31.4986729 -29.15711206 30.63561982 C-29.05610716 22.44478878 -26.44442837 14.7169911 -20.81430054 8.6396637 C-20.18910522 7.94099182 -19.56390991 7.24231995 -18.91976929 6.5224762 C-12.7252995 1.09835785 -8.02119243 -0.07510923 0 0 Z M-18.62680054 12.5146637 C-23.20171105 19.4302261 -24.77582037 24.91972593 -24.78070068 33.19815063 C-24.78508294 34.09612332 -24.78946519 34.99409601 -24.79398024 35.91927999 C-24.80737888 38.94074137 -24.81354955 41.96217357 -24.81967163 44.98365784 C-24.82757187 47.14518872 -24.83584077 49.30671829 -24.8444519 51.46824646 C-24.87068491 58.57875812 -24.88598257 65.6892757 -24.90023804 72.79981995 C-24.90559752 75.24725791 -24.91097503 77.69469583 -24.91637039 80.14213371 C-24.93800254 90.32388454 -24.95673865 100.50563377 -24.96799278 110.68740177 C-24.98422702 125.27907049 -25.01738857 139.87047271 -25.07439363 154.46204096 C-25.11310607 164.72119623 -25.13262715 174.98028027 -25.13791335 185.23950666 C-25.14156547 191.36671218 -25.15357227 197.49363353 -25.18601608 203.62075996 C-25.21611859 209.38855397 -25.22240043 215.15589219 -25.21063232 220.92374802 C-25.21041176 223.03685519 -25.21870216 225.14998364 -25.23628616 227.26301765 C-25.64759581 242.18999874 -25.64759581 242.18999874 -19.62680054 255.5146637 C-18.98742554 256.4634137 -18.34805054 257.4121637 -17.68930054 258.3896637 C-12.91794898 263.30560167 -7.4351808 266.54306062 -0.54844093 266.76913929 C1.09876511 266.78141739 2.74607509 266.78269846 4.39331055 266.77536011 C5.75825856 266.78109843 5.75825856 266.78109843 7.15078127 266.78695267 C10.20072809 266.79727359 13.25048632 266.79329221 16.30044556 266.7893219 C18.48684361 266.79366889 20.67324014 266.79885199 22.8596344 266.80480957 C28.79971866 266.81821261 34.73973935 266.81877675 40.6798358 266.81624627 C45.63766195 266.81517739 50.5954752 266.82005784 55.55329859 266.82485169 C67.91839301 266.83658635 80.28345606 266.83571923 92.64855237 266.82929488 C103.38120897 266.82412678 114.11377478 266.83537853 124.84641342 266.8543931 C135.87214588 266.87377685 146.8978333 266.88173517 157.92358267 266.87826985 C164.11149554 266.87645595 170.29932526 266.87910389 176.48722458 266.89298439 C182.30667483 266.9055496 188.12594328 266.90363087 193.9453907 266.8905735 C196.08070626 266.88820529 198.21603457 266.89095114 200.35133553 266.89919662 C203.26747545 266.90964492 206.18300319 266.90157855 209.09912109 266.8888855 C209.94300207 266.89625978 210.78688306 266.90363407 211.65633619 266.91123182 C220.24992164 266.83260557 227.19461993 263.52485427 233.37319946 257.5146637 C238.41057563 250.35039538 239.52195987 244.39712036 239.52709961 235.74888611 C239.53148186 234.85414255 239.53586412 233.95939899 239.54037917 233.03754199 C239.55375634 230.0330062 239.55994362 227.02849974 239.56607056 224.02394104 C239.57397239 221.87211474 239.5822414 219.72028977 239.59085083 217.56846619 C239.61706217 210.49585738 239.63237792 203.42324268 239.64663696 196.3506012 C239.65199707 193.91523357 239.65737458 191.47986599 239.66276932 189.04449844 C239.68439701 178.9133194 239.70313336 168.78214195 239.71439171 158.65094566 C239.73062864 144.13543375 239.76380183 129.62018961 239.82079256 115.10477865 C239.85950472 104.89655821 239.87902595 94.68840935 239.88431227 84.48011744 C239.88796402 78.38422531 239.8999671 72.28861885 239.93241501 66.19280624 C239.96251756 60.455367 239.96879935 54.71838595 239.95703125 48.98088455 C239.9568107 46.87906434 239.96510024 44.77722273 239.98268509 42.67547607 C240.38271502 27.79744083 240.38271502 27.79744083 234.37319946 14.5146637 C233.73382446 13.5659137 233.09444946 12.6171637 232.43569946 11.6396637 C227.32682447 6.37597431 221.52416216 3.49883513 214.19020271 3.2601881 C212.55268852 3.24794925 210.91507025 3.24660716 209.27752686 3.25396729 C208.37149621 3.25014174 207.46546556 3.24631619 206.53197944 3.24237472 C203.50129165 3.23207029 200.47079421 3.23603204 197.44009399 3.24000549 C195.26502304 3.2356576 193.08995362 3.23047419 190.91488647 3.22451782 C185.00991701 3.21112468 179.10501154 3.21054954 173.20002985 3.21308112 C168.26958637 3.21415066 163.33915584 3.20926788 158.40871513 3.2044757 C146.77626125 3.19337933 135.14383967 3.19294379 123.51138306 3.19898987 C111.51328112 3.20503014 99.51532499 3.19271756 87.51723778 3.1714198 C77.21388474 3.15380323 66.91056901 3.14780255 56.60720146 3.15105754 C50.45448295 3.15287051 44.30184808 3.15023278 38.14914322 3.136343 C32.36250732 3.12376853 26.57605417 3.12570532 20.78942108 3.13875389 C18.66742516 3.14112007 16.5454164 3.13838353 14.42343521 3.13013077 C11.52302483 3.11966524 8.62322787 3.12776267 5.72283936 3.14044189 C4.88644428 3.13306761 4.05004921 3.12569332 3.18830884 3.11809558 C-5.5133843 3.1979247 -12.77793987 5.89733959 -18.62680054 12.5146637 Z " fill="#D4D4D4" transform="translate(28.626800537109375,-0.5146636962890625)"/>
<path d="M0 0 C8.91 0 17.82 0 27 0 C27 0.66 27 1.32 27 2 C28.2065625 2.433125 28.2065625 2.433125 29.4375 2.875 C32 4 32 4 33 6 C33.17369832 7.95339423 33.26696102 9.91442704 33.3125 11.875 C33.36857422 13.44894531 33.36857422 13.44894531 33.42578125 15.0546875 C33 18 33 18 31.16796875 20.3828125 C29 22 29 22 26 22 C26 22.66 26 23.32 26 24 C24.329375 24.12375 24.329375 24.12375 22.625 24.25 C21.42875 24.4975 20.2325 24.745 19 25 C17.73990208 26.97742781 17.73990208 26.97742781 17 29 C17.67546875 28.90460938 18.3509375 28.80921875 19.046875 28.7109375 C19.93890625 28.60007813 20.8309375 28.48921875 21.75 28.375 C23.07257813 28.20097656 23.07257813 28.20097656 24.421875 28.0234375 C27.26724901 27.99757046 28.64021509 28.45139115 31 30 C33.72029885 34.35247816 33.75221979 40.02564333 33 45 C31.60546875 47.30859375 31.60546875 47.30859375 30 49 C29.34 49 28.68 49 28 49 C28.33 48.34 28.66 47.68 29 47 C30.3013986 43.09580421 30.2022187 40.11178021 30 36 C29.67 35.34 29.34 34.68 29 34 C25.42536717 33.17215899 25.42536717 33.17215899 22 34 C19.64974442 36.57699638 17.79307593 39.27990752 15.89453125 42.203125 C14.10935482 44.83856071 12.41014042 46.92795543 10 49 C7 49.5625 7 49.5625 4 49 C-0.19384594 44.69280687 -1.15951035 41.93494259 -1.10546875 35.96875 C-0.9935334 33.87929012 -0.54257092 32.01526342 0 30 C-0.33 29.34 -0.66 28.68 -1 28 C-1.06996014 26.29297265 -1.08440154 24.58331997 -1.0625 22.875 C-1.05347656 21.96492188 -1.04445313 21.05484375 -1.03515625 20.1171875 C-1.02355469 19.41851562 -1.01195313 18.71984375 -1 18 C-0.16750732 17.98018066 0.66498535 17.96036133 1.52270508 17.93994141 C4.614765 17.86179258 7.70643383 17.77509794 10.7980957 17.68261719 C12.7929536 17.62555908 14.7880854 17.57835558 16.78320312 17.53125 C18.03681641 17.49257812 19.29042969 17.45390625 20.58203125 17.4140625 C21.73936768 17.3826416 22.8967041 17.3512207 24.08911133 17.31884766 C27.19127028 17.20528967 27.19127028 17.20528967 30 15 C30.47687303 12.86746355 30.47687303 12.86746355 30.375 10.5 C30.38273437 9.7059375 30.39046875 8.911875 30.3984375 8.09375 C30.20121094 7.05734375 30.20121094 7.05734375 30 6 C26.51321064 3.67547376 24.93032429 3.70226266 20.80078125 3.5859375 C19.59228516 3.54726562 18.38378906 3.50859375 17.13867188 3.46875 C15.87603516 3.4378125 14.61339844 3.406875 13.3125 3.375 C12.03826172 3.33632812 10.76402344 3.29765625 9.45117188 3.2578125 C6.30092708 3.16342314 3.15069009 3.0778417 0 3 C0 2.01 0 1.02 0 0 Z " fill="#F0EFEF" transform="translate(125,144)"/>
<path d="M0 0 C0 0.66 0 1.32 0 2 C-7.92 2.99 -15.84 3.98 -24 5 C-23.505 6.98 -23.505 6.98 -23 9 C-22.34 9.33 -21.68 9.66 -21 10 C-19.98897962 13.03306113 -19.8017465 15.25940239 -19.75 18.4375 C-19.72421875 19.38496094 -19.6984375 20.33242187 -19.671875 21.30859375 C-20.05081157 24.41677581 -20.8314456 25.77354731 -23 28 C-23.66 28 -24.32 28 -25 28 C-24.125 23.25 -24.125 23.25 -23 21 C-22.6947378 16.34724024 -22.6947378 16.34724024 -24 12 C-27.19904988 11.16046733 -27.19904988 11.16046733 -31 12 C-33.79087287 15.03985116 -35.86587204 18.47895766 -38 22 C-40 25.125 -40 25.125 -42 27 C-45.5 27.625 -45.5 27.625 -49 27 C-52.52715328 23.47284672 -53.94694682 21.09643235 -54.1875 16.125 C-54.13036299 11.6193384 -53.20998137 9.20998137 -50 6 C-60.23 5.67 -70.46 5.34 -81 5 C-81 3.68 -81 2.36 -81 1 C-25.72661368 -0.20994726 -25.72661368 -0.20994726 0 0 Z " fill="#F1F0EF" transform="translate(178,113)"/>
<path d="M0 0 C9.06111501 -0.19776243 17.9868521 0.56834352 27 1.375 C28.58129001 1.51369104 30.16258889 1.65228101 31.74389648 1.79077148 C41.49307704 2.65177788 51.22669868 3.59174308 60.94482422 4.75732422 C65.00224354 5.23642553 69.06405576 5.67695876 73.125 6.125 C74.64845265 6.29413446 76.17189169 6.46339156 77.6953125 6.6328125 C78.78585938 6.75398438 79.87640625 6.87515625 81 7 C81 7.66 81 8.32 81 9 C71.80141559 9.13057832 62.67500919 8.72568405 53.49609375 8.16015625 C52.04070703 8.07267369 50.58530822 7.98539214 49.12989807 7.89830017 C46.10687562 7.71655637 43.08402744 7.53219585 40.0612793 7.34594727 C36.18804193 7.10754214 32.31442038 6.87616842 28.44064236 6.6467371 C25.44737437 6.46863215 22.45434868 6.28669623 19.46138191 6.10360527 C18.03210893 6.01666597 16.60276047 5.9309584 15.17333794 5.84651375 C13.18490188 5.72850513 11.19680964 5.60474524 9.20874023 5.48071289 C8.07911362 5.41187393 6.949487 5.34303497 5.78562927 5.27210999 C3 5 3 5 0 4 C0 2.68 0 1.36 0 0 Z " fill="#383836" transform="translate(97,95)"/>
<path d="M0 0 C8.91 0 17.82 0 27 0 C27 0.66 27 1.32 27 2 C28.2065625 2.433125 28.2065625 2.433125 29.4375 2.875 C32 4 32 4 33 6 C33.17369832 7.95339423 33.26696102 9.91442704 33.3125 11.875 C33.36857422 13.44894531 33.36857422 13.44894531 33.42578125 15.0546875 C32.89992104 18.69228932 31.86714047 19.77861189 29 22 C25.96148942 23.01283686 23.71208965 23.18250633 20.52734375 23.28125 C19.46322266 23.31863281 18.39910156 23.35601562 17.30273438 23.39453125 C15.05534237 23.46496605 12.80794652 23.53527813 10.56054688 23.60546875 C9.49771484 23.64285156 8.43488281 23.68023437 7.33984375 23.71875 C6.36394287 23.74904297 5.38804199 23.77933594 4.38256836 23.81054688 C1.98478804 23.85139405 1.98478804 23.85139405 0 25 C0 22.69 0 20.38 0 18 C0.80219971 17.98018066 1.60439941 17.96036133 2.4309082 17.93994141 C6.05844177 17.84480505 9.68539045 17.7350792 13.3125 17.625 C14.57513672 17.5940625 15.83777344 17.563125 17.13867188 17.53125 C18.34716797 17.49257812 19.55566406 17.45390625 20.80078125 17.4140625 C22.47394409 17.36693115 22.47394409 17.36693115 24.1809082 17.31884766 C27.20368786 17.194751 27.20368786 17.194751 30 15 C30.47687303 12.86746355 30.47687303 12.86746355 30.375 10.5 C30.38273437 9.7059375 30.39046875 8.911875 30.3984375 8.09375 C30.20121094 7.05734375 30.20121094 7.05734375 30 6 C26.51321064 3.67547376 24.93032429 3.70226266 20.80078125 3.5859375 C19.59228516 3.54726562 18.38378906 3.50859375 17.13867188 3.46875 C15.87603516 3.4378125 14.61339844 3.406875 13.3125 3.375 C12.03826172 3.33632812 10.76402344 3.29765625 9.45117188 3.2578125 C6.30092708 3.16342314 3.15069009 3.0778417 0 3 C0 2.01 0 1.02 0 0 Z " fill="#302B28" transform="translate(125,144)"/>
<path d="M0 0 C0 0.66 0 1.32 0 2 C-5.37250598 3.05920344 -10.6810314 3.30956869 -16.13671875 3.53515625 C-17.12199051 3.57822403 -18.10726227 3.62129181 -19.12239075 3.66566467 C-22.31057827 3.80276123 -25.49898611 3.93323108 -28.6875 4.0625 C-29.76547852 4.10735535 -30.84345703 4.15221069 -31.95410156 4.19842529 C-48.3121017 4.87360163 -64.62701451 5.30268602 -81 5 C-81 3.68 -81 2.36 -81 1 C-25.72661368 -0.20994726 -25.72661368 -0.20994726 0 0 Z " fill="#272526" transform="translate(178,113)"/>
<path d="M0 0 C2.78664039 0.85147345 3.70432719 1.5269235 5.25 4 C6.32386967 8.29547868 6.66412567 12.60820119 6 17 C4.60546875 19.30859375 4.60546875 19.30859375 3 21 C2.34 21 1.68 21 1 21 C1.33 20.34 1.66 19.68 2 19 C3.3013986 15.09580421 3.2022187 12.11178021 3 8 C2.67 7.34 2.34 6.68 2 6 C-1.57463283 5.17215899 -1.57463283 5.17215899 -5 6 C-7.35025558 8.57699638 -9.20692407 11.27990752 -11.10546875 14.203125 C-12.89064518 16.83856071 -14.58985958 18.92795543 -17 21 C-20 21.5625 -20 21.5625 -23 21 C-27.1891281 16.69765223 -28.10823206 13.91780447 -28.23046875 7.97265625 C-28 6 -28 6 -26 3 C-25.01 3.33 -24.02 3.66 -23 4 C-23.99 5.485 -23.99 5.485 -25 7 C-25.39387788 9.32387947 -25.73486085 11.65793749 -26 14 C-24.72125 14.185625 -23.4425 14.37125 -22.125 14.5625 C-21.04605469 14.71912109 -21.04605469 14.71912109 -19.9453125 14.87890625 C-17.91859333 15.1684297 -17.91859333 15.1684297 -16 14 C-14.44294007 11.26847201 -13.04767359 8.47156173 -11.6328125 5.6640625 C-8.56389796 0.65688615 -5.8188532 -0.60613054 0 0 Z " fill="#2E2F2B" transform="translate(152,172)"/>
<path d="M0 0 C2.67431489 1.81163267 2.95920359 2.87761077 4 6 C4.14359334 7.80872376 4.22046121 9.62332577 4.25 11.4375 C4.27578125 12.38496094 4.3015625 13.33242187 4.328125 14.30859375 C3.94918843 17.41677581 3.1685544 18.77354731 1 21 C0.34 21 -0.32 21 -1 21 C-0.125 16.25 -0.125 16.25 1 14 C1.3052622 9.34724024 1.3052622 9.34724024 0 5 C-3.19904988 4.16046733 -3.19904988 4.16046733 -7 5 C-9.79087287 8.03985116 -11.86587204 11.47895766 -14 15 C-16 18.125 -16 18.125 -18 20 C-21.5 20.625 -21.5 20.625 -25 20 C-29.23588955 15.76411045 -30.10889789 12.88542061 -30.23046875 6.97265625 C-30 5 -30 5 -28 2 C-26.68 2.33 -25.36 2.66 -24 3 C-24.99 4.485 -24.99 4.485 -26 6 C-26.24107326 8.28648848 -26.24107326 8.28648848 -26.125 10.6875 C-26.10695313 11.49574219 -26.08890625 12.30398437 -26.0703125 13.13671875 C-26.04710938 13.75160156 -26.02390625 14.36648437 -26 15 C-23.2587435 15.7555432 -23.2587435 15.7555432 -20 15 C-17.59919181 12.24613178 -15.85873816 9.13465165 -14 6 C-9.80888725 0.41184967 -7.08135179 -0.82712511 0 0 Z " fill="#312D2B" transform="translate(154,120)"/>
<path d="M0 0 C3.0625 0.25 3.0625 0.25 6.0625 2.25 C5.7325 3.9 5.4025 5.55 5.0625 7.25 C16.9425 7.58 28.8225 7.91 41.0625 8.25 C41.0625 8.58 41.0625 8.91 41.0625 9.25 C14.07024423 10.52421069 -12.92234032 10.35482047 -39.9375 10.25 C-39.9375 11.57 -39.9375 12.89 -39.9375 14.25 C-36.6375 14.25 -33.3375 14.25 -29.9375 14.25 C-29.9375 14.58 -29.9375 14.91 -29.9375 15.25 C-33.5675 15.25 -37.1975 15.25 -40.9375 15.25 C-40.9375 13.27 -40.9375 11.29 -40.9375 9.25 C-29.0575 8.92 -17.1775 8.59 -4.9375 8.25 C-4.9375 6.27 -4.9375 4.29 -4.9375 2.25 C-2.9375 0.25 -2.9375 0.25 0 0 Z " fill="#AFAEAE" transform="translate(136.9375,103.75)"/>
<path d="M0 0 C10.89 0 21.78 0 33 0 C32 4 32 4 31 5 C28.78312006 5.15873955 26.56144702 5.25133837 24.33984375 5.31640625 C23.67537735 5.33718735 23.01091095 5.35796844 22.3263092 5.37937927 C20.19681457 5.44493658 18.06719332 5.50378785 15.9375 5.5625 C14.49673153 5.60567939 13.05597601 5.64929349 11.61523438 5.69335938 C8.0769596 5.80062393 4.53854131 5.90187371 1 6 C0.67 6.99 0.34 7.98 0 9 C0 6.03 0 3.06 0 0 Z " fill="#413E3C" transform="translate(125,85)"/>
<path d="M0 0 C8.91 0 17.82 0 27 0 C27 0.66 27 1.32 27 2 C28.2065625 2.433125 28.2065625 2.433125 29.4375 2.875 C32 4 32 4 33 6 C33.07065617 8.04055005 33.08421976 10.08334257 33.0625 12.125 C33.05347656 13.22070312 33.04445312 14.31640625 33.03515625 15.4453125 C33.02355469 16.28835937 33.01195312 17.13140625 33 18 C32.01 18.495 32.01 18.495 31 19 C31 18.34 31 17.68 31 17 C30.34 16.67 29.68 16.34 29 16 C29.33 15.67 29.66 15.34 30 15 C30.23790731 12.93335994 30.23790731 12.93335994 30.25 10.5625 C30.27578125 9.75941406 30.3015625 8.95632812 30.328125 8.12890625 C30.21984375 7.42636719 30.1115625 6.72382813 30 6 C26.51321064 3.67547376 24.93032429 3.70226266 20.80078125 3.5859375 C19.59228516 3.54726562 18.38378906 3.50859375 17.13867188 3.46875 C15.87603516 3.4378125 14.61339844 3.406875 13.3125 3.375 C12.03826172 3.33632812 10.76402344 3.29765625 9.45117188 3.2578125 C6.30092708 3.16342314 3.15069009 3.0778417 0 3 C0 2.01 0 1.02 0 0 Z " fill="#3E3F3D" transform="translate(125,144)"/>
<path d="M0 0 C9.9 0 19.8 0 30 0 C30 0.66 30 1.32 30 2 C25.7792849 2.78307363 21.7029364 3.17647813 17.4140625 3.31640625 C15.53291748 3.3793689 15.53291748 3.3793689 13.61376953 3.44360352 C12.29747559 3.48283936 10.98118164 3.5220752 9.625 3.5625 C8.27066911 3.60534104 6.91633968 3.64822853 5.56201172 3.69116211 C-3.6279209 3.97321618 -12.80621521 4.13217901 -22 4 C-22 3.67 -22 3.34 -22 3 C-14.74 2.67 -7.48 2.34 0 2 C0 1.34 0 0.68 0 0 Z " fill="#484848" transform="translate(148,113)"/>
<path d="M0 0 C7.6841853 -0.15611212 15.36481106 0.06719411 23 1 C23.33 1.33 23.66 1.66 24 2 C25.67884238 2.3931648 27.36850045 2.74085452 29.0625 3.0625 C29.98160156 3.23910156 30.90070313 3.41570312 31.84765625 3.59765625 C32.55792969 3.73042969 33.26820313 3.86320312 34 4 C34 4.33 34 4.66 34 5 C22.78 4.67 11.56 4.34 0 4 C0 2.68 0 1.36 0 0 Z " fill="#171111" transform="translate(97,95)"/>
<path d="M0 0 C0.99 0.33 1.98 0.66 3 1 C2.01 2.485 2.01 2.485 1 4 C0.60612212 6.32387947 0.26513915 8.65793749 0 11 C1.27875 11.185625 2.5575 11.37125 3.875 11.5625 C4.95394531 11.71912109 4.95394531 11.71912109 6.0546875 11.87890625 C8.08140667 12.1684297 8.08140667 12.1684297 10 11 C11.04808041 9.02477154 12.0520411 7.02518491 13 5 C13.66 5 14.32 5 15 5 C14.67 6.32 14.34 7.64 14 9 C13.34 9 12.68 9 12 9 C11.855625 9.639375 11.71125 10.27875 11.5625 10.9375 C11 13 11 13 10 14 C10.66 14.66 11.32 15.32 12 16 C8.50434664 18.33043558 7.1134271 18.58763244 3 18 C-1.1891281 13.69765223 -2.10823206 10.91780447 -2.23046875 4.97265625 C-2 3 -2 3 0 0 Z " fill="#343531" transform="translate(126,175)"/>
<path d="M0 0 C1.32 0.33 2.64 0.66 4 1 C3.01 2.485 3.01 2.485 2 4 C1.75892674 6.28648848 1.75892674 6.28648848 1.875 8.6875 C1.91625 10.110625 1.9575 11.53375 2 13 C7.445 12.505 7.445 12.505 13 12 C12 16 12 16 10 18 C6.625 18.4375 6.625 18.4375 3 18 C-1.23588955 13.76411045 -2.10889789 10.88542061 -2.23046875 4.97265625 C-2 3 -2 3 0 0 Z " fill="#24221F" transform="translate(126,122)"/>
<path d="M0 0 C5.01708622 -0.02480683 10.03413635 -0.04291052 15.05126953 -0.05493164 C16.75635399 -0.05994564 18.46143418 -0.0667585 20.16650391 -0.07543945 C22.62403419 -0.08763385 25.08150738 -0.09325775 27.5390625 -0.09765625 C28.29555084 -0.10281754 29.05203918 -0.10797882 29.83145142 -0.11329651 C33.99682563 -0.1137333 37.91432259 0.18342962 42 1 C42 1.66 42 2.32 42 3 C32.70867321 3.15770286 23.51431166 2.6649241 14.25 2 C12.85940121 1.90326834 11.46877625 1.80691202 10.078125 1.7109375 C6.71847536 1.4776285 3.35913559 1.24057809 0 1 C0 0.67 0 0.34 0 0 Z " fill="#494A49" transform="translate(136,101)"/>
<path d="M0 0 C1.81274414 0.00676758 1.81274414 0.00676758 3.66210938 0.01367188 C6.62895789 0.02539855 9.5957027 0.04181104 12.5625 0.0625 C12.5625 0.3925 12.5625 0.7225 12.5625 1.0625 C0.53824024 2.29073191 -11.33714694 3.4341832 -23.4375 3.0625 C-16.73801385 -1.4038241 -7.75440598 -0.05499579 0 0 Z " fill="#121211" transform="translate(135.4375,113.9375)"/>
<path d="M0 0 C2 0 2 0 3.5625 1.3125 C6.20224173 4.41132725 6.1864004 7.53142457 6.25 11.4375 C6.28867188 12.85869141 6.28867188 12.85869141 6.328125 14.30859375 C5.94918843 17.41677581 5.1685544 18.77354731 3 21 C2.34 21 1.68 21 1 21 C1.875 16.25 1.875 16.25 3 14 C3.3052622 9.34724024 3.3052622 9.34724024 2 5 C-1.02934491 4.34227572 -1.02934491 4.34227572 -4 4 C-2.68 3.67 -1.36 3.34 0 3 C0 2.01 0 1.02 0 0 Z " fill="#262626" transform="translate(152,120)"/>
<path d="M0 0 C3.62484999 -0.08681476 7.24943443 -0.14032721 10.875 -0.1875 C12.42380859 -0.22520508 12.42380859 -0.22520508 14.00390625 -0.26367188 C14.99003906 -0.27333984 15.97617188 -0.28300781 16.9921875 -0.29296875 C17.90339355 -0.3086792 18.81459961 -0.32438965 19.75341797 -0.34057617 C20.49479004 -0.22818604 21.23616211 -0.1157959 22 0 C22.66 0.99 23.32 1.98 24 3 C16.08 3.33 8.16 3.66 0 4 C0 2.68 0 1.36 0 0 Z " fill="#0E0C0A" transform="translate(126,86)"/>
<path d="M0 0 C5.94 0 11.88 0 18 0 C18 0.33 18 0.66 18 1 C17.030625 1.12375 16.06125 1.2475 15.0625 1.375 C13.5465625 1.684375 13.5465625 1.684375 12 2 C11.67 2.66 11.34 3.32 11 4 C8.71484375 4.6328125 8.71484375 4.6328125 5.9375 5.125 C5.01839844 5.29257813 4.09929687 5.46015625 3.15234375 5.6328125 C2.08693359 5.81457031 2.08693359 5.81457031 1 6 C1.20625 5.38125 1.4125 4.7625 1.625 4.125 C1.74875 3.42375 1.8725 2.7225 2 2 C1.34 1.34 0.68 0.68 0 0 Z " fill="#D8D6D3" transform="translate(142,116)"/>
<path d="M0 0 C1.4540625 0.0309375 1.4540625 0.0309375 2.9375 0.0625 C3.5625 2.4375 3.5625 2.4375 3.9375 5.0625 C1.9375 7.0625 1.9375 7.0625 -0.6875 7.1875 C-1.47125 7.14625 -2.255 7.105 -3.0625 7.0625 C-3.44383299 5.0710944 -3.77575582 3.06970923 -4.0625 1.0625 C-3.0625 0.0625 -3.0625 0.0625 0 0 Z " fill="#DC4138" transform="translate(137.0625,103.9375)"/>
<path d="M0 0 C0.99 0.33 1.98 0.66 3 1 C2.01 2.485 2.01 2.485 1 4 C0.60612212 6.32387947 0.26513915 8.65793749 0 11 C3.96 11.99 3.96 11.99 8 13 C8 13.33 8 13.66 8 14 C7.195625 14.12375 6.39125 14.2475 5.5625 14.375 C4.716875 14.58125 3.87125 14.7875 3 15 C2.67 15.66 2.34 16.32 2 17 C-1.9098295 12.11271313 -2.61547819 9.25736162 -2 3 C-1.34 2.01 -0.68 1.02 0 0 Z " fill="#545454" transform="translate(126,175)"/>
<path d="M0 0 C3 1 3 1 4.1875 2.9375 C5.33241263 7.2529399 5.66968126 11.57146262 5 16 C3.60546875 18.30859375 3.60546875 18.30859375 2 20 C1.34 20 0.68 20 0 20 C0.33 19.34 0.66 18.68 1 18 C2.58050244 13.25849269 2.59712091 8.79136272 1 4 C1.33 3.34 1.66 2.68 2 2 C1.34 2 0.68 2 0 2 C0 1.34 0 0.68 0 0 Z " fill="#383838" transform="translate(153,173)"/>
<path d="M0 0 C0.66 0.33 1.32 0.66 2 1 C1.65986985 6.44208234 -1.70296528 9.93668198 -5 14 C-5.99 13.67 -6.98 13.34 -8 13 C-6.625 10.5 -6.625 10.5 -5 8 C-4.34 8 -3.68 8 -3 8 C-3 6.02 -3 4.04 -3 2 C-2.01 2 -1.02 2 0 2 C0 1.34 0 0.68 0 0 Z " fill="#232421" transform="translate(143,176)"/>
<path d="M0 0 C1.32 0 2.64 0 4 0 C4 0.99 4 1.98 4 3 C8.95 3 13.9 3 19 3 C19 3.33 19 3.66 19 4 C11.08 4 3.16 4 -5 4 C-3.68 3.67 -2.36 3.34 -1 3 C-0.67 2.01 -0.34 1.02 0 0 Z " fill="#EEEEEC" transform="translate(130,140)"/>
<path d="M0 0 C2.4375 0.375 2.4375 0.375 5 1 C6.38226016 3.76452033 6.09525387 6.0461363 6.0625 9.125 C6.05347656 10.22070312 6.04445312 11.31640625 6.03515625 12.4453125 C6.02355469 13.28835937 6.01195312 14.13140625 6 15 C5.01 15.495 5.01 15.495 4 16 C4 15.34 4 14.68 4 14 C3.34 13.67 2.68 13.34 2 13 C2.33 12.67 2.66 12.34 3 12 C3.23820921 9.96729438 3.23820921 9.96729438 3.25 7.625 C3.27578125 6.83351562 3.3015625 6.04203125 3.328125 5.2265625 C2.93070018 2.52975122 2.07493465 1.69270985 0 0 Z " fill="#363636" transform="translate(152,147)"/>
<path d="M0 0 C1.81242052 -0.02687279 3.62495233 -0.04633715 5.4375 -0.0625 C6.44683594 -0.07410156 7.45617187 -0.08570312 8.49609375 -0.09765625 C11 0 11 0 12 1 C13.67884238 1.3931648 15.36850045 1.74085452 17.0625 2.0625 C17.98160156 2.23910156 18.90070313 2.41570312 19.84765625 2.59765625 C20.55792969 2.73042969 21.26820313 2.86320312 22 3 C22 3.33 22 3.66 22 4 C20.25034642 4.05429959 18.50020213 4.09292823 16.75 4.125 C15.77546875 4.14820312 14.8009375 4.17140625 13.796875 4.1953125 C10.92446241 3.99472503 9.48080161 3.36444089 7 2 C4.67504723 1.61250787 2.34148732 1.27017161 0 1 C0 0.67 0 0.34 0 0 Z " fill="#252423" transform="translate(109,96)"/>
<path d="M0 0 C2 3 2 3 2 5 C4.99152582 4.22520264 4.99152582 4.22520264 8 3 C8.33 2.01 8.66 1.02 9 0 C9.66 0 10.32 0 11 0 C10.67 1.65 10.34 3.3 10 5 C9.34 5 8.68 5 8 5 C8 5.66 8 6.32 8 7 C2.25 7.125 2.25 7.125 0 6 C0 4.02 0 2.04 0 0 Z " fill="#F6D4D3" transform="translate(132,106)"/>
<path d="M0 0 C1.32 0.33 2.64 0.66 4 1 C3.01 2.485 3.01 2.485 2 4 C1.60612212 6.32387947 1.26513915 8.65793749 1 11 C0.01 11 -0.98 11 -2 11 C-2.25 3.375 -2.25 3.375 0 0 Z " fill="#808080" transform="translate(126,122)"/>
<path d="M0 0 C3.125 -0.1875 3.125 -0.1875 6 0 C6 0.99 6 1.98 6 3 C5.21625 3.309375 4.4325 3.61875 3.625 3.9375 C1.07669872 4.92875038 1.07669872 4.92875038 -1 6 C-1.33 5.01 -1.66 4.02 -2 3 C-1.34 2.01 -0.68 1.02 0 0 Z " fill="#171310" transform="translate(146,120)"/>
<path d="M0 0 C2 0 2 0 3.6875 1.25 C4.120625 1.8275 4.55375 2.405 5 3 C4.6875 5.1875 4.6875 5.1875 4 7 C3.34 6.34 2.68 5.68 2 5 C0.01178687 4.60235737 -1.98944339 4.26224651 -4 4 C-2.68 3.67 -1.36 3.34 0 3 C0 2.01 0 1.02 0 0 Z " fill="#383534" transform="translate(152,120)"/>
<path d="M0 0 C0.33 0 0.66 0 1 0 C1.66 2.97 2.32 5.94 3 9 C4.65 9.33 6.3 9.66 8 10 C8 10.33 8 10.66 8 11 C6.02 11.33 4.04 11.66 2 12 C-0.13586678 8.79619983 -0.23132175 7.98060033 -0.125 4.3125 C-0.10695313 3.50425781 -0.08890625 2.69601563 -0.0703125 1.86328125 C-0.04710938 1.24839844 -0.02390625 0.63351563 0 0 Z " fill="#2D2C2C" transform="translate(125,126)"/>
<path d="M0 0 C0.66 0.33 1.32 0.66 2 1 C1.34 3.31 0.68 5.62 0 8 C-0.99 7.01 -1.98 6.02 -3 5 C-1.125 1.125 -1.125 1.125 0 0 Z " fill="#252321" transform="translate(144,121)"/>
<path d="M0 0 C3.3 0 6.6 0 10 0 C10 0.33 10 0.66 10 1 C9.030625 1.12375 8.06125 1.2475 7.0625 1.375 C5.5465625 1.684375 5.5465625 1.684375 4 2 C3.67 2.66 3.34 3.32 3 4 C2.01 4 1.02 4 0 4 C0 2.68 0 1.36 0 0 Z " fill="#292124" transform="translate(97,95)"/>
<path d="M0 0 C0.33 0.99 0.66 1.98 1 3 C-0.4375 5.1875 -0.4375 5.1875 -2 7 C-2.99 6.67 -3.98 6.34 -5 6 C-2.25 1.125 -2.25 1.125 0 0 Z " fill="#151613" transform="translate(140,183)"/>
<path d="M0 0 C0.33 0 0.66 0 1 0 C1.33 3.3 1.66 6.6 2 10 C1.01 10.495 1.01 10.495 0 11 C0 10.34 0 9.68 0 9 C-0.66 8.67 -1.32 8.34 -2 8 C-1.67 7.67 -1.34 7.34 -1 7 C-0.63239269 4.67182036 -0.29758419 2.3381615 0 0 Z " fill="#656565" transform="translate(156,152)"/>
<path d="M0 0 C0.66 0.33 1.32 0.66 2 1 C2.625 3.0625 2.625 3.0625 3 5 C2.01 5.495 2.01 5.495 1 6 C0.67 5.34 0.34 4.68 0 4 C-0.99 4.33 -1.98 4.66 -3 5 C-1.125 1.125 -1.125 1.125 0 0 Z " fill="#42433F" transform="translate(144,173)"/>
<path d="M0 0 C0.99 0.33 1.98 0.66 3 1 C2 3 1 5 0 7 C-0.66 7 -1.32 7 -2 7 C-1.125 2.25 -1.125 2.25 0 0 Z " fill="#5D5D5D" transform="translate(155,134)"/>
</svg>
