<?xml version="1.0" encoding="UTF-8"?>
<svg version="1.1" xmlns="http://www.w3.org/2000/svg" width="273" height="272">
<path d="M0 0 C90.09 0 180.18 0 273 0 C273 89.76 273 179.52 273 272 C182.91 272 92.82 272 0 272 C0 182.24 0 92.48 0 0 Z " fill="#080024" transform="translate(0,0)"/>
<path d="M0 0 C12.25699176 0.79936903 22.01683472 8.7894951 30.26171875 17.34765625 C36.03435551 24.10988789 42 32.8864037 42 42 C30.12 42.33 18.24 42.66 6 43 C11.54639196 54.52179626 11.54639196 54.52179626 21 62 C21 62.66 21 63.32 21 64 C17.12629549 64.26246434 13.25487619 64.42153564 9.375 64.5625 C8.28058594 64.63791016 7.18617188 64.71332031 6.05859375 64.79101562 C-1.82368093 65.00598675 -1.82368093 65.00598675 -5.09912109 62.20483398 C-8.40629146 57.6001299 -9.73697449 53.66876274 -9.375 47.9375 C-9.29378906 46.24947266 -9.29378906 46.24947266 -9.2109375 44.52734375 C-9.14132813 43.69332031 -9.07171875 42.85929687 -9 42 C-27.70557659 42.38320147 -27.70557659 42.38320147 -45 49 C-51.20732576 59.34554294 -50.50386325 75.7396219 -47.94140625 87.26171875 C-43.95503628 98.85692767 -36.75184755 111.85643156 -25.5625 117.6875 C-19.79307673 119.79826461 -14.36699351 119.4082262 -8.73046875 117.05078125 C-3.88264188 114.34355326 -0.95043229 111.20457458 1 106 C1.82642044 103.02203671 2.47525222 100.04491804 3 97 C6.78836346 100.623652 7.21648022 102.86945955 7.375 108.125 C7.32617378 114.43753239 6.21680146 118.30692069 2 123 C-4.89279906 129.71140961 -11.98411271 130.5317786 -21.1875 130.4375 C-22.21327148 130.42992676 -23.23904297 130.42235352 -24.29589844 130.41455078 C-31.81905737 130.25089998 -38.18072685 129.34175714 -45 126 C-45.91394531 125.5875 -46.82789063 125.175 -47.76953125 124.75 C-62.60157999 117.44806831 -72.55533918 105.4182839 -78 90.015625 C-78.33 89.02046875 -78.66 88.0253125 -79 87 C-79.2475 86.31421875 -79.495 85.6284375 -79.75 84.921875 C-84.16619229 70.81459408 -80.74545205 55.44127594 -74.23852539 42.71142578 C-71.42972194 37.47629425 -68.24764642 33.1688038 -64 29 C-63.51660156 28.42378906 -63.03320312 27.84757812 -62.53515625 27.25390625 C-53.69930857 17.15900648 -39.19988308 11.64853154 -26.12109375 10.7265625 C-15.81646618 10.36047058 -6.53496111 12.04857468 3 16 C2.7834375 15.43152344 2.566875 14.86304687 2.34375 14.27734375 C0.54018042 9.2757781 -0.3389604 5.31037964 0 0 Z " fill="#0051CD" transform="translate(159,73)"/>
<path d="M0 0 C90.09 0 180.18 0 273 0 C273 89.76 273 179.52 273 272 C182.91 272 92.82 272 0 272 C0 182.24 0 92.48 0 0 Z M14.5625 12.875 C13.63630859 13.79925781 13.63630859 13.79925781 12.69140625 14.7421875 C8.23418389 20.69201319 7.55991533 26.0352095 7.60559082 33.24043274 C7.59949972 34.14999023 7.59340861 35.05954772 7.58713293 35.99666756 C7.570532 39.03346977 7.57527466 42.06985133 7.58007812 45.10668945 C7.57273608 47.2885176 7.56414945 49.47034187 7.55441284 51.65216064 C7.53220139 57.57168469 7.52926603 63.49106951 7.53116035 69.41062951 C7.53128008 74.35585393 7.52271484 79.30104889 7.51438284 84.24626511 C7.49405037 96.58274067 7.49299811 108.91913827 7.50018996 121.25562497 C7.50610887 132.61801772 7.48074683 143.9801173 7.44570971 155.3424533 C7.41499745 165.67813963 7.40365439 176.01372736 7.40754652 186.3494584 C7.40961259 192.51905474 7.40415637 198.68841242 7.37965393 204.85796547 C7.35736476 210.6619605 7.35928324 216.4654575 7.37958145 222.26945496 C7.38298771 224.39545263 7.37791907 226.52148397 7.36359787 228.64743614 C7.28390434 241.35829921 7.38648848 250.98364283 16.25 260.875 C22.81281982 266.76589689 29.75436653 268.60087869 38.40501404 268.5146637 C39.75966289 268.52508199 39.75966289 268.52508199 41.14167839 268.53571075 C44.14475796 268.55389548 47.14703991 268.54374023 50.15014648 268.53344727 C52.31256701 268.54051003 54.4749826 268.54925655 56.63739014 268.55955505 C62.49486115 268.58201825 68.35206157 268.57911641 74.2095592 268.57023358 C79.10518344 268.56511628 84.00075716 268.57242229 88.89637619 268.57970566 C100.44797102 268.59669488 111.99943371 268.59314851 123.55102539 268.57641602 C135.4566421 268.55949341 147.36189219 268.57533365 159.26746887 268.6076389 C169.50129512 268.63435291 179.73500737 268.64160593 189.96886498 268.63312382 C196.07582205 268.62820022 202.18255855 268.63037987 208.28948784 268.65091133 C214.03279164 268.66929677 219.77556892 268.66327414 225.5188446 268.63871193 C227.62226157 268.63371331 229.72571885 268.63716903 231.82910347 268.64986038 C244.4719339 268.72008909 254.03877484 268.56835761 263.875 259.75 C269.79536796 253.15265846 271.60070362 246.19737823 271.50793457 237.50559998 C271.51417453 236.5929225 271.5204145 235.68024503 271.52684355 234.73991066 C271.54270311 231.70451227 271.53019689 228.66992477 271.51757812 225.63452148 C271.52300232 223.44915298 271.53012665 221.26378813 271.53881836 219.07843018 C271.55701796 213.15910166 271.5499982 207.24005274 271.53730202 201.32071948 C271.5271583 195.1198164 271.5365714 188.91893688 271.54284668 182.71803284 C271.55058397 171.64046427 271.53817324 160.56301916 271.51780933 149.48547036 C271.4999354 139.45192068 271.50304814 129.41855612 271.52148438 119.38500977 C271.54283839 107.71698145 271.55084631 96.04906888 271.53903532 84.38102394 C271.53280464 78.21045206 271.53195333 72.04000756 271.54518127 65.86944389 C271.55674838 60.06874797 271.54869787 54.26840119 271.52560425 48.46774292 C271.52032207 46.34091331 271.52182249 44.21405424 271.53065491 42.0872364 C271.54161299 39.18023506 271.52784324 36.27434711 271.50793457 33.36741638 C271.51685746 32.52917672 271.52578034 31.69093706 271.53497362 30.8272962 C271.4342996 23.22992445 268.73909729 17.18257513 263.375 11.75 C262.48941406 10.81414063 262.48941406 10.81414063 261.5859375 9.859375 C251.2845793 2.45235611 239.96618899 3.42467978 227.828125 3.46655273 C225.67540904 3.4594885 223.52269804 3.45074137 221.36999512 3.44044495 C215.54357354 3.41799967 209.71742423 3.42087917 203.89097595 3.42976642 C199.02015475 3.43488654 194.14938425 3.42757552 189.27856827 3.42029434 C177.78592726 3.40331122 166.29341909 3.40684581 154.80078125 3.42358398 C142.95705907 3.44051073 131.11370531 3.42465928 119.27002335 3.3923611 C109.08713179 3.3656473 98.9043548 3.35839387 88.72143173 3.36687618 C82.64578826 3.37179925 76.57036651 3.36962279 70.49475098 3.34908867 C64.78180165 3.33070321 59.06938164 3.33672585 53.35646057 3.36128807 C51.26433067 3.36628646 49.17216024 3.36283159 47.08006287 3.35013962 C34.53597383 3.2800798 23.86539292 3.23200132 14.5625 12.875 Z " fill="#C5C5C7" transform="translate(0,0)"/>
<path d="M0 0 C12.25699176 0.79936903 22.01683472 8.7894951 30.26171875 17.34765625 C36.03435551 24.10988789 42 32.8864037 42 42 C30.12 42.33 18.24 42.66 6 43 C11.54639196 54.52179626 11.54639196 54.52179626 21 62 C21 62.66 21 63.32 21 64 C17.12629549 64.26246434 13.25487619 64.42153564 9.375 64.5625 C7.73337891 64.67561523 7.73337891 64.67561523 6.05859375 64.79101562 C-1.82368093 65.00598675 -1.82368093 65.00598675 -5.09912109 62.20483398 C-8.40629146 57.6001299 -9.73697449 53.66876274 -9.375 47.9375 C-9.32085937 46.81214844 -9.26671875 45.68679687 -9.2109375 44.52734375 C-9.14132813 43.69332031 -9.07171875 42.85929687 -9 42 C-22.26445891 42.30078138 -33.6098684 43.89279233 -46 49 C-41.28247518 33.56082786 -30.10322522 23.85069149 -16.30273438 16.4230957 C-11.83992002 14.15282426 -7.6733439 12.36072211 -2.6640625 13.55859375 C-0.77604167 14.37239583 1.11197917 15.18619792 3 16 C2.7834375 15.43152344 2.566875 14.86304687 2.34375 14.27734375 C0.54018042 9.2757781 -0.3389604 5.31037964 0 0 Z " fill="#008A84" transform="translate(159,73)"/>
<path d="M0 0 C-2.43620662 1.21810331 -4.87490517 2.42921819 -7.3203125 3.62890625 C-21.11890181 10.55903372 -29.70665126 18.66415444 -37.2578125 32.265625 C-39.84794051 36.75975439 -42.53836706 39.55687782 -46.83984375 42.48046875 C-52.25144902 46.28718566 -56.11457236 49.98914249 -59.625 55.625 C-60.20411133 56.54043579 -60.20411133 56.54043579 -60.79492188 57.47436523 C-64.94903995 64.23891277 -67.55348634 71.19717149 -69 79 C-74.08459856 73.91540144 -74.22214566 65.30437691 -74.3125 58.5 C-73.86816147 42.15821645 -68.8697788 27.64945808 -57 16 C-56.51660156 15.42378906 -56.03320312 14.84757812 -55.53515625 14.25390625 C-42.47098718 -0.67182381 -18.47359994 -5.9985428 0 0 Z " fill="#00B1E1" transform="translate(152,86)"/>
<path d="M0 0 C8.91 0 17.82 0 27 0 C25.26774726 1.15483516 23.50968891 2.27590387 21.6953125 3.296875 C13.42880258 7.97034261 8.51454742 13.0585779 5 22 C3.79821065 26.61086148 3.85177847 31.11164454 3.85282898 35.84133911 C3.84731395 37.17755241 3.84731395 37.17755241 3.8416875 38.54075992 C3.83067361 41.52603982 3.82681071 44.51128488 3.82299805 47.49658203 C3.81673166 49.63708099 3.8100847 51.77757887 3.80308533 53.91807556 C3.7820632 60.9479802 3.77168458 67.977885 3.76171875 75.0078125 C3.75767049 77.4298491 3.75355355 79.85188559 3.74936867 82.27392197 C3.73032097 93.65370287 3.71608911 105.0334773 3.7077567 116.41327107 C3.69798584 129.54010473 3.67166833 142.6667697 3.63125581 155.79354393 C3.60107566 165.94575108 3.58628601 176.09790992 3.58297569 186.25016105 C3.58062737 192.31081307 3.57169506 198.37128477 3.54651451 204.43188858 C3.52319578 210.13646888 3.51901602 215.84075063 3.52927589 221.54536629 C3.52977044 223.63385958 3.52347421 225.72236776 3.50971985 227.81081581 C3.35721602 247.07612195 3.35721602 247.07612195 13 263.28125 C16.34493687 266.15580512 20.03719148 268.11015786 24 270 C25.32 270.66 26.64 271.32 28 272 C18.76 272 9.52 272 0 272 C0 182.24 0 92.48 0 0 Z " fill="#000000" transform="translate(0,0)"/>
<path d="M0 0 C12.25699176 0.79936903 22.01683472 8.7894951 30.26171875 17.34765625 C36.03435551 24.10988789 42 32.8864037 42 42 C32.1 42 22.2 42 12 42 C8.67529387 33.37159599 5.48308699 24.73221234 2.625 15.9375 C2.23127197 14.76127075 2.23127197 14.76127075 1.82958984 13.5612793 C0.32788176 8.85018637 -0.27575015 4.94380635 0 0 Z " fill="#EADE68" transform="translate(159,73)"/>
<path d="M0 0 C3.78836346 3.623652 4.21648022 5.86945955 4.375 11.125 C4.32622488 17.43092588 3.22162971 21.31572593 -1 26 C-4.06681611 28.9134753 -6.86459483 31.03262068 -11 32 C-13.92996409 31.14953796 -16.51091913 29.75858034 -19.1875 28.3125 C-19.91130859 27.94705078 -20.63511719 27.58160156 -21.38085938 27.20507812 C-24.9368224 25.35597735 -26.71321879 24.43017182 -29 21 C-28.32195312 21.11859375 -27.64390625 21.2371875 -26.9453125 21.359375 C-19.70658723 22.36196853 -14.33079416 21.81676038 -8 18 C-2.2910812 13.09515427 -0.84905589 7.21697502 0 0 Z " fill="#4122BA" transform="translate(162,170)"/>
<path d="M0 0 C2 1 2 1 2.86962891 3.00952148 C3.15241699 3.87134033 3.43520508 4.73315918 3.7265625 5.62109375 C4.0359375 6.55630859 4.3453125 7.49152344 4.6640625 8.45507812 C5.13972656 9.93137695 5.13972656 9.93137695 5.625 11.4375 C5.94984375 12.41783203 6.2746875 13.39816406 6.609375 14.40820312 C9 21.70563616 9 21.70563616 9 24 C2.4 24 -4.2 24 -11 24 C-9.62801006 14.39607039 -5.80970994 7.63561878 0 0 Z " fill="#00DFBD" transform="translate(162,91)"/>
<path d="M0 0 C3 1.625 3 1.625 5 4 C5.88453995 8.96273468 5.32276635 13.4996402 3 18 C1.01759492 15.02639238 -0.83594021 11.99568517 -2.68359375 8.9375 C-3.99310144 7.01015337 -5.20871085 5.49046197 -7 4 C-13.20943204 3.13067952 -17.60885105 5.26954748 -23 8 C-23.72703125 8.33386719 -24.4540625 8.66773438 -25.203125 9.01171875 C-27.5300496 10.29152728 -27.91768685 11.61891107 -29 14 C-30.625 15.75 -30.625 15.75 -32 17 C-31.49088265 10.6360331 -29.97229337 6.56480154 -25.0625 2.328125 C-16.83848337 -4.02129961 -9.28450952 -4.55317098 0 0 Z " fill="#3B0773" transform="translate(157,164)"/>
<path d="M0 0 C6.23975664 2.25693325 10.98179211 5.68675292 16 10 C16.7528125 10.63679688 17.505625 11.27359375 18.28125 11.9296875 C20 14 20 14 20.20703125 16.32421875 C20.01173828 17.49404297 20.01173828 17.49404297 19.8125 18.6875 C19.69519531 19.47511719 19.57789063 20.26273438 19.45703125 21.07421875 C19 23 19 23 18 24 C16.31391034 24.07205511 14.62499341 24.08386068 12.9375 24.0625 C12.01839844 24.05347656 11.09929687 24.04445313 10.15234375 24.03515625 C9.44207031 24.02355469 8.73179687 24.01195313 8 24 C0 7.53191489 0 7.53191489 0 0 Z " fill="#E1F0AA" transform="translate(163,90)"/>
<path d="M0 0 C3 1 3 1 4.07495117 2.51879883 C4.39439697 3.15841553 4.71384277 3.79803223 5.04296875 4.45703125 C5.39423828 5.15763672 5.74550781 5.85824219 6.10742188 6.58007812 C6.64206055 7.68512695 6.64206055 7.68512695 7.1875 8.8125 C7.55552734 9.53759766 7.92355469 10.26269531 8.30273438 11.00976562 C10.1548605 14.76556127 11 16.67291949 11 21 C1.57978333 22.2068605 1.57978333 22.2068605 -2.1015625 19.39453125 C-4.38806605 16.50660141 -5.90915859 14.21121885 -6.1875 10.5 C-4.42990783 6.79980595 -2.28376337 3.39614995 0 0 Z " fill="#EDB723" transform="translate(190,94)"/>
<path d="M0 0 C2.31 0 4.62 0 7 0 C7.37511719 0.72445312 7.75023437 1.44890625 8.13671875 2.1953125 C12.16010563 9.79616933 15.37358649 15.64204942 23 20 C23 20.66 23 21.32 23 22 C15.08 22 7.16 22 -1 22 C-1 21.67 -1 21.34 -1 21 C2.96 20.67 6.92 20.34 11 20 C10.2575 19.484375 9.515 18.96875 8.75 18.4375 C5.42162107 15.48734595 4.04143942 12.94208991 2 9 C1.5875 8.29875 1.175 7.5975 0.75 6.875 C-0.19771055 4.50572363 -0.14038535 2.52693627 0 0 Z " fill="#007A5D" transform="translate(157,115)"/>
<path d="M0 0 C2.97 0 5.94 0 9 0 C9.01417969 0.83402344 9.02835938 1.66804688 9.04296875 2.52734375 C9.37832234 10.4398757 10.62844843 15.38662711 15 22 C11.7 22 8.4 22 5 22 C-0.1398368 11.8861276 -0.1398368 11.8861276 -0.0625 5.3125 C-0.05347656 4.31863281 -0.04445312 3.32476562 -0.03515625 2.30078125 C-0.02355469 1.54152344 -0.01195312 0.78226562 0 0 Z " fill="#2C045D" transform="translate(141,115)"/>
<path d="M0 0 C6.49142565 0.42335385 11.33492989 2.91099799 17 6 C13.22975157 9.92734211 9.11529949 13.44406161 5 17 C2.36001029 15.68000515 2.29985024 14.63086688 1.375 11.875 C0.05373468 7.72529737 -0.27625262 4.32795771 0 0 Z " fill="#EBB523" transform="translate(159,73)"/>
<path d="M0 0 C0.33 0 0.66 0 1 0 C1 5.61 1 11.22 1 17 C-5.93 17 -12.86 17 -20 17 C-18.26774726 15.84516484 -16.50968891 14.72409613 -14.6953125 13.703125 C-7.9780695 9.90553473 -4.27577193 6.41365789 0 0 Z " fill="#000000" transform="translate(272,255)"/>
<path d="M0 0 C7.26 0 14.52 0 22 0 C22 5.61 22 11.22 22 17 C20.68 15.35 19.36 13.7 18 12 C12.69461471 6.42818706 7.27854129 3.40132203 0 1 C0 0.67 0 0.34 0 0 Z " fill="#000000" transform="translate(251,0)"/>
<path d="M0 0 C-1.01273569 2.86941779 -2.06894091 5.09421924 -3.875 7.5625 C-7.08998359 12.14324729 -8.3885221 17.70269499 -10 23 C-12.97 22.67 -15.94 22.34 -19 22 C-16.98972948 14.76302612 -8.609528 0 0 0 Z " fill="#0093A3" transform="translate(161,92)"/>
<path d="M0 0 C1.51885846 0.75485435 3.02626393 1.53545363 4.5 2.375 C4.5 2.705 4.5 3.035 4.5 3.375 C3.59636719 3.62894531 2.69273437 3.88289062 1.76171875 4.14453125 C0.58222656 4.48871094 -0.59726563 4.83289063 -1.8125 5.1875 C-2.98425781 5.52394531 -4.15601563 5.86039063 -5.36328125 6.20703125 C-8.32805734 7.31097652 -9.47158601 8.08400815 -11.5 10.375 C-12.16 10.375 -12.82 10.375 -13.5 10.375 C-13.768125 10.973125 -14.03625 11.57125 -14.3125 12.1875 C-15.48493467 14.34724808 -16.69369282 15.73290256 -18.5 17.375 C-17.90821318 9.97766476 -15.25901085 5.69893927 -9.875 0.75 C-6.12280371 -1.99689087 -4.25044104 -1.70980914 0 0 Z " fill="#2A035A" transform="translate(143.5,163.625)"/>
<path d="M0 0 C3.78836346 3.623652 4.21648022 5.86945955 4.375 11.125 C4.35451494 17.27734502 3.20432415 21.43727445 -1 26 C-1.33 26 -1.66 26 -2 26 C-2.3690205 8.14350797 -2.3690205 8.14350797 0 0 Z " fill="#652CCD" transform="translate(162,170)"/>
<path d="M0 0 C2.81313191 0.96450237 4.88473882 1.90449788 7.1875 3.8125 C11.13514932 6.88289392 15.5035903 8.85049683 20 11 C21.33468559 11.66395527 22.66851678 12.32964586 24 13 C24 13.33 24 13.66 24 14 C16.11231237 14.42850617 10.3595372 13.98625529 4.1875 8.5 C0 3.71428571 0 3.71428571 0 0 Z " fill="#1B6AF0" transform="translate(127,188)"/>
<path d="M0 0 C2.11663302 4.08378953 3.60551268 8.29191655 5.125 12.625 C5.40214844 13.40101562 5.67929688 14.17703125 5.96484375 14.9765625 C8 20.75119304 8 20.75119304 8 23 C5.69 23 3.38 23 1 23 C0.03911617 20.11734851 -0.11670941 18.32337729 -0.09765625 15.33203125 C-0.09443359 14.43935547 -0.09121094 13.54667969 -0.08789062 12.62695312 C-0.07951172 11.69818359 -0.07113281 10.76941406 -0.0625 9.8125 C-0.05798828 8.87212891 -0.05347656 7.93175781 -0.04882812 6.96289062 C-0.03704626 4.64186288 -0.02059558 2.32096356 0 0 Z " fill="#0AC9A6" transform="translate(163,92)"/>
<path d="M0 0 C4.65109055 0.11882348 8.16432394 1.3523577 12.375 3.3125 C13.365 4.7975 13.365 4.7975 14.375 6.3125 C0.7417426 5.71796697 0.7417426 5.71796697 -5.625 2.3125 C-3.625 0.3125 -3.625 0.3125 0 0 Z " fill="#520E8E" transform="translate(144.625,160.6875)"/>
<path d="M0 0 C1.4552777 2.9105554 0.63516661 4.95849052 0.0625 8.125 C-0.13214844 9.22070312 -0.32679688 10.31640625 -0.52734375 11.4453125 C-0.76130859 12.70988281 -0.76130859 12.70988281 -1 14 C-2.98 14 -4.96 14 -7 14 C-5.66304348 4.41847826 -5.66304348 4.41847826 -1.875 1.1875 C-0.946875 0.5996875 -0.946875 0.5996875 0 0 Z " fill="#00E4CB" transform="translate(158,100)"/>
<path d="M0 0 C3.61892886 3.24455691 4.65905151 5.31810302 7 10 C0.73 10 -5.54 10 -12 10 C-12 9.67 -12 9.34 -12 9 C-8.7 8.67 -5.4 8.34 -2 8 C-1.34 5.36 -0.68 2.72 0 0 Z " fill="#DAD785" transform="translate(183,105)"/>
</svg>
