<?xml version="1.0" encoding="UTF-8"?>
<svg version="1.1" xmlns="http://www.w3.org/2000/svg" width="273" height="273">
<path d="M0 0 C0.91364104 -0.00538554 1.82728209 -0.01077108 2.76860923 -0.01631981 C5.81924116 -0.03058669 8.86943839 -0.02349868 11.92008972 -0.01637268 C14.11176908 -0.02207697 16.30344548 -0.02904145 18.49511719 -0.03717041 C24.44150831 -0.05511214 30.38775194 -0.05393126 36.334162 -0.04822803 C41.30175262 -0.04513709 46.26931488 -0.05122771 51.23690146 -0.05726677 C63.62913775 -0.07211719 76.02130191 -0.06849579 88.41353693 -0.05640347 C99.16023604 -0.04647659 109.90676285 -0.05940364 120.65343539 -0.08333766 C131.70298588 -0.10775967 142.7524523 -0.11692949 153.80202883 -0.11068493 C159.99953095 -0.10731689 166.19689078 -0.10972028 172.39437294 -0.12693596 C178.22458132 -0.14242437 184.05446141 -0.13842814 189.88465691 -0.11963081 C192.02032535 -0.11594997 194.15601821 -0.11903862 196.29166412 -0.1295166 C199.21557024 -0.14276287 202.13839535 -0.13114647 205.06225586 -0.11352539 C206.31875961 -0.1279329 206.31875961 -0.1279329 207.60064727 -0.14263147 C215.86771627 -0.04068645 223.5701399 2.59905982 229.65910339 8.32518005 C230.36937683 8.97357849 231.07965027 9.62197693 231.81144714 10.2900238 C236.76393033 15.72864031 237.15914915 19.87034357 237.1227417 26.97052002 C237.12953837 27.94103308 237.13633504 28.91154614 237.14333767 29.91146868 C237.16234172 33.16642446 237.15987072 36.42100498 237.15739441 39.67601013 C237.16636994 42.0085702 237.17657771 44.34112581 237.18792725 46.67367554 C237.21445279 53.0125812 237.22146181 59.35136541 237.22337461 65.69032121 C237.22622218 70.98109494 237.23725745 76.27184034 237.24789089 81.56260318 C237.27135681 93.33197019 237.27989656 105.10128454 237.27787483 116.87067286 C237.27775497 117.576649 237.2776351 118.28262515 237.2775116 119.00999451 C237.27738895 119.71683483 237.27726631 120.42367516 237.27713995 121.15193488 C237.27592083 132.60502457 237.30462373 144.05781825 237.3469267 155.51082233 C237.39004171 167.27672947 237.41073594 179.04249232 237.40814537 190.80848044 C237.40738027 197.41180046 237.41594177 204.01478553 237.44767952 210.61803627 C237.4767169 216.82914891 237.47696496 223.03960626 237.45512962 229.25074196 C237.45199127 231.52916419 237.4590859 233.80762717 237.477211 236.08597946 C237.50037321 239.19938645 237.48644234 242.31053078 237.46331787 245.42388916 C237.47874856 246.32322152 237.49417925 247.22255389 237.51007754 248.14913875 C237.40102128 254.80404812 235.24671781 258.57160193 230.72160339 263.38768005 C228.52629089 265.41111755 228.52629089 265.41111755 226.59660339 266.76268005 C225.95465027 267.22416443 225.31269714 267.6856488 224.65129089 268.16111755 C221.26756326 270.311908 218.70975792 271.63596756 214.64973259 271.65053558 C213.84327101 271.65821787 213.03680942 271.66590016 212.20590961 271.67381525 C211.32557312 271.67208229 210.44523662 271.67034932 209.53822327 271.66856384 C208.59856063 271.67450609 207.65889799 271.68044833 206.69076073 271.68657064 C203.53417633 271.7039485 200.37774359 271.70696143 197.22111511 271.70994568 C194.96091385 271.71920189 192.70071572 271.72925119 190.44052124 271.74003601 C184.29358969 271.7662924 178.14670184 271.77917591 171.99972296 271.78805733 C168.15895467 271.79391836 164.31819834 271.80212796 160.47743607 271.81106567 C149.83670086 271.83528534 139.19598026 271.85604792 128.55521965 271.86281586 C127.53392651 271.86347456 127.53392651 271.86347456 126.49200118 271.86414656 C125.4683022 271.86480139 125.4683022 271.86480139 124.42392242 271.86546946 C123.04105305 271.86635638 121.65818369 271.8672495 120.27531433 271.8681488 C119.24639398 271.86881309 119.24639398 271.86881309 118.19668736 271.8694908 C107.09085011 271.87738074 95.98527581 271.91227009 84.87954007 271.95886785 C73.46847338 272.00635877 62.05759755 272.03070712 50.64641964 272.03355169 C44.24309259 272.03564696 37.84013627 272.04744381 31.43690109 272.08319092 C25.41048389 272.11617897 19.38471551 272.12045105 13.35824013 272.1029129 C11.14999083 272.10137345 8.94170647 272.11004083 6.7335453 272.12982941 C-14.78657647 272.31132537 -14.78657647 272.31132537 -22.27839661 265.38768005 C-22.93272234 264.80247841 -23.58704807 264.21727676 -24.26120186 263.61434174 C-34.84264146 252.91005971 -33.85063017 239.18140138 -33.78010559 225.19407654 C-33.78389314 223.05106756 -33.78939677 220.90806104 -33.79647827 218.76506042 C-33.81039226 212.9696657 -33.79929184 207.1745692 -33.78276706 201.37919116 C-33.76887394 195.302027 -33.77538142 189.22487941 -33.77890015 183.14770508 C-33.78159869 172.94517739 -33.76815649 162.74276758 -33.74494934 152.54026794 C-33.71833481 140.75851811 -33.71659616 128.97696522 -33.72833771 117.19519562 C-33.73913035 105.84210095 -33.73291717 94.48907727 -33.71878242 83.13598824 C-33.71303627 78.31286496 -33.71309451 73.48979386 -33.71784782 68.66666985 C-33.72263288 62.98417667 -33.71245251 57.30189818 -33.69089317 51.6194458 C-33.68534623 49.53860765 -33.68484069 47.45774878 -33.68984604 45.37690926 C-33.69583814 42.52780142 -33.68321887 39.67934141 -33.66607666 36.83029175 C-33.67208671 36.0148058 -33.67809675 35.19931986 -33.68428892 34.35912222 C-33.57983041 24.75493169 -30.98059938 16.4068789 -24.27839661 9.38768005 C-16.79136723 2.67674519 -9.9512128 -0.07083134 0 0 Z " fill="#FEFEFE" transform="translate(36.27839660644531,1.6123199462890625)"/>
<path d="M0 0 C28.38 0 56.76 0 86 0 C86 28.38 86 56.76 86 86 C57.62 86 29.24 86 0 86 C0 57.62 0 29.24 0 0 Z " fill="#FDB815" transform="translate(145,143)"/>
<path d="M0 0 C28.38 0 56.76 0 86 0 C86 28.05 86 56.1 86 85 C57.62 85 29.24 85 0 85 C0 56.95 0 28.9 0 0 Z " fill="#33A0DA" transform="translate(48,144)"/>
<path d="M0 0 C28.38 0 56.76 0 86 0 C86 28.05 86 56.1 86 85 C57.62 85 29.24 85 0 85 C0 56.95 0 28.9 0 0 Z " fill="#7FBB42" transform="translate(145,47)"/>
<path d="M0 0 C28.38 0 56.76 0 86 0 C86 28.05 86 56.1 86 85 C57.62 85 29.24 85 0 85 C0 56.95 0 28.9 0 0 Z " fill="#F05126" transform="translate(48,47)"/>
<path d="M0 0 C0.91364104 -0.00538554 1.82728209 -0.01077108 2.76860923 -0.01631981 C5.81924116 -0.03058669 8.86943839 -0.02349868 11.92008972 -0.01637268 C14.11176908 -0.02207697 16.30344548 -0.02904145 18.49511719 -0.03717041 C24.44150831 -0.05511214 30.38775194 -0.05393126 36.334162 -0.04822803 C41.30175262 -0.04513709 46.26931488 -0.05122771 51.23690146 -0.05726677 C63.62913775 -0.07211719 76.02130191 -0.06849579 88.41353693 -0.05640347 C99.16023604 -0.04647659 109.90676285 -0.05940364 120.65343539 -0.08333766 C131.70298588 -0.10775967 142.7524523 -0.11692949 153.80202883 -0.11068493 C159.99953095 -0.10731689 166.19689078 -0.10972028 172.39437294 -0.12693596 C178.22458132 -0.14242437 184.05446141 -0.13842814 189.88465691 -0.11963081 C192.02032535 -0.11594997 194.15601821 -0.11903862 196.29166412 -0.1295166 C199.21557024 -0.14276287 202.13839535 -0.13114647 205.06225586 -0.11352539 C206.31875961 -0.1279329 206.31875961 -0.1279329 207.60064727 -0.14263147 C215.86771627 -0.04068645 223.5701399 2.59905982 229.65910339 8.32518005 C230.36937683 8.97357849 231.07965027 9.62197693 231.81144714 10.2900238 C236.76393033 15.72864031 237.15914915 19.87034357 237.1227417 26.97052002 C237.12953837 27.94103308 237.13633504 28.91154614 237.14333767 29.91146868 C237.16234172 33.16642446 237.15987072 36.42100498 237.15739441 39.67601013 C237.16636994 42.0085702 237.17657771 44.34112581 237.18792725 46.67367554 C237.21445279 53.0125812 237.22146181 59.35136541 237.22337461 65.69032121 C237.22622218 70.98109494 237.23725745 76.27184034 237.24789089 81.56260318 C237.27135681 93.33197019 237.27989656 105.10128454 237.27787483 116.87067286 C237.27775497 117.576649 237.2776351 118.28262515 237.2775116 119.00999451 C237.27738895 119.71683483 237.27726631 120.42367516 237.27713995 121.15193488 C237.27592083 132.60502457 237.30462373 144.05781825 237.3469267 155.51082233 C237.39004171 167.27672947 237.41073594 179.04249232 237.40814537 190.80848044 C237.40738027 197.41180046 237.41594177 204.01478553 237.44767952 210.61803627 C237.4767169 216.82914891 237.47696496 223.03960626 237.45512962 229.25074196 C237.45199127 231.52916419 237.4590859 233.80762717 237.477211 236.08597946 C237.50037321 239.19938645 237.48644234 242.31053078 237.46331787 245.42388916 C237.47874856 246.32322152 237.49417925 247.22255389 237.51007754 248.14913875 C237.40102128 254.80404812 235.24671781 258.57160193 230.72160339 263.38768005 C228.52629089 265.41111755 228.52629089 265.41111755 226.59660339 266.76268005 C225.95465027 267.22416443 225.31269714 267.6856488 224.65129089 268.16111755 C221.26756326 270.311908 218.70975792 271.63596756 214.64973259 271.65053558 C213.84327101 271.65821787 213.03680942 271.66590016 212.20590961 271.67381525 C211.32557312 271.67208229 210.44523662 271.67034932 209.53822327 271.66856384 C208.59856063 271.67450609 207.65889799 271.68044833 206.69076073 271.68657064 C203.53417633 271.7039485 200.37774359 271.70696143 197.22111511 271.70994568 C194.96091385 271.71920189 192.70071572 271.72925119 190.44052124 271.74003601 C184.29358969 271.7662924 178.14670184 271.77917591 171.99972296 271.78805733 C168.15895467 271.79391836 164.31819834 271.80212796 160.47743607 271.81106567 C149.83670086 271.83528534 139.19598026 271.85604792 128.55521965 271.86281586 C127.53392651 271.86347456 127.53392651 271.86347456 126.49200118 271.86414656 C125.4683022 271.86480139 125.4683022 271.86480139 124.42392242 271.86546946 C123.04105305 271.86635638 121.65818369 271.8672495 120.27531433 271.8681488 C119.24639398 271.86881309 119.24639398 271.86881309 118.19668736 271.8694908 C107.09085011 271.87738074 95.98527581 271.91227009 84.87954007 271.95886785 C73.46847338 272.00635877 62.05759755 272.03070712 50.64641964 272.03355169 C44.24309259 272.03564696 37.84013627 272.04744381 31.43690109 272.08319092 C25.41048389 272.11617897 19.38471551 272.12045105 13.35824013 272.1029129 C11.14999083 272.10137345 8.94170647 272.11004083 6.7335453 272.12982941 C-14.78657647 272.31132537 -14.78657647 272.31132537 -22.27839661 265.38768005 C-22.93272234 264.80247841 -23.58704807 264.21727676 -24.26120186 263.61434174 C-34.84264146 252.91005971 -33.85063017 239.18140138 -33.78010559 225.19407654 C-33.78389314 223.05106756 -33.78939677 220.90806104 -33.79647827 218.76506042 C-33.81039226 212.9696657 -33.79929184 207.1745692 -33.78276706 201.37919116 C-33.76887394 195.302027 -33.77538142 189.22487941 -33.77890015 183.14770508 C-33.78159869 172.94517739 -33.76815649 162.74276758 -33.74494934 152.54026794 C-33.71833481 140.75851811 -33.71659616 128.97696522 -33.72833771 117.19519562 C-33.73913035 105.84210095 -33.73291717 94.48907727 -33.71878242 83.13598824 C-33.71303627 78.31286496 -33.71309451 73.48979386 -33.71784782 68.66666985 C-33.72263288 62.98417667 -33.71245251 57.30189818 -33.69089317 51.6194458 C-33.68534623 49.53860765 -33.68484069 47.45774878 -33.68984604 45.37690926 C-33.69583814 42.52780142 -33.68321887 39.67934141 -33.66607666 36.83029175 C-33.67208671 36.0148058 -33.67809675 35.19931986 -33.68428892 34.35912222 C-33.57983041 24.75493169 -30.98059938 16.4068789 -24.27839661 9.38768005 C-16.79136723 2.67674519 -9.9512128 -0.07083134 0 0 Z M-17.27839661 9.38768005 C-18.91808411 10.47049255 -18.91808411 10.47049255 -20.59089661 11.57518005 C-30.10210525 21.52877049 -28.98071312 32.95539159 -28.89363098 45.8825531 C-28.8971352 48.06969126 -28.90279717 50.25682687 -28.91044617 52.44395447 C-28.92465776 58.36323541 -28.9076693 64.2820498 -28.884161 70.20128608 C-28.8640141 76.40264167 -28.86993342 82.60397861 -28.87226868 88.80535889 C-28.87221516 99.21479463 -28.85248737 109.62404852 -28.82038879 120.03343201 C-28.78755453 130.73335287 -28.77313537 141.43307148 -28.77937317 152.13304138 C-28.78685322 165.04751508 -28.77948 177.96187925 -28.75772095 190.87633705 C-28.74955078 195.80241368 -28.74683669 200.72844864 -28.74841309 205.65453148 C-28.74929232 211.45356222 -28.73506511 217.25236706 -28.70918655 223.0513382 C-28.70202818 225.17858345 -28.69993954 227.30585274 -28.70330429 229.43310738 C-28.7070226 232.33806531 -28.69225913 235.24236525 -28.67280579 238.14724731 C-28.67813371 238.9877177 -28.68346164 239.82818808 -28.68895102 240.69412726 C-28.58960883 249.30004098 -25.30109775 256.22753463 -19.27839661 262.38768005 C-9.08662069 270.06488072 2.05464444 269.23470372 14.21232605 269.1481781 C16.37519205 269.15468014 18.53805161 269.16374745 20.70089722 269.1751709 C26.54593913 269.19815477 32.39032404 269.18359082 38.23534441 269.16070151 C44.36589459 269.14171912 50.49640256 269.15295405 56.62696838 269.15960693 C66.91773355 269.16593743 77.20823692 269.14772764 87.49894714 269.11497498 C99.38249382 269.07746461 111.26554513 269.07927114 123.14911807 269.10201615 C134.60209737 269.12298909 146.05489424 269.11567875 157.50786972 269.0956974 C162.37289542 269.08772798 167.23776611 269.089683 172.10278702 269.09972191 C177.83385614 269.11029873 183.56435003 269.09607184 189.29532814 269.06297874 C191.39389673 269.05479501 193.49251825 269.05502779 195.59108162 269.06445694 C210.45207119 269.39870151 210.45207119 269.39870151 223.72160339 263.38768005 C224.67035339 262.74830505 225.61910339 262.10893005 226.59660339 261.45018005 C231.86029278 256.34130507 234.73743196 250.53864275 234.97607899 243.2046833 C234.98831784 241.56716911 234.98965993 239.92955084 234.9822998 238.29200745 C234.98612535 237.3859768 234.9899509 236.47994615 234.99389237 235.54646003 C235.0041968 232.51577224 235.00023505 229.4852748 234.9962616 226.45457458 C235.00060949 224.27950363 235.0057929 222.10443421 235.01174927 219.92936707 C235.02514241 214.0243976 235.02571755 208.11949213 235.02318597 202.21451044 C235.02211643 197.28406696 235.02699921 192.35363643 235.03179139 187.42319572 C235.04288776 175.79074184 235.0433233 164.15832026 235.03727722 152.52586365 C235.03123695 140.52776171 235.04354953 128.52980558 235.06484729 116.53171837 C235.08246386 106.22836533 235.08846454 95.9250496 235.08520955 85.62168205 C235.08339658 79.46896354 235.08603431 73.31632867 235.09992409 67.16362381 C235.11249856 61.37698791 235.11056177 55.59053476 235.0975132 49.80390167 C235.09514702 47.68190575 235.09788356 45.55989699 235.10613632 43.4379158 C235.11660185 40.53750542 235.10850442 37.63770846 235.0958252 34.73731995 C235.10319948 33.90092487 235.11057377 33.0645298 235.11817151 32.20278943 C235.04610169 24.34689012 232.90516776 17.86103662 227.53410339 11.9931488 C220.35380888 5.63301724 213.26760263 4.239314 203.95582581 4.23377991 C203.06108225 4.22939765 202.16633868 4.2250154 201.24448168 4.22050035 C198.2399459 4.20712318 195.23543944 4.20093589 192.23088074 4.19480896 C190.07905444 4.18690712 187.92722947 4.17863812 185.77540588 4.17002869 C178.70279708 4.14381735 171.63018238 4.1285016 164.55754089 4.11424255 C162.12217327 4.10888245 159.68680569 4.10350494 157.25143814 4.0981102 C147.1202591 4.07648251 136.98908165 4.05774616 126.85788536 4.04648781 C112.34237345 4.03025088 97.82712931 3.99707769 83.31171834 3.94008696 C73.10349791 3.9013748 62.89534905 3.88185356 52.68705714 3.87656724 C46.59116501 3.8729155 40.49555855 3.86091242 34.39974594 3.82846451 C28.6623067 3.79836196 22.92532565 3.79208017 17.18782425 3.80384827 C15.08600404 3.80406882 12.98416243 3.79577927 10.88241577 3.77819443 C-3.99313187 3.38647057 -3.99313187 3.38647057 -17.27839661 9.38768005 Z " fill="#D4D4D4" transform="translate(36.27839660644531,1.6123199462890625)"/>
</svg>
