<?xml version="1.0" encoding="UTF-8"?>
<svg version="1.1" xmlns="http://www.w3.org/2000/svg" width="96" height="96">
<path d="M0 0 C1.31653564 0.01135986 1.31653564 0.01135986 2.65966797 0.02294922 C9.45028537 0.1951978 15.06807247 1.23204809 21.125 4.4375 C22.0634375 4.91960938 23.001875 5.40171875 23.96875 5.8984375 C30.82503802 9.692507 30.82503802 9.692507 31.89282227 12.34448242 C32.125 14.4375 32.125 14.4375 29.73828125 17.48828125 C28.65118508 18.58868337 27.55022119 19.67551666 26.4375 20.75 C25.89416016 21.31267578 25.35082031 21.87535156 24.79101562 22.45507812 C23.17578125 24.05078125 23.17578125 24.05078125 20.125 26.4375 C17.18681166 26.02446284 15.04644122 24.91118513 12.5 23.4375 C6.03231161 20.1677242 -0.1518794 19.71943251 -7.125 21.625 C-14.93979946 24.34796919 -21.19522295 29.03779942 -24.91796875 36.5390625 C-27.83763893 44.29743491 -27.99071293 52.4240089 -25.0390625 60.203125 C-21.49803166 67.00000299 -16.35866612 72.0973384 -9.16015625 74.7890625 C-1.33298793 77.01010514 5.9132013 76.97871391 13.328125 73.36328125 C19.9494802 69.47630051 22.65213189 65.85610434 25.125 58.4375 C16.875 58.4375 8.625 58.4375 0.125 58.4375 C0.125 52.1675 0.125 45.8975 0.125 39.4375 C15.305 39.4375 30.485 39.4375 46.125 39.4375 C47.41850479 53.66605269 46.96371955 67.45159627 37.97265625 79.265625 C32.84575253 85.10057034 27.78260688 89.93825649 20.625 93.125 C19.7071875 93.54136719 18.789375 93.95773438 17.84375 94.38671875 C8.11165018 98.1481194 -6.17595065 98.21421824 -16 94.8125 C-17.6498693 94.07406084 -19.27703226 93.28240248 -20.875 92.4375 C-22.16083984 91.78394531 -22.16083984 91.78394531 -23.47265625 91.1171875 C-35.22204162 84.63110146 -43.16181268 74.90674864 -47.14453125 62.11328125 C-49.42281202 50.64877748 -49.41948158 37.92380212 -43.875 27.4375 C-43.43929687 26.58027344 -43.00359375 25.72304688 -42.5546875 24.83984375 C-35.72875322 12.47483166 -25.62393247 5.33245938 -12.29956055 1.04174805 C-8.20163339 0.02046422 -4.20580587 -0.05112209 0 0 Z " fill="#34A753" transform="translate(48.875,-0.4375)"/>
<path d="M0 0 C1.31653564 0.01135986 1.31653564 0.01135986 2.65966797 0.02294922 C9.45028537 0.1951978 15.06807247 1.23204809 21.125 4.4375 C22.0634375 4.91960938 23.001875 5.40171875 23.96875 5.8984375 C30.82503802 9.692507 30.82503802 9.692507 31.89282227 12.34448242 C32.125 14.4375 32.125 14.4375 29.73828125 17.48828125 C28.65118508 18.58868337 27.55022119 19.67551666 26.4375 20.75 C25.89416016 21.31267578 25.35082031 21.87535156 24.79101562 22.45507812 C23.17578125 24.05078125 23.17578125 24.05078125 20.125 26.4375 C17.18681166 26.02446284 15.04644122 24.91118513 12.5 23.4375 C6.03231161 20.1677242 -0.1518794 19.71943251 -7.125 21.625 C-14.97945815 24.36178776 -20.93809404 29.01467363 -24.91796875 36.36328125 C-26.97695269 41.49624122 -26.67116818 45.28315457 -26.0625 50.75 C-25.91765058 54.62570071 -25.86799081 57.24197262 -28.43212891 60.28613281 C-32.84614451 64.23636867 -37.7777664 67.44067233 -42.875 70.4375 C-47.39472957 63.65790565 -48.40992703 56.57780603 -48.3125 48.5625 C-48.30492676 47.68480957 -48.29735352 46.80711914 -48.28955078 45.90283203 C-48.1172728 39.11105552 -47.07880703 33.49687417 -43.875 27.4375 C-43.43929687 26.58027344 -43.00359375 25.72304688 -42.5546875 24.83984375 C-35.72875322 12.47483166 -25.62393247 5.33245938 -12.29956055 1.04174805 C-8.20163339 0.02046422 -4.20580587 -0.05112209 0 0 Z " fill="#E94334" transform="translate(48.875,-0.4375)"/>
<path d="M0 0 C15.18 0 30.36 0 46 0 C47.27268722 13.9995594 46.86956175 27.79307699 38.1171875 39.5234375 C36.47034493 41.42364047 34.79546932 43.24075052 33 45 C28.90137007 44.42424008 26.41326389 42.24405323 23.25 39.6875 C22.26515625 38.90761719 21.2803125 38.12773438 20.265625 37.32421875 C18 35 18 35 18 31 C19.19653909 29.55155794 20.3979086 28.10155553 21.7109375 26.7578125 C23.50846578 24.49463328 23.50846578 24.49463328 25 19 C16.75 19 8.5 19 0 19 C0 12.73 0 6.46 0 0 Z " fill="#4185F3" transform="translate(49,39)"/>
<path d="M0 0 C6.06573346 1.00595085 11.53892879 4.74804742 15.71826172 9.14013672 C19.15386368 14.12535876 19.11882156 20.2672628 18.51953125 26.1015625 C17.03423863 32.90160245 12.27870862 36.1174332 6.69458008 39.74951172 C4.82486813 40.88144769 2.91583036 41.94800387 1 43 C-3.52129099 36.21806351 -4.53039645 29.14196337 -4.4375 21.125 C-4.43427734 20.25456055 -4.43105469 19.38412109 -4.42773438 18.48730469 C-4.28254599 11.77109047 -3.09639938 6.02692021 0 0 Z " fill="#FABB04" transform="translate(5,27)"/>
</svg>
