<?xml version="1.0" encoding="UTF-8"?>
<svg version="1.1" xmlns="http://www.w3.org/2000/svg" width="55" height="56">
<path d="M0 0 C6.3889237 3.94006429 10.44020463 8.97295765 12.82421875 16.125 C12.99982682 19.03548781 13.10140744 21.90049369 13.13671875 24.8125 C13.16572266 25.59044922 13.19472656 26.36839844 13.22460938 27.16992188 C13.31003091 35.04841569 10.32913534 41.46716906 4.82421875 47.125 C-3.57935439 53.14216292 -10.99429753 53.99916779 -21.17578125 53.125 C-29.05073091 50.97251376 -34.56926107 45.71864654 -39.17578125 39.125 C-42.52124291 32.17673348 -43.04866122 24.15169107 -40.98828125 16.75 C-38.29891113 9.22216489 -33.74309097 3.65901454 -27.17578125 -0.875 C-18.56390824 -4.46229055 -8.27846278 -4.407019 0 0 Z " fill="#FB863F" transform="translate(42.17578125,2.875)"/>
<path d="M0 0 C1.375 1.1875 1.375 1.1875 3 3 C3.886875 3.886875 4.77375 4.77375 5.6875 5.6875 C6.450625 6.450625 7.21375 7.21375 8 8 C5.17493137 10.9297008 2.21203935 13.50174717 -1 16 C-0.5875 17.11375 -0.175 18.2275 0.25 19.375 C0.48203125 20.00148438 0.7140625 20.62796875 0.953125 21.2734375 C1.86932379 23.18838858 1.86932379 23.18838858 4.0078125 23.7421875 C6 25 6 25 6.9765625 28.484375 C7.21041674 29.90344502 7.42589574 31.32563873 7.625 32.75 C8.38591247 37.69593108 9.26142757 42.2746493 11 47 C6.77564121 49.03515174 3.22725175 49.29840709 -1.4375 49.3125 C-2.71496094 49.32925781 -3.99242188 49.34601562 -5.30859375 49.36328125 C-9.20648831 48.97967893 -11.64521609 47.96516708 -15 46 C-14.02527292 40.73647377 -13.01179014 36.51768521 -10 32 C-10 31.34 -10 30.68 -10 30 C-11.69393348 28.77848921 -11.69393348 28.77848921 -13.8125 27.625 C-19.51670801 24.15199548 -19.51670801 24.15199548 -21 21 C-21.6653483 16.5920675 -21.23252287 13.85188795 -18.8125 10.1875 C-16.56587604 7.32465918 -14.59503836 5.92443844 -11 5 C-11 4.34 -11 3.68 -11 3 C-9.73160474 2.49384702 -8.46016898 1.99530901 -7.1875 1.5 C-6.12595703 1.08234375 -6.12595703 1.08234375 -5.04296875 0.65625 C-3 0 -3 0 0 0 Z " fill="#52274A" transform="translate(30,7)"/>
<path d="M0 0 C4.84455959 2.37823834 4.84455959 2.37823834 7 4 C7.9375 6.75 7.9375 6.75 8 9 C8.66 9 9.32 9 10 9 C10.67260351 10.76858691 11.33788395 12.53996016 12 14.3125 C12.37125 15.29863281 12.7425 16.28476562 13.125 17.30078125 C14 20 14 20 14 23 C10.42687005 24.19104332 7.45446678 24.20528823 3.6875 24.25 C2.39199219 24.27578125 1.09648437 24.3015625 -0.23828125 24.328125 C-4.19583975 23.9829174 -6.60454069 23.00042564 -10 21 C-8.125 10.875 -8.125 10.875 -5 7 C-4.01 7 -3.02 7 -2 7 C-2 6.34 -2 5.68 -2 5 C-0.68 4.67 0.64 4.34 2 4 C1.34 2.68 0.68 1.36 0 0 Z " fill="#6A3C8B" transform="translate(25,32)"/>
<path d="M0 0 C4.08723179 0.65395709 7.85306726 2.32434704 11 5 C13.06267956 8.57723448 14 11.8810525 14 16 C10.85069107 17.04976964 8.61185544 17.10131595 5.3125 17.0625 C4.31863281 17.05347656 3.32476562 17.04445313 2.30078125 17.03515625 C1.16189453 17.01775391 1.16189453 17.01775391 0 17 C-0.33 13.7 -0.66 10.4 -1 7 C-0.01 8.485 -0.01 8.485 1 10 C1.99 10 2.98 10 4 10 C3.34 8.906875 2.68 7.81375 2 6.6875 C0.41535071 4.06292462 0 3.1743622 0 0 Z " fill="#8957B3" transform="translate(25,39)"/>
<path d="M0 0 C2.34541881 1.25089003 3.76647154 2.24663078 4.5703125 4.83984375 C4.85830689 6.24577998 5.14474925 7.65203496 5.4296875 9.05859375 C6.23623257 11.80416156 7.80339729 13.24271784 10 15 C8.02 15 6.04 15 4 15 C4 15.66 4 16.32 4 17 C3.34 17 2.68 17 2 17 C1 16 0 15 -1 14 C-2.010625 13.34 -3.02125 12.68 -4.0625 12 C-7 10 -7 10 -9 7 C-9 6.01 -9 5.02 -9 4 C-7.68 4.33 -6.36 4.66 -5 5 C-5 5.66 -5 6.32 -5 7 C-4.01 7 -3.02 7 -2 7 C-1.855625 6.21625 -1.71125 5.4325 -1.5625 4.625 C-1 2 -1 2 0 0 Z " fill="#22050E" transform="translate(19,22)"/>
<path d="M0 0 C0.37952295 6.19887485 -0.1647887 10.4477112 -3 16 C-3.99 16 -4.98 16 -6 16 C-6.33 15.34 -6.66 14.68 -7 14 C-7.99 13.67 -8.98 13.34 -10 13 C-10.33 13.66 -10.66 14.32 -11 15 C-11.57136278 9.40064474 -10.58972776 6.68718883 -7.2890625 2.3828125 C-4.85485811 -0.22842494 -3.72864625 0 0 0 Z " fill="#441743" transform="translate(20,13)"/>
<path d="M0 0 C2.44485076 0.88903664 3.4717999 1.69496259 5.0625 3.75 C5.13671875 6.01171875 5.13671875 6.01171875 4.75 8.4375 C4.57017578 9.64986328 4.57017578 9.64986328 4.38671875 10.88671875 C4.27972656 11.50160156 4.17273437 12.11648437 4.0625 12.75 C1.4225 12.75 -1.2175 12.75 -3.9375 12.75 C-5.2575 10.11 -6.5775 7.47 -7.9375 4.75 C-2.96987743 -0.38320999 -2.96987743 -0.38320999 0 0 Z " fill="#D8997D" transform="translate(35.9375,18.25)"/>
<path d="M0 0 C1.375 1.1875 1.375 1.1875 3 3 C3.886875 3.886875 4.77375 4.77375 5.6875 5.6875 C6.8321875 6.8321875 6.8321875 6.8321875 8 8 C5.74259377 10.33524782 3.7194239 12.18705073 1 14 C0.01 14 -0.98 14 -2 14 C-2.67305018 12.39850114 -3.33822227 10.79368971 -4 9.1875 C-4.37125 8.29417969 -4.7425 7.40085937 -5.125 6.48046875 C-6 4 -6 4 -6 1 C-3 0 -3 0 0 0 Z " fill="#140D0D" transform="translate(30,7)"/>
<path d="M0 0 C1.93938819 2.90908228 2.96774957 5.40862379 4.125 8.6875 C4.47820313 9.68136719 4.83140625 10.67523438 5.1953125 11.69921875 C5.46085937 12.45847656 5.72640625 13.21773437 6 14 C5.01 14.33 4.02 14.66 3 15 C3.66 15.66 4.32 16.32 5 17 C5.8563027 19.63233792 6.38929927 22.29546818 7 25 C3.45017243 23.26452874 1.52740555 22.25658367 -0.03125 18.54296875 C-0.54323213 16.7535912 -1.01997733 14.95366961 -1.45703125 13.14453125 C-1.79714116 11.03221791 -1.79714116 11.03221791 -3 10 C-3.04063832 8.33382885 -3.042721 6.66611905 -3 5 C-3.99 4.67 -4.98 4.34 -6 4 C-5.34 4 -4.68 4 -4 4 C-4 3.34 -4 2.68 -4 2 C-2.68 1.34 -1.36 0.68 0 0 Z " fill="#562C6A" transform="translate(23,8)"/>
<path d="M0 0 C1.32 0.33 2.64 0.66 4 1 C4 1.66 4 2.32 4 3 C3.01 3.495 3.01 3.495 2 4 C1.45460385 5.98500447 1.45460385 5.98500447 1.25 8.3125 C1.15203125 9.09238281 1.0540625 9.87226562 0.953125 10.67578125 C1.00607736 13.30133568 1.67009558 14.76473757 3 17 C0.69 16.34 -1.62 15.68 -4 15 C-4.90425521 12.49326721 -5.09182674 11.28321301 -4.2578125 8.7109375 C-3.69707031 7.55464844 -3.69707031 7.55464844 -3.125 6.375 C-2.75632812 5.59898438 -2.38765625 4.82296875 -2.0078125 4.0234375 C-1.33957266 2.68177767 -0.6703127 1.3406254 0 0 Z " fill="#532249" transform="translate(20,39)"/>
<path d="M0 0 C0.99 1.485 0.99 1.485 2 3 C2.99 3 3.98 3 5 3 C5.66 3.66 6.32 4.32 7 5 C7.99 4.34 8.98 3.68 10 3 C10.33 3.99 10.66 4.98 11 6 C10.67 6.66 10.34 7.32 10 8 C10.99 7.67 11.98 7.34 13 7 C12.67 7.99 12.34 8.98 12 10 C8.37 10 4.74 10 1 10 C0.67 6.7 0.34 3.4 0 0 Z " fill="#724098" transform="translate(24,46)"/>
<path d="M0 0 C4.84455959 2.37823834 4.84455959 2.37823834 7 4 C7.9375 6.75 7.9375 6.75 8 9 C8.66 9 9.32 9 10 9 C10 9.66 10 10.32 10 11 C6.20081162 10.48659616 4.56865214 9.7920132 2 7 C-0.09989652 5.82425289 -0.09989652 5.82425289 -2 5 C-0.68 4.67 0.64 4.34 2 4 C1.34 2.68 0.68 1.36 0 0 Z " fill="#6B3D8F" transform="translate(25,32)"/>
<path d="M0 0 C0.99 0 1.98 0 3 0 C3.37952295 6.19887485 2.8352113 10.4477112 0 16 C-0.99 15.67 -1.98 15.34 -3 15 C-2.34 15 -1.68 15 -1 15 C-1.020625 13.824375 -1.04125 12.64875 -1.0625 11.4375 C-1.06947261 7.52586533 -0.64250343 3.85502056 0 0 Z " fill="#330A2D" transform="translate(17,13)"/>
<path d="M0 0 C1.32 0.66 2.64 1.32 4 2 C3.67 4.97 3.34 7.94 3 11 C1.68 11 0.36 11 -1 11 C-1 8.69 -1 6.38 -1 4 C-1.99 3.67 -2.98 3.34 -4 3 C-2.68 2.67 -1.36 2.34 0 2 C0 1.34 0 0.68 0 0 Z " fill="#E7B399" transform="translate(37,20)"/>
<path d="M0 0 C2.6224715 2.6224715 2.64217954 4.35023127 3 8 C2.5625 10.875 2.5625 10.875 2 13 C-0.09749995 10.64031256 -0.96905704 9.45383006 -1.1875 6.25 C-1.0946875 5.13625 -1.0946875 5.13625 -1 4 C-1.99 3.67 -2.98 3.34 -4 3 C-3.34 3 -2.68 3 -2 3 C-2 2.34 -2 1.68 -2 1 C-1.34 0.67 -0.68 0.34 0 0 Z " fill="#723F87" transform="translate(21,9)"/>
<path d="M0 0 C2.475 0.99 2.475 0.99 5 2 C5 2.99 5 3.98 5 5 C4.34 5 3.68 5 3 5 C3 5.66 3 6.32 3 7 C2.01 7 1.02 7 0 7 C-0.33 7.66 -0.66 8.32 -1 9 C-1.125 2.25 -1.125 2.25 0 0 Z " fill="#4A1833" transform="translate(10,19)"/>
<path d="M0 0 C2.375 1 2.375 1 5 3 C6.04768041 5.66921593 6.48684546 8.15432483 7 11 C4.0625 9.4375 4.0625 9.4375 1 7 C0.125 3.25 0.125 3.25 0 0 Z " fill="#69388A" transform="translate(23,22)"/>
<path d="M0 0 C0.99 1.485 0.99 1.485 2 3 C2.99 3 3.98 3 5 3 C4.67 3.99 4.34 4.98 4 6 C3.8509288 8.0745356 3.8509288 8.0745356 5 10 C3.68 10 2.36 10 1 10 C0.67 6.7 0.34 3.4 0 0 Z " fill="#814EA9" transform="translate(24,46)"/>
<path d="M0 0 C0.5775 0.556875 1.155 1.11375 1.75 1.6875 C1.75 2.3475 1.75 3.0075 1.75 3.6875 C-0.60171131 3.08888258 -2.9359378 2.41825648 -5.25 1.6875 C-5.58 1.0275 -5.91 0.3675 -6.25 -0.3125 C-3.46686179 -1.40587572 -2.65053646 -1.54614627 0 0 Z " fill="#3D143D" transform="translate(21.25,52.3125)"/>
<path d="M0 0 C0.66 0.33 1.32 0.66 2 1 C2.6328125 3.06640625 2.6328125 3.06640625 3.125 5.5625 C3.29257812 6.38878906 3.46015625 7.21507812 3.6328125 8.06640625 C3.75398438 8.70449219 3.87515625 9.34257812 4 10 C1.02873292 7.28922757 0.11756266 4.86848614 -1 1 C-0.67 0.67 -0.34 0.34 0 0 Z " fill="#B17162" transform="translate(29,21)"/>
<path d="M0 0 C2 1 2 1 3.125 3.125 C4.15945114 6.52391089 4.1385722 9.46640886 4 13 C3.67 13 3.34 13 3 13 C2.690625 11.865625 2.38125 10.73125 2.0625 9.5625 C1.37075469 6.21224901 1.37075469 6.21224901 0 5 C-0.04063832 3.33382885 -0.042721 1.66611905 0 0 Z " fill="#3F1647" transform="translate(20,18)"/>
<path d="M0 0 C0.99 1.32 1.98 2.64 3 4 C2.01 4.99 1.02 5.98 0 7 C-0.99 5.35 -1.98 3.7 -3 2 C-2.01 1.34 -1.02 0.68 0 0 Z " fill="#814FAA" transform="translate(31,44)"/>
<path d="M0 0 C2.64 0 5.28 0 8 0 C8.33 1.65 8.66 3.3 9 5 C8.1646875 4.566875 8.1646875 4.566875 7.3125 4.125 C4.91505355 2.9586747 2.48403061 1.9660119 0 1 C0 0.67 0 0.34 0 0 Z " fill="#552D76" transform="translate(23,37)"/>
<path d="M0 0 C3.465 1.98 3.465 1.98 7 4 C7 4.66 7 5.32 7 6 C4.61435923 5.42415568 2.33317216 4.77772405 0 4 C0 2.68 0 1.36 0 0 Z " fill="#53246F" transform="translate(24,29)"/>
<path d="M0 0 C1.32 0.66 2.64 1.32 4 2 C4 2.66 4 3.32 4 4 C1.69 4 -0.62 4 -3 4 C-3.33 3.34 -3.66 2.68 -4 2 C-2.68 2 -1.36 2 0 2 C0 1.34 0 0.68 0 0 Z " fill="#EFBDA6" transform="translate(37,20)"/>
<path d="M0 0 C0.66 0.33 1.32 0.66 2 1 C1.34 3.64 0.68 6.28 0 9 C-0.66 8.34 -1.32 7.68 -2 7 C-1.43181818 1.43181818 -1.43181818 1.43181818 0 0 Z " fill="#53286B" transform="translate(20,42)"/>
<path d="M0 0 C1.32 0.33 2.64 0.66 4 1 C3.67 2.65 3.34 4.3 3 6 C1.5 4.6875 1.5 4.6875 0 3 C0 2.01 0 1.02 0 0 Z " fill="#32080D" transform="translate(10,26)"/>
</svg>
