<?xml version="1.0" encoding="UTF-8"?>
<svg version="1.1" xmlns="http://www.w3.org/2000/svg" width="120" height="120">
<path d="M0 0 C4.67562466 1.24683324 8.32481002 0.85594941 12.875 -0.75 C15.89536138 -1.15271485 17.40168889 0.20786784 19.75 2 C20.01683594 2.68835938 20.28367188 3.37671875 20.55859375 4.0859375 C21.14833984 5.03339844 21.14833984 5.03339844 21.75 6 C24.30685028 6.51693471 24.30685028 6.51693471 27.1875 6.4375 C32.50042031 6.74307973 32.50042031 6.74307973 34.875 9.1875 C35.78953 12.12706072 36.39446555 14.94240371 36.75 18 C37.678125 18.268125 38.60625 18.53625 39.5625 18.8125 C43.8896648 20.42458101 43.8896648 20.42458101 45.75 23 C45.9569216 26.10382399 45.74505183 29.08411881 45.5625 32.1875 C45.47729183 35.01574331 45.47729183 35.01574331 47.1953125 36.76171875 C47.70835938 37.17035156 48.22140625 37.57898437 48.75 38 C49.625 39.8125 49.625 39.8125 49.75 42 C47.47413793 47.27586207 47.47413793 47.27586207 45.75 49 C45.78221169 50.77164312 45.85076749 52.54268803 45.9375 54.3125 C45.97901272 59.6607219 45.97901272 59.6607219 44.0625 62.5 C41.65304383 64.06289049 39.26115839 65.60491201 36.75 67 C37.29313973 71.53469249 38.46175678 74.79188677 40.69140625 78.765625 C41.27470703 79.82007812 41.85800781 80.87453125 42.45898438 81.9609375 C43.37647461 83.58902344 43.37647461 83.58902344 44.3125 85.25 C45.52574255 87.41986206 46.73556601 89.5916406 47.94140625 91.765625 C48.47967041 92.72243164 49.01793457 93.67923828 49.57250977 94.66503906 C50.75 97 50.75 97 50.75 99 C44.75 97 38.75 95 32.75 93 C32.67652344 93.94359375 32.67652344 93.94359375 32.6015625 94.90625 C32.11564801 100.46913314 31.24446374 105.61993052 29.75 111 C27.45838123 108.10945449 25.73129807 105.19634829 24.078125 101.90234375 C23.57796875 100.93619141 23.0778125 99.97003906 22.5625 98.97460938 C21.52248962 96.9530892 20.49635501 94.92436878 19.484375 92.88867188 C16.41604176 86.72598151 16.41604176 86.72598151 11.01953125 82.8046875 C7.60255986 81.96371246 6.04474171 81.90175276 2.75 83 C1.2956958 83.35167236 1.2956958 83.35167236 -0.18798828 83.71044922 C-4.02945202 85.32826228 -4.78994086 86.781518 -6.6796875 90.4453125 C-7.246875 91.52167969 -7.8140625 92.59804687 -8.3984375 93.70703125 C-8.96820313 94.83496094 -9.53796875 95.96289062 -10.125 97.125 C-11.01445313 98.82849609 -11.01445313 98.82849609 -11.921875 100.56640625 C-13.38211062 103.36911655 -14.8237672 106.17987672 -16.25 109 C-17.24 109 -18.23 109 -19.25 109 C-19.58895656 107.27192682 -19.92091525 105.54248026 -20.25 103.8125 C-20.435625 102.84957031 -20.62125 101.88664062 -20.8125 100.89453125 C-21.21877612 98.2065794 -21.32933572 95.71228981 -21.25 93 C-22.38179687 93.433125 -23.51359375 93.86625 -24.6796875 94.3125 C-26.1613927 94.87517286 -27.64316714 95.43766343 -29.125 96 C-29.87136719 96.28617187 -30.61773437 96.57234375 -31.38671875 96.8671875 C-37.0234375 99 -37.0234375 99 -39.25 99 C-37.98287078 94.82793205 -36.41792054 91.29326457 -34.17578125 87.55859375 C-33.29889648 86.06489258 -33.29889648 86.06489258 -32.40429688 84.54101562 C-31.17165875 82.46396156 -29.93200803 80.3910539 -28.68554688 78.32226562 C-28.10482422 77.32775391 -27.52410156 76.33324219 -26.92578125 75.30859375 C-26.38864502 74.40939209 -25.85150879 73.51019043 -25.2980957 72.58374023 C-24.07377329 69.56557016 -24.30593028 68.0677948 -25.25 65 C-26.19875 64.71125 -27.1475 64.4225 -28.125 64.125 C-31.25 63 -31.25 63 -33.25 61 C-33.3046875 58.609375 -33.3046875 58.609375 -33.125 55.75 C-33.00253414 50.53839744 -34.05718192 48.19057373 -37.25 44 C-37.75 41.4375 -37.75 41.4375 -37.25 39 C-36.26 37.9790625 -36.26 37.9790625 -35.25 36.9375 C-32.46187408 32.84244006 -33.11496643 29.5671394 -33.5 24.7421875 C-33.25 22 -33.25 22 -31.37890625 20.17578125 C-29.25 19 -29.25 19 -27.1875 18.3125 C-24.3919956 16.41877121 -23.94474127 14.02317206 -22.9609375 10.875 C-22.25 9 -22.25 9 -20.25 7 C-18.63577758 6.6709686 -17.0076017 6.40792545 -15.375 6.1875 C-11.57880467 5.51019321 -10.55768252 5.32346111 -7.8125 2.4375 C-7.296875 1.633125 -6.78125 0.82875 -6.25 0 C-3.25 -1 -3.25 -1 0 0 Z " fill="#FBC54F" transform="translate(54.25,5)"/>
<path d="M0 0 C6.44102914 3.96371024 9.57045043 9.91936068 12 17 C13.43774538 26.35623699 11.67330747 33.36213812 6.59765625 41.15234375 C1.51502557 47.82562658 -5.44328108 51.0725122 -13.64453125 52.44140625 C-21.22616035 52.81153302 -28.390796 50.27102773 -34.375 45.625 C-40.26343773 39.73656227 -43.77397201 33.21155974 -44.13671875 24.84765625 C-43.74344977 15.2181844 -41.18750444 8.70752841 -34.125 2.125 C-23.81881145 -6.11612665 -11.45089283 -6.27817621 0 0 Z " fill="#FEDA63" transform="translate(76,23)"/>
<path d="M0 0 C2 1 2 1 2.8203125 3.00390625 C3.82696249 5.22709879 3.82696249 5.22709879 6.2421875 5.65234375 C7.11101563 5.74644531 7.97984375 5.84054688 8.875 5.9375 C13.71853698 6.70410297 13.71853698 6.70410297 16.4375 9.5625 C16.953125 10.366875 17.46875 11.17125 18 12 C18.99 12.33 19.98 12.66 21 13 C19.35526763 19.18336092 16.07446913 24.39655866 12.875 29.875 C12.31167969 30.84953125 11.74835937 31.8240625 11.16796875 32.828125 C9.78349637 35.22161962 8.39406459 37.6120838 7 40 C6.34 39.67 5.68 39.34 5 39 C4.3671875 36.671875 4.3671875 36.671875 3.875 33.75 C3.70742188 32.79609375 3.53984375 31.8421875 3.3671875 30.859375 C3.02555561 28.19900755 2.93158538 25.67794365 3 23 C1.86820313 23.433125 0.73640625 23.86625 -0.4296875 24.3125 C-1.9113927 24.87517286 -3.39316714 25.43766343 -4.875 26 C-5.99455078 26.42925781 -5.99455078 26.42925781 -7.13671875 26.8671875 C-12.7734375 29 -12.7734375 29 -15 29 C-13.71939982 24.81238337 -12.13653086 21.17943621 -9.9609375 17.3828125 C-9.38085938 16.36445312 -8.80078125 15.34609375 -8.203125 14.296875 C-7.29820313 12.72679688 -7.29820313 12.72679688 -6.375 11.125 C-5.76398437 10.05507812 -5.15296875 8.98515625 -4.5234375 7.8828125 C-3.0203689 5.25244245 -1.51243714 2.62499074 0 0 Z " fill="#F06082" transform="translate(30,75)"/>
<path d="M0 0 C2.79313206 2.48040168 4.36547876 5.20078612 6.13671875 8.47265625 C6.71357422 9.53677734 7.29042969 10.60089844 7.88476562 11.69726562 C8.47966797 12.80779297 9.07457031 13.91832031 9.6875 15.0625 C10.29400391 16.17689453 10.90050781 17.29128906 11.52539062 18.43945312 C16 26.73937535 16 26.73937535 16 29 C10 27 4 25 -2 23 C-2.04898438 23.6290625 -2.09796875 24.258125 -2.1484375 24.90625 C-2.63435199 30.46913314 -3.50553626 35.61993052 -5 41 C-7.30476056 38.07047296 -9.14601182 35.07404266 -10.91796875 31.796875 C-11.44970703 30.8171875 -11.98144531 29.8375 -12.52929688 28.828125 C-13.07650391 27.81234375 -13.62371094 26.7965625 -14.1875 25.75 C-14.74630859 24.71875 -15.30511719 23.6875 -15.88085938 22.625 C-17.2567669 20.08486304 -18.6297 17.54316507 -20 15 C-19.06725891 13.87105124 -18.12859878 12.74699124 -17.1875 11.625 C-16.66542969 10.99851562 -16.14335938 10.37203125 -15.60546875 9.7265625 C-12.7115007 6.61431462 -10.41762393 5.7319673 -6.3125 5.375 C-5.50425781 5.30023438 -4.69601563 5.22546875 -3.86328125 5.1484375 C-2.94095703 5.07496094 -2.94095703 5.07496094 -2 5 C-1.34 3.35 -0.68 1.7 0 0 Z " fill="#F06082" transform="translate(89,75)"/>
<path d="M0 0 C2.93480945 1.24885509 4.42310766 2.26577339 6.375 4.75 C7.34857247 8.25486087 6.93962615 10.47640195 6 14 C2.94938615 19.2003753 -1.23370265 23.42713497 -5.58203125 27.5546875 C-7.11007959 28.96419749 -7.11007959 28.96419749 -8 31 C-3.05 31 1.9 31 7 31 C7 32.32 7 33.64 7 35 C-0.59 35 -8.18 35 -16 35 C-14.8760381 29.38019048 -14.8760381 29.38019048 -12.1640625 26.84375 C-11.59429687 26.29589844 -11.02453125 25.74804688 -10.4375 25.18359375 C-9.839375 24.62800781 -9.24125 24.07242188 -8.625 23.5 C-1.86548609 17.48392053 -1.86548609 17.48392053 1.375 9.3125 C1.25125 8.549375 1.1275 7.78625 1 7 C-1.89377824 4.64937195 -1.89377824 4.64937195 -5.5625 5.125 C-9.06801965 5.61835167 -9.06801965 5.61835167 -10.4375 8.0625 C-10.7159375 9.0215625 -10.7159375 9.0215625 -11 10 C-12.32 10 -13.64 10 -15 10 C-15.375 7.8125 -15.375 7.8125 -15 5 C-10.56322481 -0.11935599 -6.6450335 -1.12793927 0 0 Z " fill="#DF9354" transform="translate(67,29)"/>
</svg>
