<?xml version="1.0" encoding="UTF-8"?>
<svg version="1.1" xmlns="http://www.w3.org/2000/svg" width="91" height="111">
<path d="M0 0 C4.67562466 1.24683324 8.32481002 0.85594941 12.875 -0.75 C15.89536138 -1.15271485 17.40168889 0.20786784 19.75 2 C20.01683594 2.68835938 20.28367188 3.37671875 20.55859375 4.0859375 C21.14833984 5.03339844 21.14833984 5.03339844 21.75 6 C24.30685028 6.51693471 24.30685028 6.51693471 27.1875 6.4375 C32.50042031 6.74307973 32.50042031 6.74307973 34.875 9.1875 C35.78953 12.12706072 36.39446555 14.94240371 36.75 18 C37.678125 18.268125 38.60625 18.53625 39.5625 18.8125 C43.8896648 20.42458101 43.8896648 20.42458101 45.75 23 C45.9569216 26.10382399 45.74505183 29.08411881 45.5625 32.1875 C45.781252 35.46878 46.37889326 35.91464202 48.75 38 C49.125 41.4375 49.125 41.4375 48.75 45 C48.24597656 45.62003906 47.74195312 46.24007812 47.22265625 46.87890625 C45.30865427 49.63567833 45.56289884 51.19618828 45.8125 54.5 C45.9508624 59.70242608 45.9508624 59.70242608 44.0625 62.5 C41.65304383 64.06289049 39.26115839 65.60491201 36.75 67 C37.20856153 74.13709868 41.35811107 79.73737484 44.88867188 85.74414062 C45.38044922 86.60330078 45.87222656 87.46246094 46.37890625 88.34765625 C46.83338135 89.12117432 47.28785645 89.89469238 47.75610352 90.69165039 C48.87920767 93.30008808 48.93855283 95.18910289 48.75 98 C43.38904723 96.41078475 38.04156027 94.81027062 32.75 93 C32.70101562 93.64066406 32.65203125 94.28132813 32.6015625 94.94140625 C32.1459855 100.21196085 31.3902621 104.96986288 29.75 110 C27.08437455 107.62534759 25.66579229 105.18227267 24.078125 102 C23.57796875 101.030625 23.0778125 100.06125 22.5625 99.0625 C21.52404131 97.02712096 20.49788473 94.98541658 19.484375 92.9375 C16.42458515 86.74387524 16.42458515 86.74387524 11.01953125 82.80078125 C7.60396529 81.96423284 6.04270285 81.90243238 2.75 83 C1.2956958 83.35167236 1.2956958 83.35167236 -0.18798828 83.71044922 C-4.02945202 85.32826228 -4.78994086 86.781518 -6.6796875 90.4453125 C-7.246875 91.52167969 -7.8140625 92.59804687 -8.3984375 93.70703125 C-8.96820313 94.83496094 -9.53796875 95.96289062 -10.125 97.125 C-11.01445313 98.82849609 -11.01445313 98.82849609 -11.921875 100.56640625 C-13.38211062 103.36911655 -14.8237672 106.17987672 -16.25 109 C-17.24 109 -18.23 109 -19.25 109 C-19.58895656 107.27192682 -19.92091525 105.54248026 -20.25 103.8125 C-20.435625 102.84957031 -20.62125 101.88664062 -20.8125 100.89453125 C-21.21877612 98.2065794 -21.32933572 95.71228981 -21.25 93 C-22.38179687 93.433125 -23.51359375 93.86625 -24.6796875 94.3125 C-26.1613927 94.87517286 -27.64316714 95.43766343 -29.125 96 C-29.87136719 96.28617187 -30.61773437 96.57234375 -31.38671875 96.8671875 C-37.0234375 99 -37.0234375 99 -39.25 99 C-37.98287078 94.82793205 -36.41792054 91.29326457 -34.17578125 87.55859375 C-33.29889648 86.06489258 -33.29889648 86.06489258 -32.40429688 84.54101562 C-31.17165875 82.46396156 -29.93200803 80.3910539 -28.68554688 78.32226562 C-28.10482422 77.32775391 -27.52410156 76.33324219 -26.92578125 75.30859375 C-26.38864502 74.40939209 -25.85150879 73.51019043 -25.2980957 72.58374023 C-24.07377329 69.56557016 -24.30593028 68.0677948 -25.25 65 C-26.19875 64.71125 -27.1475 64.4225 -28.125 64.125 C-31.25 63 -31.25 63 -33.25 61 C-33.3046875 58.609375 -33.3046875 58.609375 -33.125 55.75 C-33.00253414 50.53839744 -34.05718192 48.19057373 -37.25 44 C-37.75 41.4375 -37.75 41.4375 -37.25 39 C-36.26 37.9790625 -36.26 37.9790625 -35.25 36.9375 C-32.46187408 32.84244006 -33.11496643 29.5671394 -33.5 24.7421875 C-33.25 22 -33.25 22 -31.37890625 20.17578125 C-29.25 19 -29.25 19 -27.1875 18.3125 C-24.3919956 16.41877121 -23.94474127 14.02317206 -22.9609375 10.875 C-22.25 9 -22.25 9 -20.25 7 C-18.63577758 6.6709686 -17.0076017 6.40792545 -15.375 6.1875 C-11.57880467 5.51019321 -10.55768252 5.32346111 -7.8125 2.4375 C-7.296875 1.633125 -6.78125 0.82875 -6.25 0 C-3.25 -1 -3.25 -1 0 0 Z " fill="#FBC54F" transform="translate(42.25,1)"/>
<path d="M0 0 C6.44102914 3.96371024 9.57045043 9.91936068 12 17 C13.43774538 26.35623699 11.67330747 33.36213812 6.59765625 41.15234375 C1.51502557 47.82562658 -5.44328108 51.0725122 -13.64453125 52.44140625 C-21.22616035 52.81153302 -28.390796 50.27102773 -34.375 45.625 C-40.26343773 39.73656227 -43.77397201 33.21155974 -44.13671875 24.84765625 C-43.74344977 15.2181844 -41.18750444 8.70752841 -34.125 2.125 C-23.81881145 -6.11612665 -11.45089283 -6.27817621 0 0 Z " fill="#FEDB63" transform="translate(64,19)"/>
<path d="M0 0 C2 1 2 1 2.8203125 3.00390625 C3.82696249 5.22709879 3.82696249 5.22709879 6.2421875 5.65234375 C7.11101563 5.74644531 7.97984375 5.84054688 8.875 5.9375 C13.71853698 6.70410297 13.71853698 6.70410297 16.4375 9.5625 C16.953125 10.366875 17.46875 11.17125 18 12 C18.99 12.33 19.98 12.66 21 13 C19.35526763 19.18336092 16.07446913 24.39655866 12.875 29.875 C12.31167969 30.84953125 11.74835937 31.8240625 11.16796875 32.828125 C9.78349637 35.22161962 8.39406459 37.6120838 7 40 C6.34 39.67 5.68 39.34 5 39 C4.3671875 36.671875 4.3671875 36.671875 3.875 33.75 C3.70742188 32.79609375 3.53984375 31.8421875 3.3671875 30.859375 C3.02555561 28.19900755 2.93158538 25.67794365 3 23 C1.86820313 23.433125 0.73640625 23.86625 -0.4296875 24.3125 C-1.9113927 24.87517286 -3.39316714 25.43766343 -4.875 26 C-5.99455078 26.42925781 -5.99455078 26.42925781 -7.13671875 26.8671875 C-12.7734375 29 -12.7734375 29 -15 29 C-13.71939982 24.81238337 -12.13653086 21.17943621 -9.9609375 17.3828125 C-9.38085938 16.36445312 -8.80078125 15.34609375 -8.203125 14.296875 C-7.29820313 12.72679688 -7.29820313 12.72679688 -6.375 11.125 C-5.76398437 10.05507812 -5.15296875 8.98515625 -4.5234375 7.8828125 C-3.0203689 5.25244245 -1.51243714 2.62499074 0 0 Z " fill="#F06082" transform="translate(18,71)"/>
<path d="M0 0 C3.94996237 3.61747883 6.12818478 8.23190684 8.6875 12.875 C9.19861328 13.77347656 9.70972656 14.67195313 10.23632812 15.59765625 C10.71908203 16.47035156 11.20183594 17.34304687 11.69921875 18.2421875 C12.14096436 19.0347998 12.58270996 19.82741211 13.0378418 20.64404297 C14.10904012 23.26699751 14.18321511 25.19360493 14 28 C8.63904723 26.41078475 3.29156027 24.81027062 -2 23 C-2.04898438 23.64066406 -2.09796875 24.28132813 -2.1484375 24.94140625 C-2.6040145 30.21196085 -3.3597379 34.96986288 -5 40 C-7.67913745 37.59885346 -9.22002739 35.05306732 -10.91796875 31.89453125 C-11.44970703 30.91162109 -11.98144531 29.92871094 -12.52929688 28.91601562 C-13.07650391 27.89185547 -13.62371094 26.86769531 -14.1875 25.8125 C-14.74630859 24.77673828 -15.30511719 23.74097656 -15.88085938 22.67382812 C-17.25867075 20.1184002 -18.63150276 17.56042442 -20 15 C-19.06725891 13.87105124 -18.12859878 12.74699124 -17.1875 11.625 C-16.66542969 10.99851562 -16.14335938 10.37203125 -15.60546875 9.7265625 C-12.7115007 6.61431462 -10.41762393 5.7319673 -6.3125 5.375 C-5.50425781 5.30023438 -4.69601563 5.22546875 -3.86328125 5.1484375 C-2.94095703 5.07496094 -2.94095703 5.07496094 -2 5 C-1.34 3.35 -0.68 1.7 0 0 Z " fill="#F06082" transform="translate(77,71)"/>
<path d="M0 0 C0 11.55 0 23.1 0 35 C-1.98 35 -3.96 35 -6 35 C-6 25.43 -6 15.86 -6 6 C-7.98 7.32 -9.96 8.64 -12 10 C-12.66 10 -13.32 10 -14 10 C-14.5 7.8125 -14.5 7.8125 -14 5 C-9.41941772 0.78404119 -6.31701655 0 0 0 Z " fill="#E29955" transform="translate(53,25)"/>
</svg>
