<?xml version="1.0" encoding="UTF-8"?>
<svg version="1.1" xmlns="http://www.w3.org/2000/svg" width="273" height="272">
<path d="M0 0 C90.09 0 180.18 0 273 0 C273 89.76 273 179.52 273 272 C182.91 272 92.82 272 0 272 C0 182.24 0 92.48 0 0 Z " fill="#202020" transform="translate(0,0)"/>
<path d="M0 0 C90.09 0 180.18 0 273 0 C273 89.76 273 179.52 273 272 C182.91 272 92.82 272 0 272 C0 182.24 0 92.48 0 0 Z M11.5625 12.875 C10.63630859 13.79925781 10.63630859 13.79925781 9.69140625 14.7421875 C5.22624346 20.70261266 4.56172095 26.04323952 4.61904907 33.26062012 C4.6143691 34.17229431 4.60968913 35.0839685 4.60486734 36.02326918 C4.59293592 39.06709465 4.60236743 42.11046835 4.61181641 45.15429688 C4.60774989 47.34099083 4.60240756 49.52768272 4.59588623 51.71437073 C4.58221644 57.64610653 4.58750998 63.57768569 4.59702349 69.50942421 C4.60462177 75.7188115 4.597574 81.92818542 4.59286499 88.13757324 C4.58705846 99.23267712 4.59637812 110.32771174 4.611643 121.42280453 C4.62504562 131.4754271 4.62271734 141.52794572 4.60888672 151.58056641 C4.59287602 163.26430412 4.58686291 174.94797683 4.59572351 186.63172388 C4.60039923 192.81289318 4.60102759 198.99399094 4.59111404 205.17515564 C4.58244468 210.98643555 4.58846597 216.79751927 4.60579681 222.608778 C4.60976178 224.74086621 4.60862745 226.87297094 4.60200882 229.00505257 C4.59380383 231.91671751 4.60410259 234.82775486 4.61904907 237.73937988 C4.61235691 238.58189662 4.60566474 239.42441337 4.59876978 240.29246092 C4.68446827 248.90715038 7.97097903 255.83395738 14 262 C24.18528258 269.6658892 35.31011836 268.85348632 47.45898438 268.77636719 C49.61860716 268.78450874 51.77822161 268.79519817 53.93782043 268.80822754 C59.77471602 268.83546689 65.61097181 268.82502249 71.44787788 268.80595303 C77.57216165 268.79070389 83.69639266 268.80486652 89.82067871 268.81427002 C100.10304544 268.82516893 110.38515312 268.81084472 120.66748047 268.78222656 C132.53513713 268.74957635 144.4021752 268.76015453 156.26981688 268.793185 C166.48083123 268.82046119 176.69165996 268.82423146 186.90269899 268.80855298 C192.99181023 268.79922534 199.08063122 268.79787854 205.16972351 268.81777191 C210.89594495 268.83517486 216.62137314 268.8229535 222.34750938 268.78840637 C224.44201532 268.7805103 226.53658865 268.78268693 228.63106728 268.79598236 C244.75734591 268.96963743 244.75734591 268.96963743 259 262 C266.19009958 254.66545802 268.30438963 247.94814276 268.26742554 237.86636353 C268.27422221 236.50119223 268.27422221 236.50119223 268.28115618 235.10844171 C268.2937994 232.06394183 268.29217986 229.01962086 268.29052734 225.97509766 C268.29651259 223.79017405 268.30331813 221.60525257 268.31088257 219.42033386 C268.32854901 213.48851169 268.3332382 207.55674723 268.33451414 201.62490129 C268.33593581 197.91848049 268.34020567 194.21207436 268.34550858 190.5056572 C268.3630555 178.24135503 268.37234857 165.97708814 268.37084763 153.71277328 C268.37076772 153.05216747 268.3706878 152.39156166 268.37060547 151.7109375 C268.37048283 150.7188141 268.37048283 150.7188141 268.37035771 149.7066478 C268.36959537 139.65431319 268.38519181 129.60210278 268.41162109 119.54980469 C268.44223038 107.8675316 268.4591378 96.1853503 268.45769465 84.50303495 C268.45718475 78.32233919 268.46288378 72.14180252 268.48405075 65.96113968 C268.5034151 60.14820074 268.5035697 54.33557297 268.48901749 48.52262306 C268.48692615 46.39094781 268.49164957 44.25925316 268.5037384 42.12761116 C268.51919039 39.21391007 268.50988273 36.30128199 268.49447632 33.38760376 C268.50990701 32.12717473 268.50990701 32.12717473 268.52564943 30.84128249 C268.42739504 22.41242278 264.94738104 15.94738104 259 10 C251.65399961 5.12899616 245.99782499 3.85130816 237.23422241 3.84609985 C236.33947885 3.8417176 235.44473529 3.83733535 234.52287829 3.8328203 C231.5183425 3.81944313 228.51383604 3.81325584 225.50927734 3.80712891 C223.35745105 3.79922707 221.20562607 3.79095807 219.05380249 3.78234863 C211.98119369 3.75613729 204.90857899 3.74082155 197.8359375 3.7265625 C195.40056988 3.7212024 192.96520229 3.71582489 190.52983475 3.71043015 C180.3986557 3.68880245 170.26747825 3.67006611 160.13628197 3.65880775 C145.62077006 3.64257083 131.10552592 3.60939764 116.59011495 3.55240691 C106.38189451 3.51369475 96.17374566 3.49417351 85.96545374 3.48888719 C79.86956162 3.48523545 73.77395516 3.47323236 67.67814255 3.44078445 C61.9407033 3.4106819 56.20372225 3.40440011 50.46622086 3.41616821 C48.36440065 3.41638876 46.26255904 3.40809922 44.16081238 3.39051437 C26.23781999 3.24590282 26.23781999 3.24590282 11.5625 12.875 Z " fill="#C7C7C7" transform="translate(0,0)"/>
<path d="M0 0 C3.3 0.33 6.6 0.66 10 1 C10 1.66 10 2.32 10 3 C10.55945313 2.82855469 11.11890625 2.65710938 11.6953125 2.48046875 C17.44448227 1.28191302 24.77673197 2.45206437 30 5 C31.75 7.625 31.75 7.625 33 10 C33.66 10 34.32 10 35 10 C35.33 8.35 35.66 6.7 36 5 C36.495 6.98 36.495 6.98 37 9 C37.66 9 38.32 9 39 9 C39.495 10.485 39.495 10.485 40 12 C42.00016466 13.20882096 42.00016466 13.20882096 44 14 C43.01 14 42.02 14 41 14 C40.86722656 14.81984375 40.73445313 15.6396875 40.59765625 16.484375 C40.42105469 17.56203125 40.24445313 18.6396875 40.0625 19.75 C39.88847656 20.81734375 39.71445313 21.8846875 39.53515625 22.984375 C39 26 39 26 38.37109375 28.265625 C37.78982657 30.10003214 37.78982657 30.10003214 39 32 C39.66 31.34 40.32 30.68 41 30 C42.12678288 35.50871632 42.12678288 35.50871632 41.5 37.9375 C40.7454402 41.05005916 41.52743213 43.84954753 42 47 C42 48.3959888 41.97907526 49.79213044 41.9375 51.1875 C41.99662334 54.79402363 42.31044065 56.01179896 44 59 C44.56847656 58.88140625 45.13695312 58.7628125 45.72265625 58.640625 C51.94885347 57.60119308 54.8418536 58.37832274 60 62 C59.1302597 68.08818211 56.44621124 71.86042401 52 76 C52.9590625 76.185625 52.9590625 76.185625 53.9375 76.375 C54.618125 76.58125 55.29875 76.7875 56 77 C56.33 77.66 56.66 78.32 57 79 C57.99 78.67 58.98 78.34 60 78 C60 78.66 60 79.32 60 80 C61.65 80 63.3 80 65 80 C65.495 78.515 65.495 78.515 66 77 C66.33 77.99 66.66 78.98 67 80 C70.51190809 81.22969878 70.51190809 81.22969878 74 82 C74.33 83.98 74.66 85.96 75 88 C75.66 88 76.32 88 77 88 C77.33 89.32 77.66 90.64 78 92 C73.25 96 73.25 96 71 96 C70.505 97.485 70.505 97.485 70 99 C68.0625 99.8125 68.0625 99.8125 66 100 C65.34 99.34 64.68 98.68 64 98 C62.68 98 61.36 98 60 98 C59.67 98.66 59.34 99.32 59 100 C57.07421875 100.8515625 57.07421875 100.8515625 54.6875 101.625 C53.51767578 102.01558594 53.51767578 102.01558594 52.32421875 102.4140625 C50 103 50 103 46 103 C46.3403125 104.8253125 46.3403125 104.8253125 46.6875 106.6875 C47.11976343 109.97620691 47.06063153 110.87346463 45.5625 114 C44.7890625 114.99 44.7890625 114.99 44 116 C45.65 116.33 47.3 116.66 49 117 C49 117.33 49 117.66 49 118 C46.36 118 43.72 118 41 118 C41 118.99 41 119.98 41 121 C42.60875 121.4021875 42.60875 121.4021875 44.25 121.8125 C48 123 48 123 50 124.6875 C52.06347897 126.28808504 52.06347897 126.28808504 55.3125 126.125 C60.23636908 124.62280265 62.70621242 121.83440925 66 118 C66.33 118.66 66.66 119.32 67 120 C66.67 120.66 66.34 121.32 66 122 C66.66 122.33 67.32 122.66 68 123 C67.01 123.99 66.02 124.98 65 126 C65.66 127.32 66.32 128.64 67 130 C73.31558851 126.07512842 73.31558851 126.07512842 78.875 121.1875 C81 119 81 119 84 118 C85.21869929 115.49552484 85.21869929 115.49552484 86 113 C87.31157516 115.62315032 86.89649988 117.23033436 86.5625 120.125 C86.46066406 121.03507812 86.35882813 121.94515625 86.25390625 122.8828125 C86.12822266 123.93082031 86.12822266 123.93082031 86 125 C85.67 124.01 85.34 123.02 85 122 C84.57332031 122.37769531 84.14664063 122.75539063 83.70703125 123.14453125 C82.35299973 124.33663735 80.99440489 125.52356833 79.6328125 126.70703125 C78.21506749 127.94177356 76.79902823 129.17855334 75.39355469 130.42724609 C73.66636975 131.96104537 71.92776414 133.48106924 70.1875 135 C69.34312378 135.7576062 69.34312378 135.7576062 68.48168945 136.53051758 C66.85546875 137.9375 66.85546875 137.9375 64 140 C63.01 139.67 62.02 139.34 61 139 C62.65 137.35 64.3 135.7 66 134 C65.67 133.34 65.34 132.68 65 132 C64.67 131.34 64.34 130.68 64 130 C62.7625 130.7425 62.7625 130.7425 61.5 131.5 C56.37537367 133.69626843 51.37587858 133.79195953 46 132 C46 131.34 46 130.68 46 130 C44.35 129.67 42.7 129.34 41 129 C41 128.01 41 127.02 41 126 C39.07690578 126.03955898 39.07690578 126.03955898 37 127 C35.21620585 129.98352894 35.21620585 129.98352894 34 133 C31.69 132.67 29.38 132.34 27 132 C27 131.34 27 130.68 27 130 C25.68 130 24.36 130 23 130 C22.67 128.35 22.34 126.7 22 125 C22.495 125.99 22.495 125.99 23 127 C25.52733235 127.65555119 25.52733235 127.65555119 28 128 C28 128.66 28 129.32 28 130 C29.65 130 31.3 130 33 130 C33.33 125.71 33.66 121.42 34 117 C28.42163702 116.68377223 28.42163702 116.68377223 25 118 C25 117.34 25 116.68 25 116 C28.11035463 113.92643025 28.90533822 113.80067213 32.4375 113.6875 C36.18494452 113.37012685 36.75283373 113.24716627 39.5625 110.4375 C40.036875 109.633125 40.51125 108.82875 41 108 C40.34 108 39.68 108 39 108 C39 107.34 39 106.68 39 106 C37.68 106 36.36 106 35 106 C35.33 103.69 35.66 101.38 36 99 C33.59951366 97.61510403 31.76174203 96.96029034 29 96.5 C26.23825797 96.03970966 24.40048634 95.38489597 22 94 C22 93.01 22 92.02 22 91 C22.9178125 91.01160156 23.835625 91.02320313 24.78125 91.03515625 C31.29003027 91.08301493 37.56870645 91.02900697 44 90 C40.7 89.34 37.4 88.68 34 88 C33.67 86.35 33.34 84.7 33 83 C30.36 82.67 27.72 82.34 25 82 C24.25 79.8125 24.25 79.8125 24 77 C26.74422607 72.19760438 29.98750414 70.76365595 35 69 C35.66 69 36.32 69 37 69 C37 65.57899501 36.57340409 63.5855268 34.15234375 61.11328125 C32.69518376 59.8874165 31.21609648 58.68707704 29.71484375 57.515625 C29.14894531 57.01546875 28.58304688 56.5153125 28 56 C28 55.34 28 54.68 28 54 C26.35 54 24.7 54 23 54 C22.25 52.4375 22.25 52.4375 22 50 C24.03388687 45.70623883 25.75903115 42.40321568 30 40 C30.66 40 31.32 40 32 40 C32.02712066 38.56260487 32.04645067 37.12506137 32.0625 35.6875 C32.07410156 34.88699219 32.08570313 34.08648437 32.09765625 33.26171875 C32.09657855 30.83138666 32.09657855 30.83138666 31 28 C30.77439324 25.60745424 30.59151405 23.21071877 30.4375 20.8125 C30.35371094 19.54019531 30.26992187 18.26789063 30.18359375 16.95703125 C30.12300781 15.98121094 30.06242187 15.00539063 30 14 C29.37222656 13.88527344 28.74445313 13.77054688 28.09765625 13.65234375 C25.04268843 12.70228858 24.52290984 10.71475233 23 8 C19.95516215 5.9701081 18.97945019 5.73196335 15.5 5.5 C12.02054981 5.26803665 11.04483785 5.0298919 8 3 C6.80375 2.835 5.6075 2.67 4.375 2.5 C2.704375 2.2525 2.704375 2.2525 1 2 C0.67 1.34 0.34 0.68 0 0 Z " fill="#434343" transform="translate(110,85)"/>
<path d="M0 0 C0.33 0 0.66 0 1 0 C1.3403125 1.36125 1.3403125 1.36125 1.6875 2.75 C4.62015878 12.74955181 7.53454225 20.54453319 16.71484375 26.0234375 C19.37375065 27.1597225 22.07844969 27.78797302 24.88574219 28.45507812 C28.22373037 29.31540025 31.40971988 30.51630485 34.625 31.75 C35.31158691 32.01095459 35.99817383 32.27190918 36.70556641 32.54077148 C47.04509461 36.50937116 57.17229059 40.88234487 67 46 C67 46.99 67 47.98 67 49 C65.20703125 50.53515625 65.20703125 50.53515625 62.8125 52.0625 C62.03519531 52.56910156 61.25789063 53.07570313 60.45703125 53.59765625 C55.26742061 56.55961208 51.02599386 57.28552768 45.08862305 57.22705078 C44.30760727 57.22734283 43.52659149 57.22763489 42.72190857 57.22793579 C40.15173055 57.22654736 37.58184586 57.21100921 35.01171875 57.1953125 C33.22524677 57.19158064 31.43877274 57.18873448 29.65229797 57.18673706 C24.9587129 57.17911424 20.26525232 57.15947736 15.57171631 57.1373291 C10.77894779 57.11684155 5.98615909 57.10772912 1.19335938 57.09765625 C-8.20448167 57.0762302 -17.60223047 57.04211056 -27 57 C-24.16131461 54.07129288 -21.51759408 52.05907946 -18 50 C-11.35897417 45.14071281 -7.7532407 39.16527769 -4 32 C-3.20335937 30.78763672 -3.20335937 30.78763672 -2.390625 29.55078125 C-0.22898196 24.03130505 -0.42394334 18.50284022 -0.3125 12.625 C-0.27833984 11.41199219 -0.24417969 10.19898438 -0.20898438 8.94921875 C-0.12677625 5.96623819 -0.05753474 2.98354158 0 0 Z " fill="#6A6A6A" transform="translate(194,211)"/>
<path d="M0 0 C1.4375 1.625 1.4375 1.625 1.4375 5.625 C2.4275 5.955 3.4175 6.285 4.4375 6.625 C3.798125 6.728125 3.15875 6.83125 2.5 6.9375 C1.819375 7.164375 1.13875 7.39125 0.4375 7.625 C0.1075 8.615 -0.2225 9.605 -0.5625 10.625 C-1.655625 10.439375 -2.74875 10.25375 -3.875 10.0625 C-7.49874133 9.3671932 -7.49874133 9.3671932 -10.5625 10.625 C-10.5625 11.285 -10.5625 11.945 -10.5625 12.625 C-9.82 12.74875 -9.0775 12.8725 -8.3125 13 C-5.76108515 13.57986701 -3.8357427 14.36208739 -1.5625 15.625 C-1.5625 16.285 -1.5625 16.945 -1.5625 17.625 C-0.9025 17.625 -0.2425 17.625 0.4375 17.625 C4.37283487 24.67580831 4.37283487 24.67580831 3.4375 28.625 C0.625 30.75 0.625 30.75 -2.5625 32.625 C-3.0575 33.16125 -3.5525 33.6975 -4.0625 34.25 C-6.28158647 36.2841626 -8.6987032 36.80677234 -11.5625 37.625 C-12.284375 37.851875 -13.00625 38.07875 -13.75 38.3125 C-15.5625 38.625 -15.5625 38.625 -18.5625 37.625 C-19.5525 38.285 -20.5425 38.945 -21.5625 39.625 C-24.75 38.75 -24.75 38.75 -27.5625 37.625 C-27.5625 36.965 -27.5625 36.305 -27.5625 35.625 C-28.2225 35.625 -28.8825 35.625 -29.5625 35.625 C-29.5625 34.965 -29.5625 34.305 -29.5625 33.625 C-30.34625 33.439375 -31.13 33.25375 -31.9375 33.0625 C-34.5625 31.625 -34.5625 31.625 -35.9375 28.1875 C-36.5625 24.625 -36.5625 24.625 -35.5625 21.625 C-36.2225 21.295 -36.8825 20.965 -37.5625 20.625 C-36.9025 20.625 -36.2425 20.625 -35.5625 20.625 C-35.5625 19.965 -35.5625 19.305 -35.5625 18.625 C-36.5525 18.295 -37.5425 17.965 -38.5625 17.625 C-39.5525 18.615 -40.5425 19.605 -41.5625 20.625 C-42.5525 20.295 -43.5425 19.965 -44.5625 19.625 C-45.89947449 13.34121987 -45.47899572 7.45799143 -42.5625 1.625 C-41.2425 1.625 -39.9225 1.625 -38.5625 1.625 C-38.2325 0.965 -37.9025 0.305 -37.5625 -0.375 C-36.675625 -0.313125 -35.78875 -0.25125 -34.875 -0.1875 C-31.15743626 -0.39792814 -29.62220359 -1.36203711 -26.5625 -3.375 C-18.88928593 -5.97107671 -7.05651193 -3.78642103 0 0 Z " fill="#4C4C4C" transform="translate(199.5625,86.375)"/>
<path d="M0 0 C0 0.99 0 1.98 0 3 C3.465 2.505 3.465 2.505 7 2 C7 2.66 7 3.32 7 4 C7.66 4 8.32 4 9 4 C9 3.34 9 2.68 9 2 C11.375 2.375 11.375 2.375 14 4 C15.60850024 8.59109615 16 13.16123984 16 18 C16.66 18 17.32 18 18 18 C18.78565169 21.51674556 19.16333039 24.84984802 19.28125 28.44921875 C19.33732422 29.96805664 19.33732422 29.96805664 19.39453125 31.51757812 C19.46523322 33.6425652 19.53554146 35.76756541 19.60546875 37.89257812 C19.66154297 39.40561523 19.66154297 39.40561523 19.71875 40.94921875 C19.74904297 41.87049561 19.77933594 42.79177246 19.81054688 43.7409668 C19.86217571 46.03343533 19.86217571 46.03343533 21 48 C21.08918777 49.38909304 21.11759541 50.78236907 21.11352539 52.17431641 C21.11344986 53.03505768 21.11337433 53.89579895 21.11329651 54.78262329 C21.10813522 55.71287323 21.10297394 56.64312317 21.09765625 57.6015625 C21.0962413 58.55316254 21.09482635 59.50476257 21.09336853 60.48519897 C21.08776012 63.53183097 21.07520619 66.57839013 21.0625 69.625 C21.05748608 71.68749894 21.05292299 73.74999903 21.04882812 75.8125 C21.03778796 80.87502817 21.02051767 85.93750173 21 91 C21.99 91 22.98 91 24 91 C24.05607422 89.80503906 24.05607422 89.80503906 24.11328125 88.5859375 C24.4809957 82.6592457 24.90982664 78.19149125 28 73 C28.309375 71.906875 28.61875 70.81375 28.9375 69.6875 C30 67 30 67 31.9375 66 C34 66 34 66 37 68 C37 68.99 37 69.98 37 71 C35.02 71.99 35.02 71.99 33 73 C33.495 77.95 33.495 77.95 34 83 C34.66 81.02 35.32 79.04 36 77 C36.33 77 36.66 77 37 77 C37.21344915 84.11497176 36.90752073 90.15536678 35 97 C34.82856363 98.39292054 34.68407867 99.78934526 34.5625 101.1875 C33.72069139 109.54753031 32.62606447 118.46650578 27 125 C23.13245863 126.93377068 19.0318796 126.09960353 15 125 C15.23396484 123.95199219 15.23396484 123.95199219 15.47265625 122.8828125 C15.66730469 121.97273438 15.86195313 121.06265625 16.0625 120.125 C16.25972656 119.22007812 16.45695312 118.31515625 16.66015625 117.3828125 C17.23202157 114.98985875 17.23202157 114.98985875 16 113 C15.34 113.99 14.68 114.98 14 116 C13.01 115.505 13.01 115.505 12 115 C12.26844727 114.35240723 12.53689453 113.70481445 12.81347656 113.03759766 C15.63536314 105.8370539 16.98715057 99.05138371 17.75 91.375 C17.87068848 90.21218506 17.99137695 89.04937012 18.11572266 87.85131836 C18.88905629 79.75756703 19.30816931 71.69232933 19.375 63.5625 C19.38885742 62.57620605 19.40271484 61.58991211 19.41699219 60.57373047 C19.37655694 54.2924335 18.38946734 48.74237367 16.64916992 42.70678711 C15.84677342 39.36110451 15.83789181 36.34854169 16.08984375 32.9375 C16.12990418 30.9360796 16.12990418 30.9360796 15.04296875 29.11328125 C13.7176187 26.42783414 13.58160859 24.16802024 13.375 21.1875 C13.30152344 20.13433594 13.22804687 19.08117187 13.15234375 17.99609375 C12.98224938 14.65090447 12.92391081 11.34792416 13 8 C10.69 8 8.38 8 6 8 C6 7.01 6 6.02 6 5 C5.113125 5.350625 4.22625 5.70125 3.3125 6.0625 C0 7 0 7 -2.4375 6.5 C-5.99982829 5.80491155 -8.58166166 6.92385645 -12 8 C-12.99 8 -13.98 8 -15 8 C-17.15028304 8.94978897 -17.15028304 8.94978897 -19 10 C-19.185625 9.360625 -19.37125 8.72125 -19.5625 8.0625 C-20.036875 7.381875 -20.51125 6.70125 -21 6 C-23.32156597 5.59270772 -25.6568787 5.25561323 -28 5 C-28.33 4.34 -28.66 3.68 -29 3 C-27.3603125 3.061875 -27.3603125 3.061875 -25.6875 3.125 C-21.91107771 3.32074666 -21.91107771 3.32074666 -19 1 C-16.00390625 0.83984375 -16.00390625 0.83984375 -12.5625 0.9375 C-8.20420969 1.05153945 -4.21787093 0 0 0 Z " fill="#818181" transform="translate(191,40)"/>
<path d="M0 0 C0.66 0 1.32 0 2 0 C2.33 0.99 2.66 1.98 3 3 C5.00016466 4.20882096 5.00016466 4.20882096 7 5 C6.01 5 5.02 5 4 5 C3.86722656 5.81984375 3.73445312 6.6396875 3.59765625 7.484375 C3.42105469 8.56203125 3.24445313 9.6396875 3.0625 10.75 C2.80146484 12.35101563 2.80146484 12.35101563 2.53515625 13.984375 C2 17 2 17 1.37109375 19.265625 C0.78982657 21.10003214 0.78982657 21.10003214 2 23 C2.66 22.34 3.32 21.68 4 21 C5.12678288 26.50871632 5.12678288 26.50871632 4.5 28.9375 C3.7454402 32.05005916 4.52743213 34.84954753 5 38 C5 39.3959888 4.97907526 40.79213044 4.9375 42.1875 C4.99662334 45.79402363 5.31044065 47.01179896 7 50 C7.56847656 49.88140625 8.13695312 49.7628125 8.72265625 49.640625 C14.94885347 48.60119308 17.8418536 49.37832274 23 53 C22.1302597 59.08818211 19.44621124 62.86042401 15 67 C15.9590625 67.185625 15.9590625 67.185625 16.9375 67.375 C17.618125 67.58125 18.29875 67.7875 19 68 C19.495 68.99 19.495 68.99 20 70 C21.485 69.505 21.485 69.505 23 69 C23 69.66 23 70.32 23 71 C24.65 71 26.3 71 28 71 C28.495 69.515 28.495 69.515 29 68 C29.33 68.99 29.66 69.98 30 71 C33.51190809 72.22969878 33.51190809 72.22969878 37 73 C37.33 74.98 37.66 76.96 38 79 C38.66 79 39.32 79 40 79 C40.33 80.32 40.66 81.64 41 83 C36.25 87 36.25 87 34 87 C33.505 88.485 33.505 88.485 33 90 C31.0625 90.8125 31.0625 90.8125 29 91 C28.34 90.34 27.68 89.68 27 89 C25.68 89 24.36 89 23 89 C22.67 89.66 22.34 90.32 22 91 C20.07421875 91.8515625 20.07421875 91.8515625 17.6875 92.625 C16.51767578 93.01558594 16.51767578 93.01558594 15.32421875 93.4140625 C13 94 13 94 9 94 C9 95.98 9 97.96 9 100 C7.35 99.34 5.7 98.68 4 98 C4 96.68 4 95.36 4 94 C9 92.33333333 14 90.66666667 19 89 C19 88.34 19 87.68 19 87 C13.06 87 7.12 87 1 87 C1 86.01 1 85.02 1 84 C9.31180083 81.22939972 19.72074683 82.67599911 28 85 C26.40406384 82.37842577 26.40406384 82.37842577 24 80 C20.83151973 79.58190799 20.83151973 79.58190799 18 80 C17.67 78.68 17.34 77.36 17 76 C13.37 75.34 9.74 74.68 6 74 C6 73.34 6 72.68 6 72 C4.02 72 2.04 72 0 72 C0 71.34 0 70.68 0 70 C1.485 69.01 1.485 69.01 3 68 C3.28875 67.01 3.5775 66.02 3.875 65 C5 62 5 62 7.5625 60.75 C8.366875 60.5025 9.17125 60.255 10 60 C10.33 59.34 10.66 58.68 11 58 C13.3140622 57.26924352 15.64828869 56.59861742 18 56 C18 55.34 18 54.68 18 54 C13.99745544 53.90818866 13.99745544 53.90818866 10 54 C9.505 54.495 9.505 54.495 9 55 C6.1875 55.375 6.1875 55.375 3 55 C-0.79137352 51.82344381 -1.40189561 48.79129482 -1.85913086 44.00317383 C-2.14532723 37.90178459 -1.90479912 31.79829386 -1.703125 25.69702148 C-1.62485088 23.30794854 -1.55780619 20.91874751 -1.4921875 18.52929688 C-1.44597391 16.9947716 -1.39912111 15.46026542 -1.3515625 13.92578125 C-1.33171295 13.21940018 -1.3118634 12.5130191 -1.29141235 11.78523254 C-1.15310791 7.77912213 -0.7514561 3.93727686 0 0 Z " fill="#6E6E6E" transform="translate(147,94)"/>
<path d="M0 0 C10.23 0 20.46 0 31 0 C31 0.33 31 0.66 31 1 C26.05 1.33 21.1 1.66 16 2 C16 2.99 16 3.98 16 5 C21.94 5 27.88 5 34 5 C34 5.66 34 6.32 34 7 C28.95859836 9.81532819 24.77378925 11.5188509 19 12 C19.11306697 13.95894361 19.11306697 13.95894361 20 16 C22.49034386 17.29660434 22.49034386 17.29660434 25 18 C23.125 22.75 23.125 22.75 22 25 C23.65 25.33 25.3 25.66 27 26 C27 26.33 27 26.66 27 27 C24.36 27 21.72 27 19 27 C19 27.99 19 28.98 19 30 C20.0725 30.268125 21.145 30.53625 22.25 30.8125 C26 32 26 32 28 33.6875 C30.06347897 35.28808504 30.06347897 35.28808504 33.3125 35.125 C38.23636908 33.62280265 40.70621242 30.83440925 44 27 C44.495 27.99 44.495 27.99 45 29 C44.67 29.66 44.34 30.32 44 31 C44.66 31.33 45.32 31.66 46 32 C45.01 32.99 44.02 33.98 43 35 C43.66 36.32 44.32 37.64 45 39 C51.31558851 35.07512842 51.31558851 35.07512842 56.875 30.1875 C59 28 59 28 62 27 C63.21869929 24.49552484 63.21869929 24.49552484 64 22 C65.31157516 24.62315032 64.89649988 26.23033436 64.5625 29.125 C64.40974609 30.49011719 64.40974609 30.49011719 64.25390625 31.8828125 C64.12822266 32.93082031 64.12822266 32.93082031 64 34 C63.67 33.01 63.34 32.02 63 31 C62.35998047 31.56654297 62.35998047 31.56654297 61.70703125 32.14453125 C60.35299973 33.33663735 58.99440489 34.52356833 57.6328125 35.70703125 C56.21506749 36.94177356 54.79902823 38.17855334 53.39355469 39.42724609 C51.66636975 40.96104537 49.92776414 42.48106924 48.1875 44 C47.62458252 44.5050708 47.06166504 45.0101416 46.48168945 45.53051758 C44.85546875 46.9375 44.85546875 46.9375 42 49 C41.01 48.67 40.02 48.34 39 48 C40.65 46.35 42.3 44.7 44 43 C43.67 42.34 43.34 41.68 43 41 C42.67 40.34 42.34 39.68 42 39 C41.175 39.495 40.35 39.99 39.5 40.5 C34.37537367 42.69626843 29.37587858 42.79195953 24 41 C24 40.34 24 39.68 24 39 C22.35 38.67 20.7 38.34 19 38 C19 37.01 19 36.02 19 35 C17.07690578 35.03955898 17.07690578 35.03955898 15 36 C13.21620585 38.98352894 13.21620585 38.98352894 12 42 C9.69 41.67 7.38 41.34 5 41 C5 40.34 5 39.68 5 39 C3.68 39 2.36 39 1 39 C0.67 37.35 0.34 35.7 0 34 C0.33 34.66 0.66 35.32 1 36 C3.52733235 36.65555119 3.52733235 36.65555119 6 37 C6 37.66 6 38.32 6 39 C7.65 39 9.3 39 11 39 C11.33 34.71 11.66 30.42 12 26 C6.42163702 25.68377223 6.42163702 25.68377223 3 27 C3 26.34 3 25.68 3 25 C6.11035463 22.92643025 6.90533822 22.80067213 10.4375 22.6875 C14.18494452 22.37012685 14.75283373 22.24716627 17.5625 19.4375 C18.036875 18.633125 18.51125 17.82875 19 17 C18.34 17 17.68 17 17 17 C17 16.34 17 15.68 17 15 C15.68 15 14.36 15 13 15 C13.33 12.69 13.66 10.38 14 8 C11.59951366 6.61510403 9.76174203 5.96029034 7 5.5 C4.23825797 5.03970966 2.40048634 4.38489597 0 3 C0 2.01 0 1.02 0 0 Z " fill="#4F4F4F" transform="translate(132,176)"/>
<path d="M0 0 C0 0.99 0 1.98 0 3 C3.465 2.505 3.465 2.505 7 2 C7 2.66 7 3.32 7 4 C7.66 4 8.32 4 9 4 C9 3.34 9 2.68 9 2 C11.375 2.375 11.375 2.375 14 4 C15.60850024 8.59109615 16 13.16123984 16 18 C16.66 18 17.32 18 18 18 C18.78565169 21.51674556 19.16333039 24.84984802 19.28125 28.44921875 C19.33732422 29.96805664 19.33732422 29.96805664 19.39453125 31.51757812 C19.46523322 33.6425652 19.53554146 35.76756541 19.60546875 37.89257812 C19.66154297 39.40561523 19.66154297 39.40561523 19.71875 40.94921875 C19.74904297 41.87049561 19.77933594 42.79177246 19.81054688 43.7409668 C19.86217571 46.03343533 19.86217571 46.03343533 21 48 C21.08918777 49.38909304 21.11759541 50.78236907 21.11352539 52.17431641 C21.11344986 53.03505768 21.11337433 53.89579895 21.11329651 54.78262329 C21.10813522 55.71287323 21.10297394 56.64312317 21.09765625 57.6015625 C21.0962413 58.55316254 21.09482635 59.50476257 21.09336853 60.48519897 C21.08776012 63.53183097 21.07520619 66.57839013 21.0625 69.625 C21.05748608 71.68749894 21.05292299 73.74999903 21.04882812 75.8125 C21.03778796 80.87502817 21.02051767 85.93750173 21 91 C21.99 91.495 21.99 91.495 23 92 C22.52240234 93.28003906 22.52240234 93.28003906 22.03515625 94.5859375 C20.98810717 98.03922389 20.63529031 101.03110795 20.4375 104.625 C20.23255672 108.21359866 20.01969149 111.54484702 19 115 C18.34 115 17.68 115 17 115 C16.67 114.34 16.34 113.68 16 113 C15.34 113.99 14.68 114.98 14 116 C13.01 115.505 13.01 115.505 12 115 C12.26844727 114.35240723 12.53689453 113.70481445 12.81347656 113.03759766 C15.63536314 105.8370539 16.98715057 99.05138371 17.75 91.375 C17.87068848 90.21218506 17.99137695 89.04937012 18.11572266 87.85131836 C18.88905629 79.75756703 19.30816931 71.69232933 19.375 63.5625 C19.38885742 62.57620605 19.40271484 61.58991211 19.41699219 60.57373047 C19.37655694 54.2924335 18.38946734 48.74237367 16.64916992 42.70678711 C15.84677342 39.36110451 15.83789181 36.34854169 16.08984375 32.9375 C16.12990418 30.9360796 16.12990418 30.9360796 15.04296875 29.11328125 C13.7176187 26.42783414 13.58160859 24.16802024 13.375 21.1875 C13.30152344 20.13433594 13.22804687 19.08117187 13.15234375 17.99609375 C12.98224938 14.65090447 12.92391081 11.34792416 13 8 C10.69 8 8.38 8 6 8 C6 7.01 6 6.02 6 5 C5.113125 5.350625 4.22625 5.70125 3.3125 6.0625 C0 7 0 7 -2.4375 6.5 C-5.99982829 5.80491155 -8.58166166 6.92385645 -12 8 C-12.99 8 -13.98 8 -15 8 C-17.15028304 8.94978897 -17.15028304 8.94978897 -19 10 C-19.185625 9.360625 -19.37125 8.72125 -19.5625 8.0625 C-20.036875 7.381875 -20.51125 6.70125 -21 6 C-23.32156597 5.59270772 -25.6568787 5.25561323 -28 5 C-28.33 4.34 -28.66 3.68 -29 3 C-27.3603125 3.061875 -27.3603125 3.061875 -25.6875 3.125 C-21.91107771 3.32074666 -21.91107771 3.32074666 -19 1 C-16.00390625 0.83984375 -16.00390625 0.83984375 -12.5625 0.9375 C-8.20420969 1.05153945 -4.21787093 0 0 0 Z " fill="#666666" transform="translate(191,40)"/>
<path d="M0 0 C0.99 0.33 1.98 0.66 3 1 C3.02497729 4.9652407 3.0429894 8.93045005 3.05493164 12.89575195 C3.06235104 14.89731458 3.07506659 16.89885533 3.08789062 18.90039062 C3.09272461 20.81948242 3.09272461 20.81948242 3.09765625 22.77734375 C3.10551147 24.52905884 3.10551147 24.52905884 3.11352539 26.31616211 C2.98279307 30.55835578 2.46869432 34.78175111 2 39 C-5.59 39 -13.18 39 -21 39 C-17.71588795 35.05906555 -14.5862139 31.5862139 -11 28 C-4.23004123 20.40540971 -1.86122018 9.81370641 0 0 Z " fill="#101010" transform="translate(196,229)"/>
<path d="M0 0 C0.66 0.66 1.32 1.32 2 2 C3.37965677 2.48611124 4.77908668 2.91736855 6.1875 3.3125 C10.91486086 4.81944189 14.21748662 6.78083967 18 10 C18 10.99 18 11.98 18 13 C14.78564247 12.64284916 13.91996136 11.9157488 11.625 9.5 C8.65123705 6.66784481 7.02086746 6.28052564 3 6 C3.33 6.99 3.66 7.98 4 9 C4.99 9 5.98 9 7 9 C7 10.65 7 12.3 7 14 C6.01 14.33 5.02 14.66 4 15 C4.33 16.65 4.66 18.3 5 20 C6.65 20 8.3 20 10 20 C10 20.66 10 21.32 10 22 C2.45487719 22.45960139 -4.63662682 22.62271953 -11 18 C-13.8160776 13.74863123 -13.92194585 8.91160534 -13 4 C-9.03677626 -0.05988774 -5.54645171 -0.6399752 0 0 Z " fill="#484848" transform="translate(179,99)"/>
<path d="M0 0 C3.3 0.33 6.6 0.66 10 1 C10 1.66 10 2.32 10 3 C10.55945313 2.82855469 11.11890625 2.65710938 11.6953125 2.48046875 C17.44448227 1.28191302 24.77673197 2.45206437 30 5 C31.75 7.375 31.75 7.375 33 10 C33.35030273 10.58555664 33.70060547 11.17111328 34.06152344 11.77441406 C35.29109316 14.69032395 35.25914919 17.07325587 35.265625 20.234375 C35.26949219 22.05582031 35.26949219 22.05582031 35.2734375 23.9140625 C35.26570313 25.17992188 35.25796875 26.44578125 35.25 27.75 C35.26160156 29.62558594 35.26160156 29.62558594 35.2734375 31.5390625 C35.25961057 38.07919964 34.8629559 43.73698871 33 50 C32.51061768 53.88963612 32.42398735 57.03997891 34.5 60.5 C34.995 60.995 35.49 61.49 36 62 C32.63820226 60.55922954 30.40843732 58.75249979 28 56 C28 55.34 28 54.68 28 54 C26.35 54 24.7 54 23 54 C22.25 52.4375 22.25 52.4375 22 50 C24.03388687 45.70623883 25.75903115 42.40321568 30 40 C30.66 40 31.32 40 32 40 C32.02712066 38.56260487 32.04645067 37.12506137 32.0625 35.6875 C32.07410156 34.88699219 32.08570313 34.08648437 32.09765625 33.26171875 C32.09657855 30.83138666 32.09657855 30.83138666 31 28 C30.77439324 25.60745424 30.59151405 23.21071877 30.4375 20.8125 C30.35371094 19.54019531 30.26992187 18.26789063 30.18359375 16.95703125 C30.12300781 15.98121094 30.06242187 15.00539063 30 14 C29.37222656 13.88527344 28.74445313 13.77054688 28.09765625 13.65234375 C25.04268843 12.70228858 24.52290984 10.71475233 23 8 C19.95516215 5.9701081 18.97945019 5.73196335 15.5 5.5 C12.02054981 5.26803665 11.04483785 5.0298919 8 3 C6.80375 2.835 5.6075 2.67 4.375 2.5 C2.704375 2.2525 2.704375 2.2525 1 2 C0.67 1.34 0.34 0.68 0 0 Z " fill="#3B3B3B" transform="translate(110,85)"/>
<path d="M0 0 C0.33 0.66 0.66 1.32 1 2 C3.31463414 2.60000791 3.31463414 2.60000791 6 3 C14.13968132 4.76232976 20.85711557 7.73084857 28 12 C28.33 10.68 28.66 9.36 29 8 C30.32 8.33 31.64 8.66 33 9 C33 9.66 33 10.32 33 11 C34.32 11 35.64 11 37 11 C36.75 13.375 36.75 13.375 36 16 C34 17.125 34 17.125 32 18 C31.505 19.485 31.505 19.485 31 21 C29.0625 21.8125 29.0625 21.8125 27 22 C26.34 21.34 25.68 20.68 25 20 C23.68 20 22.36 20 21 20 C20.67 20.66 20.34 21.32 20 22 C18.07421875 22.8515625 18.07421875 22.8515625 15.6875 23.625 C14.51767578 24.01558594 14.51767578 24.01558594 13.32421875 24.4140625 C11 25 11 25 7 25 C7 26.98 7 28.96 7 31 C4.525 30.01 4.525 30.01 2 29 C2 27.68 2 26.36 2 25 C7 23.33333333 12 21.66666667 17 20 C17 19.34 17 18.68 17 18 C11.06 18 5.12 18 -1 18 C-1 17.01 -1 16.02 -1 15 C7.31180083 12.22939972 17.72074683 13.67599911 26 16 C24.40406384 13.37842577 24.40406384 13.37842577 22 11 C18.83151973 10.58190799 18.83151973 10.58190799 16 11 C15.67 9.68 15.34 8.36 15 7 C11.37 6.34 7.74 5.68 4 5 C4 4.34 4 3.68 4 3 C2.02 3 0.04 3 -2 3 C-2 2.34 -2 1.68 -2 1 C-1.34 0.67 -0.68 0.34 0 0 Z " fill="#636363" transform="translate(149,163)"/>
<path d="M0 0 C1.4375 1.625 1.4375 1.625 1.4375 5.625 C2.4275 5.955 3.4175 6.285 4.4375 6.625 C3.798125 6.728125 3.15875 6.83125 2.5 6.9375 C1.819375 7.164375 1.13875 7.39125 0.4375 7.625 C0.1075 8.615 -0.2225 9.605 -0.5625 10.625 C-1.655625 10.439375 -2.74875 10.25375 -3.875 10.0625 C-7.49874133 9.3671932 -7.49874133 9.3671932 -10.5625 10.625 C-10.5625 11.285 -10.5625 11.945 -10.5625 12.625 C-12.8725 12.295 -15.1825 11.965 -17.5625 11.625 C-17 9.6875 -17 9.6875 -15.5625 7.625 C-11.9375 6.875 -11.9375 6.875 -8.5625 6.625 C-8.89237639 4.15092708 -9.14222087 2.9612233 -11.125 1.375 C-17.1798341 -0.48802588 -22.99665168 0.79665176 -29.01953125 2.11328125 C-32.84771465 2.8836223 -36.67743713 3.24902617 -40.5625 3.625 C-40.78424933 5.08135371 -40.98948698 6.54022956 -41.1875 8 C-41.30351562 8.81210938 -41.41953125 9.62421875 -41.5390625 10.4609375 C-41.54679688 11.17507812 -41.55453125 11.88921875 -41.5625 12.625 C-40.9025 13.285 -40.2425 13.945 -39.5625 14.625 C-39.4375 17.25 -39.4375 17.25 -39.5625 19.625 C-41.22916667 19.625 -42.89583333 19.625 -44.5625 19.625 C-45.89947449 13.34121987 -45.47899572 7.45799143 -42.5625 1.625 C-41.2425 1.625 -39.9225 1.625 -38.5625 1.625 C-38.2325 0.965 -37.9025 0.305 -37.5625 -0.375 C-36.675625 -0.313125 -35.78875 -0.25125 -34.875 -0.1875 C-31.15743626 -0.39792814 -29.62220359 -1.36203711 -26.5625 -3.375 C-18.88928593 -5.97107671 -7.05651193 -3.78642103 0 0 Z " fill="#6F6F6F" transform="translate(199.5625,86.375)"/>
<path d="M0 0 C5.445 0.495 5.445 0.495 11 1 C11.495 3.475 11.495 3.475 12 6 C12.495 7.0828125 12.495 7.0828125 13 8.1875 C14.48346208 12.35973711 14.67565753 16.60430602 15 21 C15.66 21 16.32 21 17 21 C17 22.65 17 24.3 17 26 C16.01 26.495 16.01 26.495 15 27 C15 25.35 15 23.7 15 22 C14.34 22 13.68 22 13 22 C12.82984375 21.01257813 12.6596875 20.02515625 12.484375 19.0078125 C12.24203125 17.72648437 11.9996875 16.44515625 11.75 15.125 C11.40195313 13.21074219 11.40195313 13.21074219 11.046875 11.2578125 C10.34008964 7.91662203 10.34008964 7.91662203 7.890625 6.5546875 C7.26671875 6.37164062 6.6428125 6.18859375 6 6 C6 6.66 6 7.32 6 8 C5.34 8 4.68 8 4 8 C4 7.34 4 6.68 4 6 C1.69 6.33 -0.62 6.66 -3 7 C-3 6.01 -3 5.02 -3 4 C-3.85207031 4.33 -4.70414063 4.66 -5.58203125 5 C-9.18475976 6.05405543 -11.95261193 6.13881117 -15.6875 6 C-20.66722102 5.72389182 -20.66722102 5.72389182 -25 8 C-26.90857096 8.0329064 -28.81844938 8.05710643 -30.7265625 8.00390625 C-34.51636469 7.99739456 -38.24650504 8.51343584 -42 9 C-42 7.68 -42 6.36 -42 5 C-42.99 4.67 -43.98 4.34 -45 4 C-45 3.67 -45 3.34 -45 3 C-44.154375 3.02320313 -43.30875 3.04640625 -42.4375 3.0703125 C-35.12288422 3.30496833 -35.12288422 3.30496833 -28 1.9375 C-23.36614855 0.51776679 -18.89698775 1.26245298 -14.1484375 1.80859375 C-10.90981561 2.00548267 -8.1791816 1.58046855 -5 1 C-2.125 1.4375 -2.125 1.4375 0 2 C0 1.34 0 0.68 0 0 Z " fill="#3F3F3F" transform="translate(194,36)"/>
<path d="M0 0 C1.31157516 2.62315032 0.89649988 4.23033436 0.5625 7.125 C0.46066406 8.03507813 0.35882813 8.94515625 0.25390625 9.8828125 C0.12822266 10.93082031 0.12822266 10.93082031 0 12 C-0.495 10.515 -0.495 10.515 -1 9 C-1.42667969 9.37769531 -1.85335937 9.75539062 -2.29296875 10.14453125 C-3.64700027 11.33663735 -5.00559511 12.52356833 -6.3671875 13.70703125 C-7.78493251 14.94177356 -9.20097177 16.17855334 -10.60644531 17.42724609 C-12.33363025 18.96104537 -14.07223586 20.48106924 -15.8125 22 C-16.37541748 22.5050708 -16.93833496 23.0101416 -17.51831055 23.53051758 C-19.14453125 24.9375 -19.14453125 24.9375 -22 27 C-22.99 26.67 -23.98 26.34 -25 26 C-22.525 23.525 -22.525 23.525 -20 21 C-20.495 20.01 -20.495 20.01 -21 19 C-21.495 18.01 -21.495 18.01 -22 17 C-22.825 17.495 -23.65 17.99 -24.5 18.5 C-29.62462633 20.69626843 -34.62412142 20.79195953 -40 19 C-40 18.34 -40 17.68 -40 17 C-41.65 16.67 -43.3 16.34 -45 16 C-45 15.01 -45 14.02 -45 13 C-46.92309422 13.03955898 -46.92309422 13.03955898 -49 14 C-50.78379415 16.98352894 -50.78379415 16.98352894 -52 20 C-54.31 19.67 -56.62 19.34 -59 19 C-59 18.34 -59 17.68 -59 17 C-60.32 17 -61.64 17 -63 17 C-63.33 15.35 -63.66 13.7 -64 12 C-63.67 12.66 -63.34 13.32 -63 14 C-60.47266765 14.65555119 -60.47266765 14.65555119 -58 15 C-58 15.66 -58 16.32 -58 17 C-56.35 17 -54.7 17 -53 17 C-52.67 15.02 -52.34 13.04 -52 11 C-50.72125 11.103125 -49.4425 11.20625 -48.125 11.3125 C-47.04605469 11.39951172 -47.04605469 11.39951172 -45.9453125 11.48828125 C-44 12 -44 12 -42 15 C-39.01840481 15.54977211 -39.01840481 15.54977211 -35.625 15.625 C-28.44279438 15.96546573 -28.44279438 15.96546573 -25 17 C-25 16.34 -25 15.68 -25 15 C-23.35 14.67 -21.7 14.34 -20 14 C-19.505 15.485 -19.505 15.485 -19 17 C-12.68441149 13.07512842 -12.68441149 13.07512842 -7.125 8.1875 C-5 6 -5 6 -2 5 C-0.78130071 2.49552484 -0.78130071 2.49552484 0 0 Z " fill="#4A4A4A" transform="translate(196,198)"/>
<path d="M0 0 C0.99 0 1.98 0 3 0 C4 3 5 6 6 9 C12.30778173 13.34502779 19.56984023 13.74855635 27 14 C25.35 13.34 23.7 12.68 22 12 C22.33 11.01 22.66 10.02 23 9 C23.66 9.33 24.32 9.66 25 10 C24.67 9.01 24.34 8.02 24 7 C24.98742187 6.90203125 25.97484375 6.8040625 26.9921875 6.703125 C28.91417969 6.47882813 28.91417969 6.47882813 30.875 6.25 C32.15117187 6.11078125 33.42734375 5.9715625 34.7421875 5.828125 C38.08900123 5.35599986 38.08900123 5.35599986 39.4453125 2.921875 C39.62835938 2.28765625 39.81140625 1.6534375 40 1 C40.79953138 4.28696233 41.09658936 5.71023192 40 9 C38.35666496 10.03789581 36.68756133 11.03567924 35 12 C34.525625 12.515625 34.05125 13.03125 33.5625 13.5625 C31.30953527 15.63522755 28.91504625 16.16712964 26 17 C24.9171875 17.3403125 24.9171875 17.3403125 23.8125 17.6875 C22 18 22 18 19 17 C18.01 17.66 17.02 18.32 16 19 C12.8125 18.125 12.8125 18.125 10 17 C10 16.34 10 15.68 10 15 C9.34 15 8.68 15 8 15 C8 14.34 8 13.68 8 13 C7.21625 12.814375 6.4325 12.62875 5.625 12.4375 C3 11 3 11 1.625 7.5625 C1 4 1 4 2 1 C1.34 0.67 0.68 0.34 0 0 Z " fill="#626262" transform="translate(162,107)"/>
<path d="M0 0 C0.33 0.99 0.66 1.98 1 3 C-5.42300002 5.40862501 -11.76754174 6.81848326 -18.50195312 7.99731445 C-21.42815594 8.51010676 -24.17592451 9.0586415 -27 10 C-27.66 9.67 -28.32 9.34 -29 9 C-29.125 5.625 -29.125 5.625 -29 2 C-26.66534264 -0.33465736 -25.29775011 -0.36028363 -22.11328125 -0.703125 C-19.94630159 -0.96596525 -19.94630159 -0.96596525 -17.66796875 -1.609375 C-11.29788851 -3.25456108 -5.94337051 -3.13377718 0 0 Z " fill="#414141" transform="translate(188,89)"/>
<path d="M0 0 C0.33 0 0.66 0 1 0 C1 8.91 1 17.82 1 27 C-6.92 27 -14.84 27 -23 27 C-21.26774726 25.84516484 -19.50968891 24.72409613 -17.6953125 23.703125 C-9.34338058 18.98136409 -4.67026948 13.93710618 -1 5 C-0.23245168 2.18551086 -0.23245168 2.18551086 0 0 Z " fill="#000000" transform="translate(272,245)"/>
<path d="M0 0 C7.92 0 15.84 0 24 0 C22.26774726 1.15483516 20.50968891 2.27590387 18.6953125 3.296875 C10.34338058 8.01863591 5.67026948 13.06289382 2 22 C1.23245168 24.81448914 1.23245168 24.81448914 1 27 C0.67 27 0.34 27 0 27 C0 18.09 0 9.18 0 0 Z " fill="#000000" transform="translate(0,0)"/>
<path d="M0 0 C1.04500458 2.09000916 2.08084058 4.18706134 3.0078125 6.33203125 C6.86748553 14.90158502 11.75403649 19.88715838 20.5 23.4375 C21.99401668 23.975256 23.49209545 24.5025151 25 25 C25 25.33 25 25.66 25 26 C16.75 26 8.5 26 0 26 C0 17.42 0 8.84 0 0 Z " fill="#000000" transform="translate(0,246)"/>
<path d="M0 0 C0.66 0.99 1.32 1.98 2 3 C-1.13498292 4.85776765 -3.37471432 5.20140476 -7 5 C-7.33 5.99 -7.66 6.98 -8 8 C-8.804375 8.268125 -9.60875 8.53625 -10.4375 8.8125 C-13.3310544 9.78678788 -13.3310544 9.78678788 -14.125 13.0625 C-14.41375 14.031875 -14.7025 15.00125 -15 16 C-15.99 16.33 -16.98 16.66 -18 17 C-18 17.66 -18 18.32 -18 19 C-16.02 19 -14.04 19 -12 19 C-12 19.33 -12 19.66 -12 20 C-13.72880982 20.05449838 -15.45812712 20.09301688 -17.1875 20.125 C-18.15042969 20.14820313 -19.11335937 20.17140625 -20.10546875 20.1953125 C-23.12812778 19.9913544 -25.26769985 19.26874632 -28 18 C-28.3125 15.6875 -28.3125 15.6875 -28 13 C-24.35343718 9.9059467 -20.66577113 9.45742854 -16 9 C-15.67 6.69 -15.34 4.38 -15 2 C-9.78349732 0.26116577 -5.51165965 -0.4670898 0 0 Z " fill="#4B4B4B" transform="translate(165,147)"/>
<path d="M0 0 C8.25 0 16.5 0 25 0 C25 8.58 25 17.16 25 26 C23.95499542 23.90999084 22.91915942 21.81293866 21.9921875 19.66796875 C18.13251447 11.09841498 13.24596351 6.11284162 4.5 2.5625 C3.00598332 2.024744 1.50790455 1.4974849 0 1 C0 0.67 0 0.34 0 0 Z " fill="#000000" transform="translate(248,0)"/>
<path d="M0 0 C0.33 0.66 0.66 1.32 1 2 C2.98 1.67 4.96 1.34 7 1 C7.33 1.66 7.66 2.32 8 3 C8.99 2.67 9.98 2.34 11 2 C11 2.66 11 3.32 11 4 C12.65 4 14.3 4 16 4 C16.33 3.01 16.66 2.02 17 1 C17.33 1.99 17.66 2.98 18 4 C21.51190809 5.22969878 21.51190809 5.22969878 25 6 C25.33 7.98 25.66 9.96 26 12 C26.66 12 27.32 12 28 12 C28.33 13.32 28.66 14.64 29 16 C28.34 16 27.68 16 27 16 C27 15.01 27 14.02 27 13 C25.68 13 24.36 13 23 13 C23 12.34 23 11.68 23 11 C21.68 11 20.36 11 19 11 C18.67 11.99 18.34 12.98 18 14 C12.86787999 13.09433176 8.58032009 10.1045828 4.09375 7.59375 C1.62840239 6.32372244 -0.30071968 5.47634359 -3 5 C-3 4.34 -3 3.68 -3 3 C-2.34 3 -1.68 3 -1 3 C-0.67 2.01 -0.34 1.02 0 0 Z " fill="#8E8E8E" transform="translate(159,161)"/>
<path d="M0 0 C0.33 0 0.66 0 1 0 C1.28875 1.03125 1.5775 2.0625 1.875 3.125 C2.5484715 5.52817889 3.29776957 7.78360413 4.1875 10.125 C5.06437744 13.22779708 4.89929962 14.9423813 4 18 C3.34 18 2.68 18 2 18 C1.91363281 18.72703125 1.82726562 19.4540625 1.73828125 20.203125 C0.06906807 32.14795327 -3.79360086 42.05237771 -12 51 C-12.56847656 51.62261719 -13.13695312 52.24523437 -13.72265625 52.88671875 C-16.86665527 55.95910048 -18.96547948 57.35138017 -23.4375 57.375 C-25.2009375 57.189375 -25.2009375 57.189375 -27 57 C-24.22406868 54.01844414 -21.50194384 52.04991835 -18 50 C-11.35897417 45.14071281 -7.7532407 39.16527769 -4 32 C-3.20335937 30.78763672 -3.20335937 30.78763672 -2.390625 29.55078125 C-0.22898196 24.03130505 -0.42394334 18.50284022 -0.3125 12.625 C-0.27833984 11.41199219 -0.24417969 10.19898438 -0.20898438 8.94921875 C-0.12677625 5.96623819 -0.05753474 2.98354158 0 0 Z " fill="#696969" transform="translate(194,211)"/>
<path d="M0 0 C0.66 0.66 1.32 1.32 2 2 C3.37965677 2.48611124 4.77908668 2.91736855 6.1875 3.3125 C10.91486086 4.81944189 14.21748662 6.78083967 18 10 C18 10.99 18 11.98 18 13 C14.78564247 12.64284916 13.91996136 11.9157488 11.625 9.5 C8.65123705 6.66784481 7.02086746 6.28052564 3 6 C3.33 6.99 3.66 7.98 4 9 C4.99 9 5.98 9 7 9 C6.67 9.99 6.34 10.98 6 12 C2.37 12 -1.26 12 -5 12 C-5.33 10.68 -5.66 9.36 -6 8 C-6.99 8.33 -7.98 8.66 -9 9 C-9.66 8.67 -10.32 8.34 -11 8 C-11 7.34 -11 6.68 -11 6 C-11.66 6 -12.32 6 -13 6 C-13 5.34 -13 4.68 -13 4 C-8.63974749 0.38418085 -5.64151199 -0.65094369 0 0 Z " fill="#2E2E2E" transform="translate(179,99)"/>
<path d="M0 0 C0.70125 0.53625 1.4025 1.0725 2.125 1.625 C2.125 2.285 2.125 2.945 2.125 3.625 C2.785 3.625 3.445 3.625 4.125 3.625 C5.49123674 6.35747348 5.253426 8.60698902 5.125 11.625 C3.24025997 13.50974003 0.09753598 13.31832 -2.4375 13.6875 C-4.23380859 13.95240234 -4.23380859 13.95240234 -6.06640625 14.22265625 C-6.99324219 14.35542969 -7.92007813 14.48820312 -8.875 14.625 C-8.875 15.285 -8.875 15.945 -8.875 16.625 C-10.195 16.295 -11.515 15.965 -12.875 15.625 C-12.875 14.965 -12.875 14.305 -12.875 13.625 C-12.215 13.295 -11.555 12.965 -10.875 12.625 C-10.21944881 10.09766765 -10.21944881 10.09766765 -9.875 7.625 C-11.195 7.955 -12.515 8.285 -13.875 8.625 C-14.205 6.975 -14.535 5.325 -14.875 3.625 C-9.63400345 4.03605855 -6.63460806 4.86539194 -2.875 8.625 C-2.875 9.285 -2.875 9.945 -2.875 10.625 C-1.555 10.955 -0.235 11.285 1.125 11.625 C-0.12308132 7.86411494 -2.23635261 6.57926239 -5.671875 4.78515625 C-6.27515625 4.48480469 -6.8784375 4.18445313 -7.5 3.875 C-8.11101562 3.55917969 -8.72203125 3.24335937 -9.3515625 2.91796875 C-10.85405739 2.14324482 -12.36385018 1.38270329 -13.875 0.625 C-13.875 0.295 -13.875 -0.035 -13.875 -0.375 C-8.89185341 -1.54750508 -4.73161297 -2.26294533 0 0 Z " fill="#575757" transform="translate(195.875,100.375)"/>
<path d="M0 0 C0.680625 -0.01417969 1.36125 -0.02835938 2.0625 -0.04296875 C4 0.1875 4 0.1875 7 2.1875 C4.36 2.1875 1.72 2.1875 -1 2.1875 C-1 3.1775 -1 4.1675 -1 5.1875 C0.0725 5.455625 1.145 5.72375 2.25 6 C6 7.1875 6 7.1875 8 8.875 C10.06347897 10.47558504 10.06347897 10.47558504 13.3125 10.3125 C18.23636908 8.81030265 20.70621242 6.02190925 24 2.1875 C24.495 3.1775 24.495 3.1775 25 4.1875 C24.67 4.8475 24.34 5.5075 24 6.1875 C24.66 6.5175 25.32 6.8475 26 7.1875 C24.37660195 8.89634005 22.70680947 10.56196717 21 12.1875 C20.34 12.1875 19.68 12.1875 19 12.1875 C19 12.8475 19 13.5075 19 14.1875 C16.20677782 14.10077254 13.41687472 13.99394643 10.625 13.875 C9.8309375 13.85244141 9.036875 13.82988281 8.21875 13.80664062 C6.13784419 13.70964925 4.06558668 13.45755175 2 13.1875 C1.34 12.1975 0.68 11.2075 0 10.1875 C-1.95385067 9.39761855 -1.95385067 9.39761855 -4.125 9 C-5.40375 8.731875 -6.6825 8.46375 -8 8.1875 C-7.67 5.8775 -7.34 3.5675 -7 1.1875 C-4.35559361 0.3060312 -2.71939248 0.02575182 0 0 Z " fill="#6C6C6C" transform="translate(152,200.8125)"/>
<path d="M0 0 C1.67542976 0.28604898 3.34385343 0.61781233 5 1 C5.33 2.32 5.66 3.64 6 5 C4.02 5.99 4.02 5.99 2 7 C2.33 10.3 2.66 13.6 3 17 C3.66 15.02 4.32 13.04 5 11 C5.33 11 5.66 11 6 11 C6.21344915 18.11497176 5.90752073 24.15536678 4 31 C3.7203244 33.37149586 3.50974301 35.73518781 3.34375 38.1171875 C3 40 3 40 1 42 C-0.31747324 42.69748583 -1.64914193 43.36959957 -3 44 C-2.42655063 41.13275314 -2.1385485 40.1385485 0 38 C1.74294118 29.10342196 0.7946712 19.94922025 0 11 C-0.928125 11.928125 -0.928125 11.928125 -1.875 12.875 C-3.25 14.25 -4.625 15.625 -6 17 C-5.45388522 11.81190963 -3.84540159 3.84540159 0 0 Z M-4 44 C-3.67 44.99 -3.34 45.98 -3 47 C-3.66 47 -4.32 47 -5 47 C-4.67 46.01 -4.34 45.02 -4 44 Z " fill="#6A6A6A" transform="translate(222,106)"/>
<path d="M0 0 C1.94873497 1.82511279 2.91595641 3.36479995 3.26815796 6.0267334 C3.3472857 8.62137624 3.33665547 11.20135836 3.29296875 13.796875 C3.28872391 14.74564514 3.28447906 15.69441528 3.28010559 16.67193604 C3.26333082 19.69824766 3.22568056 22.7238901 3.1875 25.75 C3.17245162 27.80337579 3.15876348 29.85676203 3.14648438 31.91015625 C3.11343117 36.94036148 3.06165683 41.97006733 3 47 C3.66 47.33 4.32 47.66 5 48 C4.68160156 48.85335937 4.36320313 49.70671875 4.03515625 50.5859375 C2.98810717 54.03922389 2.63529031 57.03110795 2.4375 60.625 C2.23255672 64.21359866 2.01969149 67.54484702 1 71 C0.34 71 -0.32 71 -1 71 C-1.33 70.34 -1.66 69.68 -2 69 C-2.66 69.99 -3.32 70.98 -4 72 C-4.66 71.67 -5.32 71.34 -6 71 C-5.73155273 70.35240723 -5.46310547 69.70481445 -5.18652344 69.03759766 C-2.3644855 61.83666767 -1.01421015 55.05147969 -0.25 47.375 C-0.12786133 46.21508545 -0.00572266 45.0551709 0.12011719 43.86010742 C1.5221664 29.35753812 2.1265836 14.4573385 0 0 Z " fill="#666666" transform="translate(209,84)"/>
<path d="M0 0 C-2.38179263 3.74281699 -4.74475735 6.97727468 -8 10 C-7.01 10.33 -6.02 10.66 -5 11 C-6.65614657 11.38218767 -8.32457024 11.71395102 -10 12 C-10.33 11.67 -10.66 11.34 -11 11 C-11.33 11.66 -11.66 12.32 -12 13 C-12.66 13 -13.32 13 -14 13 C-14 13.66 -14 14.32 -14 15 C-12.35 15.33 -10.7 15.66 -9 16 C-11 17 -11 17 -13.1640625 16.44140625 C-13.97617188 16.15136719 -14.78828125 15.86132812 -15.625 15.5625 C-16.44226563 15.27503906 -17.25953125 14.98757812 -18.1015625 14.69140625 C-18.72804687 14.46324219 -19.35453125 14.23507813 -20 14 C-19.25 6.25 -19.25 6.25 -17 4 C-16.319375 3.835 -15.63875 3.67 -14.9375 3.5 C-14.298125 3.335 -13.65875 3.17 -13 3 C-12.67 2.34 -12.34 1.68 -12 1 C-9.78515625 0.33203125 -9.78515625 0.33203125 -7.0625 -0.1875 C-6.16660156 -0.36667969 -5.27070313 -0.54585937 -4.34765625 -0.73046875 C-2 -1 -2 -1 0 0 Z " fill="#7C7C7C" transform="translate(170,151)"/>
<path d="M0 0 C11.23981068 -0.39284775 11.23981068 -0.39284775 15 2 C16.02611949 3.65071396 17.02308143 5.31970006 18 7 C19.91128794 8.81276794 21.91626028 10.37931355 24 12 C21 12 21 12 18.2734375 10.57421875 C14.64327598 8.82844895 11.61119503 8.30137297 7.625 7.8125 C6.37976563 7.65394531 5.13453125 7.49539062 3.8515625 7.33203125 C2.91054687 7.22246094 1.96953125 7.11289063 1 7 C1 6.34 1 5.68 1 5 C0.01 4.67 -0.98 4.34 -2 4 C-1.34 2.68 -0.68 1.36 0 0 Z " fill="#2C2C2C" transform="translate(103,95)"/>
<path d="M0 0 C0.66 0 1.32 0 2 0 C4.97984506 18.02683127 4.97984506 18.02683127 3 27 C2.34 27.33 1.68 27.66 1 28 C1 27.34 1 26.68 1 26 C0.01 26 -0.98 26 -2 26 C-2.33 27.32 -2.66 28.64 -3 30 C-3.66 30 -4.32 30 -5 30 C-4.566875 28.9790625 -4.566875 28.9790625 -4.125 27.9375 C-1.49166958 21.06158168 -0.73572118 15.29703174 -1 8 C-1.99 8 -2.98 8 -4 8 C-2.25 2.25 -2.25 2.25 0 0 Z " fill="#7A7A7A" transform="translate(220,117)"/>
<path d="M0 0 C0.33 0 0.66 0 1 0 C0.98081009 0.62782883 0.96162018 1.25565765 0.94184875 1.9025116 C0.7451092 8.43954822 0.57021033 14.97691092 0.40795898 21.51489258 C0.34454839 23.95449769 0.27557812 26.3939649 0.20092773 28.83325195 C0.09456269 32.34044283 0.00823129 35.84764424 -0.07421875 39.35546875 C-0.11157639 40.44522507 -0.14893402 41.53498138 -0.18742371 42.65776062 C-0.37414715 49.81860352 -0.37414715 49.81860352 3 56 C3.33 56.99 3.66 57.98 4 59 C1.06829636 58.6858889 -0.04249331 57.9610478 -2.25 55.9375 C-4.46986139 52.2113041 -4.59599885 49.17892218 -4 45 C-3.66226563 43.88109375 -3.32453125 42.7621875 -2.9765625 41.609375 C-1.10918925 34.39026076 -1.92249764 26.74192435 -2.078125 19.35351562 C-2.1661583 12.53460303 -1.81809917 6.58350755 0 0 Z " fill="#5A5A5A" transform="translate(146,90)"/>
<path d="M0 0 C2.625 1.4375 2.625 1.4375 5 3 C4.125 7.75 4.125 7.75 3 10 C4.32 10 5.64 10 7 10 C7 10.66 7 11.32 7 12 C7.66 12 8.32 12 9 12 C7.84826645 14.46800047 6.95216435 16.04783565 5 18 C2.94140625 18.4140625 2.94140625 18.4140625 0.5625 18.625 C-0.21996094 18.69976562 -1.00242188 18.77453125 -1.80859375 18.8515625 C-3.53581186 18.96855767 -5.26882402 19 -7 19 C-7 18.34 -7 17.68 -7 17 C-5.02 16.34 -3.04 15.68 -1 15 C-0.67 13.02 -0.34 11.04 0 9 C-1.65 8.67 -3.3 8.34 -5 8 C-4.67 7.34 -4.34 6.68 -4 6 C-1.69 6 0.62 6 3 6 C3 5.34 3 4.68 3 4 C1.68 4 0.36 4 -1 4 C-1.33 3.01 -1.66 2.02 -2 1 C-1.34 0.67 -0.68 0.34 0 0 Z " fill="#393939" transform="translate(142,181)"/>
<path d="M0 0 C10.23 0 20.46 0 31 0 C31 0.33 31 0.66 31 1 C26.05 1.33 21.1 1.66 16 2 C16 2.99 16 3.98 16 5 C20.62 5 25.24 5 30 5 C30 5.33 30 5.66 30 6 C26.12514365 6.08751413 22.25054357 6.14056435 18.375 6.1875 C17.28058594 6.21263672 16.18617188 6.23777344 15.05859375 6.26367188 C9.20318317 6.31690288 4.93675502 6.29983099 0 3 C0 2.01 0 1.02 0 0 Z " fill="#5C5C5C" transform="translate(132,176)"/>
<path d="M0 0 C1.17683393 3.427825 0.80839977 5.46448981 -0.3125 8.875 C-0.745625 10.19757813 -0.745625 10.19757813 -1.1875 11.546875 C-1.455625 12.35640625 -1.72375 13.1659375 -2 14 C-2.268125 15.03125 -2.53625 16.0625 -2.8125 17.125 C-4.85277718 22.06461843 -8.2345531 26.2345531 -12 30 C-15.625 30.125 -15.625 30.125 -19 30 C-15.8334011 26.10960707 -12.55000522 22.55000522 -9 19 C-5.53561314 15.15979208 -3.89499895 11.57680244 -2.25 6.6875 C-2.02957031 6.04232422 -1.80914062 5.39714844 -1.58203125 4.73242188 C-1.04557015 3.15802516 -0.52148643 1.57941996 0 0 Z " fill="#3D3D3D" transform="translate(194,238)"/>
<path d="M0 0 C1.98 0 3.96 0 6 0 C6 0.66 6 1.32 6 2 C6.99 2 7.98 2 9 2 C9.103125 2.639375 9.20625 3.27875 9.3125 3.9375 C9.6528125 4.9584375 9.6528125 4.9584375 10 6 C10.99 6.33 11.98 6.66 13 7 C13 7.66 13 8.32 13 9 C10.75113762 9.50509208 8.50086131 10.00389179 6.25 10.5 C4.99703125 10.7784375 3.7440625 11.056875 2.453125 11.34375 C-1 12 -1 12 -5 12 C-4.34 10.68 -3.68 9.36 -3 8 C-2.34 8 -1.68 8 -1 8 C-1 7.34 -1 6.68 -1 6 C0.5 4.375 0.5 4.375 2 3 C1.34 3 0.68 3 0 3 C0 2.01 0 1.02 0 0 Z " fill="#3A3A3A" transform="translate(113,105)"/>
<path d="M0 0 C0 0.33 0 0.66 0 1 C-16.70842825 4.25968109 -16.70842825 4.25968109 -25 5 C-25.22174933 6.45635371 -25.42698698 7.91522956 -25.625 9.375 C-25.74101562 10.18710938 -25.85703125 10.99921875 -25.9765625 11.8359375 C-25.98429688 12.55007812 -25.99203125 13.26421875 -26 14 C-25.34 14.66 -24.68 15.32 -24 16 C-23.875 18.625 -23.875 18.625 -24 21 C-25.66666667 21 -27.33333333 21 -29 21 C-30.33697449 14.71621987 -29.91649572 8.83299143 -27 3 C-25.68 3 -24.36 3 -23 3 C-22.67 2.34 -22.34 1.68 -22 1 C-19.375 0.5859375 -19.375 0.5859375 -16 0.375 C-14.83082031 0.30152344 -13.66164062 0.22804688 -12.45703125 0.15234375 C-8.29387621 -0.03111732 -4.16622519 -0.07061399 0 0 Z " fill="#626262" transform="translate(184,85)"/>
<path d="M0 0 C3.63 0.33 7.26 0.66 11 1 C11.33 2.65 11.66 4.3 12 6 C12.33 6.721875 12.66 7.44375 13 8.1875 C14.48346208 12.35973711 14.67565753 16.60430602 15 21 C15.66 21 16.32 21 17 21 C17 22.65 17 24.3 17 26 C16.34 26.33 15.68 26.66 15 27 C15 25.35 15 23.7 15 22 C14.34 22 13.68 22 13 22 C12.01 17.38 11.02 12.76 10 8 C8.35 7.67 6.7 7.34 5 7 C5 6.34 5 5.68 5 5 C4.05125 5.061875 3.1025 5.12375 2.125 5.1875 C1.09375 5.125625 0.0625 5.06375 -1 5 C-1.66 4.01 -2.32 3.02 -3 2 C-2.01 2 -1.02 2 0 2 C0 1.34 0 0.68 0 0 Z " fill="#3D3D3D" transform="translate(194,36)"/>
<path d="M0 0 C2.61079814 3.91619722 1.68378517 5.44143218 1 10 C1.29758419 12.3381615 1.63239269 14.67182036 2 17 C2 18.3959888 1.97884449 19.79212358 1.9375 21.1875 C1.99662334 24.79402363 2.31044065 26.01179896 4 29 C4.59167969 28.89300781 5.18335938 28.78601563 5.79296875 28.67578125 C12.32761578 27.68439108 12.32761578 27.68439108 16.0625 29.4375 C16.701875 29.953125 17.34125 30.46875 18 31 C15.10447146 32.44776427 12.77050202 31.92711665 9.5625 31.6875 C7.83193359 31.56955078 7.83193359 31.56955078 6.06640625 31.44921875 C3 31 3 31 0 29 C-1.00759045 25.59078041 -1.12829084 22.30837615 -1.1328125 18.76953125 C-1.13410156 17.80208984 -1.13539063 16.83464844 -1.13671875 15.83789062 C-1.13091797 14.34032227 -1.13091797 14.34032227 -1.125 12.8125 C-1.12886719 11.80251953 -1.13273438 10.79253906 -1.13671875 9.75195312 C-1.13542969 8.78837891 -1.13414062 7.82480469 -1.1328125 6.83203125 C-1.13168457 5.95264893 -1.13055664 5.0732666 -1.12939453 4.16723633 C-1 2 -1 2 0 0 Z " fill="#8C8C8C" transform="translate(150,115)"/>
<path d="M0 0 C0.99 0.33 1.98 0.66 3 1 C3.02497729 4.9652407 3.0429894 8.93045005 3.05493164 12.89575195 C3.06235104 14.89731458 3.07506659 16.89885533 3.08789062 18.90039062 C3.10499609 25.69125925 2.93798004 32.27165501 2 39 C0.68 39 -0.64 39 -2 39 C-1.855625 38.29875 -1.71125 37.5975 -1.5625 36.875 C-1.376875 35.92625 -1.19125 34.9775 -1 34 C-0.82597656 33.18144531 -0.65195313 32.36289062 -0.47265625 31.51953125 C0.18673557 26.60951447 0.14441673 21.76052949 0.125 16.8125 C0.12886719 15.81541016 0.13273438 14.81832031 0.13671875 13.79101562 C0.13542969 12.83517578 0.13414062 11.87933594 0.1328125 10.89453125 C0.13168457 10.02675049 0.13055664 9.15896973 0.12939453 8.26489258 C0.08950355 5.83250664 0.08950355 5.83250664 -1 3 C-0.67 2.01 -0.34 1.02 0 0 Z " fill="#373737" transform="translate(196,229)"/>
<path d="M0 0 C0.3403125 0.928125 0.3403125 0.928125 0.6875 1.875 C2.37929835 4.61410209 3.99244161 5.05024472 7 6 C5.125 10.75 5.125 10.75 4 13 C1.5234375 13.37890625 1.5234375 13.37890625 -1.625 13.5625 C-6.13494199 13.86388037 -10.53810891 14.29015369 -15 15 C-15 14.34 -15 13.68 -15 13 C-11.88964537 10.92643025 -11.09466178 10.80067213 -7.5625 10.6875 C-3.81505548 10.37012685 -3.24716627 10.24716627 -0.4375 7.4375 C0.036875 6.633125 0.51125 5.82875 1 5 C0.34 5 -0.32 5 -1 5 C-1.33 3.68 -1.66 2.36 -2 1 C-1.34 0.67 -0.68 0.34 0 0 Z " fill="#545454" transform="translate(150,188)"/>
<path d="M0 0 C1.27875 0.103125 2.5575 0.20625 3.875 0.3125 C4.95394531 0.39951172 4.95394531 0.39951172 6.0546875 0.48828125 C8 1 8 1 10 4 C14.84081049 6.12523387 19.78952358 6.56000421 25 7 C24.67 7.66 24.34 8.32 24 9 C15.42857143 9.14285714 15.42857143 9.14285714 12 8 C12 7.34 12 6.68 12 6 C9.525 5.505 9.525 5.505 7 5 C7 4.01 7 3.02 7 2 C5.07690578 2.03955898 5.07690578 2.03955898 3 3 C1.21620585 5.98352894 1.21620585 5.98352894 0 9 C-2.31 8.67 -4.62 8.34 -7 8 C-7 7.34 -7 6.68 -7 6 C-8.32 6 -9.64 6 -11 6 C-11.33 4.35 -11.66 2.7 -12 1 C-11.67 1.66 -11.34 2.32 -11 3 C-8.47266765 3.65555119 -8.47266765 3.65555119 -6 4 C-6 4.66 -6 5.32 -6 6 C-4.35 6 -2.7 6 -1 6 C-0.67 4.02 -0.34 2.04 0 0 Z " fill="#3F3F3F" transform="translate(144,209)"/>
<path d="M0 0 C0.495 0.99 0.495 0.99 1 2 C0.67 2.66 0.34 3.32 0 4 C0.66 4.33 1.32 4.66 2 5 C0.37660195 6.70884005 -1.29319053 8.37446717 -3 10 C-3.66 10 -4.32 10 -5 10 C-5 10.66 -5 11.32 -5 12 C-7.79322218 11.91327254 -10.58312528 11.80644643 -13.375 11.6875 C-14.1690625 11.66494141 -14.963125 11.64238281 -15.78125 11.61914062 C-17.86215581 11.52214925 -19.93441332 11.27005175 -22 11 C-22.66 10.01 -23.32 9.02 -24 8 C-25.95385067 7.21011855 -25.95385067 7.21011855 -28.125 6.8125 C-30.043125 6.4103125 -30.043125 6.4103125 -32 6 C-31.67 5.34 -31.34 4.68 -31 4 C-28.36 4.33 -25.72 4.66 -23 5 C-23 5.66 -23 6.32 -23 7 C-22.34 7 -21.68 7 -21 7 C-21 7.99 -21 8.98 -21 10 C-19.86111328 9.87431641 -19.86111328 9.87431641 -18.69921875 9.74609375 C-17.70535156 9.64425781 -16.71148437 9.54242188 -15.6875 9.4375 C-14.70136719 9.33308594 -13.71523437 9.22867188 -12.69921875 9.12109375 C-10 9 -10 9 -7 10 C-6.89816406 9.40703125 -6.79632813 8.8140625 -6.69140625 8.203125 C-5.88644348 5.63815889 -4.88433098 4.57256517 -2.9375 2.75 C-2.38964844 2.22921875 -1.84179688 1.7084375 -1.27734375 1.171875 C-0.85582031 0.78515625 -0.43429688 0.3984375 0 0 Z " fill="#5D5D5D" transform="translate(176,203)"/>
<path d="M0 0 C0.99 0 1.98 0 3 0 C4.4589153 8.41952325 3.79848675 14.80226987 -1 22 C-1.99 21.67 -2.98 21.34 -4 21 C-3.67 20.175 -3.34 19.35 -3 18.5 C-2.04543997 15.1590399 -1.95620526 12.48309198 -2.0625 9.03515625 C-1.96340096 5.8082439 -1.01722278 3.05166833 0 0 Z " fill="#626262" transform="translate(216,125)"/>
<path d="M0 0 C2 2 2 2 2.5 4.375 C2 7 2 7 -0.8125 9.125 C-2.3903125 10.053125 -2.3903125 10.053125 -4 11 C-4.556875 11.5775 -5.11375 12.155 -5.6875 12.75 C-7 14 -7 14 -10 14 C-10 12 -10 12 -8.5 10.375 C-8.005 9.92125 -7.51 9.4675 -7 9 C-9.31 9 -11.62 9 -14 9 C-14.33 8.01 -14.66 7.02 -15 6 C-8.07 5.01 -8.07 5.01 -1 4 C-0.67 2.68 -0.34 1.36 0 0 Z " fill="#6F6F6F" transform="translate(201,108)"/>
<path d="M0 0 C0 0.33 0 0.66 0 1 C-0.61746094 0.97679687 -1.23492187 0.95359375 -1.87109375 0.9296875 C-2.71800781 0.91164062 -3.56492188 0.89359375 -4.4375 0.875 C-5.67306641 0.84019531 -5.67306641 0.84019531 -6.93359375 0.8046875 C-9.51776716 0.96928453 -11.52223545 1.35709897 -14 2 C-20.14997819 3.44652518 -26.27897034 3.2154105 -32.5625 3.125 C-33.76197266 3.11597656 -34.96144531 3.10695313 -36.19726562 3.09765625 C-39.13172309 3.07427412 -42.06575234 3.0415028 -45 3 C-45.33 2.34 -45.66 1.68 -46 1 C-45.24904053 0.98018066 -44.49808105 0.96036133 -43.72436523 0.93994141 C-40.29508043 0.84420599 -36.86636458 0.73472367 -33.4375 0.625 C-32.25607422 0.5940625 -31.07464844 0.563125 -29.85742188 0.53125 C-1.11443348 -0.43490087 -1.11443348 -0.43490087 0 0 Z " fill="#2F2F2F" transform="translate(180,37)"/>
<path d="M0 0 C0.66 1.65 1.32 3.3 2 5 C1.01 4.34 0.02 3.68 -1 3 C-2.32 3 -3.64 3 -5 3 C-5.33 3.66 -5.66 4.32 -6 5 C-7.92578125 5.8515625 -7.92578125 5.8515625 -10.3125 6.625 C-11.09238281 6.88539063 -11.87226563 7.14578125 -12.67578125 7.4140625 C-15 8 -15 8 -19 8 C-19 9.98 -19 11.96 -19 14 C-21.475 13.01 -21.475 13.01 -24 12 C-24 10.68 -24 9.36 -24 8 C-23.45472656 7.84144531 -22.90945312 7.68289062 -22.34765625 7.51953125 C-18.01142495 6.17789387 -14.214672 4.64849412 -10.3125 2.3125 C-6.72162088 0.20837083 -4.24144953 -0.54377558 0 0 Z " fill="#707070" transform="translate(175,180)"/>
<path d="M0 0 C0 1.32 0 2.64 0 4 C0.66 4 1.32 4 2 4 C2.33 4.66 2.66 5.32 3 6 C3.99 6 4.98 6 6 6 C5.67 6.99 5.34 7.98 5 9 C1.37 9 -2.26 9 -6 9 C-6 7.02 -6 5.04 -6 3 C-6.66 2.67 -7.32 2.34 -8 2 C-4.77208445 -0.1519437 -3.71599191 -0.20086443 0 0 Z " fill="#111111" transform="translate(180,102)"/>
<path d="M0 0 C0.88945312 0.25265625 1.77890625 0.5053125 2.6953125 0.765625 C3.77425781 1.25289063 3.77425781 1.25289063 4.875 1.75 C5.205 2.74 5.535 3.73 5.875 4.75 C0.265 5.41 -5.345 6.07 -11.125 6.75 C-10.135 4.44 -9.145 2.13 -8.125 -0.25 C-4.64023541 -1.4115882 -3.45251629 -1.02669581 0 0 Z " fill="#2C2C2C" transform="translate(183.125,87.25)"/>
<path d="M0 0 C2.14082246 4.28164492 2.2351031 6.25783396 2.1953125 10.953125 C2.1924826 11.61334656 2.18965271 12.27356812 2.18673706 12.95379639 C2.17558415 15.05271897 2.15048946 17.15120742 2.125 19.25 C2.11496384 20.67707715 2.1058391 22.10416102 2.09765625 23.53125 C2.07566111 27.02097328 2.04116536 30.51044423 2 34 C1.01 34 0.02 34 -1 34 C-0.67 22.78 -0.34 11.56 0 0 Z " fill="#686868" transform="translate(199,234)"/>
<path d="M0 0 C1.31157516 2.62315032 0.89649988 4.23033436 0.5625 7.125 C0.46066406 8.03507813 0.35882813 8.94515625 0.25390625 9.8828125 C0.17011719 10.58148438 0.08632812 11.28015625 0 12 C-0.33 11.01 -0.66 10.02 -1 9 C-1.4846875 9.42410156 -1.969375 9.84820312 -2.46875 10.28515625 C-9.734375 16.64257812 -9.734375 16.64257812 -17 23 C-17.66 22.67 -18.32 22.34 -19 22 C-18.50628906 21.61328125 -18.01257813 21.2265625 -17.50390625 20.828125 C-16.86324219 20.30734375 -16.22257813 19.7865625 -15.5625 19.25 C-14.92441406 18.73953125 -14.28632813 18.2290625 -13.62890625 17.703125 C-11.77512291 15.76487671 -11.55302745 14.57055352 -11 12 C-8.76091458 9.45833547 -6.91431471 7.41797244 -3.8125 6 C-1.22068954 4.57003561 -0.86490367 2.73886163 0 0 Z " fill="#595959" transform="translate(196,198)"/>
<path d="M0 0 C0 4.53937866 -2.54822075 6.44163442 -5.54296875 9.65625 C-8.74568027 12.76368635 -10.87194838 14.38308062 -15.4375 14.375 C-16.613125 14.25125 -17.78875 14.1275 -19 14 C-16.21624989 11.01004618 -13.49737116 9.07402243 -10 7 C-8.21891208 5.78574006 -6.44792224 4.55653172 -4.6875 3.3125 C-3.80449219 2.68988281 -2.92148438 2.06726563 -2.01171875 1.42578125 C-1.34785156 0.95527344 -0.68398437 0.48476562 0 0 Z " fill="#5B5B5B" transform="translate(186,254)"/>
<path d="M0 0 C2.49336211 3.74004317 2.25481228 6.62561609 2.1953125 10.94921875 C2.1924826 11.72183548 2.18965271 12.49445221 2.18673706 13.29048157 C2.17554878 15.75631243 2.15044703 18.22177906 2.125 20.6875 C2.11496843 22.36002079 2.10584289 24.03254728 2.09765625 25.70507812 C2.07561392 29.80352559 2.04109363 33.90170106 2 38 C2.33 35.69 2.66 33.38 3 31 C3.33 31 3.66 31 4 31 C4 34.3 4 37.6 4 41 C3.01 41.495 3.01 41.495 2 42 C1.34 41.67 0.68 41.34 0 41 C0 27.47 0 13.94 0 0 Z " fill="#404040" transform="translate(212,90)"/>
<path d="M0 0 C6.36734694 0.36734694 6.36734694 0.36734694 9.375 3.375 C11 6 11 6 12 9 C10.02 9.66 8.04 10.32 6 11 C6 11.66 6 12.32 6 13 C4.68 12.67 3.36 12.34 2 12 C2 11.34 2 10.68 2 10 C2.66 9.67 3.32 9.34 4 9 C4.65555119 6.47266765 4.65555119 6.47266765 5 4 C3.68 4.33 2.36 4.66 1 5 C0.67 3.35 0.34 1.7 0 0 Z " fill="#676767" transform="translate(181,104)"/>
<path d="M0 0 C0.99 0 1.98 0 3 0 C3 2.31 3 4.62 3 7 C1.4221875 7.433125 1.4221875 7.433125 -0.1875 7.875 C-3.22818711 8.77225193 -6.08712344 9.76423419 -9 11 C-9 13.31 -9 15.62 -9 18 C-10.32 17.67 -11.64 17.34 -13 17 C-12.8049455 12.80632815 -12.26395274 11.27622961 -9.3125 8.1875 C-5.99070731 5.99386332 -3.92303606 5.28021686 0 5 C0 3.35 0 1.7 0 0 Z " fill="#323232" transform="translate(147,149)"/>
<path d="M0 0 C1.3484585 3.06467841 0.91740262 4.2434449 -0.1875 7.5 C-1.89382037 10.79496347 -2.99677049 12.85483607 -6 15 C-9.55615217 15.37043252 -12.59019864 15.04916965 -16 14 C-15.67 12.68 -15.34 11.36 -15 10 C-12.03 10.33 -9.06 10.66 -6 11 C-5.18697675 9.54195831 -4.37459869 8.08355685 -3.5625 6.625 C-3.11003906 5.81289062 -2.65757812 5.00078125 -2.19140625 4.1640625 C-1.4349464 2.79003378 -0.70145369 1.40290739 0 0 Z " fill="#646464" transform="translate(222,151)"/>
<path d="M0 0 C-0.33 0.66 -0.66 1.32 -1 2 C-1.66 2 -2.32 2 -3 2 C-3 2.99 -3 3.98 -3 5 C-3.66 5 -4.32 5 -5 5 C-5 5.99 -5 6.98 -5 8 C-6.11375 7.979375 -7.2275 7.95875 -8.375 7.9375 C-11.83215921 7.73619282 -11.83215921 7.73619282 -14 9 C-13.8125 6.625 -13.8125 6.625 -13 4 C-10.5 2.8125 -10.5 2.8125 -8 2 C-7.67 1.34 -7.34 0.68 -7 0 C-2.52459016 -1.26229508 -2.52459016 -1.26229508 0 0 Z " fill="#666666" transform="translate(165,152)"/>
<path d="M0 0 C0.99 0.495 0.99 0.495 2 1 C2.59765625 3.44140625 2.59765625 3.44140625 3.0625 6.5625 C3.29646484 8.08037109 3.29646484 8.08037109 3.53515625 9.62890625 C3.68855469 10.74136719 3.84195313 11.85382813 4 13 C4.18304688 14.20527344 4.36609375 15.41054687 4.5546875 16.65234375 C5.22451071 22.08839197 5.10698453 27.53182422 5.0625 33 C5.05798828 34.06089844 5.05347656 35.12179687 5.04882812 36.21484375 C5.03713843 38.80995598 5.02075276 41.40494709 5 44 C4.34 44 3.68 44 3 44 C2.98018066 43.13310547 2.96036133 42.26621094 2.93994141 41.37304688 C2.86132693 38.12249032 2.7746183 34.87227343 2.68261719 31.62207031 C2.64459687 30.22176265 2.60969966 28.82136626 2.578125 27.42089844 C2.40959707 20.03726858 2.12093694 13.11540134 0 6 C-0.125 2.5 -0.125 2.5 0 0 Z " fill="#818181" transform="translate(198,224)"/>
<path d="M0 0 C-3 2 -3 2 -6 3 C-6.7425 2.814375 -7.485 2.62875 -8.25 2.4375 C-11.90110583 1.85664226 -14.50835117 2.90077722 -18 4 C-18.99 4 -19.98 4 -21 4 C-23.15028304 4.94978897 -23.15028304 4.94978897 -25 6 C-25.66 4.68 -26.32 3.36 -27 2 C-22.40325165 -2.59674835 -6.28320886 -0.06492409 0 0 Z " fill="#777777" transform="translate(197,44)"/>
<path d="M0 0 C1.76923828 0.01353516 1.76923828 0.01353516 3.57421875 0.02734375 C4.47785156 0.03894531 5.38148438 0.05054688 6.3125 0.0625 C6.6425 1.0525 6.9725 2.0425 7.3125 3.0625 C3.75204823 4.24931726 0.87441663 4.15939832 -2.875 4.125 C-4.14730469 4.11597656 -5.41960937 4.10695312 -6.73046875 4.09765625 C-8.19419922 4.08025391 -8.19419922 4.08025391 -9.6875 4.0625 C-9.6875 3.0725 -9.6875 2.0825 -9.6875 1.0625 C-6.26517028 -0.07827657 -3.60076783 -0.03565117 0 0 Z " fill="#757575" transform="translate(157.6875,176.9375)"/>
<path d="M0 0 C0.33 0 0.66 0 1 0 C1 1.65 1 3.3 1 5 C1.66 5 2.32 5 3 5 C2.8863485 7.62594784 2.75960946 10.25011547 2.625 12.875 C2.5940625 13.62136719 2.563125 14.36773437 2.53125 15.13671875 C2.2265625 20.7734375 2.2265625 20.7734375 0 23 C-1.31747324 23.69748583 -2.64914193 24.36959957 -4 25 C-3.42655063 22.13275314 -3.1385485 21.1385485 -1 19 C-0.53272126 16.34586857 -0.53272126 16.34586857 -0.375 13.3125 C-0.30152344 12.24128906 -0.22804687 11.17007813 -0.15234375 10.06640625 C0.01501908 6.6976928 0.07661897 3.37123457 0 0 Z M-5 25 C-4.67 25.99 -4.34 26.98 -4 28 C-4.66 28 -5.32 28 -6 28 C-5.67 27.01 -5.34 26.02 -5 25 Z " fill="#696969" transform="translate(223,125)"/>
<path d="M0 0 C3.375 0.25 3.375 0.25 7 1 C8.90005208 3.78942171 9.2792274 6.22094256 9.4140625 9.546875 C9.45273438 10.39121094 9.49140625 11.23554687 9.53125 12.10546875 C9.5621875 12.97816406 9.593125 13.85085937 9.625 14.75 C9.66367188 15.63816406 9.70234375 16.52632812 9.7421875 17.44140625 C9.83620873 19.6273998 9.92186143 21.81339062 10 24 C7.57520264 20.36280395 7.61337423 18.14296518 7.375 13.8125 C7.30023438 12.54019531 7.22546875 11.26789063 7.1484375 9.95703125 C7.09945312 8.98121094 7.05046875 8.00539063 7 7 C6.37609375 6.89816406 5.7521875 6.79632813 5.109375 6.69140625 C3 6 3 6 1.25 2.9375 C0.8375 1.968125 0.425 0.99875 0 0 Z " fill="#313131" transform="translate(133,92)"/>
<path d="M0 0 C0.33 0 0.66 0 1 0 C1.4119421 13.15926142 1.43409481 27.20415952 -5 39 C-5.66 38.67 -6.32 38.34 -7 38 C-6.73155273 37.37053467 -6.46310547 36.74106934 -6.18652344 36.0925293 C-3.11854032 28.38571677 -2.00398135 21.03976711 -1.25 12.8125 C-1.12496094 11.57435547 -0.99992188 10.33621094 -0.87109375 9.06054688 C-0.56801101 6.04137646 -0.27791935 3.02157249 0 0 Z " fill="#797979" transform="translate(210,117)"/>
<path d="M0 0 C1.25 1.5625 1.25 1.5625 1.25 3.5625 C-4.68002267 3.94101209 -9.22239641 2.66825375 -14.75 0.5625 C-14.42 -0.0975 -14.09 -0.7575 -13.75 -1.4375 C-3.91014027 -3.21190094 -3.91014027 -3.21190094 0 0 Z " fill="#313131" transform="translate(173.75,175.4375)"/>
<path d="M0 0 C0.33 0 0.66 0 1 0 C1 4.29 1 8.58 1 13 C0.34 12.01 -0.32 11.02 -1 10 C-1.66 11.65 -2.32 13.3 -3 15 C-3.33 15 -3.66 15 -4 15 C-4.22151549 13.20991533 -4.42682213 11.41781838 -4.625 9.625 C-4.74101562 8.62726563 -4.85703125 7.62953125 -4.9765625 6.6015625 C-4.98429688 5.74304688 -4.99203125 4.88453125 -5 4 C-4.34 3.34 -3.68 2.68 -3 2 C-2.01 2 -1.02 2 0 2 C0 1.34 0 0.68 0 0 Z " fill="#3D3D3D" transform="translate(228,109)"/>
<path d="M0 0 C2.75 0.875 2.75 0.875 5 2 C4.34 3.32 3.68 4.64 3 6 C2.38125 5.79375 1.7625 5.5875 1.125 5.375 C0.42375 5.25125 -0.2775 5.1275 -1 5 C-1.66 5.66 -2.32 6.32 -3 7 C-3 6.34 -3 5.68 -3 5 C-3.92232422 5.05220703 -3.92232422 5.05220703 -4.86328125 5.10546875 C-5.67152344 5.13253906 -6.47976562 5.15960938 -7.3125 5.1875 C-8.51326172 5.23970703 -8.51326172 5.23970703 -9.73828125 5.29296875 C-12.47851584 4.93801608 -13.29171079 4.10633718 -15 2 C-14.25234375 2.02320313 -13.5046875 2.04640625 -12.734375 2.0703125 C-11.74953125 2.08835938 -10.7646875 2.10640625 -9.75 2.125 C-8.77546875 2.14820313 -7.8009375 2.17140625 -6.796875 2.1953125 C-3.94346723 1.99605218 -2.49012074 1.28799349 0 0 Z " fill="#252525" transform="translate(172,215)"/>
<path d="M0 0 C0.99 0.33 1.98 0.66 3 1 C3.33 2.98 3.66 4.96 4 7 C4.66 7 5.32 7 6 7 C6.33 8.32 6.66 9.64 7 11 C6.34 11 5.68 11 5 11 C5 10.01 5 9.02 5 8 C3.68 8 2.36 8 1 8 C1 7.34 1 6.68 1 6 C0.01 5.67 -0.98 5.34 -2 5 C-2.99 4.34 -3.98 3.68 -5 3 C-5.66 2.67 -6.32 2.34 -7 2 C-7 1.34 -7 0.68 -7 0 C-4.30224476 -1.34887762 -2.88231982 -0.70300484 0 0 Z " fill="#818181" transform="translate(181,166)"/>
<path d="M0 0 C1.64826111 2.96687001 2.44271087 5.65626525 3 9 C3.66 7.02 4.32 5.04 5 3 C5.33 3 5.66 3 6 3 C6.05423638 4.91635217 6.09289963 6.83314925 6.125 8.75 C6.14820313 9.81734375 6.17140625 10.8846875 6.1953125 11.984375 C6.00487687 14.92470106 5.52670104 16.52361878 4 19 C4 18.01 4 17.02 4 16 C3.34 16 2.68 16 2 16 C0.40837921 10.42932723 -0.20674944 5.78898419 0 0 Z " fill="#595959" transform="translate(222,114)"/>
<path d="M0 0 C2.20842803 3.31264204 2.19725756 3.83451396 1.6875 7.5625 C1.58824219 8.34753906 1.48898438 9.13257813 1.38671875 9.94140625 C1 12 1 12 0 14 C0.66 14.66 1.32 15.32 2 16 C1.01 16 0.02 16 -1 16 C-1 16.99 -1 17.98 -1 19 C-1.66 19 -2.32 19 -3 19 C-2.88485851 16.95775363 -2.75742674 14.91619841 -2.625 12.875 C-2.55539063 11.73804688 -2.48578125 10.60109375 -2.4140625 9.4296875 C-2.00556124 6.04606384 -1.19032431 3.18387559 0 0 Z " fill="#7D7D7D" transform="translate(213,132)"/>
<path d="M0 0 C6.27 0.66 12.54 1.32 19 2 C18.01 3.485 18.01 3.485 17 5 C16.071875 4.79375 15.14375 4.5875 14.1875 4.375 C10.84826598 3.63307034 10.84826598 3.63307034 8 6 C4.8125 5.125 4.8125 5.125 2 4 C2 3.34 2 2.68 2 2 C1.34 2 0.68 2 0 2 C0 1.34 0 0.68 0 0 Z " fill="#808080" transform="translate(170,120)"/>
<path d="M0 0 C0.33 0 0.66 0 1 0 C1.77528479 3.42573937 2.11918778 6.57239245 2.09765625 10.08203125 C2.09282227 11.47905273 2.09282227 11.47905273 2.08789062 12.90429688 C2.07951172 13.86400391 2.07113281 14.82371094 2.0625 15.8125 C2.05798828 16.79154297 2.05347656 17.77058594 2.04882812 18.77929688 C2.03708684 21.18626111 2.02066419 23.59309857 2 26 C1.34 25.67 0.68 25.34 0 25 C-1.0756261 19.22897612 -1.00203572 13.83016342 -0.5625 8 C-0.51029297 7.22527344 -0.45808594 6.45054688 -0.40429688 5.65234375 C-0.27633098 3.76775513 -0.13914404 1.88379629 0 0 Z " fill="#545454" transform="translate(208,58)"/>
<path d="M0 0 C0.99 0.495 0.99 0.495 2 1 C4.20765821 8.35886071 4.21253726 15.36046629 4 23 C1.12376974 19.76906038 0.55986788 17.46971282 0.3125 13.1875 C0.24804688 12.13433594 0.18359375 11.08117187 0.1171875 9.99609375 C-0.0135147 6.65447417 -0.07597872 3.34306354 0 0 Z " fill="#717171" transform="translate(204,48)"/>
<path d="M0 0 C2.91697011 0.14104691 5.8334802 0.28764814 8.75 0.4375 C9.9875 0.49647461 9.9875 0.49647461 11.25 0.55664062 C12.44882813 0.61948242 12.44882813 0.61948242 13.671875 0.68359375 C14.4050293 0.72025146 15.13818359 0.75690918 15.89355469 0.79467773 C18.01177605 1.00114785 19.9519456 1.43132086 22 2 C22 2.99 22 3.98 22 5 C20.35 5.33 18.7 5.66 17 6 C17 5.01 17 4.02 17 3 C12.99745544 2.90818866 12.99745544 2.90818866 9 3 C8.67 3.33 8.34 3.66 8 4 C6.00041636 4.04080783 3.99954746 4.04254356 2 4 C1.34 2.68 0.68 1.36 0 0 Z " fill="#757575" transform="translate(148,145)"/>
<path d="M0 0 C5.67719099 -0.89639858 9.21758666 1.50996161 13.92578125 4.296875 C16.21539844 6.17686199 16.66693005 7.1092042 17 10 C13.78564247 9.64284916 12.91996136 8.9157488 10.625 6.5 C7.63391092 3.65134373 6.06613938 3.18071731 2 3 C1.01 3.495 1.01 3.495 0 4 C0 2.68 0 1.36 0 0 Z " fill="#222222" transform="translate(180,102)"/>
<path d="M0 0 C1.42505859 0.13535156 1.42505859 0.13535156 2.87890625 0.2734375 C5.4375 0.625 5.4375 0.625 8.4375 1.625 C8.4375 2.285 8.4375 2.945 8.4375 3.625 C1.1775 3.625 -6.0825 3.625 -13.5625 3.625 C-8.48719815 -0.18147638 -6.18135525 -0.62234053 0 0 Z " fill="#838383" transform="translate(182.5625,82.375)"/>
<path d="M0 0 C0.33 0 0.66 0 1 0 C0.67 8.58 0.34 17.16 0 26 C-0.66 26 -1.32 26 -2 26 C-2.3690205 8.14350797 -2.3690205 8.14350797 0 0 Z " fill="#616161" transform="translate(146,90)"/>
<path d="M0 0 C0.33 0.66 0.66 1.32 1 2 C0.34 2 -0.32 2 -1 2 C-1 2.66 -1 3.32 -1 4 C-0.01 4.33 0.98 4.66 2 5 C2 5.66 2 6.32 2 7 C-2.85963179 6.39254603 -6.7405518 4.27241033 -11 2 C-11 1.67 -11 1.34 -11 1 C-7.26562152 0.12132271 -3.83225427 -0.08912219 0 0 Z " fill="#636363" transform="translate(193,99)"/>
<path d="M0 0 C0.33 0 0.66 0 1 0 C1.03758423 1.01368652 1.03758423 1.01368652 1.07592773 2.04785156 C1.19210742 5.1154168 1.31473437 8.18269158 1.4375 11.25 C1.47681641 12.31347656 1.51613281 13.37695312 1.55664062 14.47265625 C1.59853516 15.49746094 1.64042969 16.52226562 1.68359375 17.578125 C1.72025146 18.52075195 1.75690918 19.46337891 1.79467773 20.43457031 C1.97939228 22.74251377 2.35861612 24.78140524 3 27 C2.01 27 1.02 27 0 27 C-1.7366163 23.28995608 -2.18545441 20.76181691 -1.7578125 16.69921875 C-1.61279297 15.23452148 -1.61279297 15.23452148 -1.46484375 13.74023438 C-1.35269531 12.73283203 -1.24054688 11.72542969 -1.125 10.6875 C-1.02058594 9.66076172 -0.91617188 8.63402344 -0.80859375 7.57617188 C-0.55004296 5.04942554 -0.28017398 2.52442474 0 0 Z " fill="#7D7D7D" transform="translate(148,118)"/>
<path d="M0 0 C2.49505962 2.49505962 2.35948376 3.67328888 2.625 7.125 C2.69976562 8.03507812 2.77453125 8.94515625 2.8515625 9.8828125 C2.90054688 10.58148438 2.94953125 11.28015625 3 12 C1.35 12 -0.3 12 -2 12 C-2.05395478 10.37536158 -2.09277195 8.75021459 -2.125 7.125 C-2.14820313 6.22007812 -2.17140625 5.31515625 -2.1953125 4.3828125 C-2 2 -2 2 0 0 Z " fill="#545454" transform="translate(218,253)"/>
<path d="M0 0 C0.33 0 0.66 0 1 0 C1.58964491 8.84467367 -1.29622898 17.0633478 -5 25 C-6.16983989 21.57032105 -5.81325413 19.45660565 -4.78515625 16.015625 C-4.51123047 15.08105469 -4.23730469 14.14648438 -3.95507812 13.18359375 C-3.66052734 12.21550781 -3.36597656 11.24742187 -3.0625 10.25 C-2.77181641 9.26644531 -2.48113281 8.28289062 -2.18164062 7.26953125 C-1.46327231 4.84356612 -0.73579178 2.42072642 0 0 Z " fill="#5E5E5E" transform="translate(203,173)"/>
<path d="M0 0 C0.99 0.33 1.98 0.66 3 1 C2.34 1 1.68 1 1 1 C0.87882813 2.14339844 0.75765625 3.28679687 0.6328125 4.46484375 C0.46402679 5.95578417 0.29472953 7.44666673 0.125 8.9375 C0.04636719 9.69224609 -0.03226563 10.44699219 -0.11328125 11.22460938 C-0.33883808 13.15919299 -0.66258974 15.08176019 -1 17 C-1.66 17.33 -2.32 17.66 -3 18 C-3.02709444 15.91673869 -3.04643873 13.83337559 -3.0625 11.75 C-3.07410156 10.58984375 -3.08570313 9.4296875 -3.09765625 8.234375 C-3.01754615 5.58112855 -2.93496454 3.46971766 -2 1 C-1.34 0.67 -0.68 0.34 0 0 Z " fill="#1B1B1B" transform="translate(216,111)"/>
<path d="M0 0 C0.66 0 1.32 0 2 0 C2.33 0.99 2.66 1.98 3 3 C5.00016466 4.20882096 5.00016466 4.20882096 7 5 C6.01 5 5.02 5 4 5 C3.87882813 5.84304687 3.75765625 6.68609375 3.6328125 7.5546875 C3.46523437 8.65039062 3.29765625 9.74609375 3.125 10.875 C2.96257812 11.96554688 2.80015625 13.05609375 2.6328125 14.1796875 C2 17 2 17 0 19 C0 12.73 0 6.46 0 0 Z " fill="#7D7D7D" transform="translate(147,94)"/>
<path d="M0 0 C5.75 -0.125 5.75 -0.125 8 1 C8.33 1.99 8.66 2.98 9 4 C9.66 4.66 10.32 5.32 11 6 C9.741875 6.04125 8.48375 6.0825 7.1875 6.125 C6.47980469 6.14820312 5.77210937 6.17140625 5.04296875 6.1953125 C3 6 3 6 0 4 C0 2.68 0 1.36 0 0 Z " fill="#3A3A3A" transform="translate(106,96)"/>
<path d="M0 0 C0.33 0 0.66 0 1 0 C1.28875 1.03125 1.5775 2.0625 1.875 3.125 C2.5484715 5.52817889 3.29776957 7.78360413 4.1875 10.125 C5.06437744 13.22779708 4.89929962 14.9423813 4 18 C3.34 18 2.68 18 2 18 C1.67 18.99 1.34 19.98 1 21 C0.67 14.07 0.34 7.14 0 0 Z " fill="#5A5A5A" transform="translate(194,211)"/>
<path d="M0 0 C-1.32 1.65 -2.64 3.3 -4 5 C-1.36 4.67 1.28 4.34 4 4 C0.28424249 6.47717167 -1.59986738 6.30345742 -6 6 C-8.9375 5 -8.9375 5 -11 4 C-10.67 3.01 -10.34 2.02 -10 1 C-6.76421296 -0.31828361 -3.44785988 -0.07836045 0 0 Z " fill="#2C2C2C" transform="translate(112,112)"/>
<path d="M0 0 C2.51171875 1.390625 2.51171875 1.390625 5 4 C5.49724029 7.29259883 5.15122015 10.45052458 4.8125 13.75 C4.74224609 14.63816406 4.67199219 15.52632812 4.59960938 16.44140625 C4.4230544 18.63068793 4.22250036 20.81498935 4 23 C3.67 23 3.34 23 3 23 C2.94465088 22.44538086 2.88930176 21.89076172 2.83227539 21.31933594 C2.57871893 18.7959083 2.32065495 16.27296117 2.0625 13.75 C1.97548828 12.87730469 1.88847656 12.00460938 1.79882812 11.10546875 C1.71181641 10.26113281 1.62480469 9.41679688 1.53515625 8.546875 C1.456604 7.77182617 1.37805176 6.99677734 1.29711914 6.19824219 C1.00997086 4.07376962 0.56205228 2.06703475 0 0 Z " fill="#454545" transform="translate(140,93)"/>
<path d="M0 0 C0.33 0 0.66 0 1 0 C1 2.31 1 4.62 1 7 C0.01 6.67 -0.98 6.34 -2 6 C-1.67257813 6.54140625 -1.34515625 7.0828125 -1.0078125 7.640625 C0.21664767 10.50719067 0.19892146 12.6452987 0.125 15.75 C0.10695312 16.73484375 0.08890625 17.7196875 0.0703125 18.734375 C0.03550781 19.85585938 0.03550781 19.85585938 0 21 C-0.33 21 -0.66 21 -1 21 C-1.03738281 20.3709375 -1.07476562 19.741875 -1.11328125 19.09375 C-1.45679649 14.62131635 -1.94190912 10.6808285 -3.625 6.5 C-4.07875 5.345 -4.5325 4.19 -5 3 C-4.67 2.34 -4.34 1.68 -4 1 C-3.01 1.33 -2.02 1.66 -1 2 C-0.67 1.34 -0.34 0.68 0 0 Z " fill="#6C6C6C" transform="translate(215,245)"/>
<path d="M0 0 C4.03321763 1.21934486 7.54269479 2.55954927 11 5 C11 5.66 11 6.32 11 7 C9.329375 7.2165625 9.329375 7.2165625 7.625 7.4375 C4.17857953 7.78372035 4.17857953 7.78372035 2 9 C2.04125 8.2575 2.0825 7.515 2.125 6.75 C1.99601866 3.91241048 1.42948778 2.41226062 0 0 Z " fill="#2D2D2D" transform="translate(134,180)"/>
<path d="M0 0 C2.61079814 3.91619722 1.68378517 5.44143218 1 10 C1.28730055 12.33944736 1.61936779 14.6739143 2 17 C2.03635763 18.9996695 2.04876598 21.00059462 2 23 C1.34 23 0.68 23 0 23 C-0.19635974 19.54210946 -0.38058252 16.08367803 -0.5625 12.625 C-0.61857422 11.64015625 -0.67464844 10.6553125 -0.73242188 9.640625 C-0.80493164 8.22910156 -0.80493164 8.22910156 -0.87890625 6.7890625 C-0.9260376 5.91975098 -0.97316895 5.05043945 -1.02172852 4.15478516 C-1 2 -1 2 0 0 Z " fill="#989898" transform="translate(150,115)"/>
<path d="M0 0 C-4.49817524 2.82238446 -6.70928625 4 -12 4 C-14.7905817 5.89816542 -14.7905817 5.89816542 -17 8 C-16.6875 6.0625 -16.6875 6.0625 -16 4 C-15.01 3.67 -14.02 3.34 -13 3 C-13 2.34 -13 1.68 -13 1 C-11.39796533 0.63631108 -9.79325797 0.28438048 -8.1875 -0.0625 C-7.29417969 -0.25972656 -6.40085937 -0.45695312 -5.48046875 -0.66015625 C-3 -1 -3 -1 0 0 Z " fill="#343434" transform="translate(112,121)"/>
<path d="M0 0 C0.99 0 1.98 0 3 0 C4 3 5 6 6 9 C7.62332967 10.38576923 9.28724465 11.72641268 11 13 C4.25 12.25 4.25 12.25 2 10 C0.73076923 3.53846154 0.73076923 3.53846154 2 1 C1.34 0.67 0.68 0.34 0 0 Z " fill="#6E6E6E" transform="translate(162,107)"/>
<path d="M0 0 C3.27779873 3.27779873 3.40494034 3.8360813 3.6875 8.1875 C3.75324219 9.08855469 3.81898438 9.98960938 3.88671875 10.91796875 C3.92410156 11.60503906 3.96148437 12.29210938 4 13 C4.66 13 5.32 13 6 13 C6 14.65 6 16.3 6 18 C5.34 18.33 4.68 18.66 4 19 C4 17.35 4 15.7 4 14 C3.34 14 2.68 14 2 14 C1.34 9.38 0.68 4.76 0 0 Z " fill="#3F3F3F" transform="translate(205,44)"/>
<path d="M0 0 C-5.74009901 3.82673267 -5.74009901 3.82673267 -8.98828125 4.2734375 C-11.19365941 4.8331922 -11.19365941 4.8331922 -12.265625 7.06640625 C-12.59046875 7.89011719 -12.9153125 8.71382812 -13.25 9.5625 C-13.58515625 10.38878906 -13.9203125 11.21507812 -14.265625 12.06640625 C-14.62914062 13.02353516 -14.62914062 13.02353516 -15 14 C-15.33 14 -15.66 14 -16 14 C-15.23353293 4.80239521 -15.23353293 4.80239521 -12 2 C-7.91662128 0.48763751 -4.34947162 -0.26360434 0 0 Z " fill="#454545" transform="translate(157,230)"/>
<path d="M0 0 C0.33 0.99 0.66 1.98 1 3 C0.109375 4.75390625 0.109375 4.75390625 -1.25 6.5625 C-1.68828125 7.16191406 -2.1265625 7.76132812 -2.578125 8.37890625 C-4 10 -4 10 -7 12 C-9.1875 11.625 -9.1875 11.625 -11 11 C-10.45730469 10.54109375 -9.91460937 10.0821875 -9.35546875 9.609375 C-8.64003906 8.99578125 -7.92460937 8.3821875 -7.1875 7.75 C-6.47980469 7.14671875 -5.77210938 6.5434375 -5.04296875 5.921875 C-3.08110329 4.07629602 -1.54330375 2.20054668 0 0 Z " fill="#474747" transform="translate(186,256)"/>
<path d="M0 0 C0.33 0.66 0.66 1.32 1 2 C3.02463255 2.65213292 3.02463255 2.65213292 5 3 C4.01 3.495 4.01 3.495 3 4 C3.66 4.66 4.32 5.32 5 6 C5 6.66 5 7.32 5 8 C3.35 8.33 1.7 8.66 0 9 C-0.0825 8.21625 -0.165 7.4325 -0.25 6.625 C-0.72806339 3.85250896 -0.72806339 3.85250896 -3.0625 2.6875 C-3.701875 2.460625 -4.34125 2.23375 -5 2 C-3.35 1.34 -1.7 0.68 0 0 Z " fill="#626262" transform="translate(191,85)"/>
<path d="M0 0 C1.98 0.66 3.96 1.32 6 2 C6 3.65 6 5.3 6 7 C4.33333333 7 2.66666667 7 1 7 C0.67 4.69 0.34 2.38 0 0 Z " fill="#7B7B7B" transform="translate(154,99)"/>
<path d="M0 0 C0.33 0 0.66 0 1 0 C0.91298828 0.88751953 0.91298828 0.88751953 0.82421875 1.79296875 C0.47241843 7.30693688 0.47241843 7.30693688 3.4375 11.875 C4.283125 12.57625 5.12875 13.2775 6 14 C6.33 14.99 6.66 15.98 7 17 C4.06829636 16.6858889 2.95750669 15.9610478 0.75 13.9375 C-1.64353359 9.91978291 -1.37398706 7.63743958 -1 3 C-0.67 2.01 -0.34 1.02 0 0 Z " fill="#505050" transform="translate(143,132)"/>
<path d="M0 0 C0.99 0.33 1.98 0.66 3 1 C5.20018889 6.3769322 5.20783455 12.28454981 5 18 C4.34 17.67 3.68 17.34 3 17 C2.40234375 14.453125 2.40234375 14.453125 1.9375 11.25 C1.37511202 7.47595837 0.78167362 3.73543147 0 0 Z " fill="#151515" transform="translate(194,4)"/>
<path d="M0 0 C0.6875 1.6875 0.6875 1.6875 1 4 C-0.3992219 6.79844381 -1.78791383 8.78791383 -4 11 C-6.125 10.625 -6.125 10.625 -8 10 C-7.59007812 9.52949219 -7.18015625 9.05898438 -6.7578125 8.57421875 C-6.21898437 7.95160156 -5.68015625 7.32898438 -5.125 6.6875 C-4.59132812 6.07261719 -4.05765625 5.45773437 -3.5078125 4.82421875 C-1.8359553 2.86501788 -1.8359553 2.86501788 0 0 Z " fill="#242424" transform="translate(190,257)"/>
<path d="M0 0 C1.98 0 3.96 0 6 0 C6 0.66 6 1.32 6 2 C6.66 2 7.32 2 8 2 C8 2.99 8 3.98 8 5 C6.02 5.33 4.04 5.66 2 6 C1.33333333 4 0.66666667 2 0 0 Z " fill="#575757" transform="translate(113,105)"/>
<path d="M0 0 C3.96 1.98 7.92 3.96 12 6 C11.34 7.32 10.68 8.64 10 10 C10 9.34 10 8.68 10 8 C6.95086772 6.98888907 6.95086772 6.98888907 4 8 C0 2.25 0 2.25 0 0 Z " fill="#6A6A6A" transform="translate(204,233)"/>
<path d="M0 0 C2.57223523 0.45932772 3.90504236 0.9203581 5.9375 2.625 C7.9587339 4.30357143 7.9587339 4.30357143 10.625 3.625 C11.40875 3.41875 12.1925 3.2125 13 3 C13.66 3.33 14.32 3.66 15 4 C15 4.66 15 5.32 15 6 C11.37 6 7.74 6 4 6 C3.34 4.35 2.68 2.7 2 1 C1.34 0.67 0.68 0.34 0 0 Z " fill="#757575" transform="translate(154,207)"/>
<path d="M0 0 C0.66 0 1.32 0 2 0 C2 0.66 2 1.32 2 2 C3.65 2 5.3 2 7 2 C7.33 3.32 7.66 4.64 8 6 C5.36 6 2.72 6 0 6 C0 4.02 0 2.04 0 0 Z " fill="#3E3E3E" transform="translate(166,105)"/>
<path d="M0 0 C0.928125 0.20625 1.85625 0.4125 2.8125 0.625 C2.4825 1.285 2.1525 1.945 1.8125 2.625 C-2.72843172 4.04404116 -7.4818099 3.71726843 -12.1875 3.625 C-12.5175 2.965 -12.8475 2.305 -13.1875 1.625 C-11.5478125 1.686875 -11.5478125 1.686875 -9.875 1.75 C-5.6174036 1.6056747 -4.16142686 -0.48957963 0 0 Z " fill="#565656" transform="translate(175.1875,41.375)"/>
<path d="M0 0 C0.33 0.66 0.66 1.32 1 2 C3.52733235 2.65555119 3.52733235 2.65555119 6 3 C6 3.66 6 4.32 6 5 C6.61875 5.12375 7.2375 5.2475 7.875 5.375 C10 6 10 6 12 8 C9.69 7.67 7.38 7.34 5 7 C5 6.34 5 5.68 5 5 C3.68 5 2.36 5 1 5 C0.67 3.35 0.34 1.7 0 0 Z " fill="#323232" transform="translate(132,210)"/>
<path d="M0 0 C2.97 0 5.94 0 9 0 C7.68 0.33 6.36 0.66 5 1 C5.99 2.65 6.98 4.3 8 6 C5.69 5.34 3.38 4.68 1 4 C0.67 2.68 0.34 1.36 0 0 Z " fill="#464647" transform="translate(132,176)"/>
<path d="M0 0 C-1.37899549 2.75799098 -3.37672362 3.43852596 -6 5 C-6.804375 5.8353125 -6.804375 5.8353125 -7.625 6.6875 C-9 8 -9 8 -12 8 C-12 7.34 -12 6.68 -12 6 C-10.68 5.67 -9.36 5.34 -8 5 C-7.814375 4.0409375 -7.814375 4.0409375 -7.625 3.0625 C-7.41875 2.381875 -7.2125 1.70125 -7 1 C-4.53721199 -0.231394 -2.7204945 -0.07159196 0 0 Z " fill="#7F7F7F" transform="translate(203,114)"/>
<path d="M0 0 C0.66 0.33 1.32 0.66 2 1 C1.04367001 2.29315061 0.08486149 3.58446853 -0.875 4.875 C-1.40867188 5.59429687 -1.94234375 6.31359375 -2.4921875 7.0546875 C-4 9 -4 9 -6 11 C-6.99 10.67 -7.98 10.34 -9 10 C-8.01 9.67 -7.02 9.34 -6 9 C-5.29605388 7.68596724 -4.63654342 6.3479743 -4 5 C-2.6949419 3.31110128 -1.36639342 1.6396721 0 0 Z " fill="#353535" transform="translate(188,257)"/>
<path d="M0 0 C2.97 0 5.94 0 9 0 C9.33 0.99 9.66 1.98 10 3 C7.03 3 4.06 3 1 3 C0.67 2.01 0.34 1.02 0 0 Z " fill="#848484" transform="translate(151,177)"/>
<path d="M0 0 C5.61 0 11.22 0 17 0 C17 0.33 17 0.66 17 1 C12.05 1.33 7.1 1.66 2 2 C2 2.66 2 3.32 2 4 C1.01 4 0.02 4 -1 4 C-0.67 2.68 -0.34 1.36 0 0 Z " fill="#626262" transform="translate(146,176)"/>
<path d="M0 0 C0.66 0 1.32 0 2 0 C1.50769231 6.52307692 1.50769231 6.52307692 -1.0625 8.9375 C-1.701875 9.288125 -2.34125 9.63875 -3 10 C-2.69201674 8.51988629 -2.378482 7.04092675 -2.0625 5.5625 C-1.88847656 4.73878906 -1.71445313 3.91507813 -1.53515625 3.06640625 C-1 1 -1 1 0 0 Z " fill="#353535" transform="translate(114,144)"/>
<path d="M0 0 C2.31 0 4.62 0 7 0 C7 3 7 3 5 5.1875 C4.34 5.785625 3.68 6.38375 3 7 C2 5 2 5 2 2 C1.34 1.34 0.68 0.68 0 0 Z " fill="#454545" transform="translate(144,182)"/>
<path d="M0 0 C0.928125 0.0825 1.85625 0.165 2.8125 0.25 C3.4725 1.9 4.1325 3.55 4.8125 5.25 C3.8225 4.59 2.8325 3.93 1.8125 3.25 C0.4925 3.25 -0.8275 3.25 -2.1875 3.25 C-2.5175 3.91 -2.8475 4.57 -3.1875 5.25 C-4.1775 4.92 -5.1675 4.59 -6.1875 4.25 C-4.36434338 1.00883268 -3.82500054 0.30000004 0 0 Z " fill="#808080" transform="translate(172.1875,179.75)"/>
<path d="M0 0 C2.25 -0.25 2.25 -0.25 5 0 C7.3125 2 7.3125 2 9 4 C6.69 4.33 4.38 4.66 2 5 C1.34 3.35 0.68 1.7 0 0 Z " fill="#7C7C7C" transform="translate(192,85)"/>
<path d="M0 0 C0 0.99 0 1.98 0 3 C-4.455 3.495 -4.455 3.495 -9 4 C-8.67 3.01 -8.34 2.02 -8 1 C-5.29120665 -0.35439668 -2.99066732 -0.06501451 0 0 Z " fill="#545454" transform="translate(161,41)"/>
<path d="M0 0 C-1.98 1.32 -3.96 2.64 -6 4 C-6 3.34 -6 2.68 -6 2 C-7.1446875 2.5259375 -7.1446875 2.5259375 -8.3125 3.0625 C-11 4 -11 4 -14 3 C-12.23358317 2.3012307 -10.46167336 1.61633417 -8.6875 0.9375 C-7.20830078 0.36322266 -7.20830078 0.36322266 -5.69921875 -0.22265625 C-3 -1 -3 -1 0 0 Z " fill="#4A4A4A" transform="translate(171,226)"/>
<path d="M0 0 C1.21236328 0.02707031 1.21236328 0.02707031 2.44921875 0.0546875 C3.37154297 0.08949219 3.37154297 0.08949219 4.3125 0.125 C4.3125 0.785 4.3125 1.445 4.3125 2.125 C3.39017578 2.21587891 3.39017578 2.21587891 2.44921875 2.30859375 C1.64097656 2.39238281 0.83273438 2.47617188 0 2.5625 C-0.80050781 2.64371094 -1.60101563 2.72492188 -2.42578125 2.80859375 C-4.84837179 3.07765693 -4.84837179 3.07765693 -7.6875 4.125 C-7.6875 3.465 -7.6875 2.805 -7.6875 2.125 C-4.48369983 -0.01086678 -3.66810033 -0.10632175 0 0 Z " fill="#4A4A4A" transform="translate(142.6875,198.875)"/>
<path d="M0 0 C1.32 0 2.64 0 4 0 C4 0.66 4 1.32 4 2 C-0.1205746 3.99785435 -3.45194365 4.17835515 -8 4 C-8 3.34 -8 2.68 -8 2 C-6.865625 1.855625 -5.73125 1.71125 -4.5625 1.5625 C-1.19222799 1.38828522 -1.19222799 1.38828522 0 0 Z " fill="#474747" transform="translate(162,181)"/>
<path d="M0 0 C-3.625 5.875 -3.625 5.875 -7 7 C-6.75 4.125 -6.75 4.125 -6 1 C-2.77922078 -1.38961039 -2.77922078 -1.38961039 0 0 Z " fill="#878787" transform="translate(170,151)"/>
<path d="M0 0 C2.31 0 4.62 0 7 0 C6.01 0.66 5.02 1.32 4 2 C3.67 2.99 3.34 3.98 3 5 C1.35 4.67 -0.3 4.34 -2 4 C-1.34 2.68 -0.68 1.36 0 0 Z " fill="#636363" transform="translate(184,94)"/>
<path d="M0 0 C2.31 0 4.62 0 7 0 C5.35 1.65 3.7 3.3 2 5 C1.01 4.34 0.02 3.68 -1 3 C-0.67 2.01 -0.34 1.02 0 0 Z " fill="#707070" transform="translate(171,45)"/>
<path d="M0 0 C2.475 0.99 2.475 0.99 5 2 C5 2.66 5 3.32 5 4 C5.66 4 6.32 4 7 4 C7.33 5.32 7.66 6.64 8 8 C7.34 8 6.68 8 6 8 C6 7.01 6 6.02 6 5 C4.68 5 3.36 5 2 5 C2 4.34 2 3.68 2 3 C1.01 2.67 0.02 2.34 -1 2 C-0.67 1.34 -0.34 0.68 0 0 Z " fill="#797979" transform="translate(180,169)"/>
<path d="M0 0 C2.76276177 0.52268466 5.3260876 1.10869587 8 2 C8.33 2.99 8.66 3.98 9 5 C5.625 4.75 5.625 4.75 2 4 C0.5625 1.9375 0.5625 1.9375 0 0 Z " fill="#4A4A4A" transform="translate(160,39)"/>
<path d="M0 0 C1.32 0 2.64 0 4 0 C3.875 1.875 3.875 1.875 3 4 C-0.0625 5.25 -0.0625 5.25 -3 6 C-2.01 4.02 -1.02 2.04 0 0 Z " fill="#2E2E2E" transform="translate(147,211)"/>
<path d="M0 0 C0.33 0.66 0.66 1.32 1 2 C-0.11179163 5.33537489 -1.47411298 6.63707344 -4 9 C-4.99 8.67 -5.98 8.34 -7 8 C-6.02133662 6.85373678 -5.04205413 5.70800212 -4.0625 4.5625 C-3.51722656 3.92441406 -2.97195312 3.28632813 -2.41015625 2.62890625 C-1.63204305 1.73008851 -0.84063472 0.84063472 0 0 Z " fill="#757575" transform="translate(176,203)"/>
<path d="M0 0 C-0.33 1.32 -0.66 2.64 -1 4 C-6.75 2.25 -6.75 2.25 -9 0 C-5.62182575 -0.84454356 -3.32534757 -1.10844919 0 0 Z " fill="#5A5A5A" transform="translate(191,100)"/>
<path d="M0 0 C0.33 0 0.66 0 1 0 C1.08131463 1.43655854 1.13933559 2.8744483 1.1875 4.3125 C1.23970703 5.51326172 1.23970703 5.51326172 1.29296875 6.73828125 C0.93801608 9.47851584 0.10633718 10.29171079 -2 12 C-1.85904936 10.3745692 -1.71207913 8.74965949 -1.5625 7.125 C-1.48128906 6.22007812 -1.40007812 5.31515625 -1.31640625 4.3828125 C-1 2 -1 2 0 0 Z " fill="#202020" transform="translate(193,245)"/>
<path d="M0 0 C0.99 0.495 0.99 0.495 2 1 C2.72888424 5.37330544 3.13869913 9.5616278 3 14 C1.20724134 10.88089144 0.65709282 8.32317572 0.375 4.75 C0.30023438 3.85796875 0.22546875 2.9659375 0.1484375 2.046875 C0.09945312 1.37140625 0.05046875 0.6959375 0 0 Z " fill="#797979" transform="translate(198,224)"/>
<path d="M0 0 C2.75 0.8125 2.75 0.8125 5 2 C4.34 3.32 3.68 4.64 3 6 C2.34 5.67 1.68 5.34 1 5 C1 4.01 1 3.02 1 2 C-0.65 2.33 -2.3 2.66 -4 3 C-2.3125 1.375 -2.3125 1.375 0 0 Z " fill="#2E2E2E" transform="translate(172,215)"/>
<path d="M0 0 C2.475 0.495 2.475 0.495 5 1 C5 2.65 5 4.3 5 6 C2.525 5.01 2.525 5.01 0 4 C0 2.68 0 1.36 0 0 Z " fill="#666666" transform="translate(151,188)"/>
<path d="M0 0 C4.19469571 0.59924224 8.00999834 1.57499941 12 3 C12 3.33 12 3.66 12 4 C9.36 4 6.72 4 4 4 C4 3.34 4 2.68 4 2 C2.68 1.67 1.36 1.34 0 1 C0 0.67 0 0.34 0 0 Z " fill="#393939" transform="translate(171,116)"/>
<path d="M0 0 C4.67692308 1.47692308 4.67692308 1.47692308 6.3125 4.125 C6.539375 4.74375 6.76625 5.3625 7 6 C5.35 6 3.7 6 2 6 C1.34 4.02 0.68 2.04 0 0 Z " fill="#101010" transform="translate(120,105)"/>
<path d="M0 0 C0.99 0.33 1.98 0.66 3 1 C3 4 3 4 1.125 6.0625 C0.42375 6.701875 -0.2775 7.34125 -1 8 C-1.66 8.66 -2.32 9.32 -3 10 C-2.49287967 6.28111761 -1.88391785 3.26545761 0 0 Z " fill="#646464" transform="translate(219,113)"/>
<path d="M0 0 C-0.99 1.485 -0.99 1.485 -2 3 C-4.625 3.1875 -4.625 3.1875 -7 3 C-7.33 2.01 -7.66 1.02 -8 0 C-4.71303767 -0.79953138 -3.28976808 -1.09658936 0 0 Z " fill="#767676" transform="translate(194,114)"/>
<path d="M0 0 C0.33 0.99 0.66 1.98 1 3 C-4.75 8 -4.75 8 -7 8 C-5.60746468 4.51866169 -4.36823784 3.52113967 -1 2 C-0.67 1.34 -0.34 0.68 0 0 Z " fill="#626262" transform="translate(189,249)"/>
<path d="M0 0 C2.97 0.33 5.94 0.66 9 1 C8.67 1.66 8.34 2.32 8 3 C5.36 3 2.72 3 0 3 C0 2.01 0 1.02 0 0 Z " fill="#313131" transform="translate(146,173)"/>
<path d="M0 0 C0.66 0 1.32 0 2 0 C1.52269162 1.4589426 1.04308958 2.91713496 0.5625 4.375 C0.29566406 5.18710938 0.02882812 5.99921875 -0.24609375 6.8359375 C-1 9 -1 9 -2 11 C-2.66 10.67 -3.32 10.34 -4 10 C-2.68 6.7 -1.36 3.4 0 0 Z " fill="#717171" transform="translate(207,145)"/>
<path d="M0 0 C2.4375 0.6875 2.4375 0.6875 5 2 C5.8125 4.625 5.8125 4.625 6 7 C5.34 6.67 4.68 6.34 4 6 C4 5.34 4 4.68 4 4 C2.68 4 1.36 4 0 4 C0 2.68 0 1.36 0 0 Z " fill="#565656" transform="translate(200,42)"/>
<path d="M0 0 C1.98 0.99 1.98 0.99 4 2 C4.33 1.34 4.66 0.68 5 0 C5 0.66 5 1.32 5 2 C5.99 2 6.98 2 8 2 C8.33 2.99 8.66 3.98 9 5 C8.34 5 7.68 5 7 5 C7 4.34 7 3.68 7 3 C4.69 3.33 2.38 3.66 0 4 C0 2.68 0 1.36 0 0 Z " fill="#4A4A4B" transform="translate(191,39)"/>
<path d="M0 0 C-1 2 -1 2 -2.625 2.625 C-5.7660575 3.12095645 -8.82601831 3.06103811 -12 3 C-7.59360646 0.79680323 -5.02549129 -0.10924981 0 0 Z " fill="#4F4F4F" transform="translate(190,39)"/>
<path d="M0 0 C1.32 0.66 2.64 1.32 4 2 C4 2.66 4 3.32 4 4 C5.65 4 7.3 4 9 4 C9 4.33 9 4.66 9 5 C5.4780279 5.08004482 2.38018531 5.04005702 -1 4 C-0.67 2.68 -0.34 1.36 0 0 Z " fill="#484848" transform="translate(207,161)"/>
<path d="M0 0 C4.455 0.99 4.455 0.99 9 2 C8.67 2.66 8.34 3.32 8 4 C6.02 4 4.04 4 2 4 C1.34 2.68 0.68 1.36 0 0 Z " fill="#646464" transform="translate(148,145)"/>
<path d="M0 0 C1.39195915 4.17587745 -0.17676781 6.13474776 -2 10 C-2.33 10 -2.66 10 -3 10 C-3.36923077 4.58461538 -3.36923077 4.58461538 -1.5 1.625 C-1.005 1.08875 -0.51 0.5525 0 0 Z " fill="#494949" transform="translate(227,114)"/>
<path d="M0 0 C2 3 2 3 1.75 4.9375 C0.98009633 7.0547351 0.02164256 8.99439841 -1 11 C-1.0270043 9.54176788 -1.04639787 8.08339325 -1.0625 6.625 C-1.07410156 5.81289062 -1.08570313 5.00078125 -1.09765625 4.1640625 C-1 2 -1 2 0 0 Z " fill="#919191" transform="translate(150,115)"/>
<path d="M0 0 C0.66 0.33 1.32 0.66 2 1 C1.855625 1.53625 1.71125 2.0725 1.5625 2.625 C0.90546252 5.39915827 0.44780052 8.18525388 0 11 C-0.66 10.67 -1.32 10.34 -2 10 C-1.85950482 8.52031676 -1.71245174 7.04125484 -1.5625 5.5625 C-1.48128906 4.73878906 -1.40007812 3.91507812 -1.31640625 3.06640625 C-1 1 -1 1 0 0 Z " fill="#555555" transform="translate(159,89)"/>
<path d="M0 0 C-0.33 0.66 -0.66 1.32 -1 2 C-4.0625 2.625 -4.0625 2.625 -7 3 C-7.33 2.01 -7.66 1.02 -8 0 C-5.13822943 -1.43088528 -3.06624227 -0.59991697 0 0 Z " fill="#7F7F7F" transform="translate(186,45)"/>
<path d="M0 0 C1.65 0 3.3 0 5 0 C5.144375 0.7425 5.28875 1.485 5.4375 2.25 C5.90187492 4.52027739 6.41863569 6.75759479 7 9 C6.67 8.34 6.34 7.68 6 7 C5.34 7 4.68 7 4 7 C3.566875 5.824375 3.566875 5.824375 3.125 4.625 C2.15087746 1.90328368 2.15087746 1.90328368 0 0 Z " fill="#313131" transform="translate(200,37)"/>
<path d="M0 0 C2 3 2 3 2 7 C0.35 7 -1.3 7 -3 7 C-2.34 6.01 -1.68 5.02 -1 4 C-0.36707617 1.88719655 -0.36707617 1.88719655 0 0 Z " fill="#474747" transform="translate(219,258)"/>
<path d="M0 0 C2.475 0.495 2.475 0.495 5 1 C4.67 1.99 4.34 2.98 4 4 C3.01 4.33 2.02 4.66 1 5 C0.67 3.35 0.34 1.7 0 0 Z " fill="#555555" transform="translate(166,111)"/>
<path d="M0 0 C-0.99 0 -1.98 0 -3 0 C-3.66 2.97 -4.32 5.94 -5 9 C-5.33 9 -5.66 9 -6 9 C-6 6.03 -6 3.06 -6 0 C-3.50907189 -1.24546405 -2.58919267 -0.7767578 0 0 Z " fill="#8E8E8E" transform="translate(154,99)"/>
<path d="M0 0 C0.99 1.32 1.98 2.64 3 4 C2.01 4 1.02 4 0 4 C0 4.99 0 5.98 0 7 C-0.66 7 -1.32 7 -2 7 C-2 5.02 -2 3.04 -2 1 C-1.34 0.67 -0.68 0.34 0 0 Z " fill="#717171" transform="translate(212,144)"/>
<path d="M0 0 C2.31 0.33 4.62 0.66 7 1 C6.01 1.495 6.01 1.495 5 2 C5 2.66 5 3.32 5 4 C3.68 4.33 2.36 4.66 1 5 C0.67 3.35 0.34 1.7 0 0 Z " fill="#4E4E4E" transform="translate(181,104)"/>
<path d="M0 0 C0 0.99 0 1.98 0 3 C-0.66 3 -1.32 3 -2 3 C-2 3.66 -2 4.32 -2 5 C-3.32 4.67 -4.64 4.34 -6 4 C-4 1 -4 1 -1.875 0.3125 C-1.25625 0.209375 -0.6375 0.10625 0 0 Z " fill="#242424" transform="translate(178,89)"/>
<path d="M0 0 C1.65 0.33 3.3 0.66 5 1 C5.33 1.99 5.66 2.98 6 4 C3.69 4 1.38 4 -1 4 C-0.34 3.67 0.32 3.34 1 3 C0.67 2.01 0.34 1.02 0 0 Z " fill="#363636" transform="translate(183,88)"/>
</svg>
