<?xml version="1.0" encoding="UTF-8"?>
<!DOCTYPE svg PUBLIC "-//W3C//DTD SVG 1.1//EN" "http://www.w3.org/Graphics/SVG/1.1/DTD/svg11.dtd">
<svg xmlns="http://www.w3.org/2000/svg" version="1.1" width="347px" height="359px" style="shape-rendering:geometricPrecision; text-rendering:geometricPrecision; image-rendering:optimizeQuality; fill-rule:evenodd; clip-rule:evenodd" xmlns:xlink="http://www.w3.org/1999/xlink">
<g><path style="opacity:0.974" fill="#f8fcfe" d="M 321.5,233.5 C 319.684,238.473 317.851,243.473 316,248.5C 314.989,249.337 313.822,249.67 312.5,249.5C 312.719,250.675 312.386,251.675 311.5,252.5C 309.092,253.216 307.092,254.549 305.5,256.5C 306.879,257.863 306.713,258.863 305,259.5C 304.05,258.978 303.216,258.311 302.5,257.5C 301.544,258.888 300.544,260.221 299.5,261.5C 297.971,261.471 296.804,260.804 296,259.5C 294.318,259.807 292.652,260.14 291,260.5C 290.055,260.095 289.388,259.428 289,258.5C 287.406,260.297 285.406,261.297 283,261.5C 278.563,260.233 274.063,259.233 269.5,258.5C 251.754,258.897 234.254,258.897 217,258.5C 213.716,256.26 210.216,255.927 206.5,257.5C 205.287,257.253 204.62,256.586 204.5,255.5C 210.647,254.708 217.147,253.708 224,252.5C 227.776,253.454 231.776,253.121 236,251.5C 237.667,251.833 239.333,252.167 241,252.5C 242.324,251.12 243.657,250.786 245,251.5C 249.088,249.877 253.255,248.377 257.5,247C 268.503,239.083 280.337,232.916 293,228.5C 302.22,227.758 310.22,230.758 317,237.5C 318.011,236.663 319.178,236.33 320.5,236.5C 320.263,235.209 320.596,234.209 321.5,233.5 Z"/></g>
<g><path style="opacity:1" fill="#d4f4f9" d="M 346.5,140.5 C 346.5,187.167 346.5,233.833 346.5,280.5C 344.621,280.607 344.288,280.107 345.5,279C 344.062,277.431 342.562,275.931 341,274.5C 339.803,276.883 338.97,276.55 338.5,273.5C 339.28,272.051 339.946,270.551 340.5,269C 339.468,266.783 339.468,264.617 340.5,262.5C 340.003,258.825 339.003,255.325 337.5,252C 338.793,251.51 340.127,251.343 341.5,251.5C 341.286,249.856 341.62,248.356 342.5,247C 340.093,245.285 339.426,243.118 340.5,240.5C 339.833,239.5 339.167,238.5 338.5,237.5C 339.311,236.784 339.978,235.95 340.5,235C 339.618,231.377 338.952,227.71 338.5,224C 339.602,217.173 339.602,210.506 338.5,204C 336.311,203.323 335.978,202.156 337.5,200.5C 336.27,197.477 335.103,194.477 334,191.5C 333.06,194.576 331.56,197.243 329.5,199.5C 333.802,179.28 339.469,159.613 346.5,140.5 Z"/></g>
<g><path style="opacity:0.993" fill="#effafc" d="M 322.5,230.5 C 323.124,230.917 323.457,231.584 323.5,232.5C 321.335,241.162 319.168,249.828 317,258.5C 316.617,259.056 316.117,259.389 315.5,259.5C 314.503,259.47 313.836,259.97 313.5,261C 312.597,263.877 311.597,266.71 310.5,269.5C 308.786,268.391 308.119,269.058 308.5,271.5C 306.549,272.716 305.049,274.382 304,276.5C 302.754,273.639 301.754,270.639 301,267.5C 299.513,268.253 299.346,269.086 300.5,270C 299.552,270.483 298.552,270.649 297.5,270.5C 297.539,272.359 296.706,273.692 295,274.5C 293.829,273.107 292.329,272.273 290.5,272C 279.851,269.392 269.184,266.892 258.5,264.5C 251.727,265.843 245.227,265.176 239,262.5C 232.17,261.902 225.504,261.902 219,262.5C 211.018,258.866 202.352,257.866 193,259.5C 191.624,259.316 190.791,258.649 190.5,257.5C 195.048,256.041 199.714,255.374 204.5,255.5C 204.62,256.586 205.287,257.253 206.5,257.5C 210.216,255.927 213.716,256.26 217,258.5C 234.254,258.897 251.754,258.897 269.5,258.5C 274.063,259.233 278.563,260.233 283,261.5C 285.406,261.297 287.406,260.297 289,258.5C 289.388,259.428 290.055,260.095 291,260.5C 292.652,260.14 294.318,259.807 296,259.5C 296.804,260.804 297.971,261.471 299.5,261.5C 300.544,260.221 301.544,258.888 302.5,257.5C 303.216,258.311 304.05,258.978 305,259.5C 306.713,258.863 306.879,257.863 305.5,256.5C 307.092,254.549 309.092,253.216 311.5,252.5C 312.386,251.675 312.719,250.675 312.5,249.5C 313.822,249.67 314.989,249.337 316,248.5C 317.851,243.473 319.684,238.473 321.5,233.5C 322.11,232.609 322.443,231.609 322.5,230.5 Z"/></g>
<g><path style="opacity:1" fill="#cbf3f9" d="M 346.5,280.5 C 346.5,282.833 346.5,285.167 346.5,287.5C 344.845,289.986 342.678,291.986 340,293.5C 335.189,292.349 333.356,289.515 334.5,285C 331.833,284.333 331.833,283.667 334.5,283C 331.972,281.983 331.972,280.816 334.5,279.5C 333.894,277.291 333.227,275.124 332.5,273C 332.957,272.586 333.291,272.086 333.5,271.5C 332.603,271.331 331.603,270.998 330.5,270.5C 331.167,269.833 331.833,269.167 332.5,268.5C 331.915,263.629 331.915,258.629 332.5,253.5C 334.677,250.483 335.677,247.316 335.5,244C 335.167,243.5 334.833,243 334.5,242.5C 333.813,244.274 332.98,245.941 332,247.5C 331.944,242.062 332.777,236.729 334.5,231.5C 333.167,230.167 333.167,228.833 334.5,227.5C 333.289,226.126 332.289,224.626 331.5,223C 332.877,218.235 333.877,213.401 334.5,208.5C 333.448,208.649 332.448,208.483 331.5,208C 332.61,205.263 332.777,202.429 332,199.5C 331.667,199.833 331.333,200.167 331,200.5C 330.186,209.308 328.686,217.974 326.5,226.5C 324.97,227.211 323.637,228.211 322.5,229.5C 324.913,219.2 327.247,209.2 329.5,199.5C 331.56,197.243 333.06,194.576 334,191.5C 335.103,194.477 336.27,197.477 337.5,200.5C 335.978,202.156 336.311,203.323 338.5,204C 339.602,210.506 339.602,217.173 338.5,224C 338.952,227.71 339.618,231.377 340.5,235C 339.978,235.95 339.311,236.784 338.5,237.5C 339.167,238.5 339.833,239.5 340.5,240.5C 339.426,243.118 340.093,245.285 342.5,247C 341.62,248.356 341.286,249.856 341.5,251.5C 340.127,251.343 338.793,251.51 337.5,252C 339.003,255.325 340.003,258.825 340.5,262.5C 339.468,264.617 339.468,266.783 340.5,269C 339.946,270.551 339.28,272.051 338.5,273.5C 338.97,276.55 339.803,276.883 341,274.5C 342.562,275.931 344.062,277.431 345.5,279C 344.288,280.107 344.621,280.607 346.5,280.5 Z"/></g>
<g><path style="opacity:1" fill="#e4f8fb" d="M 315.5,259.5 C 314.145,265.589 312.478,271.589 310.5,277.5C 310.396,279.703 309.73,281.703 308.5,283.5C 304.481,285.99 302.314,289.657 302,294.5C 300.588,296.686 298.755,298.352 296.5,299.5C 296.649,296.035 294.982,294.035 291.5,293.5C 290.468,295.04 289.135,295.54 287.5,295C 287.833,294.667 288.167,294.333 288.5,294C 287,292.833 285.5,291.667 284,290.5C 283.667,291.167 283.333,291.833 283,292.5C 277.403,289.122 271.737,286.456 266,284.5C 265.667,285.167 265.333,285.833 265,286.5C 263.686,285.687 262.519,284.687 261.5,283.5C 260.346,285.856 259.013,286.023 257.5,284C 257.833,283.667 258.167,283.333 258.5,283C 256.726,281.244 255.059,281.244 253.5,283C 251.5,283.667 249.5,283.667 247.5,283C 249.886,282.716 250.552,281.716 249.5,280C 240.71,277.309 231.71,275.642 222.5,275C 214.297,272.885 206.13,270.718 198,268.5C 196.893,268.585 195.893,268.919 195,269.5C 190.608,268.304 186.608,266.304 183,263.5C 182.439,264.022 181.772,264.355 181,264.5C 178.723,263.63 176.389,262.963 174,262.5C 172.124,262.525 170.624,263.191 169.5,264.5C 165.293,264.885 161.293,264.885 157.5,264.5C 162.798,263.04 168.131,261.707 173.5,260.5C 179.567,261.185 185.734,261.851 192,262.5C 192.333,262.167 192.667,261.833 193,261.5C 203.969,263.864 215.136,266.531 226.5,269.5C 228.5,268.5 230.5,267.5 232.5,266.5C 252.873,270.997 273.373,275.997 294,281.5C 295.285,281.05 296.452,280.383 297.5,279.5C 298.833,280.5 300.167,281.5 301.5,282.5C 302.415,280.02 303.915,279.353 306,280.5C 306.73,277.285 307.564,274.285 308.5,271.5C 308.119,269.058 308.786,268.391 310.5,269.5C 311.597,266.71 312.597,263.877 313.5,261C 313.836,259.97 314.503,259.47 315.5,259.5 Z"/></g>
<g><path style="opacity:1" fill="#eaf9fb" d="M 190.5,257.5 C 190.791,258.649 191.624,259.316 193,259.5C 202.352,257.866 211.018,258.866 219,262.5C 225.504,261.902 232.17,261.902 239,262.5C 245.227,265.176 251.727,265.843 258.5,264.5C 269.184,266.892 279.851,269.392 290.5,272C 292.329,272.273 293.829,273.107 295,274.5C 296.706,273.692 297.539,272.359 297.5,270.5C 298.552,270.649 299.552,270.483 300.5,270C 299.346,269.086 299.513,268.253 301,267.5C 301.754,270.639 302.754,273.639 304,276.5C 305.049,274.382 306.549,272.716 308.5,271.5C 307.564,274.285 306.73,277.285 306,280.5C 303.915,279.353 302.415,280.02 301.5,282.5C 300.167,281.5 298.833,280.5 297.5,279.5C 296.452,280.383 295.285,281.05 294,281.5C 273.373,275.997 252.873,270.997 232.5,266.5C 230.5,267.5 228.5,268.5 226.5,269.5C 215.136,266.531 203.969,263.864 193,261.5C 192.667,261.833 192.333,262.167 192,262.5C 185.734,261.851 179.567,261.185 173.5,260.5C 178.833,259.46 184.5,258.46 190.5,257.5 Z"/></g>
<g><path style="opacity:1" fill="#ddf6fa" d="M 296.5,299.5 C 296.789,304.084 294.789,306.751 290.5,307.5C 290.843,305.517 290.176,304.183 288.5,303.5C 287.25,303.423 286.417,302.756 286,301.5C 284.187,302.609 283.354,301.942 283.5,299.5C 281.179,299.771 279.179,299.104 277.5,297.5C 276.833,297.833 276.167,298.167 275.5,298.5C 273.423,297.012 272.423,295.012 272.5,292.5C 268.944,292.275 268.61,293.108 271.5,295C 271.333,295.5 271.167,296 271,296.5C 269.75,295.427 268.416,295.427 267,296.5C 266.333,295.833 265.667,295.167 265,294.5C 264.228,294.645 263.561,294.978 263,295.5C 262.692,294.692 262.192,294.025 261.5,293.5C 260.167,294.167 258.833,294.833 257.5,295.5C 256.459,293.009 255.626,293.009 255,295.5C 253.7,292.568 251.7,290.234 249,288.5C 248.667,288.833 248.333,289.167 248,289.5C 246.352,288.283 244.519,287.45 242.5,287C 243.5,286.667 244.5,286.333 245.5,286C 242.57,285.394 239.737,284.56 237,283.5C 235.286,284.925 233.953,284.592 233,282.5C 231.274,283.576 229.441,283.743 227.5,283C 216.842,279.202 206.008,276.036 195,273.5C 192.978,274.991 191.312,274.658 190,272.5C 189.612,273.428 188.945,274.095 188,274.5C 185.87,271.674 183.037,268.84 179.5,266C 176.064,264.588 172.731,264.088 169.5,264.5C 170.624,263.191 172.124,262.525 174,262.5C 176.389,262.963 178.723,263.63 181,264.5C 181.772,264.355 182.439,264.022 183,263.5C 186.608,266.304 190.608,268.304 195,269.5C 195.893,268.919 196.893,268.585 198,268.5C 206.13,270.718 214.297,272.885 222.5,275C 231.71,275.642 240.71,277.309 249.5,280C 250.552,281.716 249.886,282.716 247.5,283C 249.5,283.667 251.5,283.667 253.5,283C 255.059,281.244 256.726,281.244 258.5,283C 258.167,283.333 257.833,283.667 257.5,284C 259.013,286.023 260.346,285.856 261.5,283.5C 262.519,284.687 263.686,285.687 265,286.5C 265.333,285.833 265.667,285.167 266,284.5C 271.737,286.456 277.403,289.122 283,292.5C 283.333,291.833 283.667,291.167 284,290.5C 285.5,291.667 287,292.833 288.5,294C 288.167,294.333 287.833,294.667 287.5,295C 289.135,295.54 290.468,295.04 291.5,293.5C 294.982,294.035 296.649,296.035 296.5,299.5 Z"/></g>
<g><path style="opacity:1" fill="#d1f3f9" d="M 288.5,303.5 C 290.176,304.183 290.843,305.517 290.5,307.5C 294.789,306.751 296.789,304.084 296.5,299.5C 298.755,298.352 300.588,296.686 302,294.5C 302.314,289.657 304.481,285.99 308.5,283.5C 303.836,295.526 297.503,306.526 289.5,316.5C 285.849,319.044 281.849,321.044 277.5,322.5C 275.722,321.055 273.722,320.055 271.5,319.5C 269.845,320.228 268.179,320.395 266.5,320C 269.44,318.848 272.44,317.848 275.5,317C 274.207,316.51 272.873,316.343 271.5,316.5C 269.801,316.66 268.134,316.494 266.5,316C 269.167,315.333 269.167,314.667 266.5,314C 267.167,313.667 267.833,313.333 268.5,313C 266.5,312.667 264.5,312.333 262.5,312C 259.841,307.269 256.007,305.435 251,306.5C 247.229,303.515 243.062,301.182 238.5,299.5C 235.787,302.322 233.787,301.822 232.5,298C 231.551,297.383 230.718,297.549 230,298.5C 228.924,294.894 226.757,293.894 223.5,295.5C 222.713,294.758 222.047,293.925 221.5,293C 217.213,291.512 212.88,290.178 208.5,289C 207.039,285.223 204.539,283.723 201,284.5C 199.676,283.12 198.343,282.786 197,283.5C 196.683,281.699 196.016,281.366 195,282.5C 185.368,279.421 175.535,278.255 165.5,279C 164.167,278 164.167,277 165.5,276C 164.354,275.355 163.354,274.522 162.5,273.5C 161.109,274.645 159.776,274.645 158.5,273.5C 158.901,271.566 159.901,270.066 161.5,269C 156.47,268.586 151.47,268.919 146.5,270C 145.584,270.278 144.918,270.778 144.5,271.5C 140.167,272.167 135.833,272.833 131.5,273.5C 132.008,271.767 132.841,271.434 134,272.5C 135.079,270.606 136.413,270.273 138,271.5C 140.419,269.415 143.253,268.415 146.5,268.5C 151.326,267.871 156.16,267.204 161,266.5C 163.005,266.999 164.505,268.166 165.5,270C 167.878,270.511 170.212,271.178 172.5,272C 171.655,273.558 172.321,274.558 174.5,275C 191.776,277.7 208.61,282.533 225,289.5C 225.333,289.167 225.667,288.833 226,288.5C 227.734,289.249 229.567,289.749 231.5,290C 229.346,291.184 229.68,292.35 232.5,293.5C 233.167,293.167 233.833,292.833 234.5,292.5C 240.329,293.532 245.329,296.032 249.5,300C 252.176,298.928 254.509,299.595 256.5,302C 253.833,302.667 253.833,303.333 256.5,304C 259.998,304.208 263.331,305.041 266.5,306.5C 269.316,305.895 271.983,304.895 274.5,303.5C 275.167,304.167 275.833,304.833 276.5,305.5C 277.521,304.998 277.688,304.332 277,303.5C 272.832,302.664 272.665,301.664 276.5,300.5C 278.705,302.346 281.039,304.013 283.5,305.5C 284.72,304.289 285.887,304.289 287,305.5C 287.717,304.956 288.217,304.289 288.5,303.5 Z"/></g>
<g><path style="opacity:1" fill="#caf3f9" d="M 271.5,316.5 C 268.324,318.956 265.324,318.79 262.5,316C 263.167,315.667 263.833,315.333 264.5,315C 257.251,313.045 251.418,310.878 247,308.5C 246.033,309.678 245.533,311.011 245.5,312.5C 241.167,311 236.833,309.5 232.5,308C 233.167,307.667 233.833,307.333 234.5,307C 231.363,306.399 228.363,305.399 225.5,304C 225.833,303.667 226.167,303.333 226.5,303C 220.831,301.612 215.498,299.779 210.5,297.5C 210.5,296.5 210.5,295.5 210.5,294.5C 207.838,293.361 205.171,293.194 202.5,294C 198.743,290.256 194.41,287.256 189.5,285C 185.238,284.629 181.071,283.796 177,282.5C 176.228,282.645 175.561,282.978 175,283.5C 172.321,281.921 169.654,281.254 167,281.5C 163.746,281.838 160.912,282.838 158.5,284.5C 153.946,284.255 149.446,284.588 145,285.5C 142.98,284.968 142.147,283.635 142.5,281.5C 140.095,282.768 138.095,282.768 136.5,281.5C 139.682,278.485 143.015,275.652 146.5,273C 146.164,271.97 145.497,271.47 144.5,271.5C 144.918,270.778 145.584,270.278 146.5,270C 151.47,268.919 156.47,268.586 161.5,269C 159.901,270.066 158.901,271.566 158.5,273.5C 159.776,274.645 161.109,274.645 162.5,273.5C 163.354,274.522 164.354,275.355 165.5,276C 164.167,277 164.167,278 165.5,279C 175.535,278.255 185.368,279.421 195,282.5C 196.016,281.366 196.683,281.699 197,283.5C 198.343,282.786 199.676,283.12 201,284.5C 204.539,283.723 207.039,285.223 208.5,289C 212.88,290.178 217.213,291.512 221.5,293C 222.047,293.925 222.713,294.758 223.5,295.5C 226.757,293.894 228.924,294.894 230,298.5C 230.718,297.549 231.551,297.383 232.5,298C 233.787,301.822 235.787,302.322 238.5,299.5C 243.062,301.182 247.229,303.515 251,306.5C 256.007,305.435 259.841,307.269 262.5,312C 264.5,312.333 266.5,312.667 268.5,313C 267.833,313.333 267.167,313.667 266.5,314C 269.167,314.667 269.167,315.333 266.5,316C 268.134,316.494 269.801,316.66 271.5,316.5 Z"/></g>
<g><path style="opacity:1" fill="#c5f2f8" d="M 271.5,316.5 C 272.873,316.343 274.207,316.51 275.5,317C 272.44,317.848 269.44,318.848 266.5,320C 268.179,320.395 269.845,320.228 271.5,319.5C 273.722,320.055 275.722,321.055 277.5,322.5C 281.849,321.044 285.849,319.044 289.5,316.5C 287.549,319.786 285.215,322.786 282.5,325.5C 276.689,326.226 271.355,325.059 266.5,322C 260.857,321.136 255.19,320.469 249.5,320C 246.996,319.302 244.663,318.469 242.5,317.5C 237.315,315.903 232.648,313.236 228.5,309.5C 228.511,310.441 228.011,311.108 227,311.5C 226.454,310.711 225.787,309.711 225,308.5C 224.667,309.167 224.333,309.833 224,310.5C 222.727,308.428 220.893,307.095 218.5,306.5C 217.614,305.675 217.281,304.675 217.5,303.5C 213.645,304.155 210.812,302.821 209,299.5C 207.57,299.306 206.07,299.306 204.5,299.5C 198.875,297.021 193.542,294.021 188.5,290.5C 187.554,290.987 186.554,291.32 185.5,291.5C 181.336,288.653 176.836,286.319 172,284.5C 167.518,285.684 163.018,285.684 158.5,284.5C 160.912,282.838 163.746,281.838 167,281.5C 169.654,281.254 172.321,281.921 175,283.5C 175.561,282.978 176.228,282.645 177,282.5C 181.071,283.796 185.238,284.629 189.5,285C 194.41,287.256 198.743,290.256 202.5,294C 205.171,293.194 207.838,293.361 210.5,294.5C 210.5,295.5 210.5,296.5 210.5,297.5C 215.498,299.779 220.831,301.612 226.5,303C 226.167,303.333 225.833,303.667 225.5,304C 228.363,305.399 231.363,306.399 234.5,307C 233.833,307.333 233.167,307.667 232.5,308C 236.833,309.5 241.167,311 245.5,312.5C 245.533,311.011 246.033,309.678 247,308.5C 251.418,310.878 257.251,313.045 264.5,315C 263.833,315.333 263.167,315.667 262.5,316C 265.324,318.79 268.324,318.956 271.5,316.5 Z"/></g>
<g><path style="opacity:1" fill="#d7f5fa" d="M 157.5,264.5 C 161.293,264.885 165.293,264.885 169.5,264.5C 172.731,264.088 176.064,264.588 179.5,266C 183.037,268.84 185.87,271.674 188,274.5C 188.945,274.095 189.612,273.428 190,272.5C 191.312,274.658 192.978,274.991 195,273.5C 206.008,276.036 216.842,279.202 227.5,283C 229.441,283.743 231.274,283.576 233,282.5C 233.953,284.592 235.286,284.925 237,283.5C 239.737,284.56 242.57,285.394 245.5,286C 244.5,286.333 243.5,286.667 242.5,287C 244.519,287.45 246.352,288.283 248,289.5C 248.333,289.167 248.667,288.833 249,288.5C 251.7,290.234 253.7,292.568 255,295.5C 255.626,293.009 256.459,293.009 257.5,295.5C 258.833,294.833 260.167,294.167 261.5,293.5C 262.192,294.025 262.692,294.692 263,295.5C 263.561,294.978 264.228,294.645 265,294.5C 265.667,295.167 266.333,295.833 267,296.5C 268.416,295.427 269.75,295.427 271,296.5C 271.167,296 271.333,295.5 271.5,295C 268.61,293.108 268.944,292.275 272.5,292.5C 272.423,295.012 273.423,297.012 275.5,298.5C 276.167,298.167 276.833,297.833 277.5,297.5C 279.179,299.104 281.179,299.771 283.5,299.5C 283.354,301.942 284.187,302.609 286,301.5C 286.417,302.756 287.25,303.423 288.5,303.5C 288.217,304.289 287.717,304.956 287,305.5C 285.887,304.289 284.72,304.289 283.5,305.5C 281.039,304.013 278.705,302.346 276.5,300.5C 272.665,301.664 272.832,302.664 277,303.5C 277.688,304.332 277.521,304.998 276.5,305.5C 275.833,304.833 275.167,304.167 274.5,303.5C 271.983,304.895 269.316,305.895 266.5,306.5C 263.331,305.041 259.998,304.208 256.5,304C 253.833,303.333 253.833,302.667 256.5,302C 254.509,299.595 252.176,298.928 249.5,300C 245.329,296.032 240.329,293.532 234.5,292.5C 233.833,292.833 233.167,293.167 232.5,293.5C 229.68,292.35 229.346,291.184 231.5,290C 229.567,289.749 227.734,289.249 226,288.5C 225.667,288.833 225.333,289.167 225,289.5C 208.61,282.533 191.776,277.7 174.5,275C 172.321,274.558 171.655,273.558 172.5,272C 170.212,271.178 167.878,270.511 165.5,270C 164.505,268.166 163.005,266.999 161,266.5C 156.16,267.204 151.326,267.871 146.5,268.5C 149.827,266.425 153.494,265.091 157.5,264.5 Z"/></g>
<g><path style="opacity:1" fill="#a8ebf8" d="M 242.5,317.5 C 244.663,318.469 246.996,319.302 249.5,320C 255.19,320.469 260.857,321.136 266.5,322C 271.355,325.059 276.689,326.226 282.5,325.5C 280.052,326.473 277.385,326.806 274.5,326.5C 247.033,321.133 219.699,315.133 192.5,308.5C 187.707,307.008 182.707,305.841 177.5,305C 154.363,300.925 131.03,298.758 107.5,298.5C 100.26,300.113 92.9268,300.779 85.5,300.5C 85.5,298.833 85.5,297.167 85.5,295.5C 91.4897,293.839 96.823,291.172 101.5,287.5C 106.659,285.42 111.659,283.086 116.5,280.5C 121.5,279.167 126.5,277.833 131.5,276.5C 131.719,277.675 131.386,278.675 130.5,279.5C 126.965,281.621 123.298,283.455 119.5,285C 120.938,285.219 122.271,285.719 123.5,286.5C 123.979,288.889 125.312,290.556 127.5,291.5C 138.411,287.543 148.744,287.043 158.5,290C 158.167,290.333 157.833,290.667 157.5,291C 162.234,291.683 166.9,292.683 171.5,294C 177.015,297.045 182.348,300.378 187.5,304C 198.322,306.578 208.989,309.578 219.5,313C 227.291,313.989 234.957,315.489 242.5,317.5 Z"/></g>
<g><path style="opacity:1" fill="#bceff8" d="M 144.5,271.5 C 145.497,271.47 146.164,271.97 146.5,273C 143.015,275.652 139.682,278.485 136.5,281.5C 138.095,282.768 140.095,282.768 142.5,281.5C 142.147,283.635 142.98,284.968 145,285.5C 149.446,284.588 153.946,284.255 158.5,284.5C 163.018,285.684 167.518,285.684 172,284.5C 176.836,286.319 181.336,288.653 185.5,291.5C 186.554,291.32 187.554,290.987 188.5,290.5C 193.542,294.021 198.875,297.021 204.5,299.5C 206.07,299.306 207.57,299.306 209,299.5C 210.812,302.821 213.645,304.155 217.5,303.5C 217.281,304.675 217.614,305.675 218.5,306.5C 220.893,307.095 222.727,308.428 224,310.5C 224.333,309.833 224.667,309.167 225,308.5C 225.787,309.711 226.454,310.711 227,311.5C 228.011,311.108 228.511,310.441 228.5,309.5C 232.648,313.236 237.315,315.903 242.5,317.5C 234.957,315.489 227.291,313.989 219.5,313C 208.989,309.578 198.322,306.578 187.5,304C 182.348,300.378 177.015,297.045 171.5,294C 166.9,292.683 162.234,291.683 157.5,291C 157.833,290.667 158.167,290.333 158.5,290C 148.744,287.043 138.411,287.543 127.5,291.5C 125.312,290.556 123.979,288.889 123.5,286.5C 122.271,285.719 120.938,285.219 119.5,285C 123.298,283.455 126.965,281.621 130.5,279.5C 131.386,278.675 131.719,277.675 131.5,276.5C 126.5,277.833 121.5,279.167 116.5,280.5C 113.882,280.779 111.382,281.446 109,282.5C 108.601,282.272 108.435,281.938 108.5,281.5C 115.821,278.059 123.487,275.392 131.5,273.5C 135.833,272.833 140.167,272.167 144.5,271.5 Z"/></g>
<g><path style="opacity:0.765" fill="#78c2d4" d="M 116.5,280.5 C 111.659,283.086 106.659,285.42 101.5,287.5C 95.4135,289.411 89.7468,292.077 84.5,295.5C 78.902,297.301 73.5687,299.634 68.5,302.5C 67.3684,301.646 66.035,301.646 64.5,302.5C 66.2528,300.777 68.2528,299.277 70.5,298C 83.0352,291.996 95.7018,286.496 108.5,281.5C 108.435,281.938 108.601,282.272 109,282.5C 111.382,281.446 113.882,280.779 116.5,280.5 Z"/></g>
<g><path style="opacity:1" fill="#69d8f0" d="M 101.5,287.5 C 96.823,291.172 91.4897,293.839 85.5,295.5C 85.5,297.167 85.5,298.833 85.5,300.5C 92.9268,300.779 100.26,300.113 107.5,298.5C 131.03,298.758 154.363,300.925 177.5,305C 182.707,305.841 187.707,307.008 192.5,308.5C 191.127,308.343 189.793,308.51 188.5,309C 194.142,310.66 199.809,312.16 205.5,313.5C 205.5,313.833 205.5,314.167 205.5,314.5C 201.154,314.666 196.821,314.499 192.5,314C 179.941,311.746 167.441,309.246 155,306.5C 153.5,306.667 152,306.833 150.5,307C 152.271,307.535 152.604,308.369 151.5,309.5C 149.217,308.679 146.884,308.012 144.5,307.5C 139.025,308.465 133.692,308.465 128.5,307.5C 127.808,308.025 127.308,308.692 127,309.5C 125.562,308.282 123.895,307.615 122,307.5C 118.424,308.351 114.924,308.018 111.5,306.5C 108.217,307.327 104.884,307.66 101.5,307.5C 101.66,309.199 101.494,310.866 101,312.5C 99.7567,311.664 98.5901,311.997 97.5,313.5C 96.6906,315.071 96.3573,316.738 96.5,318.5C 99.3755,319.205 101.542,320.871 103,323.5C 104.996,323.004 106.663,322.004 108,320.5C 109.918,321.542 111.751,322.708 113.5,324C 111.347,324.099 109.681,324.933 108.5,326.5C 107.745,328.466 106.579,328.8 105,327.5C 100.72,328.772 96.5528,330.106 92.5,331.5C 88.1311,331.467 83.7978,331.8 79.5,332.5C 81.9438,330.928 84.6105,329.428 87.5,328C 83.8074,326.952 80.6407,325.119 78,322.5C 77.2753,323.059 76.4419,323.392 75.5,323.5C 71.9932,323.078 68.6599,322.244 65.5,321C 66.5358,319.383 67.7025,319.216 69,320.5C 72.589,316.631 76.589,313.298 81,310.5C 83.5774,311.329 85.7441,310.495 87.5,308C 91.4642,306.127 95.4642,304.46 99.5,303C 96.8333,302.333 94.1667,302.333 91.5,303C 80.5821,307.046 69.7487,311.213 59,315.5C 59.8423,311.037 62.6757,309.37 67.5,310.5C 67.178,308.278 67.8446,306.444 69.5,305C 74.917,302.401 79.917,299.235 84.5,295.5C 89.7468,292.077 95.4135,289.411 101.5,287.5 Z"/></g>
<g><path style="opacity:1" fill="#73ddf2" d="M 205.5,314.5 C 215.342,318.447 225.342,321.781 235.5,324.5C 223.809,322.774 212.142,320.774 200.5,318.5C 199.167,318.833 197.833,319.167 196.5,319.5C 191.305,317.701 185.972,316.535 180.5,316C 172.472,315.772 164.472,315.272 156.5,314.5C 150.679,314.969 145.012,313.969 139.5,311.5C 136.557,312.244 133.557,312.744 130.5,313C 131.328,313.915 132.328,314.581 133.5,315C 128.646,314.867 124.646,316.533 121.5,320C 123.286,320.785 124.786,321.951 126,323.5C 129.565,323.226 133.065,324.06 136.5,326C 136.167,326.333 135.833,326.667 135.5,327C 126.414,329.123 117.414,328.957 108.5,326.5C 109.681,324.933 111.347,324.099 113.5,324C 111.751,322.708 109.918,321.542 108,320.5C 106.663,322.004 104.996,323.004 103,323.5C 101.542,320.871 99.3755,319.205 96.5,318.5C 96.3573,316.738 96.6906,315.071 97.5,313.5C 98.5901,311.997 99.7567,311.664 101,312.5C 101.494,310.866 101.66,309.199 101.5,307.5C 104.884,307.66 108.217,307.327 111.5,306.5C 114.924,308.018 118.424,308.351 122,307.5C 123.895,307.615 125.562,308.282 127,309.5C 127.308,308.692 127.808,308.025 128.5,307.5C 133.692,308.465 139.025,308.465 144.5,307.5C 146.884,308.012 149.217,308.679 151.5,309.5C 152.604,308.369 152.271,307.535 150.5,307C 152,306.833 153.5,306.667 155,306.5C 167.441,309.246 179.941,311.746 192.5,314C 196.821,314.499 201.154,314.666 205.5,314.5 Z"/></g>
<g><path style="opacity:1" fill="#7fe0f3" d="M 235.5,324.5 C 245.053,327.683 254.72,330.683 264.5,333.5C 265.91,334.569 266.91,335.903 267.5,337.5C 267.027,338.906 266.027,339.573 264.5,339.5C 266.002,337.171 265.336,335.837 262.5,335.5C 256.962,333.559 251.295,331.893 245.5,330.5C 242.366,329.773 239.199,329.106 236,328.5C 234.463,329.114 233.13,329.114 232,328.5C 230.751,330.992 229.584,330.825 228.5,328C 226.5,327.333 224.5,327.333 222.5,328C 224.595,328.556 224.762,329.056 223,329.5C 221.667,328.833 220.333,328.167 219,327.5C 218.228,327.645 217.561,327.978 217,328.5C 214.332,327.02 214.165,325.52 216.5,324C 210.974,322.989 205.474,321.822 200,320.5C 197.709,321.072 195.375,321.406 193,321.5C 185.575,319.936 178.075,318.936 170.5,318.5C 165.98,318.829 161.646,318.995 157.5,319C 158.167,319.333 158.833,319.667 159.5,320C 153.671,321.639 153.338,323.639 158.5,326C 153.969,326.907 149.636,328.073 145.5,329.5C 134.321,329.172 123.321,329.505 112.5,330.5C 106.797,330.375 101.13,330.708 95.5,331.5C 94.5,331.5 93.5,331.5 92.5,331.5C 96.5528,330.106 100.72,328.772 105,327.5C 106.579,328.8 107.745,328.466 108.5,326.5C 117.414,328.957 126.414,329.123 135.5,327C 135.833,326.667 136.167,326.333 136.5,326C 133.065,324.06 129.565,323.226 126,323.5C 124.786,321.951 123.286,320.785 121.5,320C 124.646,316.533 128.646,314.867 133.5,315C 132.328,314.581 131.328,313.915 130.5,313C 133.557,312.744 136.557,312.244 139.5,311.5C 145.012,313.969 150.679,314.969 156.5,314.5C 164.472,315.272 172.472,315.772 180.5,316C 185.972,316.535 191.305,317.701 196.5,319.5C 197.833,319.167 199.167,318.833 200.5,318.5C 212.142,320.774 223.809,322.774 235.5,324.5 Z"/></g>
<g><path style="opacity:1" fill="#c0f0f7" d="M 346.5,287.5 C 346.5,301.167 346.5,314.833 346.5,328.5C 339.807,327.5 333.141,327.833 326.5,329.5C 322.306,328.736 318.306,327.402 314.5,325.5C 312.201,326.635 310.034,327.968 308,329.5C 310.028,326.493 312.862,323.993 316.5,322C 317.453,320.045 318.787,318.378 320.5,317C 318.833,317.333 317.167,317.667 315.5,318C 317.891,316.691 317.891,315.691 315.5,315C 317.554,313.318 317.221,311.651 314.5,310C 315.802,307.787 316.802,305.454 317.5,303C 316.833,302.667 316.167,302.333 315.5,302C 320.237,297.916 321.57,292.916 319.5,287C 323.24,266.775 325.573,246.609 326.5,226.5C 328.686,217.974 330.186,209.308 331,200.5C 331.333,200.167 331.667,199.833 332,199.5C 332.777,202.429 332.61,205.263 331.5,208C 332.448,208.483 333.448,208.649 334.5,208.5C 333.877,213.401 332.877,218.235 331.5,223C 332.289,224.626 333.289,226.126 334.5,227.5C 333.167,228.833 333.167,230.167 334.5,231.5C 332.777,236.729 331.944,242.062 332,247.5C 332.98,245.941 333.813,244.274 334.5,242.5C 334.833,243 335.167,243.5 335.5,244C 335.677,247.316 334.677,250.483 332.5,253.5C 331.915,258.629 331.915,263.629 332.5,268.5C 331.833,269.167 331.167,269.833 330.5,270.5C 331.603,270.998 332.603,271.331 333.5,271.5C 333.291,272.086 332.957,272.586 332.5,273C 333.227,275.124 333.894,277.291 334.5,279.5C 331.972,280.816 331.972,281.983 334.5,283C 331.833,283.667 331.833,284.333 334.5,285C 333.356,289.515 335.189,292.349 340,293.5C 342.678,291.986 344.845,289.986 346.5,287.5 Z"/></g>
<g><path style="opacity:1" fill="#88e3f5" d="M 245.5,330.5 C 245.209,331.649 244.376,332.316 243,332.5C 233.833,331.729 224.666,330.896 215.5,330C 214.391,329.362 213.225,328.862 212,328.5C 190.223,329.337 168.056,329.671 145.5,329.5C 149.636,328.073 153.969,326.907 158.5,326C 153.338,323.639 153.671,321.639 159.5,320C 158.833,319.667 158.167,319.333 157.5,319C 161.646,318.995 165.98,318.829 170.5,318.5C 178.075,318.936 185.575,319.936 193,321.5C 195.375,321.406 197.709,321.072 200,320.5C 205.474,321.822 210.974,322.989 216.5,324C 214.165,325.52 214.332,327.02 217,328.5C 217.561,327.978 218.228,327.645 219,327.5C 220.333,328.167 221.667,328.833 223,329.5C 224.762,329.056 224.595,328.556 222.5,328C 224.5,327.333 226.5,327.333 228.5,328C 229.584,330.825 230.751,330.992 232,328.5C 233.13,329.114 234.463,329.114 236,328.5C 239.199,329.106 242.366,329.773 245.5,330.5 Z"/></g>
<g><path style="opacity:1" fill="#4ecbeb" d="M 84.5,295.5 C 79.917,299.235 74.917,302.401 69.5,305C 67.8446,306.444 67.178,308.278 67.5,310.5C 62.6757,309.37 59.8423,311.037 59,315.5C 69.7487,311.213 80.5821,307.046 91.5,303C 94.1667,302.333 96.8333,302.333 99.5,303C 95.4642,304.46 91.4642,306.127 87.5,308C 85.7441,310.495 83.5774,311.329 81,310.5C 76.589,313.298 72.589,316.631 69,320.5C 67.7025,319.216 66.5358,319.383 65.5,321C 68.6599,322.244 71.9932,323.078 75.5,323.5C 76.4419,323.392 77.2753,323.059 78,322.5C 80.6407,325.119 83.8074,326.952 87.5,328C 84.6105,329.428 81.9438,330.928 79.5,332.5C 70.7847,333.126 62.1181,334.126 53.5,335.5C 53.9175,334.778 54.5842,334.278 55.5,334C 48.1283,333.968 40.7949,333.801 33.5,333.5C 33.0688,332.707 32.7355,331.873 32.5,331C 33.9525,329.435 35.6191,328.102 37.5,327C 35.144,326.845 32.8107,326.845 30.5,327C 31.3805,326.292 32.0472,325.458 32.5,324.5C 33.1667,323.833 33.8333,323.167 34.5,322.5C 45.9442,315.787 57.2775,309.12 68.5,302.5C 73.5687,299.634 78.902,297.301 84.5,295.5 Z"/></g>
<g><path style="opacity:0.647" fill="#4da4c2" d="M 68.5,302.5 C 57.2775,309.12 45.9442,315.787 34.5,322.5C 33.3684,321.646 32.035,321.646 30.5,322.5C 41.1671,314.828 52.5004,308.162 64.5,302.5C 66.035,301.646 67.3684,301.646 68.5,302.5 Z"/></g>
<g><path style="opacity:1" fill="#a6e9f5" d="M 326.5,226.5 C 325.573,246.609 323.24,266.775 319.5,287C 321.57,292.916 320.237,297.916 315.5,302C 316.167,302.333 316.833,302.667 317.5,303C 316.802,305.454 315.802,307.787 314.5,310C 317.221,311.651 317.554,313.318 315.5,315C 317.891,315.691 317.891,316.691 315.5,318C 317.167,317.667 318.833,317.333 320.5,317C 318.787,318.378 317.453,320.045 316.5,322C 312.862,323.993 310.028,326.493 308,329.5C 310.034,327.968 312.201,326.635 314.5,325.5C 318.306,327.402 322.306,328.736 326.5,329.5C 333.141,327.833 339.807,327.5 346.5,328.5C 346.5,328.833 346.5,329.167 346.5,329.5C 332.518,330.343 318.518,330.676 304.5,330.5C 298.937,329.7 293.27,328.7 287.5,327.5C 297.792,311.482 306.459,294.482 313.5,276.5C 313.333,276.167 313.167,275.833 313,275.5C 312.292,276.381 311.458,277.047 310.5,277.5C 312.478,271.589 314.145,265.589 315.5,259.5C 316.117,259.389 316.617,259.056 317,258.5C 319.168,249.828 321.335,241.162 323.5,232.5C 323.457,231.584 323.124,230.917 322.5,230.5C 322.5,230.167 322.5,229.833 322.5,229.5C 323.637,228.211 324.97,227.211 326.5,226.5 Z"/></g>
<g><path style="opacity:1" fill="#47c1e7" d="M 205.5,314.5 C 205.5,314.167 205.5,313.833 205.5,313.5C 211.408,314.561 217.075,316.394 222.5,319C 241.039,321.541 259.373,325.041 277.5,329.5C 274.436,332.57 271.103,335.237 267.5,337.5C 266.91,335.903 265.91,334.569 264.5,333.5C 254.72,330.683 245.053,327.683 235.5,324.5C 225.342,321.781 215.342,318.447 205.5,314.5 Z"/></g>
<g><path style="opacity:1" fill="#9ee5f0" d="M 245.5,330.5 C 251.295,331.893 256.962,333.559 262.5,335.5C 239.836,334.764 217.169,334.098 194.5,333.5C 189.637,332.734 184.637,332.068 179.5,331.5C 157.34,330.503 135.006,330.169 112.5,330.5C 123.321,329.505 134.321,329.172 145.5,329.5C 168.056,329.671 190.223,329.337 212,328.5C 213.225,328.862 214.391,329.362 215.5,330C 224.666,330.896 233.833,331.729 243,332.5C 244.376,332.316 245.209,331.649 245.5,330.5 Z"/></g>
<g><path style="opacity:1" fill="#d1f5fa" d="M 179.5,331.5 C 184.637,332.068 189.637,332.734 194.5,333.5C 188.158,333.334 181.825,333.5 175.5,334C 177.278,336.135 177.945,338.635 177.5,341.5C 180.487,341.998 183.487,342.498 186.5,343C 185.167,343.667 185.167,344.333 186.5,345C 182.652,344.879 178.985,345.045 175.5,345.5C 166.761,344.902 158.094,343.736 149.5,342C 137.187,338.986 124.853,336.153 112.5,333.5C 134.794,331.746 157.127,331.079 179.5,331.5 Z"/></g>
<g><path style="opacity:1" fill="#50b4d7" d="M 304.5,330.5 C 314.325,331.33 324.325,331.83 334.5,332C 316.9,334.017 299.234,335.017 281.5,335C 278.041,335.984 274.708,337.15 271.5,338.5C 271.953,337.542 272.619,336.708 273.5,336C 277.897,334.485 282.23,332.818 286.5,331C 285.833,329.667 284.833,328.667 283.5,328C 280.305,327.819 277.305,327.319 274.5,326.5C 277.385,326.806 280.052,326.473 282.5,325.5C 285.215,322.786 287.549,319.786 289.5,316.5C 297.503,306.526 303.836,295.526 308.5,283.5C 309.73,281.703 310.396,279.703 310.5,277.5C 311.458,277.047 312.292,276.381 313,275.5C 313.167,275.833 313.333,276.167 313.5,276.5C 306.459,294.482 297.792,311.482 287.5,327.5C 293.27,328.7 298.937,329.7 304.5,330.5 Z"/></g>
<g><path style="opacity:1" fill="#27b2e1" d="M 32.5,324.5 C 32.0472,325.458 31.3805,326.292 30.5,327C 32.8107,326.845 35.144,326.845 37.5,327C 35.6191,328.102 33.9525,329.435 32.5,331C 32.7355,331.873 33.0688,332.707 33.5,333.5C 40.7949,333.801 48.1283,333.968 55.5,334C 54.5842,334.278 53.9175,334.778 53.5,335.5C 48.2375,336.711 42.9042,337.711 37.5,338.5C 33.0233,338.248 28.3566,338.081 23.5,338C 24.5523,336.284 23.8856,335.284 21.5,335C 21.8333,334.667 22.1667,334.333 22.5,334C 21.6919,333.692 21.0253,333.192 20.5,332.5C 24.2407,329.423 28.2407,326.756 32.5,324.5 Z"/></g>
<g><path style="opacity:1" fill="#d8f6f9" d="M 194.5,333.5 C 217.169,334.098 239.836,334.764 262.5,335.5C 265.336,335.837 266.002,337.171 264.5,339.5C 254.176,345.16 243.176,348.827 231.5,350.5C 212.432,351.468 193.766,349.801 175.5,345.5C 178.985,345.045 182.652,344.879 186.5,345C 185.167,344.333 185.167,343.667 186.5,343C 183.487,342.498 180.487,341.998 177.5,341.5C 177.945,338.635 177.278,336.135 175.5,334C 181.825,333.5 188.158,333.334 194.5,333.5 Z"/></g>
<g><path style="opacity:1" fill="#299acc" d="M 34.5,322.5 C 33.8333,323.167 33.1667,323.833 32.5,324.5C 28.2407,326.756 24.2407,329.423 20.5,332.5C 21.0253,333.192 21.6919,333.692 22.5,334C 22.1667,334.333 21.8333,334.667 21.5,335C 23.8856,335.284 24.5523,336.284 23.5,338C 28.3566,338.081 33.0233,338.248 37.5,338.5C 30.9332,340.475 24.2665,342.142 17.5,343.5C 17.44,342.957 17.1067,342.624 16.5,342.5C 14.2646,343.752 11.9313,344.252 9.5,344C 8.54943,343.282 8.38277,342.449 9,341.5C 11.1233,341.034 12.6233,339.867 13.5,338C 13.3333,337.5 13.1667,337 13,336.5C 11.3845,337.801 9.88448,337.801 8.5,336.5C 15.5833,331.412 22.9166,326.745 30.5,322.5C 32.035,321.646 33.3684,321.646 34.5,322.5 Z"/></g>
<g><path style="opacity:1" fill="#8be4f4" d="M 92.5,331.5 C 93.5,331.5 94.5,331.5 95.5,331.5C 91.4613,332.127 87.4613,333.294 83.5,335C 93.2036,335.214 102.87,335.88 112.5,337C 121.027,339.174 129.694,340.507 138.5,341C 142.333,342.034 145.999,343.2 149.5,344.5C 148.448,344.351 147.448,344.517 146.5,345C 158.354,348.194 170.354,350.694 182.5,352.5C 187.266,353.454 191.933,354.787 196.5,356.5C 179.53,354.844 162.53,353.344 145.5,352C 130.09,345.58 113.924,342.414 97,342.5C 82.0417,342.708 67.2083,344.041 52.5,346.5C 50.326,345.956 48.326,345.956 46.5,346.5C 45.086,345.535 44.2526,344.535 44,343.5C 41.318,344.067 39.1514,345.401 37.5,347.5C 36.5224,347.023 35.6891,346.357 35,345.5C 32.962,347.072 30.6287,348.072 28,348.5C 27.6667,348.167 27.3333,347.833 27,347.5C 26.5172,348.448 26.3505,349.448 26.5,350.5C 24.6096,350.703 23.1096,350.037 22,348.5C 20.9326,349.191 19.7659,349.691 18.5,350C 19.5171,351.049 19.6838,352.216 19,353.5C 17.7567,352.664 16.5901,352.997 15.5,354.5C 16.2116,356.046 17.3783,357.046 19,357.5C 20.3002,356.293 21.8002,355.626 23.5,355.5C 23.5,356.5 23.5,357.5 23.5,358.5C 19.1667,358.5 14.8333,358.5 10.5,358.5C 7.0635,357.055 3.39683,356.055 -0.5,355.5C -0.5,353.833 -0.5,352.167 -0.5,350.5C 5.69941,348.547 11.6994,346.214 17.5,343.5C 24.2665,342.142 30.9332,340.475 37.5,338.5C 42.9042,337.711 48.2375,336.711 53.5,335.5C 62.1181,334.126 70.7847,333.126 79.5,332.5C 83.7978,331.8 88.1311,331.467 92.5,331.5 Z"/></g>
<g><path style="opacity:1" fill="#85dff2" d="M 346.5,331.5 C 346.5,332.167 346.5,332.833 346.5,333.5C 342.075,334.687 337.742,336.187 333.5,338C 326.437,343.058 319.104,347.724 311.5,352C 302.904,353.392 295.07,351.559 288,346.5C 282.437,343.959 276.937,343.959 271.5,346.5C 271.461,345.417 271.127,344.417 270.5,343.5C 271.167,343.167 271.833,342.833 272.5,342.5C 276.788,342.082 281.121,341.916 285.5,342C 288.281,339.96 291.281,338.293 294.5,337C 302.882,336.804 311.215,336.304 319.5,335.5C 320.086,335.709 320.586,336.043 321,336.5C 329.526,334.972 338.026,333.306 346.5,331.5 Z"/></g>
<g><path style="opacity:1" fill="#b6f3fb" d="M 112.5,330.5 C 135.006,330.169 157.34,330.503 179.5,331.5C 157.127,331.079 134.794,331.746 112.5,333.5C 124.853,336.153 137.187,338.986 149.5,342C 158.094,343.736 166.761,344.902 175.5,345.5C 193.766,349.801 212.432,351.468 231.5,350.5C 218.006,351.661 204.34,351.827 190.5,351C 176.845,348.752 163.179,346.585 149.5,344.5C 145.999,343.2 142.333,342.034 138.5,341C 129.694,340.507 121.027,339.174 112.5,337C 102.87,335.88 93.2036,335.214 83.5,335C 87.4613,333.294 91.4613,332.127 95.5,331.5C 101.13,330.708 106.797,330.375 112.5,330.5 Z"/></g>
<g><path style="opacity:1" fill="#2175b4" d="M 8.5,336.5 C 9.88448,337.801 11.3845,337.801 13,336.5C 13.1667,337 13.3333,337.5 13.5,338C 12.6233,339.867 11.1233,341.034 9,341.5C 8.38277,342.449 8.54943,343.282 9.5,344C 11.9313,344.252 14.2646,343.752 16.5,342.5C 17.1067,342.624 17.44,342.957 17.5,343.5C 11.6994,346.214 5.69941,348.547 -0.5,350.5C -0.5,347.833 -0.5,345.167 -0.5,342.5C 2.70894,340.735 5.70894,338.735 8.5,336.5 Z"/></g>
<g><path style="opacity:1" fill="#a1ebf6" d="M 196.5,356.5 C 198.952,357.065 201.285,357.732 203.5,358.5C 190.5,358.5 177.5,358.5 164.5,358.5C 163.884,356.583 162.55,355.416 160.5,355C 156.775,354.24 153.108,354.407 149.5,355.5C 148.522,355.023 147.689,354.357 147,353.5C 144.572,353.214 142.072,353.214 139.5,353.5C 135.566,353.018 131.9,351.852 128.5,350C 115.432,349.965 102.432,349.132 89.5,347.5C 87.9446,347.722 86.6113,348.389 85.5,349.5C 84.3044,349.154 84.3044,348.654 85.5,348C 83.8876,347.28 82.3876,347.446 81,348.5C 79.3333,347.833 77.6667,347.167 76,346.5C 73.2595,347.282 70.4262,347.782 67.5,348C 68.9928,349.156 68.8261,349.99 67,350.5C 66.1268,350.265 65.2935,349.931 64.5,349.5C 58.8249,352.241 52.9916,354.241 47,355.5C 45.5075,353.652 43.6741,352.819 41.5,353C 43.6348,354.556 43.9681,356.389 42.5,358.5C 36.1667,358.5 29.8333,358.5 23.5,358.5C 23.5,357.5 23.5,356.5 23.5,355.5C 21.8002,355.626 20.3002,356.293 19,357.5C 17.3783,357.046 16.2116,356.046 15.5,354.5C 16.5901,352.997 17.7567,352.664 19,353.5C 19.6838,352.216 19.5171,351.049 18.5,350C 19.7659,349.691 20.9326,349.191 22,348.5C 23.1096,350.037 24.6096,350.703 26.5,350.5C 26.3505,349.448 26.5172,348.448 27,347.5C 27.3333,347.833 27.6667,348.167 28,348.5C 30.6287,348.072 32.962,347.072 35,345.5C 35.6891,346.357 36.5224,347.023 37.5,347.5C 39.1514,345.401 41.318,344.067 44,343.5C 44.2526,344.535 45.086,345.535 46.5,346.5C 48.326,345.956 50.326,345.956 52.5,346.5C 67.2083,344.041 82.0417,342.708 97,342.5C 113.924,342.414 130.09,345.58 145.5,352C 162.53,353.344 179.53,354.844 196.5,356.5 Z"/></g>
<g><path style="opacity:1" fill="#b1edf7" d="M 346.5,333.5 C 346.5,341.833 346.5,350.167 346.5,358.5C 333.833,358.5 321.167,358.5 308.5,358.5C 305.021,354.678 301.354,354.678 297.5,358.5C 297.167,358.5 296.833,358.5 296.5,358.5C 296.167,357.167 295.833,357.167 295.5,358.5C 282.5,358.5 269.5,358.5 256.5,358.5C 262.055,355.288 267.055,351.288 271.5,346.5C 276.937,343.959 282.437,343.959 288,346.5C 295.07,351.559 302.904,353.392 311.5,352C 319.104,347.724 326.437,343.058 333.5,338C 337.742,336.187 342.075,334.687 346.5,333.5 Z"/></g>
<g><path style="opacity:1" fill="#5eceeb" d="M 346.5,329.5 C 346.5,330.167 346.5,330.833 346.5,331.5C 338.026,333.306 329.526,334.972 321,336.5C 320.586,336.043 320.086,335.709 319.5,335.5C 311.215,336.304 302.882,336.804 294.5,337C 291.281,338.293 288.281,339.96 285.5,342C 281.121,341.916 276.788,342.082 272.5,342.5C 271.833,342.833 271.167,343.167 270.5,343.5C 271.127,344.417 271.461,345.417 271.5,346.5C 267.055,351.288 262.055,355.288 256.5,358.5C 238.833,358.5 221.167,358.5 203.5,358.5C 201.285,357.732 198.952,357.065 196.5,356.5C 191.933,354.787 187.266,353.454 182.5,352.5C 203.839,353.867 225.172,353.7 246.5,352C 254.574,346.964 262.908,342.464 271.5,338.5C 274.708,337.15 278.041,335.984 281.5,335C 299.234,335.017 316.9,334.017 334.5,332C 324.325,331.83 314.325,331.33 304.5,330.5C 318.518,330.676 332.518,330.343 346.5,329.5 Z"/></g>
<g><path style="opacity:1" fill="#329dc4" d="M 192.5,308.5 C 219.699,315.133 247.033,321.133 274.5,326.5C 277.305,327.319 280.305,327.819 283.5,328C 284.833,328.667 285.833,329.667 286.5,331C 282.23,332.818 277.897,334.485 273.5,336C 272.619,336.708 271.953,337.542 271.5,338.5C 262.908,342.464 254.574,346.964 246.5,352C 225.172,353.7 203.839,353.867 182.5,352.5C 170.354,350.694 158.354,348.194 146.5,345C 147.448,344.517 148.448,344.351 149.5,344.5C 163.179,346.585 176.845,348.752 190.5,351C 204.34,351.827 218.006,351.661 231.5,350.5C 243.176,348.827 254.176,345.16 264.5,339.5C 266.027,339.573 267.027,338.906 267.5,337.5C 271.103,335.237 274.436,332.57 277.5,329.5C 259.373,325.041 241.039,321.541 222.5,319C 217.075,316.394 211.408,314.561 205.5,313.5C 199.809,312.16 194.142,310.66 188.5,309C 189.793,308.51 191.127,308.343 192.5,308.5 Z"/></g>
<g><path style="opacity:1" fill="#aaedf7" d="M 164.5,358.5 C 123.833,358.5 83.1667,358.5 42.5,358.5C 43.9681,356.389 43.6348,354.556 41.5,353C 43.6741,352.819 45.5075,353.652 47,355.5C 52.9916,354.241 58.8249,352.241 64.5,349.5C 65.2935,349.931 66.1268,350.265 67,350.5C 68.8261,349.99 68.9928,349.156 67.5,348C 70.4262,347.782 73.2595,347.282 76,346.5C 77.6667,347.167 79.3333,347.833 81,348.5C 82.3876,347.446 83.8876,347.28 85.5,348C 84.3044,348.654 84.3044,349.154 85.5,349.5C 86.6113,348.389 87.9446,347.722 89.5,347.5C 102.432,349.132 115.432,349.965 128.5,350C 131.9,351.852 135.566,353.018 139.5,353.5C 142.072,353.214 144.572,353.214 147,353.5C 147.689,354.357 148.522,355.023 149.5,355.5C 153.108,354.407 156.775,354.24 160.5,355C 162.55,355.416 163.884,356.583 164.5,358.5 Z"/></g>
</svg>
