<?xml version="1.0" encoding="UTF-8"?>
<!DOCTYPE svg PUBLIC "-//W3C//DTD SVG 1.1//EN" "http://www.w3.org/Graphics/SVG/1.1/DTD/svg11.dtd">
<svg xmlns="http://www.w3.org/2000/svg" version="1.1" width="160px" height="161px" style="shape-rendering:geometricPrecision; text-rendering:geometricPrecision; image-rendering:optimizeQuality; fill-rule:evenodd; clip-rule:evenodd" xmlns:xlink="http://www.w3.org/1999/xlink">
<g><path style="opacity:1" fill="#964735" d="M 66.5,2.5 C 69.5215,3.70847 69.8549,5.0418 67.5,6.5C 65.0607,5.94745 62.7273,5.94745 60.5,6.5C 60.1667,6.33333 59.8333,6.16667 59.5,6C 60.3805,5.2917 61.0472,4.45837 61.5,3.5C 62.9187,2.54885 64.5853,2.21552 66.5,2.5 Z"/></g>
<g><path style="opacity:1" fill="#e3936c" d="M 69.5,1.5 C 75.5,1.5 81.5,1.5 87.5,1.5C 88.209,2.40397 89.209,2.73731 90.5,2.5C 90.6621,4.5273 90.4955,6.5273 90,8.5C 89.0853,7.67209 88.4186,6.67209 88,5.5C 87.5172,6.44802 87.3505,7.44802 87.5,8.5C 85.7376,8.64271 84.0709,8.30937 82.5,7.5C 81.452,8.54804 80.452,9.54804 79.5,10.5C 76.916,7.74811 73.916,5.58144 70.5,4C 69.7476,3.32924 69.4142,2.4959 69.5,1.5 Z"/></g>
<g><path style="opacity:1" fill="#9d9680" d="M 103.5,4.5 C 104.995,4.98869 106.329,5.65536 107.5,6.5C 106.817,8.17649 105.483,8.84316 103.5,8.5C 103.5,7.16667 103.5,5.83333 103.5,4.5 Z"/></g>
<g><path style="opacity:1" fill="#803e32" d="M 67.5,6.5 C 69.1401,7.32006 70.8068,8.15339 72.5,9C 68.1924,11.4744 63.8591,13.6411 59.5,15.5C 57.5354,15.0517 57.2021,14.0517 58.5,12.5C 61.8195,10.8567 64.8195,8.85668 67.5,6.5 Z"/></g>
<g><path style="opacity:1" fill="#db8259" d="M 87.5,1.5 C 89.099,1.23219 90.4324,1.56552 91.5,2.5C 91.178,4.72241 91.8446,6.55575 93.5,8C 96.5,8.33333 99.5,8.66667 102.5,9C 101.584,9.27842 100.918,9.77842 100.5,10.5C 99.2548,12.2795 97.7548,12.6128 96,11.5C 94.9701,11.8361 94.4701,12.5028 94.5,13.5C 94.1667,13.5 93.8333,13.5 93.5,13.5C 93.1667,12.5 92.5,11.8333 91.5,11.5C 91.189,10.5222 90.5223,9.85549 89.5,9.5C 88.7593,11.6879 88.426,13.6879 88.5,15.5C 86.9411,14.9264 85.4411,14.2598 84,13.5C 83.8333,13.8333 83.6667,14.1667 83.5,14.5C 85.8252,15.5177 87.8252,16.851 89.5,18.5C 89.5,19.1667 89.8333,19.5 90.5,19.5C 84.987,19.3688 81.3204,16.3688 79.5,10.5C 80.452,9.54804 81.452,8.54804 82.5,7.5C 84.0709,8.30937 85.7376,8.64271 87.5,8.5C 87.3505,7.44802 87.5172,6.44802 88,5.5C 88.4186,6.67209 89.0853,7.67209 90,8.5C 90.4955,6.5273 90.6621,4.5273 90.5,2.5C 89.209,2.73731 88.209,2.40397 87.5,1.5 Z"/></g>
<g><path style="opacity:1" fill="#906149" d="M 91.5,2.5 C 95.6179,2.53041 99.6179,3.19707 103.5,4.5C 103.5,5.83333 103.5,7.16667 103.5,8.5C 105.869,9.68999 107.869,11.3567 109.5,13.5C 107.901,13.2322 106.568,13.5655 105.5,14.5C 103.833,13.1667 102.167,11.8333 100.5,10.5C 100.918,9.77842 101.584,9.27842 102.5,9C 99.5,8.66667 96.5,8.33333 93.5,8C 91.8446,6.55575 91.178,4.72241 91.5,2.5 Z"/></g>
<g><path style="opacity:1" fill="#44352c" d="M 107.5,6.5 C 109.403,6.79586 111.07,7.46253 112.5,8.5C 111.522,8.81103 110.855,9.4777 110.5,10.5C 111.824,11.9347 113.49,12.9347 115.5,13.5C 114.567,14.9847 114.9,16.3181 116.5,17.5C 115.883,17.6107 115.383,17.944 115,18.5C 113.296,16.6266 111.463,14.9599 109.5,13.5C 107.869,11.3567 105.869,9.68999 103.5,8.5C 105.483,8.84316 106.817,8.17649 107.5,6.5 Z"/></g>
<g><path style="opacity:1" fill="#532b24" d="M 61.5,3.5 C 61.0472,4.45837 60.3805,5.2917 59.5,6C 59.8333,6.16667 60.1667,6.33333 60.5,6.5C 62.7273,5.94745 65.0607,5.94745 67.5,6.5C 64.8195,8.85668 61.8195,10.8567 58.5,12.5C 57.2021,14.0517 57.5354,15.0517 59.5,15.5C 65.0453,19.977 71.0453,20.477 77.5,17C 76.0403,16.1887 75.707,15.3554 76.5,14.5C 78.7345,16.6381 80.7345,18.9714 82.5,21.5C 77.1798,20.7343 71.8465,20.5676 66.5,21C 67.7059,22.0177 67.3726,22.5177 65.5,22.5C 62.0386,21.9308 59.0386,20.5975 56.5,18.5C 56.4606,17.4168 56.1272,16.4168 55.5,15.5C 52.1518,14.7125 48.8185,13.8792 45.5,13C 47.5,12.6667 49.5,12.3333 51.5,12C 50.5,11.6667 49.5,11.3333 48.5,11C 49.6843,9.85453 49.6843,8.68787 48.5,7.5C 52.5021,5.39024 56.8354,4.0569 61.5,3.5 Z"/></g>
<g><path style="opacity:1" fill="#a9533c" d="M 66.5,2.5 C 67.209,1.59603 68.209,1.26269 69.5,1.5C 69.4142,2.4959 69.7476,3.32924 70.5,4C 73.916,5.58144 76.916,7.74811 79.5,10.5C 81.3204,16.3688 84.987,19.3688 90.5,19.5C 91.3382,19.8417 91.6716,20.5084 91.5,21.5C 88.5,21.5 85.5,21.5 82.5,21.5C 80.7345,18.9714 78.7345,16.6381 76.5,14.5C 75.707,15.3554 76.0403,16.1887 77.5,17C 71.0453,20.477 65.0453,19.977 59.5,15.5C 63.8591,13.6411 68.1924,11.4744 72.5,9C 70.8068,8.15339 69.1401,7.32006 67.5,6.5C 69.8549,5.0418 69.5215,3.70847 66.5,2.5 Z"/></g>
<g><path style="opacity:1" fill="#1c1e1d" d="M 56.5,18.5 C 54.5446,19.4474 54.2113,20.7807 55.5,22.5C 62.3696,23.0974 69.0363,24.4307 75.5,26.5C 72.2327,28.9875 68.566,30.8209 64.5,32C 61.854,32.4974 59.1873,32.6641 56.5,32.5C 57.3197,29.7425 57.3197,27.5759 56.5,26C 52.7387,25.2617 49.0721,25.5951 45.5,27C 44.364,28.5298 43.364,29.8631 42.5,31C 46.4285,32.0294 50.4285,32.8627 54.5,33.5C 53.9747,34.1924 53.3081,34.6924 52.5,35C 46.3358,33.7762 40.0025,33.2762 33.5,33.5C 33.6287,31.7839 33.962,30.1172 34.5,28.5C 35.2679,26.2854 35.9346,23.9521 36.5,21.5C 38.5019,19.4904 40.5019,17.4904 42.5,15.5C 47.2688,16.132 51.9354,17.132 56.5,18.5 Z"/></g>
<g><path style="opacity:1" fill="#a95a41" d="M 91.5,11.5 C 91.2102,13.022 91.2102,14.522 91.5,16C 90.244,16.4169 89.5774,17.2502 89.5,18.5C 87.8252,16.851 85.8252,15.5177 83.5,14.5C 83.6667,14.1667 83.8333,13.8333 84,13.5C 85.4411,14.2598 86.9411,14.9264 88.5,15.5C 88.426,13.6879 88.7593,11.6879 89.5,9.5C 90.5223,9.85549 91.189,10.5222 91.5,11.5 Z"/></g>
<g><path style="opacity:1" fill="#ea9267" d="M 100.5,10.5 C 102.167,11.8333 103.833,13.1667 105.5,14.5C 107.878,16.8785 109.878,19.5451 111.5,22.5C 108.255,22.03 105.421,20.6966 103,18.5C 102.405,19.8989 102.572,21.2322 103.5,22.5C 102.998,23.521 102.332,23.6877 101.5,23C 99.2288,19.5948 96.8954,16.4282 94.5,13.5C 94.4701,12.5028 94.9701,11.8361 96,11.5C 97.7548,12.6128 99.2548,12.2795 100.5,10.5 Z"/></g>
<g><path style="opacity:1" fill="#3c2924" d="M 48.5,7.5 C 49.6843,8.68787 49.6843,9.85453 48.5,11C 49.5,11.3333 50.5,11.6667 51.5,12C 49.5,12.3333 47.5,12.6667 45.5,13C 48.8185,13.8792 52.1518,14.7125 55.5,15.5C 56.1272,16.4168 56.4606,17.4168 56.5,18.5C 51.9354,17.132 47.2688,16.132 42.5,15.5C 40.5019,17.4904 38.5019,19.4904 36.5,21.5C 36.2648,20.9033 35.7648,20.5699 35,20.5C 33.9889,21.0556 33.1556,21.7222 32.5,22.5C 32.5,21.5 32.5,20.5 32.5,19.5C 31.1667,19.5 29.8333,19.5 28.5,19.5C 34.3751,14.3149 41.0417,10.3149 48.5,7.5 Z"/></g>
<g><path style="opacity:1" fill="#783e30" d="M 91.5,11.5 C 92.5,11.8333 93.1667,12.5 93.5,13.5C 93.7394,15.4672 93.4061,17.3005 92.5,19C 93.448,19.4828 94.448,19.6495 95.5,19.5C 95.2852,21.1788 95.9519,22.1788 97.5,22.5C 97.5,23.1667 97.5,23.8333 97.5,24.5C 94.7628,24.4013 92.0961,24.7347 89.5,25.5C 89.5,25.1667 89.5,24.8333 89.5,24.5C 91.3032,23.9536 92.9698,23.1203 94.5,22C 93.552,21.5172 92.552,21.3505 91.5,21.5C 91.6716,20.5084 91.3382,19.8417 90.5,19.5C 89.8333,19.5 89.5,19.1667 89.5,18.5C 89.5774,17.2502 90.244,16.4169 91.5,16C 91.2102,14.522 91.2102,13.022 91.5,11.5 Z"/></g>
<g><path style="opacity:1" fill="#362521" d="M 56.5,18.5 C 59.0386,20.5975 62.0386,21.9308 65.5,22.5C 67.3726,22.5177 67.7059,22.0177 66.5,21C 71.8465,20.5676 77.1798,20.7343 82.5,21.5C 85.5,21.5 88.5,21.5 91.5,21.5C 92.552,21.3505 93.552,21.5172 94.5,22C 92.9698,23.1203 91.3032,23.9536 89.5,24.5C 84.5464,22.9032 79.8797,23.5699 75.5,26.5C 69.0363,24.4307 62.3696,23.0974 55.5,22.5C 54.2113,20.7807 54.5446,19.4474 56.5,18.5 Z"/></g>
<g><path style="opacity:1" fill="#cb704f" d="M 93.5,13.5 C 93.8333,13.5 94.1667,13.5 94.5,13.5C 96.8954,16.4282 99.2288,19.5948 101.5,23C 102.332,23.6877 102.998,23.521 103.5,22.5C 102.572,21.2322 102.405,19.8989 103,18.5C 105.421,20.6966 108.255,22.03 111.5,22.5C 115.698,25.4371 115.364,26.6038 110.5,26C 112.007,26.8373 112.507,28.0039 112,29.5C 109.413,27.8042 106.579,26.8042 103.5,26.5C 101.391,25.3496 99.3912,24.0163 97.5,22.5C 95.9519,22.1788 95.2852,21.1788 95.5,19.5C 94.448,19.6495 93.448,19.4828 92.5,19C 93.4061,17.3005 93.7394,15.4672 93.5,13.5 Z"/></g>
<g><path style="opacity:1" fill="#714535" d="M 109.5,13.5 C 111.463,14.9599 113.296,16.6266 115,18.5C 115.383,17.944 115.883,17.6107 116.5,17.5C 117.371,20.003 118.037,22.6697 118.5,25.5C 116.695,26.2371 115.029,27.2371 113.5,28.5C 116.229,30.3671 115.896,31.3671 112.5,31.5C 109.321,30.2066 105.988,29.5399 102.5,29.5C 102.557,28.391 102.89,27.391 103.5,26.5C 106.579,26.8042 109.413,27.8042 112,29.5C 112.507,28.0039 112.007,26.8373 110.5,26C 115.364,26.6038 115.698,25.4371 111.5,22.5C 109.878,19.5451 107.878,16.8785 105.5,14.5C 106.568,13.5655 107.901,13.2322 109.5,13.5 Z"/></g>
<g><path style="opacity:1" fill="#462e27" d="M 97.5,24.5 C 100.147,26.5513 100.147,28.5513 97.5,30.5C 95.4352,30.4828 93.4352,30.1495 91.5,29.5C 91.1193,28.0689 90.1193,27.2355 88.5,27C 89.056,26.6174 89.3893,26.1174 89.5,25.5C 92.0961,24.7347 94.7628,24.4013 97.5,24.5 Z"/></g>
<g><path style="opacity:1" fill="#544c3f" d="M 131.5,20.5 C 134.833,23.1667 137.833,26.1667 140.5,29.5C 137.671,29.3249 136.004,30.6582 135.5,33.5C 133.956,31.058 131.956,29.058 129.5,27.5C 129.709,26.914 130.043,26.414 130.5,26C 123.669,23.0766 124.002,21.2432 131.5,20.5 Z"/></g>
<g><path style="opacity:1" fill="#9e6d57" d="M 97.5,22.5 C 99.3912,24.0163 101.391,25.3496 103.5,26.5C 102.89,27.391 102.557,28.391 102.5,29.5C 102.262,31.4044 101.262,32.7377 99.5,33.5C 99.2178,32.2223 98.5511,31.2223 97.5,30.5C 100.147,28.5513 100.147,26.5513 97.5,24.5C 97.5,23.8333 97.5,23.1667 97.5,22.5 Z"/></g>
<g><path style="opacity:1" fill="#2c2e28" d="M 112.5,8.5 C 119.686,11.2536 126.019,15.2536 131.5,20.5C 124.002,21.2432 123.669,23.0766 130.5,26C 130.043,26.414 129.709,26.914 129.5,27.5C 131.956,29.058 133.956,31.058 135.5,33.5C 136.004,30.6582 137.671,29.3249 140.5,29.5C 142.262,30.2623 143.262,31.5956 143.5,33.5C 141.219,34.2071 139.052,35.2071 137,36.5C 136.29,35.0267 135.124,34.3601 133.5,34.5C 129.816,35.6094 126.149,36.6094 122.5,37.5C 119.6,37.5922 117.933,36.2589 117.5,33.5C 117.34,31.8008 117.506,30.1341 118,28.5C 119.316,31.028 120.483,31.028 121.5,28.5C 120.007,27.8589 119.007,26.8589 118.5,25.5C 118.037,22.6697 117.371,20.003 116.5,17.5C 114.9,16.3181 114.567,14.9847 115.5,13.5C 113.49,12.9347 111.824,11.9347 110.5,10.5C 110.855,9.4777 111.522,8.81103 112.5,8.5 Z"/></g>
<g><path style="opacity:1" fill="#60392c" d="M 89.5,25.5 C 89.3893,26.1174 89.056,26.6174 88.5,27C 90.1193,27.2355 91.1193,28.0689 91.5,29.5C 89.3279,28.5517 87.3279,28.885 85.5,30.5C 76.3138,31.8767 68.9804,36.21 63.5,43.5C 65.016,39.3099 67.6827,35.9766 71.5,33.5C 77.4022,30.8879 83.4022,28.2212 89.5,25.5 Z"/></g>
<g><path style="opacity:1" fill="#59352b" d="M 118.5,25.5 C 119.007,26.8589 120.007,27.8589 121.5,28.5C 120.483,31.028 119.316,31.028 118,28.5C 117.506,30.1341 117.34,31.8008 117.5,33.5C 117.963,36.4824 118.296,39.4824 118.5,42.5C 117.549,40.882 116.216,39.5487 114.5,38.5C 113.571,39.6888 113.238,41.0222 113.5,42.5C 112.833,42.1667 112.167,41.8333 111.5,41.5C 108.569,37.4971 109.569,34.6638 114.5,33C 113.584,32.7216 112.918,32.2216 112.5,31.5C 115.896,31.3671 116.229,30.3671 113.5,28.5C 115.029,27.2371 116.695,26.2371 118.5,25.5 Z"/></g>
<g><path style="opacity:1" fill="#542e26" d="M 36.5,21.5 C 35.9346,23.9521 35.2679,26.2854 34.5,28.5C 31.8609,29.7058 31.0276,31.7058 32,34.5C 32.7412,35.6405 33.5745,35.6405 34.5,34.5C 36.6502,36.9817 39.3168,38.6483 42.5,39.5C 41.4643,41.6877 39.9643,41.6877 38,39.5C 37.9101,41.7681 39.0768,43.2681 41.5,44C 39.7111,44.5205 38.0444,44.1871 36.5,43C 35.3365,40.6716 33.6698,38.8382 31.5,37.5C 31.16,35.321 30.16,33.4877 28.5,32C 30.6454,30.1825 30.6454,28.6825 28.5,27.5C 29.5076,25.5008 30.841,23.8342 32.5,22.5C 33.1556,21.7222 33.9889,21.0556 35,20.5C 35.7648,20.5699 36.2648,20.9033 36.5,21.5 Z"/></g>
<g><path style="opacity:1" fill="#20201e" d="M 28.5,19.5 C 29.8333,19.5 31.1667,19.5 32.5,19.5C 32.5,20.5 32.5,21.5 32.5,22.5C 30.841,23.8342 29.5076,25.5008 28.5,27.5C 30.6454,28.6825 30.6454,30.1825 28.5,32C 30.16,33.4877 31.16,35.321 31.5,37.5C 31.5106,39.0174 32.1772,40.1841 33.5,41C 30.9557,43.2221 30.9557,45.3888 33.5,47.5C 32.7366,48.7193 31.7366,49.7193 30.5,50.5C 30.6225,52.3775 30.6225,54.2109 30.5,56C 29.7894,57.2547 28.956,58.4214 28,59.5C 25.4761,57.1055 24.3094,54.1055 24.5,50.5C 21.0627,50.7551 18.3961,49.5884 16.5,47C 19.5338,42.5536 18.5338,41.0536 13.5,42.5C 13.9746,45.0821 13.3079,47.0821 11.5,48.5C 11.0618,48.5654 10.7284,48.3988 10.5,48C 11.6241,47.1612 12.2908,45.9945 12.5,44.5C 12.6598,42.6455 11.9931,41.3121 10.5,40.5C 15.0315,32.2973 21.0315,25.2973 28.5,19.5 Z"/></g>
<g><path style="opacity:1" fill="#2a221f" d="M 89.5,24.5 C 89.5,24.8333 89.5,25.1667 89.5,25.5C 83.4022,28.2212 77.4022,30.8879 71.5,33.5C 70.1266,33.3433 68.7932,33.51 67.5,34C 65.9334,36.5685 63.7668,38.4018 61,39.5C 60.7474,38.4655 59.914,37.4655 58.5,36.5C 53.9322,37.6439 49.5989,39.3106 45.5,41.5C 44.2613,41.0576 43.2613,40.3909 42.5,39.5C 39.3168,38.6483 36.6502,36.9817 34.5,34.5C 33.5745,35.6405 32.7412,35.6405 32,34.5C 31.0276,31.7058 31.8609,29.7058 34.5,28.5C 33.962,30.1172 33.6287,31.7839 33.5,33.5C 40.0025,33.2762 46.3358,33.7762 52.5,35C 53.3081,34.6924 53.9747,34.1924 54.5,33.5C 50.4285,32.8627 46.4285,32.0294 42.5,31C 43.364,29.8631 44.364,28.5298 45.5,27C 49.0721,25.5951 52.7387,25.2617 56.5,26C 57.3197,27.5759 57.3197,29.7425 56.5,32.5C 59.1873,32.6641 61.854,32.4974 64.5,32C 68.566,30.8209 72.2327,28.9875 75.5,26.5C 79.8797,23.5699 84.5464,22.9032 89.5,24.5 Z"/></g>
<g><path style="opacity:1" fill="#be8265" d="M 98.5,37.5 C 100.245,39.0326 101.245,41.0326 101.5,43.5C 101.975,46.0821 101.308,48.0821 99.5,49.5C 98.5084,49.6716 97.8417,49.3382 97.5,48.5C 98.7251,47.8478 99.3917,46.6811 99.5,45C 99.1667,43.8333 98.8333,42.6667 98.5,41.5C 96.7697,40.9744 95.4363,39.9744 94.5,38.5C 91.0675,37.1202 88.0675,37.7869 85.5,40.5C 85.4142,39.5041 85.7476,38.6708 86.5,38C 90.5193,35.139 94.5193,34.9724 98.5,37.5 Z"/></g>
<g><path style="opacity:1" fill="#b87e62" d="M 85.5,30.5 C 87.5273,30.3379 89.5273,30.5045 91.5,31C 91.9574,31.414 92.2907,31.914 92.5,32.5C 88.8482,34.1402 85.8482,36.4735 83.5,39.5C 83.631,38.7611 83.4643,38.0944 83,37.5C 81.5324,39.8161 79.6991,40.1494 77.5,38.5C 71.8681,40.4102 69.8681,44.0768 71.5,49.5C 70.8333,49.5 70.1667,49.5 69.5,49.5C 66.9703,46.3452 67.3036,43.3452 70.5,40.5C 75.3859,36.7983 80.3859,33.4649 85.5,30.5 Z"/></g>
<g><path style="opacity:1" fill="#4d5247" d="M 133.5,34.5 C 133.662,36.5273 133.495,38.5273 133,40.5C 131.317,41.8866 130.15,43.5533 129.5,45.5C 129.672,44.5084 129.338,43.8417 128.5,43.5C 129.845,39.3535 128.845,38.6868 125.5,41.5C 123.712,40.7174 122.712,39.3841 122.5,37.5C 126.149,36.6094 129.816,35.6094 133.5,34.5 Z"/></g>
<g><path style="opacity:1" fill="#8f5a41" d="M 85.5,30.5 C 80.3859,33.4649 75.3859,36.7983 70.5,40.5C 67.3036,43.3452 66.9703,46.3452 69.5,49.5C 68.8333,49.5 68.1667,49.5 67.5,49.5C 64.2244,48.8784 62.8911,46.8784 63.5,43.5C 68.9804,36.21 76.3138,31.8767 85.5,30.5 Z"/></g>
<g><path style="opacity:1" fill="#d5a286" d="M 97.5,48.5 C 93.2133,47.3046 88.88,47.3046 84.5,48.5C 83.4138,48.38 82.7472,47.7133 82.5,46.5C 83.001,44.1643 84.001,42.1643 85.5,40.5C 88.0675,37.7869 91.0675,37.1202 94.5,38.5C 95.4363,39.9744 96.7697,40.9744 98.5,41.5C 98.8333,42.6667 99.1667,43.8333 99.5,45C 99.3917,46.6811 98.7251,47.8478 97.5,48.5 Z"/></g>
<g><path style="opacity:1" fill="#22211f" d="M 102.5,29.5 C 105.988,29.5399 109.321,30.2066 112.5,31.5C 112.918,32.2216 113.584,32.7216 114.5,33C 109.569,34.6638 108.569,37.4971 111.5,41.5C 111.611,43.6477 110.944,43.981 109.5,42.5C 109.167,43 108.833,43.5 108.5,44C 109.62,45.7374 110.62,47.5708 111.5,49.5C 110.5,49.5 109.5,49.5 108.5,49.5C 110.5,54.1604 109.333,57.8271 105,60.5C 104.819,57.3054 104.319,54.3054 103.5,51.5C 103.706,48.5049 103.04,45.8383 101.5,43.5C 101.245,41.0326 100.245,39.0326 98.5,37.5C 97.1736,35.8049 97.5069,34.4716 99.5,33.5C 101.262,32.7377 102.262,31.4044 102.5,29.5 Z"/></g>
<g><path style="opacity:1" fill="#c68f74" d="M 83.5,39.5 C 81.819,42.582 81.1524,45.9153 81.5,49.5C 80.8333,50.1667 80.1667,50.8333 79.5,51.5C 78.5269,53.9479 78.1936,56.6146 78.5,59.5C 77.2209,58.032 75.5542,57.3653 73.5,57.5C 73.5,63.1667 73.5,68.8333 73.5,74.5C 73.5,74.8333 73.5,75.1667 73.5,75.5C 71.8599,74.6799 70.1932,73.8466 68.5,73C 71.464,69.4833 72.7974,65.3166 72.5,60.5C 72.4433,58.1155 72.7766,55.7822 73.5,53.5C 73.2528,52.2867 72.5862,51.62 71.5,51.5C 71.5,50.8333 71.5,50.1667 71.5,49.5C 69.8681,44.0768 71.8681,40.4102 77.5,38.5C 79.6991,40.1494 81.5324,39.8161 83,37.5C 83.4643,38.0944 83.631,38.7611 83.5,39.5 Z"/></g>
<g><path style="opacity:1" fill="#95523c" d="M 91.5,29.5 C 93.4352,30.1495 95.4352,30.4828 97.5,30.5C 98.5511,31.2223 99.2178,32.2223 99.5,33.5C 97.5069,34.4716 97.1736,35.8049 98.5,37.5C 94.5193,34.9724 90.5193,35.139 86.5,38C 85.7476,38.6708 85.4142,39.5041 85.5,40.5C 84.001,42.1643 83.001,44.1643 82.5,46.5C 82.7472,47.7133 83.4138,48.38 84.5,48.5C 83.791,49.404 82.791,49.7373 81.5,49.5C 81.1524,45.9153 81.819,42.582 83.5,39.5C 85.8482,36.4735 88.8482,34.1402 92.5,32.5C 92.2907,31.914 91.9574,31.414 91.5,31C 89.5273,30.5045 87.5273,30.3379 85.5,30.5C 87.3279,28.885 89.3279,28.5517 91.5,29.5 Z"/></g>
<g><path style="opacity:1" fill="#3f342d" d="M 117.5,33.5 C 117.933,36.2589 119.6,37.5922 122.5,37.5C 122.712,39.3841 123.712,40.7174 125.5,41.5C 128.845,38.6868 129.845,39.3535 128.5,43.5C 126.232,47.1934 125.565,47.1934 126.5,43.5C 125.675,42.6143 124.675,42.281 123.5,42.5C 123.715,44.1788 123.048,45.1788 121.5,45.5C 120.306,44.7281 119.306,43.7281 118.5,42.5C 118.296,39.4824 117.963,36.4824 117.5,33.5 Z"/></g>
<g><path style="opacity:1" fill="#d18362" d="M 118.5,42.5 C 119.306,43.7281 120.306,44.7281 121.5,45.5C 123.279,46.6697 124.279,48.3364 124.5,50.5C 123.399,51.5983 122.066,51.765 120.5,51C 119.511,48.8415 117.844,47.6748 115.5,47.5C 114.833,45.8333 114.167,44.1667 113.5,42.5C 113.238,41.0222 113.571,39.6888 114.5,38.5C 116.216,39.5487 117.549,40.882 118.5,42.5 Z"/></g>
<g><path style="opacity:1" fill="#866654" d="M 128.5,43.5 C 129.338,43.8417 129.672,44.5084 129.5,45.5C 127.937,46.9448 126.604,48.6115 125.5,50.5C 125.167,50.5 124.833,50.5 124.5,50.5C 124.279,48.3364 123.279,46.6697 121.5,45.5C 123.048,45.1788 123.715,44.1788 123.5,42.5C 124.675,42.281 125.675,42.6143 126.5,43.5C 125.565,47.1934 126.232,47.1934 128.5,43.5 Z"/></g>
<g><path style="opacity:1" fill="#32342d" d="M 147.5,39.5 C 149.924,42.0078 151.59,45.0078 152.5,48.5C 151.596,49.209 151.263,50.209 151.5,51.5C 148.918,51.0254 146.918,51.6921 145.5,53.5C 145.5,54.1667 145.5,54.8333 145.5,55.5C 146.833,57.1667 146.833,58.8333 145.5,60.5C 144.833,61.5 144.167,62.5 143.5,63.5C 143.849,59.9356 143.183,56.6022 141.5,53.5C 138.828,55.4255 137.828,58.0921 138.5,61.5C 137.686,59.369 137.186,57.0356 137,54.5C 135.513,53.8448 134.347,52.8448 133.5,51.5C 140.341,49.8374 141.008,47.0041 135.5,43C 136.448,42.5172 137.448,42.3505 138.5,42.5C 139.031,39.2206 141.031,37.8872 144.5,38.5C 144.5,39.5 144.5,40.5 144.5,41.5C 146.179,41.7148 147.179,41.0481 147.5,39.5 Z"/></g>
<g><path style="opacity:1" fill="#545c50" d="M 141.5,42.5 C 142.552,42.3505 143.552,42.5172 144.5,43C 145.584,45.5879 147.251,47.7545 149.5,49.5C 149,49.8333 148.5,50.1667 148,50.5C 146.073,49.139 143.906,48.3057 141.5,48C 140.248,46.1722 140.248,44.3388 141.5,42.5 Z"/></g>
<g><path style="opacity:1" fill="#3a2722" d="M 63.5,52.5 C 61.8212,52.2852 60.8212,52.9519 60.5,54.5C 57.4628,54.4477 54.7961,55.4477 52.5,57.5C 52.8333,58.1667 53.1667,58.8333 53.5,59.5C 56.4281,60.4841 59.4281,60.8174 62.5,60.5C 62.5,60.8333 62.5,61.1667 62.5,61.5C 58.552,61.6855 54.7187,62.3522 51,63.5C 49.6463,67.3628 49.1463,71.3628 49.5,75.5C 48.5122,72.9239 47.5122,70.2572 46.5,67.5C 46.5,66.8333 46.5,66.1667 46.5,65.5C 47.2024,62.4222 48.2024,59.4222 49.5,56.5C 49.2528,55.2867 48.5862,54.62 47.5,54.5C 43.7197,53.6208 40.0531,52.1208 36.5,50C 34.9632,48.8904 34.2965,47.3904 34.5,45.5C 37.7408,46.8788 40.9074,48.5454 44,50.5C 48.1236,49.4285 52.2903,49.2618 56.5,50C 55.8333,50.3333 55.1667,50.6667 54.5,51C 57.6946,51.1805 60.6946,51.6805 63.5,52.5 Z"/></g>
<g><path style="opacity:1" fill="#433029" d="M 97.5,48.5 C 97.8417,49.3382 98.5084,49.6716 99.5,49.5C 99.5,50.8333 98.8333,51.5 97.5,51.5C 96.5514,50.8476 95.3847,50.5143 94,50.5C 90.076,51.1977 86.2427,52.1977 82.5,53.5C 80.9704,53.3601 79.9704,52.6935 79.5,51.5C 80.1667,50.8333 80.8333,50.1667 81.5,49.5C 82.791,49.7373 83.791,49.404 84.5,48.5C 88.88,47.3046 93.2133,47.3046 97.5,48.5 Z"/></g>
<g><path style="opacity:1" fill="#643f31" d="M 67.5,49.5 C 68.1667,49.5 68.8333,49.5 69.5,49.5C 70.1667,49.5 70.8333,49.5 71.5,49.5C 71.5,50.1667 71.5,50.8333 71.5,51.5C 71.9086,54.8555 71.2419,57.8555 69.5,60.5C 67.1944,60.9926 64.861,61.3259 62.5,61.5C 62.5,61.1667 62.5,60.8333 62.5,60.5C 63.9899,59.0211 65.6566,58.1878 67.5,58C 65.9063,55.6194 63.573,54.4528 60.5,54.5C 60.8212,52.9519 61.8212,52.2852 63.5,52.5C 65.288,52.7852 66.9547,52.4519 68.5,51.5C 68.1373,50.8165 67.8039,50.1499 67.5,49.5 Z"/></g>
<g><path style="opacity:1" fill="#774e3b" d="M 97.5,51.5 C 94.6802,51.2475 92.0135,51.7475 89.5,53C 91.0581,53.21 92.3915,53.71 93.5,54.5C 89.7432,54.0708 86.2432,54.7375 83,56.5C 82.3826,59.1764 83.2159,59.843 85.5,58.5C 88.2831,61.3506 90.6164,61.0172 92.5,57.5C 94.488,59.1472 95.8213,58.8139 96.5,56.5C 97.404,57.209 97.7373,58.209 97.5,59.5C 95.9382,59.7329 94.6049,60.3995 93.5,61.5C 88.4246,61.3512 83.4246,60.6845 78.5,59.5C 78.1936,56.6146 78.5269,53.9479 79.5,51.5C 79.9704,52.6935 80.9704,53.3601 82.5,53.5C 86.2427,52.1977 90.076,51.1977 94,50.5C 95.3847,50.5143 96.5514,50.8476 97.5,51.5 Z"/></g>
<g><path style="opacity:1" fill="#1b2220" d="M 143.5,33.5 C 145.326,35.1475 146.66,37.1475 147.5,39.5C 147.179,41.0481 146.179,41.7148 144.5,41.5C 144.5,40.5 144.5,39.5 144.5,38.5C 141.031,37.8872 139.031,39.2206 138.5,42.5C 137.448,42.3505 136.448,42.5172 135.5,43C 141.008,47.0041 140.341,49.8374 133.5,51.5C 134.347,52.8448 135.513,53.8448 137,54.5C 137.186,57.0356 137.686,59.369 138.5,61.5C 139.267,62.172 139.934,63.0053 140.5,64C 141.749,64.7401 142.749,64.5735 143.5,63.5C 144.167,62.5 144.833,61.5 145.5,60.5C 147.192,64.2654 148.525,64.2654 149.5,60.5C 154.295,61.1082 155.795,59.4415 154,55.5C 151.594,52.6892 148.761,52.0225 145.5,53.5C 146.918,51.6921 148.918,51.0254 151.5,51.5C 151.263,50.209 151.596,49.209 152.5,48.5C 155.634,54.9033 157.968,61.57 159.5,68.5C 159.5,75.5 159.5,82.5 159.5,89.5C 159.167,89.5 158.833,89.5 158.5,89.5C 159.168,84.6375 158.168,80.3042 155.5,76.5C 155.833,75.8333 156.167,75.1667 156.5,74.5C 154.766,72.766 153.432,70.766 152.5,68.5C 151.673,70.162 150.507,71.4954 149,72.5C 148.36,74.265 148.527,75.9317 149.5,77.5C 151.04,84.0528 149.04,89.0528 143.5,92.5C 142.571,91.3112 142.238,89.9778 142.5,88.5C 139.426,88.8726 136.426,89.5392 133.5,90.5C 132.867,86.8651 132.534,83.3651 132.5,80C 129.443,78.8194 126.443,79.3194 123.5,81.5C 123.227,79.549 123.893,78.049 125.5,77C 124.663,75.9887 124.33,74.8221 124.5,73.5C 124.338,71.4727 124.505,69.4727 125,67.5C 127.661,64.4014 128.494,61.0681 127.5,57.5C 127.5,56.8333 127.167,56.5 126.5,56.5C 126.167,55.5 125.5,54.8333 124.5,54.5C 124.833,53.1667 125.167,51.8333 125.5,50.5C 126.604,48.6115 127.937,46.9448 129.5,45.5C 130.15,43.5533 131.317,41.8866 133,40.5C 133.495,38.5273 133.662,36.5273 133.5,34.5C 135.124,34.3601 136.29,35.0267 137,36.5C 139.052,35.2071 141.219,34.2071 143.5,33.5 Z"/></g>
<g><path style="opacity:1" fill="#585e50" d="M 149.5,60.5 C 149.817,57.4535 148.484,55.7868 145.5,55.5C 145.5,54.8333 145.5,54.1667 145.5,53.5C 148.761,52.0225 151.594,52.6892 154,55.5C 155.795,59.4415 154.295,61.1082 149.5,60.5 Z"/></g>
<g><path style="opacity:1" fill="#252522" d="M 60.5,54.5 C 63.573,54.4528 65.9063,55.6194 67.5,58C 65.6566,58.1878 63.9899,59.0211 62.5,60.5C 59.4281,60.8174 56.4281,60.4841 53.5,59.5C 53.1667,58.8333 52.8333,58.1667 52.5,57.5C 54.7961,55.4477 57.4628,54.4477 60.5,54.5 Z"/></g>
<g><path style="opacity:1" fill="#322c27" d="M 93.5,54.5 C 94.5,55.1667 95.5,55.8333 96.5,56.5C 95.8213,58.8139 94.488,59.1472 92.5,57.5C 90.6164,61.0172 88.2831,61.3506 85.5,58.5C 83.2159,59.843 82.3826,59.1764 83,56.5C 86.2432,54.7375 89.7432,54.0708 93.5,54.5 Z"/></g>
<g><path style="opacity:1" fill="#b57a5c" d="M 97.5,51.5 C 101.423,53.5494 103.089,56.8827 102.5,61.5C 102.167,61.5 101.833,61.5 101.5,61.5C 101.762,60.0222 101.429,58.6888 100.5,57.5C 99.7348,58.6119 98.7348,59.2786 97.5,59.5C 97.7373,58.209 97.404,57.209 96.5,56.5C 95.5,55.8333 94.5,55.1667 93.5,54.5C 92.3915,53.71 91.0581,53.21 89.5,53C 92.0135,51.7475 94.6802,51.2475 97.5,51.5 Z"/></g>
<g><path style="opacity:1" fill="#944d3a" d="M 115.5,47.5 C 117.844,47.6748 119.511,48.8415 120.5,51C 122.066,51.765 123.399,51.5983 124.5,50.5C 124.833,50.5 125.167,50.5 125.5,50.5C 125.167,51.8333 124.833,53.1667 124.5,54.5C 122.738,54.6427 121.071,54.3094 119.5,53.5C 118.418,56.7759 119.752,58.4426 123.5,58.5C 125.03,58.3601 126.03,57.6935 126.5,56.5C 127.167,56.5 127.5,56.8333 127.5,57.5C 127.5,58.1667 127.5,58.8333 127.5,59.5C 124.552,59.2229 121.719,59.5562 119,60.5C 118.667,59.5 118.333,58.5 118,57.5C 117.505,59.4727 117.338,61.4727 117.5,63.5C 116.25,63.4226 115.417,62.756 115,61.5C 114.821,57.9748 114.321,54.6414 113.5,51.5C 112.986,49.4884 112.82,47.4884 113,45.5C 113.915,46.3279 114.581,47.3279 115,48.5C 115.399,48.2716 115.565,47.9382 115.5,47.5 Z"/></g>
<g><path style="opacity:1" fill="#d6754d" d="M 124.5,54.5 C 125.5,54.8333 126.167,55.5 126.5,56.5C 126.03,57.6935 125.03,58.3601 123.5,58.5C 119.752,58.4426 118.418,56.7759 119.5,53.5C 121.071,54.3094 122.738,54.6427 124.5,54.5 Z"/></g>
<g><path style="opacity:1" fill="#2d2220" d="M 71.5,33.5 C 67.6827,35.9766 65.016,39.3099 63.5,43.5C 62.8911,46.8784 64.2244,48.8784 67.5,49.5C 67.8039,50.1499 68.1373,50.8165 68.5,51.5C 66.9547,52.4519 65.288,52.7852 63.5,52.5C 60.6946,51.6805 57.6946,51.1805 54.5,51C 55.1667,50.6667 55.8333,50.3333 56.5,50C 52.2903,49.2618 48.1236,49.4285 44,50.5C 40.9074,48.5454 37.7408,46.8788 34.5,45.5C 34.2965,47.3904 34.9632,48.8904 36.5,50C 40.0531,52.1208 43.7197,53.6208 47.5,54.5C 46.1667,54.5 44.8333,54.5 43.5,54.5C 43.5198,56.143 42.8532,57.4763 41.5,58.5C 42.1667,59.1667 42.8333,59.8333 43.5,60.5C 39.82,61.7641 36.1534,61.7641 32.5,60.5C 31.8581,64.0594 30.6914,67.3927 29,70.5C 28.6466,65.1376 26.3132,60.8043 22,57.5C 20.1414,61.3167 18.3081,61.3167 16.5,57.5C 14.2778,54.8585 12.6111,51.8585 11.5,48.5C 13.3079,47.0821 13.9746,45.0821 13.5,42.5C 18.5338,41.0536 19.5338,42.5536 16.5,47C 18.3961,49.5884 21.0627,50.7551 24.5,50.5C 24.3094,54.1055 25.4761,57.1055 28,59.5C 28.956,58.4214 29.7894,57.2547 30.5,56C 30.6225,54.2109 30.6225,52.3775 30.5,50.5C 31.7366,49.7193 32.7366,48.7193 33.5,47.5C 30.9557,45.3888 30.9557,43.2221 33.5,41C 32.1772,40.1841 31.5106,39.0174 31.5,37.5C 33.6698,38.8382 35.3365,40.6716 36.5,43C 38.0444,44.1871 39.7111,44.5205 41.5,44C 39.0768,43.2681 37.9101,41.7681 38,39.5C 39.9643,41.6877 41.4643,41.6877 42.5,39.5C 43.2613,40.3909 44.2613,41.0576 45.5,41.5C 49.5989,39.3106 53.9322,37.6439 58.5,36.5C 59.914,37.4655 60.7474,38.4655 61,39.5C 63.7668,38.4018 65.9334,36.5685 67.5,34C 68.7932,33.51 70.1266,33.3433 71.5,33.5 Z"/></g>
<g><path style="opacity:1" fill="#6c7262" d="M 143.5,63.5 C 142.749,64.5735 141.749,64.7401 140.5,64C 139.934,63.0053 139.267,62.172 138.5,61.5C 137.828,58.0921 138.828,55.4255 141.5,53.5C 143.183,56.6022 143.849,59.9356 143.5,63.5 Z"/></g>
<g><path style="opacity:1" fill="#876c58" d="M 145.5,55.5 C 148.484,55.7868 149.817,57.4535 149.5,60.5C 148.525,64.2654 147.192,64.2654 145.5,60.5C 146.833,58.8333 146.833,57.1667 145.5,55.5 Z"/></g>
<g><path style="opacity:1" fill="#20201d" d="M 47.5,54.5 C 48.5862,54.62 49.2528,55.2867 49.5,56.5C 48.2024,59.4222 47.2024,62.4222 46.5,65.5C 45.8826,65.3893 45.3826,65.056 45,64.5C 42.1349,67.2795 39.4682,70.2795 37,73.5C 36.3109,72.6433 35.4776,71.9767 34.5,71.5C 32.6721,72.7952 30.6721,73.7952 28.5,74.5C 27.2643,76.3111 27.2643,78.1444 28.5,80C 27.4843,82.1762 25.8176,83.3429 23.5,83.5C 23.2148,85.288 23.5481,86.9547 24.5,88.5C 26.0854,85.7276 27.0854,85.8943 27.5,89C 26.2066,91.4473 26.7066,93.614 29,95.5C 29.6667,98.1667 29.6667,100.833 29,103.5C 27.8904,105.037 26.3904,105.703 24.5,105.5C 22.9605,103.162 22.2938,100.495 22.5,97.5C 23.5,97.5 24.5,97.5 25.5,97.5C 25.4825,94.4765 24.4825,91.8099 22.5,89.5C 21.7899,92.6533 20.7899,92.9866 19.5,90.5C 20.1901,86.5104 20.3568,82.5104 20,78.5C 18.2933,77.8617 16.46,77.8617 14.5,78.5C 14.5,76.5 14.5,74.5 14.5,72.5C 15.8734,72.6567 17.2068,72.49 18.5,72C 16.6914,67.1705 16.0247,62.3371 16.5,57.5C 18.3081,61.3167 20.1414,61.3167 22,57.5C 26.3132,60.8043 28.6466,65.1376 29,70.5C 30.6914,67.3927 31.8581,64.0594 32.5,60.5C 36.1534,61.7641 39.82,61.7641 43.5,60.5C 42.8333,59.8333 42.1667,59.1667 41.5,58.5C 42.8532,57.4763 43.5198,56.143 43.5,54.5C 44.8333,54.5 46.1667,54.5 47.5,54.5 Z"/></g>
<g><path style="opacity:1" fill="#8d563b" d="M 101.5,43.5 C 103.04,45.8383 103.706,48.5049 103.5,51.5C 103.821,57.0262 103.488,62.3595 102.5,67.5C 102.5,65.5 102.5,63.5 102.5,61.5C 103.089,56.8827 101.423,53.5494 97.5,51.5C 98.8333,51.5 99.5,50.8333 99.5,49.5C 101.308,48.0821 101.975,46.0821 101.5,43.5 Z"/></g>
<g><path style="opacity:1" fill="#ad775c" d="M 78.5,59.5 C 83.4246,60.6845 88.4246,61.3512 93.5,61.5C 93.4226,62.7498 92.756,63.5831 91.5,64C 88.854,64.4974 86.1873,64.6641 83.5,64.5C 82.3915,63.71 81.0581,63.21 79.5,63C 78.6634,61.9887 78.33,60.8221 78.5,59.5 Z"/></g>
<g><path style="opacity:0.917" fill="#292b23" d="M -0.5,70.5 C -0.5,70.1667 -0.5,69.8333 -0.5,69.5C 0.287939,66.1129 1.28794,62.7796 2.5,59.5C 10.7695,56.4045 15.1028,59.4045 15.5,68.5C 10.0701,68.5167 4.73675,69.1834 -0.5,70.5 Z"/></g>
<g><path style="opacity:1" fill="#1d1f1d" d="M 46.5,65.5 C 46.5,66.1667 46.5,66.8333 46.5,67.5C 44.629,67.8588 43.129,68.8588 42,70.5C 41.4612,74.8745 41.1279,79.2078 41,83.5C 41.9147,82.6721 42.5814,81.6721 43,80.5C 45.5425,81.8764 45.7092,83.043 43.5,84C 43.3139,85.8665 43.6472,87.8665 44.5,90C 43.2173,91.1357 42.2173,92.469 41.5,94C 42.0104,95.8261 42.8438,95.9928 44,94.5C 45.8289,98.0213 45.3289,101.188 42.5,104C 43.9733,104.71 44.6399,105.876 44.5,107.5C 46.7345,107.62 48.9011,107.287 51,106.5C 52.7491,106.748 53.5824,107.748 53.5,109.5C 52.1266,109.343 50.7932,109.51 49.5,110C 47.9831,112.204 46.6498,114.538 45.5,117C 43.1484,117.24 41.1484,118.073 39.5,119.5C 38.8333,119.5 38.1667,119.5 37.5,119.5C 35.7763,117.588 34.443,115.255 33.5,112.5C 35.4197,108.342 38.0864,104.676 41.5,101.5C 40.635,100.417 39.635,100.251 38.5,101C 35.3291,103.341 32.3291,105.841 29.5,108.5C 30.2458,109.736 30.5792,111.07 30.5,112.5C 29.1908,109.557 27.1908,107.224 24.5,105.5C 26.3904,105.703 27.8904,105.037 29,103.5C 29.6667,100.833 29.6667,98.1667 29,95.5C 26.7066,93.614 26.2066,91.4473 27.5,89C 27.0854,85.8943 26.0854,85.7276 24.5,88.5C 23.5481,86.9547 23.2148,85.288 23.5,83.5C 25.8176,83.3429 27.4843,82.1762 28.5,80C 27.2643,78.1444 27.2643,76.3111 28.5,74.5C 30.6721,73.7952 32.6721,72.7952 34.5,71.5C 35.4776,71.9767 36.3109,72.6433 37,73.5C 39.4682,70.2795 42.1349,67.2795 45,64.5C 45.3826,65.056 45.8826,65.3893 46.5,65.5 Z"/></g>
<g><path style="opacity:1" fill="#161d1d" d="M 46.5,67.5 C 47.5122,70.2572 48.5122,72.9239 49.5,75.5C 49.3055,82.7754 51.6388,89.1087 56.5,94.5C 56.0728,98.8244 55.7395,103.158 55.5,107.5C 54.8333,108.167 54.1667,108.833 53.5,109.5C 53.5824,107.748 52.7491,106.748 51,106.5C 48.9011,107.287 46.7345,107.62 44.5,107.5C 44.6399,105.876 43.9733,104.71 42.5,104C 45.3289,101.188 45.8289,98.0213 44,94.5C 42.8438,95.9928 42.0104,95.8261 41.5,94C 42.2173,92.469 43.2173,91.1357 44.5,90C 43.6472,87.8665 43.3139,85.8665 43.5,84C 45.7092,83.043 45.5425,81.8764 43,80.5C 42.5814,81.6721 41.9147,82.6721 41,83.5C 41.1279,79.2078 41.4612,74.8745 42,70.5C 43.129,68.8588 44.629,67.8588 46.5,67.5 Z"/></g>
<g><path style="opacity:1" fill="#e0b499" d="M 78.5,59.5 C 78.33,60.8221 78.6634,61.9887 79.5,63C 81.0581,63.21 82.3915,63.71 83.5,64.5C 85.3938,68.0452 88.3938,70.0452 92.5,70.5C 93.3857,71.325 93.719,72.325 93.5,73.5C 91.8014,73.6204 90.1347,73.9537 88.5,74.5C 86.5801,73.3306 84.5801,72.3306 82.5,71.5C 81.6143,72.325 81.281,73.325 81.5,74.5C 78.8333,74.5 76.1667,74.5 73.5,74.5C 73.5,68.8333 73.5,63.1667 73.5,57.5C 75.5542,57.3653 77.2209,58.032 78.5,59.5 Z"/></g>
<g><path style="opacity:1" fill="#482822" d="M 113.5,51.5 C 114.321,54.6414 114.821,57.9748 115,61.5C 115.417,62.756 116.25,63.4226 117.5,63.5C 119.737,62.551 122.071,61.8844 124.5,61.5C 124.351,62.552 124.517,63.552 125,64.5C 125.366,62.5483 126.199,60.8816 127.5,59.5C 127.5,58.8333 127.5,58.1667 127.5,57.5C 128.494,61.0681 127.661,64.4014 125,67.5C 124.505,69.4727 124.338,71.4727 124.5,73.5C 119.18,73.4263 117.18,76.0929 118.5,81.5C 117.448,81.3505 116.448,81.5172 115.5,82C 116.733,83.6667 118.067,85.1667 119.5,86.5C 115.24,86.8264 113.407,85.1597 114,81.5C 112.253,80.6699 110.587,79.6699 109,78.5C 106.88,79.4589 104.713,79.6256 102.5,79C 106.042,76.1227 109.875,74.6227 114,74.5C 114.112,66.8396 113.946,59.173 113.5,51.5 Z"/></g>
<g><path style="opacity:1" fill="#5f2e23" d="M 127.5,59.5 C 126.199,60.8816 125.366,62.5483 125,64.5C 124.517,63.552 124.351,62.552 124.5,61.5C 122.071,61.8844 119.737,62.551 117.5,63.5C 117.338,61.4727 117.505,59.4727 118,57.5C 118.333,58.5 118.667,59.5 119,60.5C 121.719,59.5562 124.552,59.2229 127.5,59.5 Z"/></g>
<g><path style="opacity:0.995" fill="#171f1e" d="M 10.5,40.5 C 11.9931,41.3121 12.6598,42.6455 12.5,44.5C 12.2908,45.9945 11.6241,47.1612 10.5,48C 10.7284,48.3988 11.0618,48.5654 11.5,48.5C 12.6111,51.8585 14.2778,54.8585 16.5,57.5C 16.0247,62.3371 16.6914,67.1705 18.5,72C 17.2068,72.49 15.8734,72.6567 14.5,72.5C 14.5,74.5 14.5,76.5 14.5,78.5C 16.46,77.8617 18.2933,77.8617 20,78.5C 20.3568,82.5104 20.1901,86.5104 19.5,90.5C 18.9569,90.56 18.6236,90.8933 18.5,91.5C 19.624,92.914 20.624,94.414 21.5,96C 21,96.5 20.5,97 20,97.5C 19.1042,92.714 17.6042,92.3807 15.5,96.5C 14.791,97.404 13.791,97.7373 12.5,97.5C 12.33,98.8221 12.6634,99.9887 13.5,101C 12.1053,103.785 10.772,106.618 9.5,109.5C 7.67424,105.426 6.67424,101.093 6.5,96.5C 8.86105,96.3259 11.1944,95.9926 13.5,95.5C 14.1845,91.4463 14.1845,87.4463 13.5,83.5C 11.4021,82.5155 9.40209,82.8489 7.5,84.5C 4.80235,83.1764 2.13568,83.1764 -0.5,84.5C -0.5,79.8333 -0.5,75.1667 -0.5,70.5C 4.73675,69.1834 10.0701,68.5167 15.5,68.5C 15.1028,59.4045 10.7695,56.4045 2.5,59.5C 4.01287,52.6131 6.67954,46.2797 10.5,40.5 Z"/></g>
<g><path style="opacity:1" fill="#b37759" d="M 72.5,60.5 C 72.7974,65.3166 71.464,69.4833 68.5,73C 70.1932,73.8466 71.8599,74.6799 73.5,75.5C 75.5,75.5 77.5,75.5 79.5,75.5C 76.5774,78.1402 73.5774,78.1402 70.5,75.5C 69.7132,76.2421 69.0465,77.0754 68.5,78C 70.8977,79.0181 73.231,80.1847 75.5,81.5C 76.6223,80.3698 77.9557,79.7031 79.5,79.5C 77.8537,82.5695 75.187,84.0695 71.5,84C 74.3647,84.1829 77.0314,84.6829 79.5,85.5C 73.4908,85.6662 67.4908,85.4995 61.5,85C 55.789,80.5384 53.6223,74.7051 55,67.5C 58.2432,65.7375 61.7432,65.0708 65.5,65.5C 66.7551,63.3592 68.4218,62.6926 70.5,63.5C 71.1757,62.3984 71.8423,61.3984 72.5,60.5 Z"/></g>
<g><path style="opacity:1" fill="#cc865d" d="M 101.5,61.5 C 101.833,61.5 102.167,61.5 102.5,61.5C 102.5,63.5 102.5,65.5 102.5,67.5C 102.5,68.1667 102.5,68.8333 102.5,69.5C 101.476,71.5116 99.9764,73.1783 98,74.5C 97.356,77.6092 96.1893,80.4425 94.5,83C 97.3087,87.3936 95.9754,89.5603 90.5,89.5C 90.5,88.5 90.5,87.5 90.5,86.5C 88.901,86.2322 87.5676,86.5655 86.5,87.5C 85.209,87.7373 84.209,87.404 83.5,86.5C 85.8654,85.9916 88.1987,85.3249 90.5,84.5C 91.663,80.1881 93.3297,76.1881 95.5,72.5C 97.3904,72.7035 98.8904,72.0368 100,70.5C 100.696,67.5219 101.196,64.5219 101.5,61.5 Z"/></g>
<g><path style="opacity:1" fill="#312e28" d="M 158.5,89.5 C 156.852,90.7772 155.018,91.7772 153,92.5C 151.89,90.9632 150.39,90.2965 148.5,90.5C 152.298,90.1974 154.298,88.0308 154.5,84C 153.258,82.3488 152.424,80.5155 152,78.5C 151.329,77.7476 150.496,77.4142 149.5,77.5C 148.527,75.9317 148.36,74.265 149,72.5C 150.507,71.4954 151.673,70.162 152.5,68.5C 153.432,70.766 154.766,72.766 156.5,74.5C 156.167,75.1667 155.833,75.8333 155.5,76.5C 158.168,80.3042 159.168,84.6375 158.5,89.5 Z"/></g>
<g><path style="opacity:1" fill="#c68d71" d="M 65.5,65.5 C 66.7666,64.913 67.7666,64.913 68.5,65.5C 66.6135,71.7889 65.9468,78.1222 66.5,84.5C 65.5,84.5 64.5,84.5 63.5,84.5C 63.6602,82.8008 63.4935,81.1341 63,79.5C 60.2088,77.7006 58.0421,75.3672 56.5,72.5C 59.7156,70.3395 62.7156,68.0061 65.5,65.5 Z"/></g>
<g><path style="opacity:1" fill="#8d5236" d="M 79.5,75.5 C 82.0219,76.6649 82.0219,77.9982 79.5,79.5C 77.9557,79.7031 76.6223,80.3698 75.5,81.5C 73.231,80.1847 70.8977,79.0181 68.5,78C 69.0465,77.0754 69.7132,76.2421 70.5,75.5C 73.5774,78.1402 76.5774,78.1402 79.5,75.5 Z"/></g>
<g><path style="opacity:1" fill="#794732" d="M 69.5,60.5 C 68.3998,61.5585 67.0664,62.3918 65.5,63C 60.6394,62.7765 56.4728,64.2765 53,67.5C 53.5747,74.2293 53.908,80.896 54,87.5C 56.384,89.2282 58.884,89.5615 61.5,88.5C 61.2907,87.914 60.9574,87.414 60.5,87C 66.0164,86.1826 71.3497,86.3493 76.5,87.5C 72.1539,87.3343 67.8206,87.501 63.5,88C 64.4158,88.2784 65.0825,88.7784 65.5,89.5C 63.3066,90.1954 61.9733,91.6954 61.5,94C 62.9273,97.2569 64.9273,100.09 67.5,102.5C 66.391,102.443 65.391,102.11 64.5,101.5C 62.2486,98.7052 59.5819,96.3719 56.5,94.5C 51.6388,89.1087 49.3055,82.7754 49.5,75.5C 49.1463,71.3628 49.6463,67.3628 51,63.5C 54.7187,62.3522 58.552,61.6855 62.5,61.5C 64.861,61.3259 67.1944,60.9926 69.5,60.5 Z"/></g>
<g><path style="opacity:1" fill="#dda688" d="M 101.5,61.5 C 101.196,64.5219 100.696,67.5219 100,70.5C 98.8904,72.0368 97.3904,72.7035 95.5,72.5C 93.3297,76.1881 91.663,80.1881 90.5,84.5C 88.1987,85.3249 85.8654,85.9916 83.5,86.5C 82.1667,86.1667 80.8333,85.8333 79.5,85.5C 77.0314,84.6829 74.3647,84.1829 71.5,84C 75.187,84.0695 77.8537,82.5695 79.5,79.5C 82.0219,77.9982 82.0219,76.6649 79.5,75.5C 77.5,75.5 75.5,75.5 73.5,75.5C 73.5,75.1667 73.5,74.8333 73.5,74.5C 76.1667,74.5 78.8333,74.5 81.5,74.5C 81.281,73.325 81.6143,72.325 82.5,71.5C 84.5801,72.3306 86.5801,73.3306 88.5,74.5C 90.1347,73.9537 91.8014,73.6204 93.5,73.5C 93.719,72.325 93.3857,71.325 92.5,70.5C 88.3938,70.0452 85.3938,68.0452 83.5,64.5C 86.1873,64.6641 88.854,64.4974 91.5,64C 92.756,63.5831 93.4226,62.7498 93.5,61.5C 94.6049,60.3995 95.9382,59.7329 97.5,59.5C 98.7348,59.2786 99.7348,58.6119 100.5,57.5C 101.429,58.6888 101.762,60.0222 101.5,61.5 Z"/></g>
<g><path style="opacity:1" fill="#95593e" d="M 71.5,51.5 C 72.5862,51.62 73.2528,52.2867 73.5,53.5C 72.7766,55.7822 72.4433,58.1155 72.5,60.5C 71.8423,61.3984 71.1757,62.3984 70.5,63.5C 68.4218,62.6926 66.7551,63.3592 65.5,65.5C 61.7432,65.0708 58.2432,65.7375 55,67.5C 53.6223,74.7051 55.789,80.5384 61.5,85C 67.4908,85.4995 73.4908,85.6662 79.5,85.5C 80.8333,85.8333 82.1667,86.1667 83.5,86.5C 84.209,87.404 85.209,87.7373 86.5,87.5C 87.2389,87.369 87.9056,87.5357 88.5,88C 87.5842,88.2784 86.9175,88.7784 86.5,89.5C 84.7839,89.3713 83.1172,89.038 81.5,88.5C 80.0813,87.5489 78.4147,87.2155 76.5,87.5C 71.3497,86.3493 66.0164,86.1826 60.5,87C 60.9574,87.414 61.2907,87.914 61.5,88.5C 58.884,89.5615 56.384,89.2282 54,87.5C 53.908,80.896 53.5747,74.2293 53,67.5C 56.4728,64.2765 60.6394,62.7765 65.5,63C 67.0664,62.3918 68.3998,61.5585 69.5,60.5C 71.2419,57.8555 71.9086,54.8555 71.5,51.5 Z"/></g>
<g><path style="opacity:1" fill="#572f28" d="M 76.5,87.5 C 78.4147,87.2155 80.0813,87.5489 81.5,88.5C 80.1667,88.5 78.8333,88.5 77.5,88.5C 73.4517,88.3946 69.4517,88.7279 65.5,89.5C 65.0825,88.7784 64.4158,88.2784 63.5,88C 67.8206,87.501 72.1539,87.3343 76.5,87.5 Z"/></g>
<g><path style="opacity:1" fill="#b66f46" d="M 102.5,69.5 C 102.296,79.7901 98.963,88.7901 92.5,96.5C 91.5,97.1667 90.5,97.8333 89.5,98.5C 89.8506,94.8413 88.8506,91.8413 86.5,89.5C 86.9175,88.7784 87.5842,88.2784 88.5,88C 87.9056,87.5357 87.2389,87.369 86.5,87.5C 87.5676,86.5655 88.901,86.2322 90.5,86.5C 90.5,87.5 90.5,88.5 90.5,89.5C 95.9754,89.5603 97.3087,87.3936 94.5,83C 96.1893,80.4425 97.356,77.6092 98,74.5C 99.9764,73.1783 101.476,71.5116 102.5,69.5 Z"/></g>
<g><path style="opacity:1" fill="#1c2320" d="M 149.5,77.5 C 150.496,77.4142 151.329,77.7476 152,78.5C 152.424,80.5155 153.258,82.3488 154.5,84C 154.298,88.0308 152.298,90.1974 148.5,90.5C 147.766,91.7079 147.433,93.0413 147.5,94.5C 148.833,94.5 150.167,94.5 151.5,94.5C 151.5,95.5 151.5,96.5 151.5,97.5C 153.886,97.2587 155.886,97.9254 157.5,99.5C 155.861,107.766 152.861,115.433 148.5,122.5C 147.85,116.784 146.85,111.118 145.5,105.5C 140.757,105.814 140.424,104.481 144.5,101.5C 143.96,100.252 143.293,99.0852 142.5,98C 136.48,97.6987 130.48,97.1987 124.5,96.5C 122.231,97.2033 120.231,98.3699 118.5,100C 117.663,101.011 117.33,102.178 117.5,103.5C 119.167,103.5 120.833,103.5 122.5,103.5C 122.5,106.5 122.5,109.5 122.5,112.5C 124.737,111.551 127.071,110.884 129.5,110.5C 129.5,109.5 129.5,108.5 129.5,107.5C 131.346,107.778 132.68,107.111 133.5,105.5C 131.955,104.548 130.288,104.215 128.5,104.5C 128.421,103.07 128.754,101.736 129.5,100.5C 133.445,99.5091 137.445,99.1758 141.5,99.5C 141.649,100.552 141.483,101.552 141,102.5C 138.585,103.411 137.085,105.078 136.5,107.5C 135.211,108.637 134.211,109.97 133.5,111.5C 131.549,111.227 130.049,111.893 129,113.5C 128.667,112.833 128.333,112.167 128,111.5C 127.02,112.981 125.853,114.315 124.5,115.5C 122.929,114.691 121.262,114.357 119.5,114.5C 119.723,109.4 117.389,106.4 112.5,105.5C 112.5,103.5 112.5,101.5 112.5,99.5C 113.833,99.5 115.167,99.5 116.5,99.5C 116.617,97.5165 115.95,95.8498 114.5,94.5C 114.863,93.8165 115.196,93.1499 115.5,92.5C 115.5,92.1667 115.5,91.8333 115.5,91.5C 118.609,89.9211 121.776,89.5878 125,90.5C 126.145,88.749 126.645,86.9157 126.5,85C 124.937,84.2411 123.937,83.0744 123.5,81.5C 126.443,79.3194 129.443,78.8194 132.5,80C 132.534,83.3651 132.867,86.8651 133.5,90.5C 136.426,89.5392 139.426,88.8726 142.5,88.5C 142.238,89.9778 142.571,91.3112 143.5,92.5C 149.04,89.0528 151.04,84.0528 149.5,77.5 Z"/></g>
<g><path style="opacity:1" fill="#312521" d="M 111.5,41.5 C 112.167,41.8333 112.833,42.1667 113.5,42.5C 114.167,44.1667 114.833,45.8333 115.5,47.5C 115.565,47.9382 115.399,48.2716 115,48.5C 114.581,47.3279 113.915,46.3279 113,45.5C 112.82,47.4884 112.986,49.4884 113.5,51.5C 113.946,59.173 114.112,66.8396 114,74.5C 109.875,74.6227 106.042,76.1227 102.5,79C 104.713,79.6256 106.88,79.4589 109,78.5C 110.587,79.6699 112.253,80.6699 114,81.5C 113.407,85.1597 115.24,86.8264 119.5,86.5C 120.873,86.6567 122.207,86.49 123.5,86C 121.76,84.483 120.094,82.983 118.5,81.5C 117.18,76.0929 119.18,73.4263 124.5,73.5C 124.33,74.8221 124.663,75.9887 125.5,77C 123.893,78.049 123.227,79.549 123.5,81.5C 123.937,83.0744 124.937,84.2411 126.5,85C 126.645,86.9157 126.145,88.749 125,90.5C 121.776,89.5878 118.609,89.9211 115.5,91.5C 115.586,90.5041 115.252,89.6708 114.5,89C 111.564,87.5378 108.564,86.3711 105.5,85.5C 105.5,86.8333 105.5,88.1667 105.5,89.5C 104.5,89.5 103.5,89.5 102.5,89.5C 102.025,92.3126 103.025,94.3126 105.5,95.5C 106.853,97.1827 108.52,98.5161 110.5,99.5C 110.833,99.5 111.167,99.5 111.5,99.5C 110.542,102.125 109.376,102.125 108,99.5C 107.392,101.154 106.892,102.821 106.5,104.5C 106.167,104.5 105.833,104.5 105.5,104.5C 104.737,102.632 103.737,100.965 102.5,99.5C 102.631,98.6236 102.298,97.9569 101.5,97.5C 100.548,99.0453 100.215,100.712 100.5,102.5C 98.5669,101.358 97.0669,99.6917 96,97.5C 95.7216,98.4158 95.2216,99.0825 94.5,99.5C 93.5987,98.7095 92.9321,97.7095 92.5,96.5C 98.963,88.7901 102.296,79.7901 102.5,69.5C 102.5,68.8333 102.5,68.1667 102.5,67.5C 103.488,62.3595 103.821,57.0262 103.5,51.5C 104.319,54.3054 104.819,57.3054 105,60.5C 109.333,57.8271 110.5,54.1604 108.5,49.5C 109.5,49.5 110.5,49.5 111.5,49.5C 110.62,47.5708 109.62,45.7374 108.5,44C 108.833,43.5 109.167,43 109.5,42.5C 110.944,43.981 111.611,43.6477 111.5,41.5 Z"/></g>
<g><path style="opacity:1" fill="#9a4a32" d="M 118.5,81.5 C 120.094,82.983 121.76,84.483 123.5,86C 122.207,86.49 120.873,86.6567 119.5,86.5C 118.067,85.1667 116.733,83.6667 115.5,82C 116.448,81.5172 117.448,81.3505 118.5,81.5 Z"/></g>
<g><path style="opacity:1" fill="#492922" d="M 115.5,91.5 C 115.5,91.8333 115.5,92.1667 115.5,92.5C 113.993,94.6332 112.66,96.9666 111.5,99.5C 111.167,99.5 110.833,99.5 110.5,99.5C 110.577,98.2502 111.244,97.4169 112.5,97C 110.772,94.418 108.439,92.918 105.5,92.5C 105.5,93.5 105.5,94.5 105.5,95.5C 103.025,94.3126 102.025,92.3126 102.5,89.5C 103.5,89.5 104.5,89.5 105.5,89.5C 105.5,88.1667 105.5,86.8333 105.5,85.5C 108.564,86.3711 111.564,87.5378 114.5,89C 115.252,89.6708 115.586,90.5041 115.5,91.5 Z"/></g>
<g><path style="opacity:1" fill="#5b473b" d="M 158.5,89.5 C 158.833,89.5 159.167,89.5 159.5,89.5C 159.5,90.8333 159.5,92.1667 159.5,93.5C 158.662,93.8417 158.328,94.5084 158.5,95.5C 156.417,93.3956 154.083,93.0623 151.5,94.5C 150.167,94.5 148.833,94.5 147.5,94.5C 147.433,93.0413 147.766,91.7079 148.5,90.5C 150.39,90.2965 151.89,90.9632 153,92.5C 155.018,91.7772 156.852,90.7772 158.5,89.5 Z"/></g>
<g><path style="opacity:1" fill="#c77d5c" d="M 77.5,88.5 C 78.8333,88.5 80.1667,88.5 81.5,88.5C 83.1172,89.038 84.7839,89.3713 86.5,89.5C 88.8506,91.8413 89.8506,94.8413 89.5,98.5C 87.8008,101.196 85.4674,103.196 82.5,104.5C 81.6143,105.325 81.281,106.325 81.5,107.5C 78.7026,107.033 77.3692,105.367 77.5,102.5C 81.7906,103.18 84.4573,101.514 85.5,97.5C 81.5239,96.6693 77.5239,96.5027 73.5,97C 72.1772,97.8159 71.5106,98.9826 71.5,100.5C 68.894,99.1501 68.894,97.6501 71.5,96C 83.1539,95.6904 83.4872,94.0237 72.5,91C 74.1749,90.0147 75.8415,89.1814 77.5,88.5 Z"/></g>
<g><path style="opacity:1" fill="#94432d" d="M 110.5,99.5 C 108.52,98.5161 106.853,97.1827 105.5,95.5C 105.5,94.5 105.5,93.5 105.5,92.5C 108.439,92.918 110.772,94.418 112.5,97C 111.244,97.4169 110.577,98.2502 110.5,99.5 Z"/></g>
<g><path style="opacity:1" fill="#955a40" d="M 77.5,88.5 C 75.8415,89.1814 74.1749,90.0147 72.5,91C 83.4872,94.0237 83.1539,95.6904 71.5,96C 68.894,97.6501 68.894,99.1501 71.5,100.5C 71.8417,101.338 72.5084,101.672 73.5,101.5C 73.7678,103.099 73.4345,104.432 72.5,105.5C 72.5594,103.235 71.7261,102.902 70,104.5C 68.699,104.361 67.8656,103.695 67.5,102.5C 64.9273,100.09 62.9273,97.2569 61.5,94C 61.9733,91.6954 63.3066,90.1954 65.5,89.5C 69.4517,88.7279 73.4517,88.3946 77.5,88.5 Z"/></g>
<g><path style="opacity:1" fill="#997763" d="M 158.5,95.5 C 158.768,97.099 158.434,98.4324 157.5,99.5C 155.886,97.9254 153.886,97.2587 151.5,97.5C 151.5,96.5 151.5,95.5 151.5,94.5C 154.083,93.0623 156.417,93.3956 158.5,95.5 Z"/></g>
<g><path style="opacity:1" fill="#1f2521" d="M 15.5,96.5 C 18.7143,97.7944 18.881,99.1277 16,100.5C 15.1923,102.579 15.359,104.579 16.5,106.5C 19.6311,105.881 21.9644,107.215 23.5,110.5C 21.5995,113.129 19.5995,113.129 17.5,110.5C 16.6143,111.325 16.281,112.325 16.5,113.5C 13.858,115.129 11.1914,116.796 8.5,118.5C 4.30968,110.927 1.30968,102.927 -0.5,94.5C -0.5,91.1667 -0.5,87.8333 -0.5,84.5C 2.13568,83.1764 4.80235,83.1764 7.5,84.5C 9.40209,82.8489 11.4021,82.5155 13.5,83.5C 14.1845,87.4463 14.1845,91.4463 13.5,95.5C 11.1944,95.9926 8.86105,96.3259 6.5,96.5C 6.67424,101.093 7.67424,105.426 9.5,109.5C 10.772,106.618 12.1053,103.785 13.5,101C 12.6634,99.9887 12.33,98.8221 12.5,97.5C 13.791,97.7373 14.791,97.404 15.5,96.5 Z"/></g>
<g><path style="opacity:1" fill="#503228" d="M 56.5,94.5 C 59.5819,96.3719 62.2486,98.7052 64.5,101.5C 63.3588,102.339 62.0255,103.006 60.5,103.5C 56.9184,111.492 56.5851,119.658 59.5,128C 58.9056,128.464 58.2389,128.631 57.5,128.5C 57.1667,128.5 56.8333,128.5 56.5,128.5C 56.3713,126.784 56.038,125.117 55.5,123.5C 56.0596,118.351 56.0596,113.018 55.5,107.5C 55.7395,103.158 56.0728,98.8244 56.5,94.5 Z"/></g>
<g><path style="opacity:1" fill="#763a21" d="M 102.5,99.5 C 101.833,100.5 101.167,101.5 100.5,102.5C 100.215,100.712 100.548,99.0453 101.5,97.5C 102.298,97.9569 102.631,98.6236 102.5,99.5 Z"/></g>
<g><path style="opacity:1" fill="#ce9172" d="M 77.5,102.5 C 76.5,102.5 75.5,102.5 74.5,102.5C 74.5,101.833 74.1667,101.5 73.5,101.5C 72.5084,101.672 71.8417,101.338 71.5,100.5C 71.5106,98.9826 72.1772,97.8159 73.5,97C 77.5239,96.5027 81.5239,96.6693 85.5,97.5C 84.4573,101.514 81.7906,103.18 77.5,102.5 Z"/></g>
<g><path style="opacity:1" fill="#864a2e" d="M 92.5,96.5 C 92.9321,97.7095 93.5987,98.7095 94.5,99.5C 94.5,99.8333 94.5,100.167 94.5,100.5C 91.5586,103.84 88.2253,106.84 84.5,109.5C 83.5,108.833 82.5,108.167 81.5,107.5C 81.281,106.325 81.6143,105.325 82.5,104.5C 85.4674,103.196 87.8008,101.196 89.5,98.5C 90.5,97.8333 91.5,97.1667 92.5,96.5 Z"/></g>
<g><path style="opacity:0.992" fill="#181f1e" d="M 24.5,105.5 C 27.1908,107.224 29.1908,109.557 30.5,112.5C 31.4345,113.568 31.7678,114.901 31.5,116.5C 30.5,116.5 29.5,116.5 28.5,116.5C 28.6399,118.124 27.9733,119.29 26.5,120C 28.235,120.651 29.9017,120.485 31.5,119.5C 32.3857,120.325 32.719,121.325 32.5,122.5C 29.4604,123.68 26.7937,125.347 24.5,127.5C 21.5634,128.472 18.8967,129.805 16.5,131.5C 13.0843,127.677 10.4176,123.343 8.5,118.5C 11.1914,116.796 13.858,115.129 16.5,113.5C 16.281,112.325 16.6143,111.325 17.5,110.5C 19.5995,113.129 21.5995,113.129 23.5,110.5C 21.9644,107.215 19.6311,105.881 16.5,106.5C 15.359,104.579 15.1923,102.579 16,100.5C 18.881,99.1277 18.7143,97.7944 15.5,96.5C 17.6042,92.3807 19.1042,92.714 20,97.5C 20.5,97 21,96.5 21.5,96C 20.624,94.414 19.624,92.914 18.5,91.5C 18.6236,90.8933 18.9569,90.56 19.5,90.5C 20.7899,92.9866 21.7899,92.6533 22.5,89.5C 24.4825,91.8099 25.4825,94.4765 25.5,97.5C 24.5,97.5 23.5,97.5 22.5,97.5C 22.2938,100.495 22.9605,103.162 24.5,105.5 Z"/></g>
<g><path style="opacity:1" fill="#bb7057" d="M 73.5,101.5 C 74.1667,101.5 74.5,101.833 74.5,102.5C 77.9245,107.255 80.9245,112.255 83.5,117.5C 83.5,118.167 83.5,118.833 83.5,119.5C 82.1667,118.167 80.8333,116.833 79.5,115.5C 79.2178,114.222 78.5511,113.222 77.5,112.5C 75.8657,111.028 74.3657,109.362 73,107.5C 72.6012,107.728 72.4346,108.062 72.5,108.5C 72.1667,108.5 71.8333,108.5 71.5,108.5C 71.5569,107.391 71.8902,106.391 72.5,105.5C 73.4345,104.432 73.7678,103.099 73.5,101.5 Z"/></g>
<g><path style="opacity:1" fill="#d16d26" d="M 102.5,99.5 C 103.737,100.965 104.737,102.632 105.5,104.5C 104.279,105.028 103.113,105.695 102,106.5C 101.576,109.025 100.41,111.025 98.5,112.5C 98.7878,109.061 99.4544,105.728 100.5,102.5C 101.167,101.5 101.833,100.5 102.5,99.5 Z"/></g>
<g><path style="opacity:1" fill="#2d2e27" d="M 115.5,92.5 C 115.196,93.1499 114.863,93.8165 114.5,94.5C 115.95,95.8498 116.617,97.5165 116.5,99.5C 115.167,99.5 113.833,99.5 112.5,99.5C 112.5,101.5 112.5,103.5 112.5,105.5C 117.389,106.4 119.723,109.4 119.5,114.5C 121.262,114.357 122.929,114.691 124.5,115.5C 125.853,114.315 127.02,112.981 128,111.5C 128.333,112.167 128.667,112.833 129,113.5C 130.049,111.893 131.549,111.227 133.5,111.5C 134.568,112.434 135.901,112.768 137.5,112.5C 137.5,114.167 137.5,115.833 137.5,117.5C 141.161,117.65 142.161,116.15 140.5,113C 142.607,111.736 143.607,109.903 143.5,107.5C 141.09,106.562 138.756,106.562 136.5,107.5C 137.085,105.078 138.585,103.411 141,102.5C 141.483,101.552 141.649,100.552 141.5,99.5C 137.445,99.1758 133.445,99.5091 129.5,100.5C 128.754,101.736 128.421,103.07 128.5,104.5C 130.288,104.215 131.955,104.548 133.5,105.5C 132.68,107.111 131.346,107.778 129.5,107.5C 129.5,108.5 129.5,109.5 129.5,110.5C 127.071,110.884 124.737,111.551 122.5,112.5C 122.5,109.5 122.5,106.5 122.5,103.5C 120.833,103.5 119.167,103.5 117.5,103.5C 117.33,102.178 117.663,101.011 118.5,100C 120.231,98.3699 122.231,97.2033 124.5,96.5C 130.48,97.1987 136.48,97.6987 142.5,98C 143.293,99.0852 143.96,100.252 144.5,101.5C 140.424,104.481 140.757,105.814 145.5,105.5C 146.85,111.118 147.85,116.784 148.5,122.5C 148.167,123.167 147.833,123.833 147.5,124.5C 135.934,121.277 124.601,117.444 113.5,113C 109.881,111.215 107.548,108.382 106.5,104.5C 106.892,102.821 107.392,101.154 108,99.5C 109.376,102.125 110.542,102.125 111.5,99.5C 112.66,96.9666 113.993,94.6332 115.5,92.5 Z"/></g>
<g><path style="opacity:1" fill="#352723" d="M 37.5,119.5 C 36.5,120.167 35.5,120.833 34.5,121.5C 33.8333,121.833 33.1667,122.167 32.5,122.5C 32.719,121.325 32.3857,120.325 31.5,119.5C 29.9017,120.485 28.235,120.651 26.5,120C 27.9733,119.29 28.6399,118.124 28.5,116.5C 29.5,116.5 30.5,116.5 31.5,116.5C 31.7678,114.901 31.4345,113.568 30.5,112.5C 30.5792,111.07 30.2458,109.736 29.5,108.5C 32.3291,105.841 35.3291,103.341 38.5,101C 39.635,100.251 40.635,100.417 41.5,101.5C 38.0864,104.676 35.4197,108.342 33.5,112.5C 34.443,115.255 35.7763,117.588 37.5,119.5 Z"/></g>
<g><path style="opacity:1" fill="#e6c0a5" d="M 74.5,102.5 C 75.5,102.5 76.5,102.5 77.5,102.5C 77.3692,105.367 78.7026,107.033 81.5,107.5C 82.5,108.167 83.5,108.833 84.5,109.5C 86.2336,113.3 88.2336,116.966 90.5,120.5C 90.1575,122.225 89.1575,122.725 87.5,122C 86.4209,120.141 85.0876,118.641 83.5,117.5C 80.9245,112.255 77.9245,107.255 74.5,102.5 Z"/></g>
<g><path style="opacity:1" fill="#a9663f" d="M 94.5,100.5 C 96.876,101.512 97.876,103.345 97.5,106C 96.839,110.824 95.339,115.324 93,119.5C 92.5026,122.146 92.3359,124.813 92.5,127.5C 91.8333,125.167 91.1667,122.833 90.5,120.5C 88.2336,116.966 86.2336,113.3 84.5,109.5C 88.2253,106.84 91.5586,103.84 94.5,100.5 Z"/></g>
<g><path style="opacity:1" fill="#a83537" d="M 71.5,108.5 C 71.8333,108.5 72.1667,108.5 72.5,108.5C 72.5979,110.553 71.9313,112.22 70.5,113.5C 70.2155,111.585 70.5489,109.919 71.5,108.5 Z"/></g>
<g><path style="opacity:1" fill="#d54650" d="M 77.5,112.5 C 78.5511,113.222 79.2178,114.222 79.5,115.5C 78.8333,115.5 78.1667,115.5 77.5,115.5C 77.0472,114.542 76.3805,113.708 75.5,113C 76.0944,112.536 76.7611,112.369 77.5,112.5 Z"/></g>
<g><path style="opacity:1" fill="#4a422d" d="M 133.5,111.5 C 134.211,109.97 135.211,108.637 136.5,107.5C 138.756,106.562 141.09,106.562 143.5,107.5C 143.607,109.903 142.607,111.736 140.5,113C 142.161,116.15 141.161,117.65 137.5,117.5C 137.5,115.833 137.5,114.167 137.5,112.5C 135.901,112.768 134.568,112.434 133.5,111.5 Z"/></g>
<g><path style="opacity:1" fill="#fcab65" d="M 105.5,104.5 C 105.833,104.5 106.167,104.5 106.5,104.5C 107.548,108.382 109.881,111.215 113.5,113C 124.601,117.444 135.934,121.277 147.5,124.5C 145.518,127.81 143.185,130.81 140.5,133.5C 130.647,130.981 120.813,127.981 111,124.5C 109.782,127.937 108.282,131.271 106.5,134.5C 105.532,132.393 105.198,130.059 105.5,127.5C 104.209,127.737 103.209,127.404 102.5,126.5C 102.833,125.833 103.167,125.167 103.5,124.5C 104.599,121.221 106.266,118.221 108.5,115.5C 108.182,114.353 107.516,113.519 106.5,113C 106.957,112.586 107.291,112.086 107.5,111.5C 106.972,109.664 106.306,107.997 105.5,106.5C 105.5,105.833 105.5,105.167 105.5,104.5 Z"/></g>
<g><path style="opacity:1" fill="#d6a58b" d="M 77.5,112.5 C 76.7611,112.369 76.0944,112.536 75.5,113C 76.3805,113.708 77.0472,114.542 77.5,115.5C 79.4693,119.381 81.1359,123.381 82.5,127.5C 80.5653,125.62 78.8986,123.62 77.5,121.5C 77.1667,120.167 76.8333,118.833 76.5,117.5C 76.2882,115.616 75.2882,114.283 73.5,113.5C 72.2319,115.304 71.5652,117.304 71.5,119.5C 71.5,120.833 71.5,122.167 71.5,123.5C 69.0866,127.435 67.4199,131.769 66.5,136.5C 65.8333,137.833 65.1667,137.833 64.5,136.5C 64.8928,128.337 66.8928,120.67 70.5,113.5C 71.9313,112.22 72.5979,110.553 72.5,108.5C 72.4346,108.062 72.6012,107.728 73,107.5C 74.3657,109.362 75.8657,111.028 77.5,112.5 Z"/></g>
<g><path style="opacity:1" fill="#b77358" d="M 76.5,117.5 C 75.5416,117.047 74.7083,116.381 74,115.5C 73.3918,117.066 72.5585,118.4 71.5,119.5C 71.5652,117.304 72.2319,115.304 73.5,113.5C 75.2882,114.283 76.2882,115.616 76.5,117.5 Z"/></g>
<g><path style="opacity:1" fill="#fea456" d="M 105.5,106.5 C 106.306,107.997 106.972,109.664 107.5,111.5C 107.291,112.086 106.957,112.586 106.5,113C 107.516,113.519 108.182,114.353 108.5,115.5C 106.266,118.221 104.599,121.221 103.5,124.5C 102.665,123.057 101.332,122.057 99.5,121.5C 101.475,120.212 101.475,118.545 99.5,116.5C 100.526,112.425 102.526,109.092 105.5,106.5 Z"/></g>
<g><path style="opacity:1" fill="#5f2e22" d="M 53.5,109.5 C 53.5,110.167 53.5,110.833 53.5,111.5C 52.3121,110.316 51.1455,110.316 50,111.5C 49.0467,114.432 48.5467,117.432 48.5,120.5C 47.0695,120.579 45.7362,120.246 44.5,119.5C 43.8333,120.167 43.1667,120.833 42.5,121.5C 41.7348,120.388 40.7348,119.721 39.5,119.5C 41.1484,118.073 43.1484,117.24 45.5,117C 46.6498,114.538 47.9831,112.204 49.5,110C 50.7932,109.51 52.1266,109.343 53.5,109.5 Z"/></g>
<g><path style="opacity:1" fill="#312421" d="M 55.5,107.5 C 56.0596,113.018 56.0596,118.351 55.5,123.5C 55.4431,122.391 55.1098,121.391 54.5,120.5C 54.2962,117.482 53.9629,114.482 53.5,111.5C 53.5,110.833 53.5,110.167 53.5,109.5C 54.1667,108.833 54.8333,108.167 55.5,107.5 Z"/></g>
<g><path style="opacity:1" fill="#75402f" d="M 76.5,117.5 C 76.8333,118.833 77.1667,120.167 77.5,121.5C 77.5,122.167 77.1667,122.5 76.5,122.5C 75.3478,121.375 74.3478,121.375 73.5,122.5C 72.1667,123.833 72.1667,125.167 73.5,126.5C 73.1583,127.338 72.4916,127.672 71.5,127.5C 71.5,126.167 71.5,124.833 71.5,123.5C 71.5,122.167 71.5,120.833 71.5,119.5C 72.5585,118.4 73.3918,117.066 74,115.5C 74.7083,116.381 75.5416,117.047 76.5,117.5 Z"/></g>
<g><path style="opacity:1" fill="#663f30" d="M 64.5,101.5 C 65.391,102.11 66.391,102.443 67.5,102.5C 67.8656,103.695 68.699,104.361 70,104.5C 71.7261,102.902 72.5594,103.235 72.5,105.5C 71.8902,106.391 71.5569,107.391 71.5,108.5C 70.5489,109.919 70.2155,111.585 70.5,113.5C 69.8501,113.196 69.1835,112.863 68.5,112.5C 67.3378,114.824 66.1711,117.158 65,119.5C 64.8261,124.684 64.3261,129.684 63.5,134.5C 63.719,133.325 63.3857,132.325 62.5,131.5C 60.6036,130.725 58.937,129.725 57.5,128.5C 58.2389,128.631 58.9056,128.464 59.5,128C 56.5851,119.658 56.9184,111.492 60.5,103.5C 62.0255,103.006 63.3588,102.339 64.5,101.5 Z"/></g>
<g><path style="opacity:1" fill="#b3866e" d="M 70.5,113.5 C 66.8928,120.67 64.8928,128.337 64.5,136.5C 65.1667,137.833 65.8333,137.833 66.5,136.5C 67.4199,131.769 69.0866,127.435 71.5,123.5C 71.5,124.833 71.5,126.167 71.5,127.5C 70.185,131.157 68.8517,134.824 67.5,138.5C 65.7629,141.008 64.9296,144.008 65,147.5C 64.6174,146.944 64.1174,146.611 63.5,146.5C 63.5,144.167 63.5,141.833 63.5,139.5C 63.5,137.833 63.5,136.167 63.5,134.5C 64.3261,129.684 64.8261,124.684 65,119.5C 66.1711,117.158 67.3378,114.824 68.5,112.5C 69.1835,112.863 69.8501,113.196 70.5,113.5 Z"/></g>
<g><path style="opacity:1" fill="#61392a" d="M 100.5,102.5 C 99.4544,105.728 98.7878,109.061 98.5,112.5C 97.7418,118.203 96.5751,123.869 95,129.5C 94.3292,130.252 93.4959,130.586 92.5,130.5C 92.5,129.5 92.5,128.5 92.5,127.5C 92.3359,124.813 92.5026,122.146 93,119.5C 95.339,115.324 96.839,110.824 97.5,106C 97.876,103.345 96.876,101.512 94.5,100.5C 94.5,100.167 94.5,99.8333 94.5,99.5C 95.2216,99.0825 95.7216,98.4158 96,97.5C 97.0669,99.6917 98.5669,101.358 100.5,102.5 Z"/></g>
<g><path style="opacity:1" fill="#eb822d" d="M 105.5,104.5 C 105.5,105.167 105.5,105.833 105.5,106.5C 102.526,109.092 100.526,112.425 99.5,116.5C 101.475,118.545 101.475,120.212 99.5,121.5C 101.332,122.057 102.665,123.057 103.5,124.5C 103.167,125.167 102.833,125.833 102.5,126.5C 96.0878,128.215 96.0878,129.548 102.5,130.5C 99.7007,131.974 98.0341,134.308 97.5,137.5C 97.9164,139.715 99.2497,141.049 101.5,141.5C 99.537,144.518 99.037,147.851 100,151.5C 100.374,149.509 101.207,147.842 102.5,146.5C 101.838,150.466 101.505,154.466 101.5,158.5C 100.167,159.167 98.8333,159.833 97.5,160.5C 95.8333,160.5 94.1667,160.5 92.5,160.5C 92.5,156.833 92.5,153.167 92.5,149.5C 93.758,145.8 93.758,142.134 92.5,138.5C 92.5,135.833 92.5,133.167 92.5,130.5C 93.4959,130.586 94.3292,130.252 95,129.5C 96.5751,123.869 97.7418,118.203 98.5,112.5C 100.41,111.025 101.576,109.025 102,106.5C 103.113,105.695 104.279,105.028 105.5,104.5 Z"/></g>
<g><path style="opacity:1" fill="#ab531f" d="M 54.5,120.5 C 55.1098,121.391 55.4431,122.391 55.5,123.5C 56.038,125.117 56.3713,126.784 56.5,128.5C 55.8939,131.167 55.0605,133.834 54,136.5C 52.3333,133.833 50.6667,131.167 49,128.5C 48.51,129.793 48.3433,131.127 48.5,132.5C 48.1667,132.5 47.8333,132.5 47.5,132.5C 46.1411,133.007 45.1411,134.007 44.5,135.5C 44.3241,133.328 44.1575,130.995 44,128.5C 38.588,130.567 33.9214,129.567 30,125.5C 28.2745,126.464 26.4412,127.131 24.5,127.5C 26.7937,125.347 29.4604,123.68 32.5,122.5C 33.1667,122.167 33.8333,121.833 34.5,121.5C 35.5,121.5 36.5,121.5 37.5,121.5C 37.5,122.5 37.5,123.5 37.5,124.5C 43.3242,123.242 46.3242,125.576 46.5,131.5C 47.1667,128.833 47.8333,126.167 48.5,123.5C 49.1924,124.025 49.6924,124.692 50,125.5C 50.1747,121.789 50.6747,118.122 51.5,114.5C 52.5176,116.594 53.5176,118.594 54.5,120.5 Z"/></g>
<g><path style="opacity:1" fill="#894220" d="M 53.5,111.5 C 53.9629,114.482 54.2962,117.482 54.5,120.5C 53.5176,118.594 52.5176,116.594 51.5,114.5C 50.6747,118.122 50.1747,121.789 50,125.5C 49.6924,124.692 49.1924,124.025 48.5,123.5C 47.8333,126.167 47.1667,128.833 46.5,131.5C 46.3242,125.576 43.3242,123.242 37.5,124.5C 37.5,123.5 37.5,122.5 37.5,121.5C 36.5,121.5 35.5,121.5 34.5,121.5C 35.5,120.833 36.5,120.167 37.5,119.5C 38.1667,119.5 38.8333,119.5 39.5,119.5C 40.7348,119.721 41.7348,120.388 42.5,121.5C 43.1667,120.833 43.8333,120.167 44.5,119.5C 45.7362,120.246 47.0695,120.579 48.5,120.5C 48.5467,117.432 49.0467,114.432 50,111.5C 51.1455,110.316 52.3121,110.316 53.5,111.5 Z"/></g>
<g><path style="opacity:1" fill="#a21f2e" d="M 73.5,122.5 C 74.6857,123.705 74.6857,125.039 73.5,126.5C 72.1667,125.167 72.1667,123.833 73.5,122.5 Z"/></g>
<g><path style="opacity:1" fill="#e8cab1" d="M 77.5,115.5 C 78.1667,115.5 78.8333,115.5 79.5,115.5C 80.8333,116.833 82.1667,118.167 83.5,119.5C 85.2133,122.86 86.8799,126.193 88.5,129.5C 86.7839,129.371 85.1172,129.038 83.5,128.5C 83.5,127.833 83.1667,127.5 82.5,127.5C 81.1359,123.381 79.4693,119.381 77.5,115.5 Z"/></g>
<g><path style="opacity:1" fill="#d43242" d="M 77.5,125.5 C 79.1042,126.287 79.7709,127.62 79.5,129.5C 79.1667,129.5 78.8333,129.5 78.5,129.5C 77.8592,128.518 77.1925,127.518 76.5,126.5C 76.6236,125.893 76.9569,125.56 77.5,125.5 Z"/></g>
<g><path style="opacity:1" fill="#9c5640" d="M 77.5,121.5 C 78.8986,123.62 80.5653,125.62 82.5,127.5C 83.1667,127.5 83.5,127.833 83.5,128.5C 83.6567,129.873 83.49,131.207 83,132.5C 82.2411,130.937 81.0744,129.937 79.5,129.5C 79.7709,127.62 79.1042,126.287 77.5,125.5C 77.4431,124.391 77.1098,123.391 76.5,122.5C 77.1667,122.5 77.5,122.167 77.5,121.5 Z"/></g>
<g><path style="opacity:1" fill="#dfae90" d="M 83.5,117.5 C 85.0876,118.641 86.4209,120.141 87.5,122C 89.1575,122.725 90.1575,122.225 90.5,120.5C 91.1667,122.833 91.8333,125.167 92.5,127.5C 92.5,128.5 92.5,129.5 92.5,130.5C 92.5,133.167 92.5,135.833 92.5,138.5C 90.9069,139.348 89.7403,140.681 89,142.5C 88.6667,145.167 88.3333,147.833 88,150.5C 82.8041,148.851 81.6374,150.184 84.5,154.5C 83.4138,154.62 82.7472,155.287 82.5,156.5C 82.8457,157.849 83.179,159.183 83.5,160.5C 82.5,160.5 81.5,160.5 80.5,160.5C 81.2087,154.459 82.2087,148.459 83.5,142.5C 83.1445,141.478 82.4778,140.811 81.5,140.5C 80.4161,137.996 79.0828,135.663 77.5,133.5C 77.5,132.833 77.5,132.167 77.5,131.5C 77.3284,130.508 77.6618,129.842 78.5,129.5C 78.8333,129.5 79.1667,129.5 79.5,129.5C 81.0744,129.937 82.2411,130.937 83,132.5C 83.49,131.207 83.6567,129.873 83.5,128.5C 85.1172,129.038 86.7839,129.371 88.5,129.5C 86.8799,126.193 85.2133,122.86 83.5,119.5C 83.5,118.833 83.5,118.167 83.5,117.5 Z"/></g>
<g><path style="opacity:1" fill="#b95b1f" d="M 47.5,132.5 C 49.5861,140.405 54.0861,146.405 61,150.5C 61.498,153.482 61.6646,156.482 61.5,159.5C 59.901,159.768 58.5676,159.434 57.5,158.5C 58.3477,153.162 56.5143,149.162 52,146.5C 50.503,142.835 48.503,139.502 46,136.5C 44.1643,138.708 41.831,140.042 39,140.5C 38.7323,138.41 39.7323,137.076 42,136.5C 42.7494,135.365 42.5827,134.365 41.5,133.5C 39.9017,134.485 38.235,134.651 36.5,134C 37.1667,133.667 37.8333,133.333 38.5,133C 33.6784,132.796 29.1784,131.63 25,129.5C 22.2393,130.418 19.4059,131.084 16.5,131.5C 18.8967,129.805 21.5634,128.472 24.5,127.5C 26.4412,127.131 28.2745,126.464 30,125.5C 33.9214,129.567 38.588,130.567 44,128.5C 44.1575,130.995 44.3241,133.328 44.5,135.5C 45.1411,134.007 46.1411,133.007 47.5,132.5 Z"/></g>
<g><path style="opacity:1" fill="#ffad63" d="M 125.5,147.5 C 122.287,150.274 118.62,152.274 114.5,153.5C 113.934,147.701 112.767,142.034 111,136.5C 110.179,133.446 110.345,130.446 111.5,127.5C 113.776,128.213 116.109,128.713 118.5,129C 120.388,131.19 122.555,133.023 125,134.5C 125.499,138.821 125.666,143.154 125.5,147.5 Z"/></g>
<g><path style="opacity:1" fill="#94593e" d="M 77.5,133.5 C 79.0828,135.663 80.4161,137.996 81.5,140.5C 80.4168,140.539 79.4168,140.873 78.5,141.5C 77.8182,140.757 77.1515,140.091 76.5,139.5C 76.8333,137.5 77.1667,135.5 77.5,133.5 Z"/></g>
<g><path style="opacity:1" fill="#bb5c1f" d="M 56.5,128.5 C 56.8333,128.5 57.1667,128.5 57.5,128.5C 58.937,129.725 60.6036,130.725 62.5,131.5C 63.3857,132.325 63.719,133.325 63.5,134.5C 63.5,136.167 63.5,137.833 63.5,139.5C 61.9201,141.717 60.9201,144.384 60.5,147.5C 54.3619,144.23 50.3619,139.23 48.5,132.5C 48.3433,131.127 48.51,129.793 49,128.5C 50.6667,131.167 52.3333,133.833 54,136.5C 55.0605,133.834 55.8939,131.167 56.5,128.5 Z"/></g>
<g><path style="opacity:1" fill="#fea04f" d="M 102.5,126.5 C 103.209,127.404 104.209,127.737 105.5,127.5C 105.198,130.059 105.532,132.393 106.5,134.5C 104.588,136.657 102.921,138.991 101.5,141.5C 99.2497,141.049 97.9164,139.715 97.5,137.5C 98.0341,134.308 99.7007,131.974 102.5,130.5C 96.0878,129.548 96.0878,128.215 102.5,126.5 Z"/></g>
<g><path style="opacity:1" fill="#55342a" d="M 77.5,131.5 C 77.5,132.167 77.5,132.833 77.5,133.5C 77.1667,135.5 76.8333,137.5 76.5,139.5C 74.631,141.635 73.9644,144.302 74.5,147.5C 73.8826,147.389 73.3826,147.056 73,146.5C 72.586,141.47 72.9193,136.47 74,131.5C 75.0924,129.069 76.2591,129.069 77.5,131.5 Z"/></g>
<g><path style="opacity:1" fill="#d26a20" d="M 57.5,158.5 C 55.2143,158.405 53.2143,157.738 51.5,156.5C 52.4124,155.262 52.5791,153.928 52,152.5C 50.3651,149.368 48.5318,146.368 46.5,143.5C 45.277,142.386 43.9437,142.219 42.5,143C 40.9571,144.878 39.1238,146.378 37,147.5C 36.8371,145.324 36.0037,143.491 34.5,142C 31.854,141.503 29.1873,141.336 26.5,141.5C 22.8333,138.5 19.5,135.167 16.5,131.5C 19.4059,131.084 22.2393,130.418 25,129.5C 29.1784,131.63 33.6784,132.796 38.5,133C 37.8333,133.333 37.1667,133.667 36.5,134C 38.235,134.651 39.9017,134.485 41.5,133.5C 42.5827,134.365 42.7494,135.365 42,136.5C 39.7323,137.076 38.7323,138.41 39,140.5C 41.831,140.042 44.1643,138.708 46,136.5C 48.503,139.502 50.503,142.835 52,146.5C 56.5143,149.162 58.3477,153.162 57.5,158.5 Z"/></g>
<g><path style="opacity:1" fill="#d3a48a" d="M 73.5,122.5 C 74.3478,121.375 75.3478,121.375 76.5,122.5C 77.1098,123.391 77.4431,124.391 77.5,125.5C 76.9569,125.56 76.6236,125.893 76.5,126.5C 77.1925,127.518 77.8592,128.518 78.5,129.5C 77.6618,129.842 77.3284,130.508 77.5,131.5C 76.2591,129.069 75.0924,129.069 74,131.5C 72.9193,136.47 72.586,141.47 73,146.5C 73.3826,147.056 73.8826,147.389 74.5,147.5C 74.5,148.167 74.5,148.833 74.5,149.5C 74.5,153.167 74.5,156.833 74.5,160.5C 71.8333,160.5 69.1667,160.5 66.5,160.5C 66.4409,154.091 67.1076,147.758 68.5,141.5C 68.315,140.416 67.9817,139.416 67.5,138.5C 68.8517,134.824 70.185,131.157 71.5,127.5C 72.4916,127.672 73.1583,127.338 73.5,126.5C 74.6857,125.039 74.6857,123.705 73.5,122.5 Z"/></g>
<g><path style="opacity:0.965" fill="#de7323" d="M 26.5,141.5 C 29.1873,141.336 31.854,141.503 34.5,142C 36.0037,143.491 36.8371,145.324 37,147.5C 39.1238,146.378 40.9571,144.878 42.5,143C 43.9437,142.219 45.277,142.386 46.5,143.5C 48.5318,146.368 50.3651,149.368 52,152.5C 52.5791,153.928 52.4124,155.262 51.5,156.5C 41.8708,153.512 33.5374,148.512 26.5,141.5 Z"/></g>
<g><path style="opacity:1" fill="#a77359" d="M 81.5,140.5 C 82.4778,140.811 83.1445,141.478 83.5,142.5C 82.2087,148.459 81.2087,154.459 80.5,160.5C 80.1667,160.5 79.8333,160.5 79.5,160.5C 80.3136,155.881 80.6469,151.214 80.5,146.5C 81.4614,144.735 81.7947,142.735 81.5,140.5 Z"/></g>
<g><path style="opacity:1" fill="#7e4025" d="M 47.5,132.5 C 47.8333,132.5 48.1667,132.5 48.5,132.5C 50.3619,139.23 54.3619,144.23 60.5,147.5C 60.9201,144.384 61.9201,141.717 63.5,139.5C 63.5,141.833 63.5,144.167 63.5,146.5C 62.8333,150.833 62.1667,155.167 61.5,159.5C 61.6646,156.482 61.498,153.482 61,150.5C 54.0861,146.405 49.5861,140.405 47.5,132.5 Z"/></g>
<g><path style="opacity:1" fill="#aa531f" d="M 101.5,141.5 C 102.451,142.919 102.784,144.585 102.5,146.5C 101.207,147.842 100.374,149.509 100,151.5C 99.037,147.851 99.537,144.518 101.5,141.5 Z"/></g>
<g><path style="opacity:1" fill="#2b211f" d="M 76.5,139.5 C 77.1515,140.091 77.8182,140.757 78.5,141.5C 79.4168,140.873 80.4168,140.539 81.5,140.5C 81.7947,142.735 81.4614,144.735 80.5,146.5C 79.1964,147.987 78.0298,149.654 77,151.5C 76.2917,150.619 75.4584,149.953 74.5,149.5C 74.5,148.833 74.5,148.167 74.5,147.5C 73.9644,144.302 74.631,141.635 76.5,139.5 Z"/></g>
<g><path style="opacity:1" fill="#e6bca0" d="M 92.5,138.5 C 93.758,142.134 93.758,145.8 92.5,149.5C 90.6036,151.837 89.2703,154.504 88.5,157.5C 87.5,157.5 86.5,157.5 85.5,157.5C 85.4431,156.391 85.1098,155.391 84.5,154.5C 81.6374,150.184 82.8041,148.851 88,150.5C 88.3333,147.833 88.6667,145.167 89,142.5C 89.7403,140.681 90.9069,139.348 92.5,138.5 Z"/></g>
<g><path style="opacity:1" fill="#f68f3a" d="M 140.5,133.5 C 136.129,138.873 131.129,143.539 125.5,147.5C 125.666,143.154 125.499,138.821 125,134.5C 122.555,133.023 120.388,131.19 118.5,129C 116.109,128.713 113.776,128.213 111.5,127.5C 110.345,130.446 110.179,133.446 111,136.5C 112.767,142.034 113.934,147.701 114.5,153.5C 110.623,156.129 106.29,157.796 101.5,158.5C 101.505,154.466 101.838,150.466 102.5,146.5C 102.784,144.585 102.451,142.919 101.5,141.5C 102.921,138.991 104.588,136.657 106.5,134.5C 108.282,131.271 109.782,127.937 111,124.5C 120.813,127.981 130.647,130.981 140.5,133.5 Z"/></g>
<g><path style="opacity:1" fill="#9f6c53" d="M 67.5,138.5 C 67.9817,139.416 68.315,140.416 68.5,141.5C 67.1076,147.758 66.4409,154.091 66.5,160.5C 64.8333,160.5 63.1667,160.5 61.5,160.5C 61.5,160.167 61.5,159.833 61.5,159.5C 62.1667,155.167 62.8333,150.833 63.5,146.5C 64.1174,146.611 64.6174,146.944 65,147.5C 64.9296,144.008 65.7629,141.008 67.5,138.5 Z"/></g>
<g><path style="opacity:1" fill="#4f3228" d="M 80.5,146.5 C 80.6469,151.214 80.3136,155.881 79.5,160.5C 77.8333,160.5 76.1667,160.5 74.5,160.5C 74.5,156.833 74.5,153.167 74.5,149.5C 75.4584,149.953 76.2917,150.619 77,151.5C 78.0298,149.654 79.1964,147.987 80.5,146.5 Z"/></g>
<g><path style="opacity:1" fill="#dea17e" d="M 92.5,149.5 C 92.5,153.167 92.5,156.833 92.5,160.5C 90.1667,160.5 87.8333,160.5 85.5,160.5C 85.5,159.5 85.5,158.5 85.5,157.5C 86.5,157.5 87.5,157.5 88.5,157.5C 89.2703,154.504 90.6036,151.837 92.5,149.5 Z"/></g>
<g><path style="opacity:1" fill="#5d584b" d="M 84.5,154.5 C 85.1098,155.391 85.4431,156.391 85.5,157.5C 85.5,158.5 85.5,159.5 85.5,160.5C 84.8333,160.5 84.1667,160.5 83.5,160.5C 83.179,159.183 82.8457,157.849 82.5,156.5C 82.7472,155.287 83.4138,154.62 84.5,154.5 Z"/></g>
</svg>
