<?xml version="1.0" encoding="UTF-8"?>
<!DOCTYPE svg PUBLIC "-//W3C//DTD SVG 1.1//EN" "http://www.w3.org/Graphics/SVG/1.1/DTD/svg11.dtd">
<svg xmlns="http://www.w3.org/2000/svg" version="1.1" width="160px" height="161px" style="shape-rendering:geometricPrecision; text-rendering:geometricPrecision; image-rendering:optimizeQuality; fill-rule:evenodd; clip-rule:evenodd" xmlns:xlink="http://www.w3.org/1999/xlink">
<g><path style="opacity:0.97" fill="#e4d9d6" d="M 85.5,1.5 C 88.8599,1.61587 92.1933,1.9492 95.5,2.5C 94.8902,3.39105 94.5569,4.39105 94.5,5.5C 94.5858,6.4959 94.2524,7.32924 93.5,8C 89.8296,8.54822 86.1629,9.04822 82.5,9.5C 82.5,7.83333 82.5,6.16667 82.5,4.5C 83.9002,3.89992 84.9002,2.89992 85.5,1.5 Z"/></g>
<g><path style="opacity:0.994" fill="#e5dad8" d="M 68.5,1.5 C 68.4249,4.20616 68.0916,6.87283 67.5,9.5C 65.1475,10.3403 63.1475,11.6736 61.5,13.5C 60.1667,14.5 58.8333,15.5 57.5,16.5C 55.5772,12.9707 54.9106,8.9707 55.5,4.5C 59.8043,3.37249 64.1376,2.37249 68.5,1.5 Z"/></g>
<g><path style="opacity:1" fill="#69706b" d="M 81.5,1.5 C 82.8333,1.5 84.1667,1.5 85.5,1.5C 84.9002,2.89992 83.9002,3.89992 82.5,4.5C 82.1667,4.5 81.8333,4.5 81.5,4.5C 81.5,3.5 81.5,2.5 81.5,1.5 Z"/></g>
<g><path style="opacity:1" fill="#7a857e" d="M 95.5,2.5 C 96.609,2.55688 97.609,2.89022 98.5,3.5C 97.713,5.10422 96.3797,5.77089 94.5,5.5C 94.5569,4.39105 94.8902,3.39105 95.5,2.5 Z"/></g>
<g><path style="opacity:0.957" fill="#e1d6d4" d="M 99.5,3.5 C 103.574,4.6357 107.574,5.96904 111.5,7.5C 110.833,8.5 110.167,9.5 109.5,10.5C 108.683,12.9686 108.183,15.6353 108,18.5C 107.329,17.7476 106.496,17.4142 105.5,17.5C 103.326,17.2503 101.659,16.2503 100.5,14.5C 100.539,13.4168 100.873,12.4168 101.5,11.5C 98.5601,9.35522 97.8934,6.68855 99.5,3.5 Z"/></g>
<g><path style="opacity:0.749" fill="#515e58" d="M 47.5,7.5 C 47.5,8.5 47.5,9.5 47.5,10.5C 47.5,10.8333 47.5,11.1667 47.5,11.5C 44.9952,12.4171 42.6618,12.4171 40.5,11.5C 42.1788,11.7148 43.1788,11.0481 43.5,9.5C 44.8333,8.83333 46.1667,8.16667 47.5,7.5 Z"/></g>
<g><path style="opacity:1" fill="#636b66" d="M 68.5,1.5 C 68.8333,1.5 69.1667,1.5 69.5,1.5C 70.069,5.32935 69.4023,8.66268 67.5,11.5C 67.5,10.8333 67.5,10.1667 67.5,9.5C 68.0916,6.87283 68.4249,4.20616 68.5,1.5 Z"/></g>
<g><path style="opacity:1" fill="#c4beb9" d="M 98.5,3.5 C 98.8333,3.5 99.1667,3.5 99.5,3.5C 97.8934,6.68855 98.5601,9.35522 101.5,11.5C 100.873,12.4168 100.539,13.4168 100.5,14.5C 99.609,13.8902 98.609,13.5569 97.5,13.5C 96.8333,12.8333 96.1667,12.1667 95.5,11.5C 95.1344,10.3054 94.301,9.63874 93,9.5C 89.3538,10.7542 85.8538,10.7542 82.5,9.5C 86.1629,9.04822 89.8296,8.54822 93.5,8C 94.2524,7.32924 94.5858,6.4959 94.5,5.5C 96.3797,5.77089 97.713,5.10422 98.5,3.5 Z"/></g>
<g><path style="opacity:1" fill="#d7ceca" d="M 50.5,6.5 C 50.5,7.83333 50.5,9.16667 50.5,10.5C 49.5,10.5 48.5,10.5 47.5,10.5C 47.5,9.5 47.5,8.5 47.5,7.5C 48.391,6.89022 49.391,6.55688 50.5,6.5 Z"/></g>
<g><path style="opacity:1" fill="#959a95" d="M 50.5,6.5 C 50.8333,6.5 51.1667,6.5 51.5,6.5C 51.5,8.16667 51.5,9.83333 51.5,11.5C 50.1667,11.5 48.8333,11.5 47.5,11.5C 47.5,11.1667 47.5,10.8333 47.5,10.5C 48.5,10.5 49.5,10.5 50.5,10.5C 50.5,9.16667 50.5,7.83333 50.5,6.5 Z"/></g>
<g><path style="opacity:1" fill="#656b65" d="M 81.5,4.5 C 80.8968,6.67937 80.2301,8.84604 79.5,11C 81.1341,11.4935 82.8008,11.6602 84.5,11.5C 82.7354,12.4614 80.7354,12.7947 78.5,12.5C 78.0766,11.7354 77.7432,10.9021 77.5,10C 78.512,7.75726 79.8454,5.92393 81.5,4.5 Z"/></g>
<g><path style="opacity:1" fill="#aba9a2" d="M 43.5,9.5 C 43.1788,11.0481 42.1788,11.7148 40.5,11.5C 41.2905,10.5987 42.2905,9.93205 43.5,9.5 Z"/></g>
<g><path style="opacity:1" fill="#9d9f99" d="M 67.5,9.5 C 67.5,10.1667 67.5,10.8333 67.5,11.5C 66.8333,11.8333 66.1667,12.1667 65.5,12.5C 64.1667,12.8333 62.8333,13.1667 61.5,13.5C 63.1475,11.6736 65.1475,10.3403 67.5,9.5 Z"/></g>
<g><path style="opacity:1" fill="#979a93" d="M 81.5,4.5 C 81.8333,4.5 82.1667,4.5 82.5,4.5C 82.5,6.16667 82.5,7.83333 82.5,9.5C 85.8538,10.7542 89.3538,10.7542 93,9.5C 94.301,9.63874 95.1344,10.3054 95.5,11.5C 91.8333,11.5 88.1667,11.5 84.5,11.5C 82.8008,11.6602 81.1341,11.4935 79.5,11C 80.2301,8.84604 80.8968,6.67937 81.5,4.5 Z"/></g>
<g><path style="opacity:1" fill="#615e56" d="M 111.5,7.5 C 112.71,7.93205 113.71,8.59872 114.5,9.5C 114.5,11.8333 114.5,14.1667 114.5,16.5C 114.167,16.5 113.833,16.5 113.5,16.5C 112.5,16.5 111.5,16.5 110.5,16.5C 109.659,14.6208 109.325,12.6208 109.5,10.5C 110.167,9.5 110.833,8.5 111.5,7.5 Z"/></g>
<g><path style="opacity:0.858" fill="#202124" d="M 39.5,11.5 C 41.8567,13.0984 44.5234,14.0984 47.5,14.5C 47.5,14.8333 47.5,15.1667 47.5,15.5C 45.8829,16.5893 45.0496,18.256 45,20.5C 41.668,16.8666 38.5014,16.8666 35.5,20.5C 34.3578,19.1738 33.0245,18.1738 31.5,17.5C 33.8599,15.1468 36.5265,13.1468 39.5,11.5 Z"/></g>
<g><path style="opacity:1" fill="#363f3e" d="M 54.5,5.5 C 54.5,7.83333 54.5,10.1667 54.5,12.5C 51.9899,12.0535 49.9899,12.7202 48.5,14.5C 48.1667,14.5 47.8333,14.5 47.5,14.5C 44.5234,14.0984 41.8567,13.0984 39.5,11.5C 39.8333,11.5 40.1667,11.5 40.5,11.5C 42.6618,12.4171 44.9952,12.4171 47.5,11.5C 48.8333,11.5 50.1667,11.5 51.5,11.5C 51.5,9.83333 51.5,8.16667 51.5,6.5C 52.209,5.59603 53.209,5.26269 54.5,5.5 Z"/></g>
<g><path style="opacity:1" fill="#3c413f" d="M 69.5,1.5 C 73.5,1.5 77.5,1.5 81.5,1.5C 81.5,2.5 81.5,3.5 81.5,4.5C 79.8454,5.92393 78.512,7.75726 77.5,10C 77.7432,10.9021 78.0766,11.7354 78.5,12.5C 76.6943,13.0241 75.0276,13.6908 73.5,14.5C 70.5,14.5 67.5,14.5 64.5,14.5C 64.8333,13.8333 65.1667,13.1667 65.5,12.5C 66.1667,12.1667 66.8333,11.8333 67.5,11.5C 69.4023,8.66268 70.069,5.32935 69.5,1.5 Z"/></g>
<g><path style="opacity:1" fill="#353738" d="M 84.5,11.5 C 88.1667,11.5 91.8333,11.5 95.5,11.5C 96.1667,12.1667 96.8333,12.8333 97.5,13.5C 93.4935,12.3875 89.4935,12.3875 85.5,13.5C 90.3857,17.6354 95.7191,21.1354 101.5,24C 102.823,24.8159 103.489,25.9826 103.5,27.5C 103.565,27.9382 103.399,28.2716 103,28.5C 102.385,26.8839 101.385,25.5505 100,24.5C 99.6012,24.7284 99.4346,25.0618 99.5,25.5C 98.5084,25.3284 97.8417,25.6618 97.5,26.5C 90.5919,19.7119 82.5919,15.7119 73.5,14.5C 75.0276,13.6908 76.6943,13.0241 78.5,12.5C 80.7354,12.7947 82.7354,12.4614 84.5,11.5 Z"/></g>
<g><path style="opacity:1" fill="#e1d7d5" d="M 114.5,9.5 C 120.514,11.8355 125.848,15.1688 130.5,19.5C 126.883,23.7357 122.716,27.4023 118,30.5C 115.949,28.7591 114.116,26.7591 112.5,24.5C 112.297,22.9557 111.63,21.6223 110.5,20.5C 111.689,19.5713 113.022,19.238 114.5,19.5C 114.5,18.5 114.5,17.5 114.5,16.5C 114.5,14.1667 114.5,11.8333 114.5,9.5 Z"/></g>
<g><path style="opacity:1" fill="#717975" d="M 65.5,12.5 C 65.1667,13.1667 64.8333,13.8333 64.5,14.5C 62.6203,14.2291 61.287,14.8958 60.5,16.5C 59.609,17.1098 58.609,17.4431 57.5,17.5C 57.5,17.1667 57.5,16.8333 57.5,16.5C 58.8333,15.5 60.1667,14.5 61.5,13.5C 62.8333,13.1667 64.1667,12.8333 65.5,12.5 Z"/></g>
<g><path style="opacity:1" fill="#6d7772" d="M 47.5,14.5 C 47.8333,14.5 48.1667,14.5 48.5,14.5C 48.3367,16.8568 48.5034,19.1902 49,21.5C 49.7083,22.3805 50.5416,23.0472 51.5,23.5C 50.3285,24.3446 48.9952,25.0113 47.5,25.5C 47.5,24.5 47.5,23.5 47.5,22.5C 45.1417,22.2525 43.1417,22.9192 41.5,24.5C 41.4142,23.5041 41.7476,22.6708 42.5,22C 44.1341,21.5065 45.8008,21.3398 47.5,21.5C 47.5,19.5 47.5,17.5 47.5,15.5C 47.5,15.1667 47.5,14.8333 47.5,14.5 Z"/></g>
<g><path style="opacity:1" fill="#c6c0bc" d="M 55.5,4.5 C 54.9106,8.9707 55.5772,12.9707 57.5,16.5C 57.5,16.8333 57.5,17.1667 57.5,17.5C 57.5,17.8333 57.5,18.1667 57.5,18.5C 54.5666,19.1041 52.5666,20.7708 51.5,23.5C 50.5416,23.0472 49.7083,22.3805 49,21.5C 48.5034,19.1902 48.3367,16.8568 48.5,14.5C 49.9899,12.7202 51.9899,12.0535 54.5,12.5C 54.5,10.1667 54.5,7.83333 54.5,5.5C 54.5,4.83333 54.8333,4.5 55.5,4.5 Z"/></g>
<g><path style="opacity:0.998" fill="#1f1d22" d="M 102.5,33.5 C 103.167,35.5 103.833,37.5 104.5,39.5C 105.137,42.456 105.637,45.456 106,48.5C 106.973,46.6079 107.64,44.6079 108,42.5C 110.875,48.7491 114.042,54.7491 117.5,60.5C 117.343,61.8734 117.51,63.2068 118,64.5C 121.267,70.1606 124.434,75.8273 127.5,81.5C 128.046,83.1347 128.38,84.8014 128.5,86.5C 127.167,86.5 125.833,86.5 124.5,86.5C 121.024,85.3567 117.358,85.1901 113.5,86C 115.74,86.977 118.073,87.477 120.5,87.5C 120.5,88.1667 120.833,88.5 121.5,88.5C 122.516,91.1996 122.516,93.8663 121.5,96.5C 122.315,98.2759 123.482,98.9426 125,98.5C 124.877,102.451 126.211,106.117 129,109.5C 131.228,111.113 133.728,111.78 136.5,111.5C 136.023,114.917 137.023,117.584 139.5,119.5C 140.167,119.833 140.833,120.167 141.5,120.5C 141.5,121.167 141.5,121.833 141.5,122.5C 140.508,122.328 139.842,122.662 139.5,123.5C 141.104,128.756 139.77,133.089 135.5,136.5C 135.624,137.107 135.957,137.44 136.5,137.5C 135.5,139.167 134.167,140.5 132.5,141.5C 129.017,139.725 125.35,138.892 121.5,139C 124.823,140.04 127.823,141.54 130.5,143.5C 128.025,146.241 125.025,148.241 121.5,149.5C 120.828,148.733 119.995,148.066 119,147.5C 116.248,147.049 114.415,147.549 113.5,149C 113.645,147.084 113.145,145.251 112,143.5C 111.282,144.451 110.449,144.617 109.5,144C 108.624,142.414 107.624,140.914 106.5,139.5C 106.167,140.5 105.833,141.5 105.5,142.5C 105.993,145.714 106.993,148.547 108.5,151C 107.207,151.49 105.873,151.657 104.5,151.5C 104.5,149.833 104.5,148.167 104.5,146.5C 100.551,146.307 100.551,145.807 104.5,145C 101.752,142.336 101.419,139.67 103.5,137C 102.813,135.838 102.647,134.672 103,133.5C 106.477,135.64 108.811,138.64 110,142.5C 111.487,141.845 112.653,140.845 113.5,139.5C 112.975,138.808 112.308,138.308 111.5,138C 111.833,137.667 112.167,137.333 112.5,137C 110.475,135.806 110.141,134.306 111.5,132.5C 110.787,130.224 110.287,127.891 110,125.5C 109.346,126.696 108.846,126.696 108.5,125.5C 110.087,123.554 109.754,122.054 107.5,121C 110.1,118.541 110.1,116.041 107.5,113.5C 109.848,112.14 110.015,110.473 108,108.5C 107.667,109.5 107.333,110.5 107,111.5C 105.204,109.486 104.704,107.319 105.5,105C 103.083,103.856 102.416,102.19 103.5,100C 101.324,97.7639 99.9906,98.2639 99.5,101.5C 98.624,102.251 97.624,102.751 96.5,103C 98.0074,103.837 98.5074,105.004 98,106.5C 96.3005,105.594 94.4672,105.261 92.5,105.5C 92.67,106.822 92.3366,107.989 91.5,109C 94.2277,109.639 94.7277,110.806 93,112.5C 92.6667,112.167 92.3333,111.833 92,111.5C 91.5439,112.744 92.0439,113.577 93.5,114C 91.0426,115.512 91.0426,116.846 93.5,118C 91.6924,120.947 90.1924,124.114 89,127.5C 88.2917,128.381 87.4584,129.047 86.5,129.5C 85.9874,126.551 85.9874,123.718 86.5,121C 85.0337,120.365 83.7003,119.531 82.5,118.5C 80.8988,119.165 79.3988,119.499 78,119.5C 76.8904,117.963 75.3904,117.297 73.5,117.5C 73.3737,114.405 71.707,112.572 68.5,112C 74.2488,111.852 79.9155,111.186 85.5,110C 89,107.167 92.5,104.333 96,101.5C 99.0049,94.0109 100.505,86.1776 100.5,78C 100.492,76.2933 100.158,74.7933 99.5,73.5C 98.4522,71.4662 96.7855,70.1329 94.5,69.5C 93.7475,66.7268 92.7475,64.0601 91.5,61.5C 90.3777,62.6302 89.0443,63.2969 87.5,63.5C 89.5189,60.3294 92.5189,58.9961 96.5,59.5C 96.33,58.1779 96.6634,57.0113 97.5,56C 94.3117,54.6842 90.9783,54.1842 87.5,54.5C 87.5,53.5 87.5,52.5 87.5,51.5C 87.5,51.1667 87.5,50.8333 87.5,50.5C 89.2915,50.634 90.9582,50.3007 92.5,49.5C 93.5,49.5 94.5,49.5 95.5,49.5C 93.6315,36.3943 86.2982,28.3943 73.5,25.5C 72.5,25.5 71.5,25.5 70.5,25.5C 67.3148,25.0196 64.4815,25.6863 62,27.5C 61.588,23.5967 59.4214,21.93 55.5,22.5C 56.6005,21.3951 57.2671,20.0618 57.5,18.5C 57.5,18.1667 57.5,17.8333 57.5,17.5C 58.609,17.4431 59.609,17.1098 60.5,16.5C 63.1933,16.4285 65.8599,16.0951 68.5,15.5C 72.4125,17.8996 76.7459,19.233 81.5,19.5C 81.5,20.5 81.5,21.5 81.5,22.5C 83.854,22.838 86.1873,23.338 88.5,24C 89.6399,25.9734 90.9733,27.8067 92.5,29.5C 93.086,29.2907 93.586,28.9574 94,28.5C 96,30.5 98,32.5 100,34.5C 100.671,33.7476 101.504,33.4142 102.5,33.5 Z"/></g>
<g><path style="opacity:1" fill="#c4beba" d="M 109.5,10.5 C 109.325,12.6208 109.659,14.6208 110.5,16.5C 111.74,18.9845 112.74,18.9845 113.5,16.5C 113.833,16.5 114.167,16.5 114.5,16.5C 114.5,17.5 114.5,18.5 114.5,19.5C 113.022,19.238 111.689,19.5713 110.5,20.5C 111.63,21.6223 112.297,22.9557 112.5,24.5C 110.588,22.0096 108.255,20.0096 105.5,18.5C 105.5,18.1667 105.5,17.8333 105.5,17.5C 106.496,17.4142 107.329,17.7476 108,18.5C 108.183,15.6353 108.683,12.9686 109.5,10.5 Z"/></g>
<g><path style="opacity:1" fill="#818882" d="M 110.5,16.5 C 111.5,16.5 112.5,16.5 113.5,16.5C 112.74,18.9845 111.74,18.9845 110.5,16.5 Z"/></g>
<g><path style="opacity:1" fill="#676d68" d="M 29.5,18.5 C 29.6602,20.1992 29.4935,21.8659 29,23.5C 28.3292,24.2524 27.4959,24.5858 26.5,24.5C 27.9418,23.1805 28.6085,21.5138 28.5,19.5C 28.5,18.8333 28.8333,18.5 29.5,18.5 Z"/></g>
<g><path style="opacity:1" fill="#292a2c" d="M 64.5,14.5 C 67.5,14.5 70.5,14.5 73.5,14.5C 82.5919,15.7119 90.5919,19.7119 97.5,26.5C 98.7787,29.1117 100.445,31.4451 102.5,33.5C 101.504,33.4142 100.671,33.7476 100,34.5C 98,32.5 96,30.5 94,28.5C 93.586,28.9574 93.086,29.2907 92.5,29.5C 90.9733,27.8067 89.6399,25.9734 88.5,24C 86.1873,23.338 83.854,22.838 81.5,22.5C 81.5,21.5 81.5,20.5 81.5,19.5C 76.7459,19.233 72.4125,17.8996 68.5,15.5C 65.8599,16.0951 63.1933,16.4285 60.5,16.5C 61.287,14.8958 62.6203,14.2291 64.5,14.5 Z"/></g>
<g><path style="opacity:1" fill="#373c3c" d="M 57.5,18.5 C 57.2671,20.0618 56.6005,21.3951 55.5,22.5C 54.6906,23.4687 53.6906,24.3021 52.5,25C 53.2524,25.6708 53.5858,26.5041 53.5,27.5C 51.0616,29.2672 48.395,30.6006 45.5,31.5C 45.0254,28.9179 45.6921,26.9179 47.5,25.5C 48.9952,25.0113 50.3285,24.3446 51.5,23.5C 52.5666,20.7708 54.5666,19.1041 57.5,18.5 Z"/></g>
<g><path style="opacity:1" fill="#acaba5" d="M 29.5,18.5 C 30.5,18.5 31.5,18.5 32.5,18.5C 32.5,20.1667 32.5,21.8333 32.5,23.5C 29.7856,23.687 29.119,24.8537 30.5,27C 30.062,28.9203 29.3953,30.7536 28.5,32.5C 27.2638,31.7542 25.9305,31.4208 24.5,31.5C 25.3356,34.187 26.8356,36.5203 29,38.5C 29.49,39.7932 29.6567,41.1266 29.5,42.5C 28.1667,42.5 26.8333,42.5 25.5,42.5C 24.209,42.7373 23.209,42.404 22.5,41.5C 21.2804,35.4381 22.6137,29.7715 26.5,24.5C 27.4959,24.5858 28.3292,24.2524 29,23.5C 29.4935,21.8659 29.6602,20.1992 29.5,18.5 Z"/></g>
<g><path style="opacity:1" fill="#483e3a" d="M 99.5,25.5 C 101.94,28.4552 103.773,31.7885 105,35.5C 105.765,37.0657 105.598,38.3991 104.5,39.5C 103.833,37.5 103.167,35.5 102.5,33.5C 100.445,31.4451 98.7787,29.1117 97.5,26.5C 97.8417,25.6618 98.5084,25.3284 99.5,25.5 Z"/></g>
<g><path style="opacity:1" fill="#302f31" d="M 55.5,22.5 C 59.4214,21.93 61.588,23.5967 62,27.5C 64.4815,25.6863 67.3148,25.0196 70.5,25.5C 66.6047,26.891 63.7714,29.5576 62,33.5C 61.51,34.7932 61.3433,36.1266 61.5,37.5C 60.8333,37.8333 60.1667,38.1667 59.5,38.5C 61.5762,34.3241 60.2429,31.9908 55.5,31.5C 54.5224,31.9767 53.6891,32.6433 53,33.5C 52.6258,32.5838 52.1258,31.7504 51.5,31C 52.8228,30.1841 53.4894,29.0174 53.5,27.5C 53.5858,26.5041 53.2524,25.6708 52.5,25C 53.6906,24.3021 54.6906,23.4687 55.5,22.5 Z"/></g>
<g><path style="opacity:1" fill="#a8a8a2" d="M 47.5,25.5 C 45.6921,26.9179 45.0254,28.9179 45.5,31.5C 44.1667,31.5 42.8333,31.5 41.5,31.5C 41.5,29.1667 41.5,26.8333 41.5,24.5C 43.1417,22.9192 45.1417,22.2525 47.5,22.5C 47.5,23.5 47.5,24.5 47.5,25.5 Z"/></g>
<g><path style="opacity:0.995" fill="#e8dddb" d="M 136.5,25.5 C 148.627,37.42 156.294,51.7533 159.5,68.5C 159.5,72.8333 159.5,77.1667 159.5,81.5C 157.362,81.297 155.695,80.297 154.5,78.5C 153.784,79.311 152.95,79.9777 152,80.5C 148.365,78.9061 145.865,79.9061 144.5,83.5C 143.5,84.1667 142.5,84.8333 141.5,85.5C 139.283,86.3686 136.95,86.702 134.5,86.5C 134.737,85.209 134.404,84.209 133.5,83.5C 132.573,72.602 130.573,61.9354 127.5,51.5C 126.01,46.3644 124.344,41.3644 122.5,36.5C 124.5,36.5 126.5,36.5 128.5,36.5C 128.5,35.5 128.5,34.5 128.5,33.5C 130.758,30.5753 133.425,27.9086 136.5,25.5 Z"/></g>
<g><path style="opacity:1" fill="#404340" d="M 105.5,18.5 C 108.255,20.0096 110.588,22.0096 112.5,24.5C 114.116,26.7591 115.949,28.7591 118,30.5C 122.716,27.4023 126.883,23.7357 130.5,19.5C 132.833,21.1667 134.833,23.1667 136.5,25.5C 133.425,27.9086 130.758,30.5753 128.5,33.5C 127.448,34.5305 126.114,35.1971 124.5,35.5C 122.776,35.0961 121.109,34.9294 119.5,35C 120.669,37.0065 121.335,39.1732 121.5,41.5C 119.782,39.6363 118.615,37.3029 118,34.5C 114.689,29.5553 110.689,25.222 106,21.5C 105.517,20.552 105.351,19.552 105.5,18.5 Z"/></g>
<g><path style="opacity:1" fill="#373b39" d="M 47.5,15.5 C 47.5,17.5 47.5,19.5 47.5,21.5C 45.8008,21.3398 44.1341,21.5065 42.5,22C 41.7476,22.6708 41.4142,23.5041 41.5,24.5C 41.5,26.8333 41.5,29.1667 41.5,31.5C 42.8333,31.5 44.1667,31.5 45.5,31.5C 42.5688,38.2937 40.2354,45.2937 38.5,52.5C 38.1667,52.5 37.8333,52.5 37.5,52.5C 37.4894,50.9826 36.8228,49.8159 35.5,49C 36.7844,45.9358 36.4511,43.1025 34.5,40.5C 32.5682,39.0236 32.2348,37.3569 33.5,35.5C 33.5,36.5 33.5,37.5 33.5,38.5C 35.4672,38.2606 37.3005,38.5939 39,39.5C 39.9147,38.6721 40.5814,37.6721 41,36.5C 39.623,33.6865 39.123,30.0198 39.5,25.5C 37.8561,25.2865 36.3561,25.6198 35,26.5C 34.8091,28.7078 34.3091,30.7078 33.5,32.5C 33.81,29.2869 33.4767,26.2869 32.5,23.5C 32.5,21.8333 32.5,20.1667 32.5,18.5C 31.5,18.5 30.5,18.5 29.5,18.5C 29.8417,17.6618 30.5084,17.3284 31.5,17.5C 33.0245,18.1738 34.3578,19.1738 35.5,20.5C 38.5014,16.8666 41.668,16.8666 45,20.5C 45.0496,18.256 45.8829,16.5893 47.5,15.5 Z"/></g>
<g><path style="opacity:1" fill="#54433d" d="M 70.5,25.5 C 71.5,25.5 72.5,25.5 73.5,25.5C 74.2112,27.0301 75.2112,28.3634 76.5,29.5C 73.6282,28.9178 70.6282,28.9178 67.5,29.5C 67.0865,33.5151 65.0865,36.1818 61.5,37.5C 61.3433,36.1266 61.51,34.7932 62,33.5C 63.7714,29.5576 66.6047,26.891 70.5,25.5 Z"/></g>
<g><path style="opacity:1" fill="#686962" d="M 128.5,33.5 C 128.5,34.5 128.5,35.5 128.5,36.5C 126.5,36.5 124.5,36.5 122.5,36.5C 124.344,41.3644 126.01,46.3644 127.5,51.5C 125.986,49.636 124.653,47.636 123.5,45.5C 123.34,43.847 122.674,42.5137 121.5,41.5C 121.335,39.1732 120.669,37.0065 119.5,35C 121.109,34.9294 122.776,35.0961 124.5,35.5C 126.114,35.1971 127.448,34.5305 128.5,33.5 Z"/></g>
<g><path style="opacity:1" fill="#292829" d="M 33.5,35.5 C 33.5,34.5 33.5,33.5 33.5,32.5C 34.3091,30.7078 34.8091,28.7078 35,26.5C 36.3561,25.6198 37.8561,25.2865 39.5,25.5C 39.123,30.0198 39.623,33.6865 41,36.5C 40.5814,37.6721 39.9147,38.6721 39,39.5C 37.3005,38.5939 35.4672,38.2606 33.5,38.5C 33.5,37.5 33.5,36.5 33.5,35.5 Z"/></g>
<g><path style="opacity:1" fill="#64463c" d="M 76.5,29.5 C 85.0374,33.6438 90.3707,40.3104 92.5,49.5C 90.9582,50.3007 89.2915,50.634 87.5,50.5C 88.8303,48.1189 88.6636,45.7856 87,43.5C 83.8528,41.2046 81.6861,38.2046 80.5,34.5C 78.8333,33.6667 77.1667,32.8333 75.5,32C 76.2524,31.3292 76.5858,30.4959 76.5,29.5 Z"/></g>
<g><path style="opacity:1" fill="#e8ddda" d="M 22.5,41.5 C 22.1814,39.2495 22.6814,37.2495 24,35.5C 24.972,37.3049 26.1387,38.9716 27.5,40.5C 25.9547,41.4519 24.288,41.7852 22.5,41.5 Z"/></g>
<g><path style="opacity:1" fill="#886757" d="M 67.5,29.5 C 68.552,29.3505 69.552,29.5172 70.5,30C 73.7521,33.1525 75.7521,36.9858 76.5,41.5C 78.9099,41.9209 80.7432,43.2542 82,45.5C 83.3561,44.6198 84.8561,44.2865 86.5,44.5C 86.762,45.9778 86.4287,47.3112 85.5,48.5C 82.3003,51.0085 80.967,54.3418 81.5,58.5C 81.5,59.1667 81.5,59.8333 81.5,60.5C 80.7867,64.3604 80.7867,68.1938 81.5,72C 81.9031,73.4728 82.5697,74.8061 83.5,76C 81.8659,76.4935 80.1992,76.6602 78.5,76.5C 78.952,66.795 79.952,57.1284 81.5,47.5C 80.4425,47.0941 79.1092,47.0941 77.5,47.5C 77.2259,42.2757 74.5592,39.2757 69.5,38.5C 66.2787,39.9074 62.9453,40.9074 59.5,41.5C 59.5,40.8333 59.5,40.1667 59.5,39.5C 59.5,39.1667 59.5,38.8333 59.5,38.5C 60.1667,38.1667 60.8333,37.8333 61.5,37.5C 65.0865,36.1818 67.0865,33.5151 67.5,29.5 Z"/></g>
<g><path style="opacity:1" fill="#d6cecb" d="M 32.5,23.5 C 33.4767,26.2869 33.81,29.2869 33.5,32.5C 33.5,33.5 33.5,34.5 33.5,35.5C 32.2348,37.3569 32.5682,39.0236 34.5,40.5C 34.7947,42.7354 34.4614,44.7354 33.5,46.5C 32.5,46.5 31.5,46.5 30.5,46.5C 29.5655,45.4324 29.2322,44.099 29.5,42.5C 29.6567,41.1266 29.49,39.7932 29,38.5C 26.8356,36.5203 25.3356,34.187 24.5,31.5C 25.9305,31.4208 27.2638,31.7542 28.5,32.5C 29.3953,30.7536 30.062,28.9203 30.5,27C 29.119,24.8537 29.7856,23.687 32.5,23.5 Z"/></g>
<g><path style="opacity:1" fill="#3f2d2a" d="M 73.5,25.5 C 86.2982,28.3943 93.6315,36.3943 95.5,49.5C 94.5,49.5 93.5,49.5 92.5,49.5C 90.3707,40.3104 85.0374,33.6438 76.5,29.5C 75.2112,28.3634 74.2112,27.0301 73.5,25.5 Z"/></g>
<g><path style="opacity:1" fill="#232225" d="M 53.5,27.5 C 53.4894,29.0174 52.8228,30.1841 51.5,31C 52.1258,31.7504 52.6258,32.5838 53,33.5C 53.6891,32.6433 54.5224,31.9767 55.5,31.5C 60.2429,31.9908 61.5762,34.3241 59.5,38.5C 59.5,38.8333 59.5,39.1667 59.5,39.5C 57.4689,40.5387 56.1355,42.2054 55.5,44.5C 52.5623,47.9468 50.5623,51.9468 49.5,56.5C 48.0605,58.588 47.3939,60.9214 47.5,63.5C 46.8333,64.5 46.1667,65.5 45.5,66.5C 45.5,64.8333 45.5,63.1667 45.5,61.5C 44.5,61.5 43.5,61.5 42.5,61.5C 42.665,64.8499 42.4983,68.1832 42,71.5C 41.2798,73.0557 40.1132,74.0557 38.5,74.5C 38.8202,67.0983 38.8202,59.765 38.5,52.5C 40.2354,45.2937 42.5688,38.2937 45.5,31.5C 48.395,30.6006 51.0616,29.2672 53.5,27.5 Z"/></g>
<g><path style="opacity:1" fill="#9b7867" d="M 78.5,76.5 C 76.283,77.3686 73.9496,77.702 71.5,77.5C 71.1667,76.8333 70.8333,76.1667 70.5,75.5C 73.0444,75.8957 75.2111,75.229 77,73.5C 77.8283,68.798 77.6616,64.1313 76.5,59.5C 74.2242,65.4321 69.8909,68.0988 63.5,67.5C 61.6672,67.4146 60.3339,66.7479 59.5,65.5C 62.5184,65.6646 65.5184,65.498 68.5,65C 69.056,64.6174 69.3893,64.1174 69.5,63.5C 71.1042,62.713 71.7709,61.3797 71.5,59.5C 72.5,59.5 73.5,59.5 74.5,59.5C 74.665,56.1501 74.4983,52.8168 74,49.5C 73.3292,48.7476 72.4959,48.4142 71.5,48.5C 70.791,47.596 69.791,47.2627 68.5,47.5C 65.4011,46.1346 62.0677,45.1346 58.5,44.5C 59.1272,43.5832 59.4606,42.5832 59.5,41.5C 62.9453,40.9074 66.2787,39.9074 69.5,38.5C 74.5592,39.2757 77.2259,42.2757 77.5,47.5C 79.1092,47.0941 80.4425,47.0941 81.5,47.5C 79.952,57.1284 78.952,66.795 78.5,76.5 Z"/></g>
<g><path style="opacity:1" fill="#675249" d="M 59.5,39.5 C 59.5,40.1667 59.5,40.8333 59.5,41.5C 59.4606,42.5832 59.1272,43.5832 58.5,44.5C 62.0677,45.1346 65.4011,46.1346 68.5,47.5C 64.8333,47.5 61.1667,47.5 57.5,47.5C 55.9519,47.1788 55.2852,46.1788 55.5,44.5C 56.1355,42.2054 57.4689,40.5387 59.5,39.5 Z"/></g>
<g><path style="opacity:1" fill="#342c2c" d="M 103.5,27.5 C 105.722,27.178 107.556,27.8446 109,29.5C 113.941,39.3888 117.774,49.7221 120.5,60.5C 119.348,59.375 118.348,59.375 117.5,60.5C 114.042,54.7491 110.875,48.7491 108,42.5C 107.64,44.6079 106.973,46.6079 106,48.5C 105.637,45.456 105.137,42.456 104.5,39.5C 105.598,38.3991 105.765,37.0657 105,35.5C 103.773,31.7885 101.94,28.4552 99.5,25.5C 99.4346,25.0618 99.6012,24.7284 100,24.5C 101.385,25.5505 102.385,26.8839 103,28.5C 103.399,28.2716 103.565,27.9382 103.5,27.5 Z"/></g>
<g><path style="opacity:1" fill="#828883" d="M 25.5,42.5 C 26.8333,42.5 28.1667,42.5 29.5,42.5C 29.2322,44.099 29.5655,45.4324 30.5,46.5C 30.6309,47.3764 30.2975,48.0431 29.5,48.5C 25.0711,46.9574 23.4044,48.6241 24.5,53.5C 23.3775,51.7116 23.2109,49.7116 24,47.5C 25.7713,46.6959 27.2713,45.5292 28.5,44C 27.2625,43.7679 26.2625,43.2679 25.5,42.5 Z"/></g>
<g><path style="opacity:1" fill="#78574b" d="M 67.5,29.5 C 70.6282,28.9178 73.6282,28.9178 76.5,29.5C 76.5858,30.4959 76.2524,31.3292 75.5,32C 77.1667,32.8333 78.8333,33.6667 80.5,34.5C 81.6861,38.2046 83.8528,41.2046 87,43.5C 88.6636,45.7856 88.8303,48.1189 87.5,50.5C 87.5,50.8333 87.5,51.1667 87.5,51.5C 86.1667,51.5 85.5,52.1667 85.5,53.5C 83.4658,54.5907 82.1324,56.2574 81.5,58.5C 80.967,54.3418 82.3003,51.0085 85.5,48.5C 86.4287,47.3112 86.762,45.9778 86.5,44.5C 84.8561,44.2865 83.3561,44.6198 82,45.5C 80.7432,43.2542 78.9099,41.9209 76.5,41.5C 75.7521,36.9858 73.7521,33.1525 70.5,30C 69.552,29.5172 68.552,29.3505 67.5,29.5 Z"/></g>
<g><path style="opacity:1" fill="#292a2b" d="M 28.5,19.5 C 28.6085,21.5138 27.9418,23.1805 26.5,24.5C 22.6137,29.7715 21.2804,35.4381 22.5,41.5C 23.209,42.404 24.209,42.7373 25.5,42.5C 26.2625,43.2679 27.2625,43.7679 28.5,44C 27.2713,45.5292 25.7713,46.6959 24,47.5C 23.2109,49.7116 23.3775,51.7116 24.5,53.5C 25.2719,54.6935 26.2719,55.6935 27.5,56.5C 28.209,57.404 29.209,57.7373 30.5,57.5C 30.5,58.8333 30.5,60.1667 30.5,61.5C 26.0951,62.0918 21.7618,62.0918 17.5,61.5C 15.5,59.8333 13.5,58.1667 11.5,56.5C 11.0679,55.2905 10.4013,54.2905 9.5,53.5C 9.5,52.8333 9.5,52.1667 9.5,51.5C 9.5,49.5 8.5,48.5 6.5,48.5C 11.1648,36.8501 18.4981,27.1835 28.5,19.5 Z"/></g>
<g><path style="opacity:1" fill="#868c86" d="M 6.5,48.5 C 8.5,48.5 9.5,49.5 9.5,51.5C 8.16667,50.1667 6.83333,50.1667 5.5,51.5C 5.26269,50.209 5.59603,49.209 6.5,48.5 Z"/></g>
<g><path style="opacity:1" fill="#beb9b4" d="M 30.5,46.5 C 31.5,46.5 32.5,46.5 33.5,46.5C 33.5,47.5 33.5,48.5 33.5,49.5C 30.8333,49.5 28.1667,49.5 25.5,49.5C 25.472,51.5824 26.1387,53.4157 27.5,55C 28.788,55.2387 29.788,54.7387 30.5,53.5C 30.5,54.5 30.5,55.5 30.5,56.5C 29.5,56.5 28.5,56.5 27.5,56.5C 26.2719,55.6935 25.2719,54.6935 24.5,53.5C 23.4044,48.6241 25.0711,46.9574 29.5,48.5C 30.2975,48.0431 30.6309,47.3764 30.5,46.5 Z"/></g>
<g><path style="opacity:1" fill="#e0d6d3" d="M 33.5,49.5 C 33.5,50.8333 33.5,52.1667 33.5,53.5C 32.5,53.5 31.5,53.5 30.5,53.5C 29.788,54.7387 28.788,55.2387 27.5,55C 26.1387,53.4157 25.472,51.5824 25.5,49.5C 28.1667,49.5 30.8333,49.5 33.5,49.5 Z"/></g>
<g><path style="opacity:1" fill="#242124" d="M 57.5,47.5 C 61.1667,47.5 64.8333,47.5 68.5,47.5C 69.791,47.2627 70.791,47.596 71.5,48.5C 72.9053,50.4526 72.2386,51.4526 69.5,51.5C 65.182,50.7628 61.182,49.4295 57.5,47.5 Z"/></g>
<g><path style="opacity:1" fill="#282628" d="M 97.5,13.5 C 98.609,13.5569 99.609,13.8902 100.5,14.5C 101.659,16.2503 103.326,17.2503 105.5,17.5C 105.5,17.8333 105.5,18.1667 105.5,18.5C 105.351,19.552 105.517,20.552 106,21.5C 110.689,25.222 114.689,29.5553 118,34.5C 118.615,37.3029 119.782,39.6363 121.5,41.5C 122.674,42.5137 123.34,43.847 123.5,45.5C 126.036,55.777 128.369,66.1104 130.5,76.5C 130.649,77.552 130.483,78.552 130,79.5C 125.762,73.6913 122.596,67.3579 120.5,60.5C 117.774,49.7221 113.941,39.3888 109,29.5C 107.556,27.8446 105.722,27.178 103.5,27.5C 103.489,25.9826 102.823,24.8159 101.5,24C 95.7191,21.1354 90.3857,17.6354 85.5,13.5C 89.4935,12.3875 93.4935,12.3875 97.5,13.5 Z"/></g>
<g><path style="opacity:1" fill="#5a5d56" d="M 34.5,40.5 C 36.4511,43.1025 36.7844,45.9358 35.5,49C 36.8228,49.8159 37.4894,50.9826 37.5,52.5C 36.1827,55.4841 35.1827,58.4841 34.5,61.5C 33.7659,62.7079 33.4326,64.0413 33.5,65.5C 31.8333,68.1667 30.1667,68.1667 28.5,65.5C 28.0472,64.5416 27.3805,63.7083 26.5,63C 28.0581,62.79 29.3915,62.29 30.5,61.5C 30.5,60.1667 30.5,58.8333 30.5,57.5C 29.209,57.7373 28.209,57.404 27.5,56.5C 28.5,56.5 29.5,56.5 30.5,56.5C 30.5,55.5 30.5,54.5 30.5,53.5C 31.5,53.5 32.5,53.5 33.5,53.5C 33.5,52.1667 33.5,50.8333 33.5,49.5C 33.5,48.5 33.5,47.5 33.5,46.5C 34.4614,44.7354 34.7947,42.7354 34.5,40.5 Z"/></g>
<g><path style="opacity:1" fill="#48332f" d="M 55.5,44.5 C 55.2852,46.1788 55.9519,47.1788 57.5,47.5C 61.182,49.4295 65.182,50.7628 69.5,51.5C 72.2386,51.4526 72.9053,50.4526 71.5,48.5C 72.4959,48.4142 73.3292,48.7476 74,49.5C 74.4983,52.8168 74.665,56.1501 74.5,59.5C 73.5,59.5 72.5,59.5 71.5,59.5C 71.7709,61.3797 71.1042,62.713 69.5,63.5C 66.8872,64.4349 64.2205,64.6015 61.5,64C 60.3157,62.8545 60.3157,61.6879 61.5,60.5C 63.7224,60.822 65.5557,60.1554 67,58.5C 68.1855,60.5593 69.3521,60.726 70.5,59C 68.9113,55.7029 66.2446,54.2029 62.5,54.5C 62.8453,51.512 61.512,50.1787 58.5,50.5C 56.0452,50.6284 54.0452,51.6284 52.5,53.5C 51.7281,54.6935 50.7281,55.6935 49.5,56.5C 50.5623,51.9468 52.5623,47.9468 55.5,44.5 Z"/></g>
<g><path style="opacity:1" fill="#7c5f52" d="M 62.5,54.5 C 60.3792,54.3253 58.3792,54.6586 56.5,55.5C 55.1779,55.33 54.0113,55.6634 53,56.5C 52.5172,55.552 52.3505,54.552 52.5,53.5C 54.0452,51.6284 56.0452,50.6284 58.5,50.5C 61.512,50.1787 62.8453,51.512 62.5,54.5 Z"/></g>
<g><path style="opacity:1" fill="#302424" d="M 87.5,51.5 C 87.5,52.5 87.5,53.5 87.5,54.5C 90.9783,54.1842 94.3117,54.6842 97.5,56C 96.6634,57.0113 96.33,58.1779 96.5,59.5C 92.5189,58.9961 89.5189,60.3294 87.5,63.5C 86.5326,62.1938 85.1993,61.5271 83.5,61.5C 83.2826,58.5794 83.9493,55.9128 85.5,53.5C 85.5,52.1667 86.1667,51.5 87.5,51.5 Z"/></g>
<g><path style="opacity:0.907" fill="#d7cfcb" d="M 9.5,51.5 C 9.5,52.1667 9.5,52.8333 9.5,53.5C 7.72587,52.119 6.22587,52.4523 5,54.5C 4.49782,57.5131 3.99782,60.5131 3.5,63.5C 6.71813,63.6509 7.05146,64.4842 4.5,66C 5.69882,67.6943 7.03215,69.1943 8.5,70.5C 6.59699,70.2041 4.93033,69.5375 3.5,68.5C 3.02694,67.0937 2.02694,66.427 0.5,66.5C 1.19589,61.0787 2.86256,56.0787 5.5,51.5C 6.83333,50.1667 8.16667,50.1667 9.5,51.5 Z"/></g>
<g><path style="opacity:1" fill="#232024" d="M 62.5,54.5 C 66.2446,54.2029 68.9113,55.7029 70.5,59C 69.3521,60.726 68.1855,60.5593 67,58.5C 65.5557,60.1554 63.7224,60.822 61.5,60.5C 60.2264,59.8106 60.2264,58.9772 61.5,58C 61,57.8333 60.5,57.6667 60,57.5C 58.4329,58.8561 56.5996,59.5228 54.5,59.5C 54.5271,57.8007 55.1938,56.4674 56.5,55.5C 58.3792,54.6586 60.3792,54.3253 62.5,54.5 Z"/></g>
<g><path style="opacity:1" fill="#e7dddb" d="M 9.5,53.5 C 10.4013,54.2905 11.0679,55.2905 11.5,56.5C 11.5,56.8333 11.5,57.1667 11.5,57.5C 11.5651,60.4282 12.2318,63.0948 13.5,65.5C 13.3573,67.2624 13.6906,68.9291 14.5,70.5C 13.3112,71.4287 11.9778,71.762 10.5,71.5C 9.83333,71.1667 9.16667,70.8333 8.5,70.5C 7.03215,69.1943 5.69882,67.6943 4.5,66C 7.05146,64.4842 6.71813,63.6509 3.5,63.5C 3.99782,60.5131 4.49782,57.5131 5,54.5C 6.22587,52.4523 7.72587,52.119 9.5,53.5 Z"/></g>
<g><path style="opacity:1" fill="#9d9f9a" d="M 11.5,57.5 C 13.0395,59.8383 13.7062,62.5049 13.5,65.5C 12.2318,63.0948 11.5651,60.4282 11.5,57.5 Z"/></g>
<g><path style="opacity:1" fill="#898b83" d="M 34.5,61.5 C 33.5,61.5 32.5,61.5 31.5,61.5C 31.238,60.0222 31.5713,58.6888 32.5,57.5C 34.1112,58.3202 34.7778,59.6536 34.5,61.5 Z"/></g>
<g><path style="opacity:1" fill="#594f48" d="M 123.5,45.5 C 124.653,47.636 125.986,49.636 127.5,51.5C 130.573,61.9354 132.573,72.602 133.5,83.5C 133.5,84.8333 133.5,86.1667 133.5,87.5C 133.167,87.5 132.833,87.5 132.5,87.5C 132.617,85.5165 131.95,83.8498 130.5,82.5C 131.754,80.3569 131.754,78.3569 130.5,76.5C 128.369,66.1104 126.036,55.777 123.5,45.5 Z"/></g>
<g><path style="opacity:1" fill="#5c443b" d="M 52.5,53.5 C 52.3505,54.552 52.5172,55.552 53,56.5C 54.0113,55.6634 55.1779,55.33 56.5,55.5C 55.1938,56.4674 54.5271,57.8007 54.5,59.5C 56.5996,59.5228 58.4329,58.8561 60,57.5C 60.5,57.6667 61,57.8333 61.5,58C 60.2264,58.9772 60.2264,59.8106 61.5,60.5C 60.3157,61.6879 60.3157,62.8545 61.5,64C 64.2205,64.6015 66.8872,64.4349 69.5,63.5C 69.3893,64.1174 69.056,64.6174 68.5,65C 65.5184,65.498 62.5184,65.6646 59.5,65.5C 58.205,64.5116 56.8717,63.5116 55.5,62.5C 52.3958,59.6118 49.7291,59.9451 47.5,63.5C 47.3939,60.9214 48.0605,58.588 49.5,56.5C 50.7281,55.6935 51.7281,54.6935 52.5,53.5 Z"/></g>
<g><path style="opacity:1" fill="#3f2c29" d="M 85.5,53.5 C 83.9493,55.9128 83.2826,58.5794 83.5,61.5C 85.1993,61.5271 86.5326,62.1938 87.5,63.5C 89.0443,63.2969 90.3777,62.6302 91.5,61.5C 92.7475,64.0601 93.7475,66.7268 94.5,69.5C 96.7855,70.1329 98.4522,71.4662 99.5,73.5C 99.8504,78.4523 98.517,82.7857 95.5,86.5C 96.3676,82.1924 96.5343,77.859 96,73.5C 95.3292,72.7476 94.4959,72.4142 93.5,72.5C 93.6309,71.6236 93.2975,70.9569 92.5,70.5C 89.2121,69.5227 86.2121,68.0227 83.5,66C 81.8446,64.5557 81.178,62.7224 81.5,60.5C 81.5,59.8333 81.5,59.1667 81.5,58.5C 82.1324,56.2574 83.4658,54.5907 85.5,53.5 Z"/></g>
<g><path style="opacity:1" fill="#c29e8e" d="M 70.5,75.5 C 69.5,75.5 68.5,75.5 67.5,75.5C 67.6495,74.448 67.4828,73.448 67,72.5C 63.5447,73.7914 60.0447,73.7914 56.5,72.5C 55.3901,70.7996 54.0568,69.4663 52.5,68.5C 52.1159,66.3352 52.7826,64.6685 54.5,63.5C 55.8415,65.0049 57.5082,65.6715 59.5,65.5C 60.3339,66.7479 61.6672,67.4146 63.5,67.5C 69.8909,68.0988 74.2242,65.4321 76.5,59.5C 77.6616,64.1313 77.8283,68.798 77,73.5C 75.2111,75.229 73.0444,75.8957 70.5,75.5 Z"/></g>
<g><path style="opacity:1" fill="#989b96" d="M 0.5,67.5 C 0.5,67.1667 0.5,66.8333 0.5,66.5C 2.02694,66.427 3.02694,67.0937 3.5,68.5C 2.39105,68.4431 1.39105,68.1098 0.5,67.5 Z"/></g>
<g><path style="opacity:1" fill="#aaaaa4" d="M 13.5,65.5 C 14.9238,67.5145 15.5905,69.8478 15.5,72.5C 14.5,72.5 13.5,72.5 12.5,72.5C 11.8333,72.5 11.1667,72.5 10.5,72.5C 10.5,72.1667 10.5,71.8333 10.5,71.5C 11.9778,71.762 13.3112,71.4287 14.5,70.5C 13.6906,68.9291 13.3573,67.2624 13.5,65.5 Z"/></g>
<g><path style="opacity:1" fill="#525a55" d="M 0.5,67.5 C 1.39105,68.1098 2.39105,68.4431 3.5,68.5C 4.93033,69.5375 6.59699,70.2041 8.5,70.5C 9.16667,70.8333 9.83333,71.1667 10.5,71.5C 10.5,71.8333 10.5,72.1667 10.5,72.5C 8.95186,72.8212 8.28519,73.8212 8.5,75.5C 10.4147,75.2155 12.0813,75.5489 13.5,76.5C 11.5,76.5 9.5,76.5 7.5,76.5C 7.66997,75.1779 7.33663,74.0113 6.5,73C 3.93978,72.6162 1.60645,71.7829 -0.5,70.5C -0.5,70.1667 -0.5,69.8333 -0.5,69.5C 0.338246,69.1583 0.67158,68.4916 0.5,67.5 Z"/></g>
<g><path style="opacity:1" fill="#50534c" d="M 11.5,57.5 C 11.5,57.1667 11.5,56.8333 11.5,56.5C 13.5,58.1667 15.5,59.8333 17.5,61.5C 17.6686,66.1811 18.0019,70.8478 18.5,75.5C 15.9228,75.5449 13.9228,74.5449 12.5,72.5C 13.5,72.5 14.5,72.5 15.5,72.5C 15.5905,69.8478 14.9238,67.5145 13.5,65.5C 13.7062,62.5049 13.0395,59.8383 11.5,57.5 Z"/></g>
<g><path style="opacity:1" fill="#5f4840" d="M 47.5,63.5 C 46.6287,71.7996 46.2953,80.1329 46.5,88.5C 45.5084,81.3524 45.175,74.0191 45.5,66.5C 46.1667,65.5 46.8333,64.5 47.5,63.5 Z"/></g>
<g><path style="opacity:1" fill="#d9d1ce" d="M -0.5,70.5 C 1.60645,71.7829 3.93978,72.6162 6.5,73C 7.33663,74.0113 7.66997,75.1779 7.5,76.5C 9.5,76.5 11.5,76.5 13.5,76.5C 14.5375,77.9303 15.2041,79.597 15.5,81.5C 15.38,82.5862 14.7133,83.2528 13.5,83.5C 11.0038,82.1115 8.33718,81.1115 5.5,80.5C 3.5,78.8333 1.5,77.1667 -0.5,75.5C -0.5,73.8333 -0.5,72.1667 -0.5,70.5 Z"/></g>
<g><path style="opacity:1" fill="#453531" d="M 37.5,52.5 C 37.8333,52.5 38.1667,52.5 38.5,52.5C 38.8202,59.765 38.8202,67.0983 38.5,74.5C 37.8902,75.391 37.5569,76.391 37.5,77.5C 35.2642,82.3198 33.2642,87.3198 31.5,92.5C 30.6728,97.9851 30.1728,103.652 30,109.5C 29.6924,108.692 29.1924,108.025 28.5,107.5C 27.5832,108.127 26.5832,108.461 25.5,108.5C 26.7417,103.817 28.0751,99.1506 29.5,94.5C 28.3112,93.5713 26.9778,93.238 25.5,93.5C 25.5,92.1667 25.5,90.8333 25.5,89.5C 28.165,87.3598 30.4983,84.8598 32.5,82C 31.4844,81.4806 30.8178,80.6473 30.5,79.5C 31.5089,74.8138 32.5089,70.1472 33.5,65.5C 33.4326,64.0413 33.7659,62.7079 34.5,61.5C 35.1827,58.4841 36.1827,55.4841 37.5,52.5 Z"/></g>
<g><path style="opacity:1" fill="#906d5c" d="M 55.5,62.5 C 51.8867,62.7797 49.8867,64.7797 49.5,68.5C 50.0608,71.5351 50.7275,74.5351 51.5,77.5C 50.3382,82.4783 49.3382,87.4783 48.5,92.5C 50.8194,93.167 53.1527,93.3336 55.5,93C 57.6709,91.8261 58.6709,89.9928 58.5,87.5C 60.1667,87.5 61.8333,87.5 63.5,87.5C 63.8333,87.5 64.1667,87.5 64.5,87.5C 64.5,88.1667 64.1667,88.5 63.5,88.5C 60.5,88.1667 59.1667,89.5 59.5,92.5C 61.9892,92.2978 64.3225,92.7978 66.5,94C 64.8934,95.049 64.2267,96.549 64.5,98.5C 62.6159,98.2882 61.2826,97.2882 60.5,95.5C 59.4763,96.8532 58.143,97.5198 56.5,97.5C 56.6287,99.2161 56.962,100.883 57.5,102.5C 55.6282,100.396 53.2948,99.063 50.5,98.5C 48.1954,95.5925 46.8621,92.2592 46.5,88.5C 46.2953,80.1329 46.6287,71.7996 47.5,63.5C 49.7291,59.9451 52.3958,59.6118 55.5,62.5 Z"/></g>
<g><path style="opacity:1" fill="#b5907e" d="M 52.5,68.5 C 54.0568,69.4663 55.3901,70.7996 56.5,72.5C 60.0447,73.7914 63.5447,73.7914 67,72.5C 67.4828,73.448 67.6495,74.448 67.5,75.5C 66.8826,75.3893 66.3826,75.056 66,74.5C 63.0589,76.9705 59.7256,78.6372 56,79.5C 55.5298,77.2262 54.5298,75.2262 53,73.5C 52.5065,71.8659 52.3398,70.1992 52.5,68.5 Z"/></g>
<g><path style="opacity:1" fill="#48332f" d="M 67.5,75.5 C 68.5,75.5 69.5,75.5 70.5,75.5C 70.8333,76.1667 71.1667,76.8333 71.5,77.5C 71.1788,79.0481 70.1788,79.7148 68.5,79.5C 67.8333,79.5 67.5,79.1667 67.5,78.5C 67.5,77.5 67.5,76.5 67.5,75.5 Z"/></g>
<g><path style="opacity:1" fill="#68483c" d="M 81.5,60.5 C 81.178,62.7224 81.8446,64.5557 83.5,66C 86.2121,68.0227 89.2121,69.5227 92.5,70.5C 93.2975,70.9569 93.6309,71.6236 93.5,72.5C 91.0092,72.1712 88.8425,71.1712 87,69.5C 84.5709,71.8699 84.0709,74.5366 85.5,77.5C 85.8432,79.4832 85.1765,80.8166 83.5,81.5C 83.38,82.5862 82.7133,83.2528 81.5,83.5C 78.5514,84.3022 75.5514,84.6355 72.5,84.5C 72.7678,82.901 72.4345,81.5676 71.5,80.5C 70.209,80.7373 69.209,80.404 68.5,79.5C 70.1788,79.7148 71.1788,79.0481 71.5,77.5C 73.9496,77.702 76.283,77.3686 78.5,76.5C 80.1992,76.6602 81.8659,76.4935 83.5,76C 82.5697,74.8061 81.9031,73.4728 81.5,72C 80.7867,68.1938 80.7867,64.3604 81.5,60.5 Z"/></g>
<g><path style="opacity:1" fill="#493934" d="M 120.5,60.5 C 122.596,67.3579 125.762,73.6913 130,79.5C 130.483,78.552 130.649,77.552 130.5,76.5C 131.754,78.3569 131.754,80.3569 130.5,82.5C 131.95,83.8498 132.617,85.5165 132.5,87.5C 130.901,87.7678 129.568,87.4345 128.5,86.5C 128.38,84.8014 128.046,83.1347 127.5,81.5C 124.434,75.8273 121.267,70.1606 118,64.5C 117.51,63.2068 117.343,61.8734 117.5,60.5C 118.348,59.375 119.348,59.375 120.5,60.5 Z"/></g>
<g><path style="opacity:1" fill="#2f3534" d="M 17.5,61.5 C 21.7618,62.0918 26.0951,62.0918 30.5,61.5C 29.3915,62.29 28.0581,62.79 26.5,63C 27.3805,63.7083 28.0472,64.5416 28.5,65.5C 28.4042,70.2604 27.4042,74.7604 25.5,79C 25.6448,79.772 25.9781,80.4387 26.5,81C 25.6919,81.3076 25.0253,81.8076 24.5,82.5C 25.3742,84.7466 25.7076,87.0799 25.5,89.5C 24.0335,92.2583 23.3668,91.925 23.5,88.5C 22.0695,88.5792 20.7362,88.2458 19.5,87.5C 18.6143,88.325 18.281,89.325 18.5,90.5C 13.2745,89.5326 8.94115,90.8659 5.5,94.5C 4.60895,93.8902 3.60895,93.5569 2.5,93.5C 2.17876,91.9519 1.17876,91.2852 -0.5,91.5C -0.5,86.1667 -0.5,80.8333 -0.5,75.5C 1.5,77.1667 3.5,78.8333 5.5,80.5C 6.80214,82.8218 8.80214,84.1551 11.5,84.5C 11.233,86.9711 12.233,88.6378 14.5,89.5C 15.4555,88.128 16.4555,86.7947 17.5,85.5C 18.6793,83.5591 18.0127,82.2257 15.5,81.5C 15.2041,79.597 14.5375,77.9303 13.5,76.5C 12.0813,75.5489 10.4147,75.2155 8.5,75.5C 8.28519,73.8212 8.95186,72.8212 10.5,72.5C 11.1667,72.5 11.8333,72.5 12.5,72.5C 13.9228,74.5449 15.9228,75.5449 18.5,75.5C 18.0019,70.8478 17.6686,66.1811 17.5,61.5 Z"/></g>
<g><path style="opacity:1" fill="#433f39" d="M 28.5,65.5 C 30.1667,68.1667 31.8333,68.1667 33.5,65.5C 32.5089,70.1472 31.5089,74.8138 30.5,79.5C 30.8178,80.6473 31.4844,81.4806 32.5,82C 30.4983,84.8598 28.165,87.3598 25.5,89.5C 25.7076,87.0799 25.3742,84.7466 24.5,82.5C 25.0253,81.8076 25.6919,81.3076 26.5,81C 25.9781,80.4387 25.6448,79.772 25.5,79C 27.4042,74.7604 28.4042,70.2604 28.5,65.5 Z"/></g>
<g><path style="opacity:1" fill="#1f1d21" d="M 45.5,66.5 C 45.175,74.0191 45.5084,81.3524 46.5,88.5C 46.8621,92.2592 48.1954,95.5925 50.5,98.5C 52.5691,101.573 55.2358,103.906 58.5,105.5C 58.8333,106.5 59.5,107.167 60.5,107.5C 60.498,117.531 60.3314,127.531 60,137.5C 61.1231,142.793 64.2898,145.793 69.5,146.5C 69.4326,145.041 69.7659,143.708 70.5,142.5C 70.8333,142.5 71.1667,142.5 71.5,142.5C 71.5718,145.522 70.2385,147.688 67.5,149C 70.9191,150.586 73.9191,152.752 76.5,155.5C 76.4214,157.128 76.0881,158.795 75.5,160.5C 70.8333,160.5 66.1667,160.5 61.5,160.5C 47.7357,156.952 35.7357,150.286 25.5,140.5C 31.1607,136.552 37.4941,134.052 44.5,133C 40.4631,132.393 36.4631,132.56 32.5,133.5C 32.5,131.5 32.5,129.5 32.5,127.5C 32.8333,127.5 33.1667,127.5 33.5,127.5C 35.8568,127.663 38.1902,127.497 40.5,127C 38.0632,125.625 35.3965,125.125 32.5,125.5C 32.5254,122.04 33.1921,118.706 34.5,115.5C 35.2281,118.212 36.0615,120.879 37,123.5C 37.2082,117.449 37.7082,111.449 38.5,105.5C 36.6048,103.133 36.1048,100.466 37,97.5C 37.2189,98.938 37.7189,100.271 38.5,101.5C 39.563,97.75 38.8964,94.25 36.5,91C 36.8459,86.6663 37.1792,82.1663 37.5,77.5C 37.5569,76.391 37.8902,75.391 38.5,74.5C 40.1132,74.0557 41.2798,73.0557 42,71.5C 42.4983,68.1832 42.665,64.8499 42.5,61.5C 43.5,61.5 44.5,61.5 45.5,61.5C 45.5,63.1667 45.5,64.8333 45.5,66.5 Z"/></g>
<g><path style="opacity:1" fill="#352525" d="M 83.5,81.5 C 80.7508,81.2739 78.0841,81.6072 75.5,82.5C 74.269,81.3493 74.269,80.1827 75.5,79C 78.0023,77.5684 80.5023,77.4018 83,78.5C 83.4828,79.448 83.6495,80.448 83.5,81.5 Z"/></g>
<g><path style="opacity:1" fill="#8a6353" d="M 93.5,72.5 C 94.2341,73.7079 94.5674,75.0413 94.5,76.5C 93.8796,79.7873 91.8796,81.7873 88.5,82.5C 87.3037,80.8554 86.3037,79.1887 85.5,77.5C 84.0709,74.5366 84.5709,71.8699 87,69.5C 88.8425,71.1712 91.0092,72.1712 93.5,72.5 Z"/></g>
<g><path style="opacity:1" fill="#b5b2ab" d="M 159.5,81.5 C 159.5,81.8333 159.5,82.1667 159.5,82.5C 157.379,82.3253 155.379,82.6586 153.5,83.5C 150.542,82.4589 147.542,82.4589 144.5,83.5C 145.865,79.9061 148.365,78.9061 152,80.5C 152.95,79.9777 153.784,79.311 154.5,78.5C 155.695,80.297 157.362,81.297 159.5,81.5 Z"/></g>
<g><path style="opacity:1" fill="#acaba6" d="M 5.5,80.5 C 8.33718,81.1115 11.0038,82.1115 13.5,83.5C 14.7133,83.2528 15.38,82.5862 15.5,81.5C 18.0127,82.2257 18.6793,83.5591 17.5,85.5C 15.3792,85.6747 13.3792,85.3414 11.5,84.5C 8.80214,84.1551 6.80214,82.8218 5.5,80.5 Z"/></g>
<g><path style="opacity:1" fill="#a37d6a" d="M 55.5,62.5 C 56.8717,63.5116 58.205,64.5116 59.5,65.5C 57.5082,65.6715 55.8415,65.0049 54.5,63.5C 52.7826,64.6685 52.1159,66.3352 52.5,68.5C 52.3398,70.1992 52.5065,71.8659 53,73.5C 54.5298,75.2262 55.5298,77.2262 56,79.5C 59.7256,78.6372 63.0589,76.9705 66,74.5C 66.3826,75.056 66.8826,75.3893 67.5,75.5C 67.5,76.5 67.5,77.5 67.5,78.5C 63.6743,78.7967 60.6743,80.6301 58.5,84C 59.9555,85.6257 61.6221,86.7924 63.5,87.5C 61.8333,87.5 60.1667,87.5 58.5,87.5C 58.6709,89.9928 57.6709,91.8261 55.5,93C 53.1527,93.3336 50.8194,93.167 48.5,92.5C 49.3382,87.4783 50.3382,82.4783 51.5,77.5C 50.7275,74.5351 50.0608,71.5351 49.5,68.5C 49.8867,64.7797 51.8867,62.7797 55.5,62.5 Z"/></g>
<g><path style="opacity:1" fill="#b5917f" d="M 67.5,78.5 C 67.5,79.1667 67.8333,79.5 68.5,79.5C 69.209,80.404 70.209,80.7373 71.5,80.5C 71.2606,82.4672 71.5939,84.3005 72.5,86C 70.2922,86.1909 68.2922,86.6909 66.5,87.5C 65.8333,87.5 65.1667,87.5 64.5,87.5C 64.1667,87.5 63.8333,87.5 63.5,87.5C 61.6221,86.7924 59.9555,85.6257 58.5,84C 60.6743,80.6301 63.6743,78.7967 67.5,78.5 Z"/></g>
<g><path style="opacity:1" fill="#7c5748" d="M 94.5,76.5 C 95.0967,76.7352 95.4301,77.2352 95.5,78C 94.4345,81.0937 93.7678,84.2604 93.5,87.5C 89.3596,87.6893 85.3596,88.3559 81.5,89.5C 76.6923,87.7579 71.6923,87.0912 66.5,87.5C 68.2922,86.6909 70.2922,86.1909 72.5,86C 71.5939,84.3005 71.2606,82.4672 71.5,80.5C 72.4345,81.5676 72.7678,82.901 72.5,84.5C 75.5514,84.6355 78.5514,84.3022 81.5,83.5C 82.7133,83.2528 83.38,82.5862 83.5,81.5C 85.1765,80.8166 85.8432,79.4832 85.5,77.5C 86.3037,79.1887 87.3037,80.8554 88.5,82.5C 91.8796,81.7873 93.8796,79.7873 94.5,76.5 Z"/></g>
<g><path style="opacity:1" fill="#353d3a" d="M 124.5,86.5 C 122.901,86.2322 121.568,86.5655 120.5,87.5C 118.073,87.477 115.74,86.977 113.5,86C 117.358,85.1901 121.024,85.3567 124.5,86.5 Z"/></g>
<g><path style="opacity:1" fill="#505d59" d="M 11.5,84.5 C 13.3792,85.3414 15.3792,85.6747 17.5,85.5C 16.4555,86.7947 15.4555,88.128 14.5,89.5C 12.233,88.6378 11.233,86.9711 11.5,84.5 Z"/></g>
<g><path style="opacity:1" fill="#8b968c" d="M 153.5,83.5 C 152.821,85.8139 151.488,86.1472 149.5,84.5C 148.548,86.0453 148.215,87.712 148.5,89.5C 145.618,89.9861 142.952,89.9861 140.5,89.5C 141.376,89.6309 142.043,89.2975 142.5,88.5C 141.873,87.5832 141.539,86.5832 141.5,85.5C 142.5,84.8333 143.5,84.1667 144.5,83.5C 147.542,82.4589 150.542,82.4589 153.5,83.5 Z"/></g>
<g><path style="opacity:1" fill="#b5b1aa" d="M 133.5,83.5 C 134.404,84.209 134.737,85.209 134.5,86.5C 136.95,86.702 139.283,86.3686 141.5,85.5C 141.539,86.5832 141.873,87.5832 142.5,88.5C 142.043,89.2975 141.376,89.6309 140.5,89.5C 138.784,89.3713 137.117,89.038 135.5,88.5C 135.158,87.6618 134.492,87.3284 133.5,87.5C 133.5,86.1667 133.5,84.8333 133.5,83.5 Z"/></g>
<g><path style="opacity:1" fill="#2e2223" d="M 64.5,87.5 C 65.1667,87.5 65.8333,87.5 66.5,87.5C 71.6923,87.0912 76.6923,87.7579 81.5,89.5C 81.5,90.1667 81.8333,90.5 82.5,90.5C 83.209,91.404 84.209,91.7373 85.5,91.5C 85.5,92.5 85.5,93.5 85.5,94.5C 82.8728,93.9084 80.2062,93.5751 77.5,93.5C 72.1844,92.5086 66.8511,91.5086 61.5,90.5C 62.2427,89.8182 62.9094,89.1515 63.5,88.5C 64.1667,88.5 64.5,88.1667 64.5,87.5 Z"/></g>
<g><path style="opacity:1" fill="#5f3d33" d="M 93.5,72.5 C 94.4959,72.4142 95.3292,72.7476 96,73.5C 96.5343,77.859 96.3676,82.1924 95.5,86.5C 95.5,86.8333 95.5,87.1667 95.5,87.5C 94.8485,88.0906 94.1818,88.7573 93.5,89.5C 92.3777,94.4012 90.711,99.0679 88.5,103.5C 85.57,104.453 83.2367,106.12 81.5,108.5C 75.0676,109.807 68.7343,109.807 62.5,108.5C 68.1535,107.945 73.8202,107.445 79.5,107C 82.1496,104.918 81.8163,103.251 78.5,102C 74.879,100.862 71.2124,100.028 67.5,99.5C 67.1667,99.5 66.8333,99.5 66.5,99.5C 65.3489,96.9474 66.3489,95.6141 69.5,95.5C 67.9219,97.3176 68.4219,98.3176 71,98.5C 74.8417,99.7751 78.675,99.7751 82.5,98.5C 82.8994,95.0292 84.3994,94.6958 87,97.5C 88.7129,92.8009 87.2129,90.4676 82.5,90.5C 81.8333,90.5 81.5,90.1667 81.5,89.5C 85.3596,88.3559 89.3596,87.6893 93.5,87.5C 93.7678,84.2604 94.4345,81.0937 95.5,78C 95.4301,77.2352 95.0967,76.7352 94.5,76.5C 94.5674,75.0413 94.2341,73.7079 93.5,72.5 Z"/></g>
<g><path style="opacity:1" fill="#728479" d="M 159.5,82.5 C 159.5,84.8333 159.5,87.1667 159.5,89.5C 157.87,87.9739 157.037,85.9739 157,83.5C 155.309,86.3589 152.809,87.6923 149.5,87.5C 149.5,88.8333 149.5,90.1667 149.5,91.5C 151.288,91.2148 152.955,91.5481 154.5,92.5C 153.757,93.1818 153.091,93.8485 152.5,94.5C 148.414,93.9173 144.414,92.9173 140.5,91.5C 138.279,91.4387 137.946,92.1054 139.5,93.5C 138.833,93.5 138.167,93.5 137.5,93.5C 138.089,91.6267 137.422,89.96 135.5,88.5C 137.117,89.038 138.784,89.3713 140.5,89.5C 142.952,89.9861 145.618,89.9861 148.5,89.5C 148.215,87.712 148.548,86.0453 149.5,84.5C 151.488,86.1472 152.821,85.8139 153.5,83.5C 155.379,82.6586 157.379,82.3253 159.5,82.5 Z"/></g>
<g><path style="opacity:1" fill="#262124" d="M 37.5,77.5 C 37.1792,82.1663 36.8459,86.6663 36.5,91C 38.8964,94.25 39.563,97.75 38.5,101.5C 37.7189,100.271 37.2189,98.938 37,97.5C 36.1048,100.466 36.6048,103.133 38.5,105.5C 37.7082,111.449 37.2082,117.449 37,123.5C 36.0615,120.879 35.2281,118.212 34.5,115.5C 33.1921,118.706 32.5254,122.04 32.5,125.5C 32.1667,125.5 31.8333,125.5 31.5,125.5C 31.8983,115.915 31.8983,106.415 31.5,97C 35.449,96.1932 35.449,95.6932 31.5,95.5C 31.5,94.5 31.5,93.5 31.5,92.5C 33.2642,87.3198 35.2642,82.3198 37.5,77.5 Z"/></g>
<g><path style="opacity:1" fill="#5f746a" d="M 159.5,89.5 C 159.5,90.8333 159.5,92.1667 159.5,93.5C 158.566,94.5676 158.232,95.901 158.5,97.5C 155.923,97.5449 153.923,96.5449 152.5,94.5C 153.091,93.8485 153.757,93.1818 154.5,92.5C 152.955,91.5481 151.288,91.2148 149.5,91.5C 149.5,90.1667 149.5,88.8333 149.5,87.5C 152.809,87.6923 155.309,86.3589 157,83.5C 157.037,85.9739 157.87,87.9739 159.5,89.5 Z"/></g>
<g><path style="opacity:1" fill="#282c2c" d="M 25.5,89.5 C 25.5,90.8333 25.5,92.1667 25.5,93.5C 24.5637,95.4415 23.2303,97.1081 21.5,98.5C 18.4611,96.3172 15.1278,95.4839 11.5,96C 10.0072,97.1562 10.1739,97.9896 12,98.5C 13.7659,99.2335 15.5992,99.5668 17.5,99.5C 17.5,100.5 17.5,101.5 17.5,102.5C 16.1439,104.538 14.4773,104.872 12.5,103.5C 8.97831,101.472 6.64498,98.472 5.5,94.5C 8.94115,90.8659 13.2745,89.5326 18.5,90.5C 18.281,89.325 18.6143,88.325 19.5,87.5C 20.7362,88.2458 22.0695,88.5792 23.5,88.5C 23.3668,91.925 24.0335,92.2583 25.5,89.5 Z"/></g>
<g><path style="opacity:1" fill="#7a5247" d="M 63.5,88.5 C 62.9094,89.1515 62.2427,89.8182 61.5,90.5C 66.8511,91.5086 72.1844,92.5086 77.5,93.5C 75.3647,95.369 72.6981,96.0356 69.5,95.5C 66.3489,95.6141 65.3489,96.9474 66.5,99.5C 65.5084,99.6716 64.8417,99.3382 64.5,98.5C 64.2267,96.549 64.8934,95.049 66.5,94C 64.3225,92.7978 61.9892,92.2978 59.5,92.5C 59.1667,89.5 60.5,88.1667 63.5,88.5 Z"/></g>
<g><path style="opacity:1" fill="#aaa9a3" d="M -0.5,91.5 C 1.17876,91.2852 2.17876,91.9519 2.5,93.5C 5.38819,96.6042 5.05485,99.2709 1.5,101.5C 1.07332,98.9902 0.406658,96.6568 -0.5,94.5C -0.5,93.5 -0.5,92.5 -0.5,91.5 Z"/></g>
<g><path style="opacity:1" fill="#4d322c" d="M 82.5,90.5 C 87.2129,90.4676 88.7129,92.8009 87,97.5C 84.3994,94.6958 82.8994,95.0292 82.5,98.5C 78.675,99.7751 74.8417,99.7751 71,98.5C 68.4219,98.3176 67.9219,97.3176 69.5,95.5C 72.6981,96.0356 75.3647,95.369 77.5,93.5C 80.2062,93.5751 82.8728,93.9084 85.5,94.5C 85.5,93.5 85.5,92.5 85.5,91.5C 84.209,91.7373 83.209,91.404 82.5,90.5 Z"/></g>
<g><path style="opacity:1" fill="#61756b" d="M 139.5,93.5 C 145.757,95.3407 151.757,97.674 157.5,100.5C 157.737,101.791 157.404,102.791 156.5,103.5C 156.095,102.45 155.429,102.45 154.5,103.5C 153.85,99.9794 152.017,98.9794 149,100.5C 148.517,99.552 148.351,98.552 148.5,97.5C 147.209,97.2627 146.209,97.596 145.5,98.5C 144.18,99.9418 142.514,100.608 140.5,100.5C 140.519,98.9397 140.852,97.4397 141.5,96C 140.944,94.9889 140.278,94.1556 139.5,93.5 Z"/></g>
<g><path style="opacity:1" fill="#5a6159" d="M 124.5,86.5 C 125.833,86.5 127.167,86.5 128.5,86.5C 129.568,87.4345 130.901,87.7678 132.5,87.5C 132.833,87.5 133.167,87.5 133.5,87.5C 134.492,87.3284 135.158,87.6618 135.5,88.5C 137.422,89.96 138.089,91.6267 137.5,93.5C 137.401,96.2372 137.735,98.9039 138.5,101.5C 137.842,102.398 137.176,103.398 136.5,104.5C 135.833,100.687 135.166,97.0208 134.5,93.5C 134.144,92.1301 133.31,91.1301 132,90.5C 128.598,89.2741 125.098,88.6074 121.5,88.5C 120.833,88.5 120.5,88.1667 120.5,87.5C 121.568,86.5655 122.901,86.2322 124.5,86.5 Z"/></g>
<g><path style="opacity:1" fill="#445d53" d="M 152.5,94.5 C 153.923,96.5449 155.923,97.5449 158.5,97.5C 158.443,98.609 158.11,99.609 157.5,100.5C 151.757,97.674 145.757,95.3407 139.5,93.5C 137.946,92.1054 138.279,91.4387 140.5,91.5C 144.414,92.9173 148.414,93.9173 152.5,94.5 Z"/></g>
<g><path style="opacity:1" fill="#69493e" d="M 50.5,98.5 C 53.2948,99.063 55.6282,100.396 57.5,102.5C 57.5,102.833 57.5,103.167 57.5,103.5C 57.8333,104.167 58.1667,104.833 58.5,105.5C 55.2358,103.906 52.5691,101.573 50.5,98.5 Z"/></g>
<g><path style="opacity:0.999" fill="#1b1a1f" d="M 121.5,149.5 C 114.199,154.711 106.199,158.377 97.5,160.5C 90.1667,160.5 82.8333,160.5 75.5,160.5C 76.0881,158.795 76.4214,157.128 76.5,155.5C 73.9191,152.752 70.9191,150.586 67.5,149C 70.2385,147.688 71.5718,145.522 71.5,142.5C 73.6287,141.797 75.6287,140.797 77.5,139.5C 82.2356,137.763 85.2356,134.429 86.5,129.5C 87.4584,129.047 88.2917,128.381 89,127.5C 90.1924,124.114 91.6924,120.947 93.5,118C 91.0426,116.846 91.0426,115.512 93.5,114C 92.0439,113.577 91.5439,112.744 92,111.5C 92.3333,111.833 92.6667,112.167 93,112.5C 94.7277,110.806 94.2277,109.639 91.5,109C 92.3366,107.989 92.67,106.822 92.5,105.5C 94.4672,105.261 96.3005,105.594 98,106.5C 98.5074,105.004 98.0074,103.837 96.5,103C 97.624,102.751 98.624,102.251 99.5,101.5C 99.9906,98.2639 101.324,97.7639 103.5,100C 102.416,102.19 103.083,103.856 105.5,105C 104.704,107.319 105.204,109.486 107,111.5C 107.333,110.5 107.667,109.5 108,108.5C 110.015,110.473 109.848,112.14 107.5,113.5C 110.1,116.041 110.1,118.541 107.5,121C 109.754,122.054 110.087,123.554 108.5,125.5C 108.846,126.696 109.346,126.696 110,125.5C 110.287,127.891 110.787,130.224 111.5,132.5C 110.141,134.306 110.475,135.806 112.5,137C 112.167,137.333 111.833,137.667 111.5,138C 112.308,138.308 112.975,138.808 113.5,139.5C 112.653,140.845 111.487,141.845 110,142.5C 108.811,138.64 106.477,135.64 103,133.5C 102.647,134.672 102.813,135.838 103.5,137C 101.419,139.67 101.752,142.336 104.5,145C 100.551,145.807 100.551,146.307 104.5,146.5C 104.5,148.167 104.5,149.833 104.5,151.5C 105.873,151.657 107.207,151.49 108.5,151C 106.993,148.547 105.993,145.714 105.5,142.5C 105.833,141.5 106.167,140.5 106.5,139.5C 107.624,140.914 108.624,142.414 109.5,144C 110.449,144.617 111.282,144.451 112,143.5C 113.145,145.251 113.645,147.084 113.5,149C 114.415,147.549 116.248,147.049 119,147.5C 119.995,148.066 120.828,148.733 121.5,149.5 Z"/></g>
<g><path style="opacity:1" fill="#392e2d" d="M 121.5,88.5 C 125.098,88.6074 128.598,89.2741 132,90.5C 133.31,91.1301 134.144,92.1301 134.5,93.5C 134.334,97.8461 134.501,102.179 135,106.5C 135.257,108.907 136.424,110.573 138.5,111.5C 139.092,114.127 139.425,116.794 139.5,119.5C 137.023,117.584 136.023,114.917 136.5,111.5C 133.728,111.78 131.228,111.113 129,109.5C 126.211,106.117 124.877,102.451 125,98.5C 123.482,98.9426 122.315,98.2759 121.5,96.5C 122.516,93.8663 122.516,91.1996 121.5,88.5 Z"/></g>
<g><path style="opacity:1" fill="#8d978d" d="M 137.5,93.5 C 138.167,93.5 138.833,93.5 139.5,93.5C 140.278,94.1556 140.944,94.9889 141.5,96C 140.852,97.4397 140.519,98.9397 140.5,100.5C 142.514,100.608 144.18,99.9418 145.5,98.5C 146.586,98.62 147.253,99.2867 147.5,100.5C 147.998,103.998 148.998,107.332 150.5,110.5C 149.995,111.919 148.995,112.585 147.5,112.5C 145.116,110.115 142.45,108.115 139.5,106.5C 138.699,104.958 138.366,103.292 138.5,101.5C 137.735,98.9039 137.401,96.2372 137.5,93.5 Z"/></g>
<g><path style="opacity:1" fill="#79877e" d="M 145.5,98.5 C 146.209,97.596 147.209,97.2627 148.5,97.5C 148.351,98.552 148.517,99.552 149,100.5C 152.017,98.9794 153.85,99.9794 154.5,103.5C 155.429,102.45 156.095,102.45 156.5,103.5C 156.095,106.715 155.095,109.715 153.5,112.5C 151.952,112.821 151.285,113.821 151.5,115.5C 149.381,115.532 148.048,114.532 147.5,112.5C 148.995,112.585 149.995,111.919 150.5,110.5C 148.998,107.332 147.998,103.998 147.5,100.5C 147.253,99.2867 146.586,98.62 145.5,98.5 Z"/></g>
<g><path style="opacity:1" fill="#4e5652" d="M 2.5,93.5 C 3.60895,93.5569 4.60895,93.8902 5.5,94.5C 6.64498,98.472 8.97831,101.472 12.5,103.5C 13.2341,104.708 13.5674,106.041 13.5,107.5C 11.0532,107.615 9.05322,108.615 7.5,110.5C 9.10113,107.577 8.7678,104.91 6.5,102.5C 5.35782,103.826 4.02449,104.826 2.5,105.5C 2.16667,104.167 1.83333,102.833 1.5,101.5C 5.05485,99.2709 5.38819,96.6042 2.5,93.5 Z"/></g>
<g><path style="opacity:1" fill="#a98370" d="M 64.5,98.5 C 64.8417,99.3382 65.5084,99.6716 66.5,99.5C 66.8333,99.5 67.1667,99.5 67.5,99.5C 70.5,101.263 73.8334,102.429 77.5,103C 78.8333,103.667 78.8333,104.333 77.5,105C 73.4884,104.393 69.4884,104.559 65.5,105.5C 62.664,105.41 59.9973,104.743 57.5,103.5C 57.5,103.167 57.5,102.833 57.5,102.5C 56.962,100.883 56.6287,99.2161 56.5,97.5C 58.143,97.5198 59.4763,96.8532 60.5,95.5C 61.2826,97.2882 62.6159,98.2882 64.5,98.5 Z"/></g>
<g><path style="opacity:1" fill="#4c312b" d="M 95.5,87.5 C 95.6653,91.1817 95.4986,94.8484 95,98.5C 92.8208,100.348 90.9874,102.515 89.5,105C 86.9289,106.454 84.2622,107.62 81.5,108.5C 83.2367,106.12 85.57,104.453 88.5,103.5C 90.711,99.0679 92.3777,94.4012 93.5,89.5C 94.1818,88.7573 94.8485,88.0906 95.5,87.5 Z"/></g>
<g><path style="opacity:1" fill="#6c6f66" d="M 7.5,110.5 C 7.16667,111.5 6.5,112.167 5.5,112.5C 4.32278,110.321 3.32278,107.987 2.5,105.5C 4.02449,104.826 5.35782,103.826 6.5,102.5C 8.7678,104.91 9.10113,107.577 7.5,110.5 Z"/></g>
<g><path style="opacity:1" fill="#343a38" d="M 17.5,102.5 C 22.2641,104.601 24.5974,108.268 24.5,113.5C 22.712,113.785 21.0453,113.452 19.5,112.5C 20.7345,110.602 20.4011,108.935 18.5,107.5C 16.9848,109.547 16.1515,111.881 16,114.5C 15.51,113.207 15.3433,111.873 15.5,110.5C 12.4503,109.923 10.4503,111.09 9.5,114C 8.55198,114.483 7.55198,114.649 6.5,114.5C 5.66175,114.158 5.32842,113.492 5.5,112.5C 6.5,112.167 7.16667,111.5 7.5,110.5C 9.05322,108.615 11.0532,107.615 13.5,107.5C 13.5674,106.041 13.2341,104.708 12.5,103.5C 14.4773,104.872 16.1439,104.538 17.5,102.5 Z"/></g>
<g><path style="opacity:1" fill="#875f4f" d="M 67.5,99.5 C 71.2124,100.028 74.879,100.862 78.5,102C 81.8163,103.251 82.1496,104.918 79.5,107C 73.8202,107.445 68.1535,107.945 62.5,108.5C 61.8333,108.167 61.1667,107.833 60.5,107.5C 59.5,107.167 58.8333,106.5 58.5,105.5C 58.1667,104.833 57.8333,104.167 57.5,103.5C 59.9973,104.743 62.664,105.41 65.5,105.5C 69.4884,104.559 73.4884,104.393 77.5,105C 78.8333,104.333 78.8333,103.667 77.5,103C 73.8334,102.429 70.5,101.263 67.5,99.5 Z"/></g>
<g><path style="opacity:1" fill="#48453f" d="M 134.5,93.5 C 135.166,97.0208 135.833,100.687 136.5,104.5C 137.176,103.398 137.842,102.398 138.5,101.5C 138.366,103.292 138.699,104.958 139.5,106.5C 139.629,108.216 139.962,109.883 140.5,111.5C 139.833,111.5 139.167,111.5 138.5,111.5C 136.424,110.573 135.257,108.907 135,106.5C 134.501,102.179 134.334,97.8461 134.5,93.5 Z"/></g>
<g><path style="opacity:1" fill="#4b4a44" d="M 25.5,93.5 C 26.9778,93.238 28.3112,93.5713 29.5,94.5C 28.0751,99.1506 26.7417,103.817 25.5,108.5C 25.5,110.5 25.5,112.5 25.5,114.5C 27.1992,114.34 28.8659,114.506 30.5,115C 28.5273,115.495 26.5273,115.662 24.5,115.5C 22.7116,114.378 20.7116,114.211 18.5,115C 15.5285,115.794 12.5285,116.461 9.5,117C 8.94404,117.383 8.61071,117.883 8.5,118.5C 7.32627,117.486 6.6596,116.153 6.5,114.5C 7.55198,114.649 8.55198,114.483 9.5,114C 10.4503,111.09 12.4503,109.923 15.5,110.5C 15.3433,111.873 15.51,113.207 16,114.5C 16.1515,111.881 16.9848,109.547 18.5,107.5C 20.4011,108.935 20.7345,110.602 19.5,112.5C 21.0453,113.452 22.712,113.785 24.5,113.5C 24.5974,108.268 22.2641,104.601 17.5,102.5C 17.5,101.5 17.5,100.5 17.5,99.5C 15.5992,99.5668 13.7659,99.2335 12,98.5C 10.1739,97.9896 10.0072,97.1562 11.5,96C 15.1278,95.4839 18.4611,96.3172 21.5,98.5C 23.2303,97.1081 24.5637,95.4415 25.5,93.5 Z"/></g>
<g><path style="opacity:1" fill="#302223" d="M 99.5,73.5 C 100.158,74.7933 100.492,76.2933 100.5,78C 100.505,86.1776 99.0049,94.0109 96,101.5C 92.5,104.333 89,107.167 85.5,110C 79.9155,111.186 74.2488,111.852 68.5,112C 71.707,112.572 73.3737,114.405 73.5,117.5C 75.3904,117.297 76.8904,117.963 78,119.5C 79.3988,119.499 80.8988,119.165 82.5,118.5C 83.7003,119.531 85.0337,120.365 86.5,121C 85.9874,123.718 85.9874,126.551 86.5,129.5C 85.2356,134.429 82.2356,137.763 77.5,139.5C 78.1438,135.424 79.4771,131.59 81.5,128C 80.5704,127.009 79.4038,126.509 78,126.5C 76.175,126.943 74.3417,127.277 72.5,127.5C 72.2865,125.856 72.6198,124.356 73.5,123C 70.8237,119.959 68.157,116.959 65.5,114C 64.552,113.517 63.552,113.351 62.5,113.5C 61.5866,121.033 61.2533,128.533 61.5,136C 62.1007,137.605 63.1007,138.938 64.5,140C 64.1667,140.333 63.8333,140.667 63.5,141C 65.6775,142.202 68.0108,142.702 70.5,142.5C 69.7659,143.708 69.4326,145.041 69.5,146.5C 64.2898,145.793 61.1231,142.793 60,137.5C 60.3314,127.531 60.498,117.531 60.5,107.5C 61.1667,107.833 61.8333,108.167 62.5,108.5C 68.7343,109.807 75.0676,109.807 81.5,108.5C 84.2622,107.62 86.9289,106.454 89.5,105C 90.9874,102.515 92.8208,100.348 95,98.5C 95.4986,94.8484 95.6653,91.1817 95.5,87.5C 95.5,87.1667 95.5,86.8333 95.5,86.5C 98.517,82.7857 99.8504,78.4523 99.5,73.5 Z"/></g>
<g><path style="opacity:1" fill="#4b6359" d="M 139.5,106.5 C 142.45,108.115 145.116,110.115 147.5,112.5C 148.048,114.532 149.381,115.532 151.5,115.5C 151.285,113.821 151.952,112.821 153.5,112.5C 152.674,115.485 151.341,118.151 149.5,120.5C 146.806,117.14 143.806,114.14 140.5,111.5C 139.962,109.883 139.629,108.216 139.5,106.5 Z"/></g>
<g><path style="opacity:1" fill="#3a2d2c" d="M 31.5,92.5 C 31.5,93.5 31.5,94.5 31.5,95.5C 35.449,95.6932 35.449,96.1932 31.5,97C 31.8983,106.415 31.8983,115.915 31.5,125.5C 30.5084,125.328 29.8417,125.662 29.5,126.5C 26.4299,126.368 23.4299,126.701 20.5,127.5C 19.9569,127.44 19.6236,127.107 19.5,126.5C 22.53,123.441 24.1967,119.774 24.5,115.5C 26.5273,115.662 28.5273,115.495 30.5,115C 28.8659,114.506 27.1992,114.34 25.5,114.5C 25.5,112.5 25.5,110.5 25.5,108.5C 26.5832,108.461 27.5832,108.127 28.5,107.5C 29.1924,108.025 29.6924,108.692 30,109.5C 30.1728,103.652 30.6728,97.9851 31.5,92.5 Z"/></g>
<g><path style="opacity:1" fill="#607468" d="M 24.5,115.5 C 19.0036,116.463 13.6703,117.796 8.5,119.5C 8.5,119.167 8.5,118.833 8.5,118.5C 8.61071,117.883 8.94404,117.383 9.5,117C 12.5285,116.461 15.5285,115.794 18.5,115C 20.7116,114.211 22.7116,114.378 24.5,115.5 Z"/></g>
<g><path style="opacity:1" fill="#6a726b" d="M 15.5,129.5 C 14.0937,129.027 13.427,128.027 13.5,126.5C 13.6076,123.618 14.7743,121.285 17,119.5C 17.8928,118.289 18.7261,118.289 19.5,119.5C 18.3845,120.598 18.3845,121.765 19.5,123C 17.3384,124.644 16.0051,126.811 15.5,129.5 Z"/></g>
<g><path style="opacity:1" fill="#575c54" d="M 24.5,115.5 C 24.1967,119.774 22.53,123.441 19.5,126.5C 19.6236,127.107 19.9569,127.44 20.5,127.5C 19.2196,128.931 17.5529,129.598 15.5,129.5C 16.0051,126.811 17.3384,124.644 19.5,123C 18.3845,121.765 18.3845,120.598 19.5,119.5C 18.7261,118.289 17.8928,118.289 17,119.5C 14.7743,121.285 13.6076,123.618 13.5,126.5C 11.4776,124.469 9.81094,122.135 8.5,119.5C 13.6703,117.796 19.0036,116.463 24.5,115.5 Z"/></g>
<g><path style="opacity:1" fill="#717f77" d="M 138.5,111.5 C 139.167,111.5 139.833,111.5 140.5,111.5C 143.806,114.14 146.806,117.14 149.5,120.5C 149.267,122.062 148.6,123.395 147.5,124.5C 145.512,123.255 143.512,121.922 141.5,120.5C 140.833,120.167 140.167,119.833 139.5,119.5C 139.425,116.794 139.092,114.127 138.5,111.5 Z"/></g>
<g><path style="opacity:1" fill="#2e3b38" d="M 141.5,120.5 C 143.512,121.922 145.512,123.255 147.5,124.5C 146.833,125.5 146.167,126.5 145.5,127.5C 143.937,126.055 142.604,124.389 141.5,122.5C 141.5,121.833 141.5,121.167 141.5,120.5 Z"/></g>
<g><path style="opacity:1" fill="#38433f" d="M 29.5,126.5 C 29.8417,125.662 30.5084,125.328 31.5,125.5C 31.8333,125.5 32.1667,125.5 32.5,125.5C 35.3965,125.125 38.0632,125.625 40.5,127C 38.1902,127.497 35.8568,127.663 33.5,127.5C 32.4324,126.566 31.099,126.232 29.5,126.5 Z"/></g>
<g><path style="opacity:1" fill="#455c52" d="M 29.5,126.5 C 31.099,126.232 32.4324,126.566 33.5,127.5C 33.1667,127.5 32.8333,127.5 32.5,127.5C 27.0745,128.856 21.7411,130.19 16.5,131.5C 15.6618,131.158 15.3284,130.492 15.5,129.5C 17.5529,129.598 19.2196,128.931 20.5,127.5C 23.4299,126.701 26.4299,126.368 29.5,126.5 Z"/></g>
<g><path style="opacity:1" fill="#6d7d73" d="M 139.5,123.5 C 139.842,122.662 140.508,122.328 141.5,122.5C 142.604,124.389 143.937,126.055 145.5,127.5C 145.167,128.5 144.5,129.167 143.5,129.5C 141.626,127.918 140.293,125.918 139.5,123.5 Z"/></g>
<g><path style="opacity:1" fill="#2b2f2f" d="M 139.5,123.5 C 140.293,125.918 141.626,127.918 143.5,129.5C 141.906,132.764 139.573,135.431 136.5,137.5C 135.957,137.44 135.624,137.107 135.5,136.5C 139.77,133.089 141.104,128.756 139.5,123.5 Z"/></g>
<g><path style="opacity:1" fill="#2e2a2b" d="M 32.5,127.5 C 32.5,129.5 32.5,131.5 32.5,133.5C 29.0023,134.813 25.3356,135.813 21.5,136.5C 19.5,135.167 17.8333,133.5 16.5,131.5C 21.7411,130.19 27.0745,128.856 32.5,127.5 Z"/></g>
<g><path style="opacity:0.875" fill="#41574e" d="M 25.5,140.5 C 23.8333,139.5 22.5,138.167 21.5,136.5C 25.3356,135.813 29.0023,134.813 32.5,133.5C 36.4631,132.56 40.4631,132.393 44.5,133C 37.4941,134.052 31.1607,136.552 25.5,140.5 Z"/></g>
<g><path style="opacity:1" fill="#3e2925" d="M 77.5,139.5 C 75.6287,140.797 73.6287,141.797 71.5,142.5C 71.1667,142.5 70.8333,142.5 70.5,142.5C 68.0108,142.702 65.6775,142.202 63.5,141C 63.8333,140.667 64.1667,140.333 64.5,140C 63.1007,138.938 62.1007,137.605 61.5,136C 61.2533,128.533 61.5866,121.033 62.5,113.5C 63.552,113.351 64.552,113.517 65.5,114C 68.157,116.959 70.8237,119.959 73.5,123C 72.6198,124.356 72.2865,125.856 72.5,127.5C 74.3417,127.277 76.175,126.943 78,126.5C 79.4038,126.509 80.5704,127.009 81.5,128C 79.4771,131.59 78.1438,135.424 77.5,139.5 Z"/></g>
<g><path style="opacity:1" fill="#4a2f28" d="M 76.5,127.5 C 77.5,127.5 78.5,127.5 79.5,127.5C 78.4909,130.049 77.6575,132.715 77,135.5C 75.5806,136.46 74.0806,137.293 72.5,138C 73.9928,139.156 73.8261,139.99 72,140.5C 71.0546,140.095 70.3879,139.428 70,138.5C 65.345,139.891 63.845,138.224 65.5,133.5C 65.0995,131.566 64.0995,130.066 62.5,129C 67.3514,128.826 72.0181,128.326 76.5,127.5 Z"/></g>
<g><path style="opacity:1" fill="#4a5e55" d="M 132.5,141.5 C 132.167,142.5 131.5,143.167 130.5,143.5C 127.823,141.54 124.823,140.04 121.5,139C 125.35,138.892 129.017,139.725 132.5,141.5 Z"/></g>
</svg>
